<?xml version="1.0" encoding="utf-8"?>
<!-- Generator: Adobe Illustrator 26.0.2, SVG Export Plug-In . SVG Version: 6.00 Build 0)  -->
<svg version="1.1" id="Layer_1" xmlns="http://www.w3.org/2000/svg" xmlns:xlink="http://www.w3.org/1999/xlink" x="0px" y="0px"
	 width="360px" height="200px" viewBox="0 0 360 200" style="enable-background:new 0 0 360 200;" xml:space="preserve">
<style type="text/css">
	.st0{fill:#142C4D;}
	.st1{opacity:0.3;}
	.st2{fill:#FAAA4F;stroke:#142C4D;stroke-width:2;stroke-miterlimit:10;}
	.st3{fill:#FAAA4F;}
	.st4{fill:#5656C1;}
</style>
<g id="streetBike_00000096739386362706501740000016973721196114051237_">
	<g id="streetPedals_00000067213695369734994300000012953231066720569767_">
		<g>
			<path class="st0" d="M198.5,92.6c0-0.4,0-0.8,0-1.2c0-0.1,0-0.2,0-0.3c0.4-0.1,0.6-0.4,0.6-0.8c0-0.3,0-0.7-0.1-1
				c0-0.4-0.4-0.7-0.8-0.7c-0.1-0.5-0.2-1-0.3-1.5c0.4-0.1,0.6-0.5,0.5-0.9c-0.1-0.3-0.2-0.7-0.3-1c-0.1-0.4-0.5-0.6-0.9-0.5
				c-0.2-0.5-0.4-0.9-0.6-1.4c0,0,0,0,0,0c0.4-0.2,0.5-0.6,0.3-1c-0.2-0.3-0.3-0.6-0.5-0.9c-0.2-0.4-0.7-0.5-1-0.3c0,0,0,0-0.1,0
				c-0.3-0.4-0.6-0.8-0.9-1.2c0,0,0,0,0.1-0.1c0.3-0.3,0.4-0.7,0.1-1.1c-0.2-0.3-0.5-0.5-0.7-0.8c-0.3-0.3-0.8-0.3-1.1,0
				c0,0-0.1,0-0.1,0.1c-0.4-0.3-0.7-0.7-1.1-1c0,0,0,0,0.1-0.1c0.2-0.3,0.2-0.8-0.2-1.1c-0.3-0.2-0.6-0.4-0.9-0.6
				c-0.3-0.2-0.8-0.1-1,0.2c0,0,0,0,0,0.1c-0.4-0.3-0.9-0.5-1.3-0.7c0,0,0,0,0,0c0.2-0.4,0-0.8-0.4-1c-0.3-0.1-0.6-0.3-1-0.4
				c-0.4-0.1-0.8,0-1,0.4c-0.5-0.2-1-0.3-1.5-0.4c0.1-0.4-0.2-0.8-0.6-0.8c-0.3-0.1-0.7-0.1-1-0.2c-0.4-0.1-0.8,0.2-0.9,0.6
				c-0.5-0.1-1-0.1-1.5-0.1v0c0-0.4-0.3-0.8-0.8-0.8c-0.4,0-0.7,0-1,0c-0.4,0-0.7,0.4-0.7,0.8v0c-0.5,0-1,0.1-1.5,0.2c0,0,0,0,0,0
				c-0.1-0.4-0.5-0.7-0.9-0.6c-0.3,0.1-0.7,0.2-1,0.2c-0.4,0.1-0.6,0.5-0.5,0.9c0,0,0,0,0,0c-0.5,0.2-1,0.3-1.4,0.5c0,0,0,0,0,0
				c-0.2-0.4-0.6-0.5-1-0.4c-0.3,0.1-0.6,0.3-0.9,0.5c-0.4,0.2-0.5,0.7-0.3,1c0,0,0,0,0,0c-0.4,0.2-0.9,0.5-1.3,0.8c0,0,0,0,0,0
				c-0.2-0.3-0.7-0.4-1-0.1c-0.3,0.2-0.5,0.4-0.8,0.7c-0.3,0.3-0.4,0.7-0.1,1.1c0,0,0,0,0,0c-0.4,0.3-0.7,0.7-1.1,1.1c0,0,0,0,0,0
				c-0.3-0.3-0.8-0.2-1.1,0.1c-0.2,0.3-0.4,0.5-0.7,0.8c-0.2,0.3-0.2,0.8,0.1,1.1c0,0,0,0,0,0c-0.3,0.4-0.6,0.8-0.8,1.3c0,0,0,0,0,0
				c-0.4-0.2-0.8-0.1-1,0.3c-0.2,0.3-0.3,0.6-0.5,0.9c-0.2,0.4,0,0.8,0.4,1c0,0,0,0,0,0c-0.2,0.5-0.4,0.9-0.5,1.4c0,0,0,0,0,0
				c-0.4-0.1-0.8,0.1-0.9,0.5c-0.1,0.3-0.2,0.7-0.2,1c-0.1,0.4,0.2,0.8,0.6,0.9h0c-0.1,0.5-0.2,1-0.2,1.5h0c-0.4,0-0.8,0.3-0.8,0.7
				c0,0.3,0,0.7,0,1v0.1c0,0.4,0.3,0.8,0.8,0.8h0c0,0.5,0.1,1,0.1,1.5h0c-0.4,0.1-0.7,0.5-0.6,0.9c0.1,0.3,0.1,0.7,0.2,1
				c0.1,0.3,0.4,0.6,0.7,0.6c0.1,0,0.1,0,0.2,0c0,0,0,0,0,0c0.1,0.5,0.3,1,0.4,1.4c0,0,0,0,0,0c-0.4,0.2-0.6,0.6-0.4,1
				c0.1,0.3,0.3,0.6,0.4,1c0.1,0.3,0.4,0.4,0.7,0.4c0.1,0,0.2,0,0.3-0.1c0,0,0,0,0,0c0.2,0.4,0.5,0.9,0.7,1.3c0,0,0,0,0,0
				c-0.3,0.2-0.4,0.7-0.2,1c0.2,0.3,0.4,0.6,0.6,0.8c0.1,0.2,0.4,0.3,0.6,0.3c0.2,0,0.3-0.1,0.5-0.2c0,0,0,0,0,0
				c0.3,0.4,0.7,0.8,1,1.1l0,0c-0.3,0.3-0.3,0.8,0,1.1c0.3,0.2,0.5,0.5,0.8,0.7c0.1,0.1,0.3,0.2,0.5,0.2c0.2,0,0.4-0.1,0.6-0.3
				c0,0,0,0,0,0c0.4,0.3,0.8,0.6,1.2,0.9c0,0,0,0,0,0c-0.2,0.4-0.1,0.8,0.3,1c0.3,0.2,0.6,0.3,0.9,0.5c0.1,0.1,0.2,0.1,0.4,0.1
				c0.3,0,0.5-0.1,0.7-0.4c0,0,0,0,0,0c0.5,0.2,0.9,0.4,1.4,0.6c0,0,0,0,0,0c-0.1,0.4,0.1,0.8,0.5,1c0.3,0.1,0.7,0.2,1,0.3
				c0.1,0,0.1,0,0.2,0c0.3,0,0.6-0.2,0.7-0.5c0,0,0,0,0,0c0.5,0.1,1,0.2,1.5,0.3c0,0,0,0,0,0c0,0.4,0.3,0.8,0.7,0.8
				c0.3,0,0.7,0.1,1,0.1h0c0.4,0,0.7-0.3,0.8-0.7v0h0.2c0.4,0,0.9,0,1.3-0.1c0.1,0.4,0.4,0.6,0.7,0.6c0,0,0.1,0,0.1,0
				c0.3,0,0.7-0.1,1-0.1c0.4-0.1,0.7-0.4,0.6-0.8c0.5-0.1,1-0.2,1.5-0.4c0.1,0.3,0.4,0.5,0.7,0.5c0.1,0,0.2,0,0.2,0
				c0.3-0.1,0.7-0.2,1-0.3c0.4-0.1,0.6-0.6,0.4-1c0,0,0,0,0,0c0.5-0.2,0.9-0.4,1.3-0.7c0,0,0,0,0,0c0.1,0.2,0.4,0.4,0.6,0.4
				c0.1,0,0.3,0,0.4-0.1c0.3-0.2,0.6-0.4,0.9-0.6c0.3-0.2,0.4-0.7,0.2-1c0,0,0,0-0.1-0.1c0.4-0.3,0.8-0.6,1.2-0.9c0,0,0,0.1,0.1,0.1
				c0.1,0.2,0.3,0.2,0.5,0.2c0.2,0,0.4-0.1,0.5-0.2c0.3-0.2,0.5-0.5,0.7-0.7c0.3-0.3,0.3-0.8,0-1.1c0,0,0,0-0.1-0.1
				c0.3-0.4,0.6-0.8,0.9-1.2c0,0,0,0,0.1,0.1c0.1,0.1,0.3,0.1,0.4,0.1c0.2,0,0.5-0.1,0.6-0.3c0.2-0.3,0.4-0.6,0.5-0.9
				c0.2-0.4,0.1-0.8-0.3-1c0,0,0,0,0,0c0.2-0.4,0.5-0.9,0.7-1.3c0,0,0,0,0,0c0.1,0,0.2,0,0.3,0c0.3,0,0.6-0.2,0.7-0.5
				c0.1-0.3,0.2-0.6,0.3-1c0.1-0.4-0.1-0.8-0.5-0.9c0.1-0.5,0.3-1,0.4-1.5h0c0.4,0,0.7-0.3,0.7-0.6c0.1-0.3,0.1-0.7,0.1-1
				C199.1,93,198.8,92.7,198.5,92.6z M181,76.7c5.7,0.5,10.4,4.1,12.6,9.1l-1.4,0.4c-0.1-0.2-0.2-0.4-0.3-0.6c0,0,0,0,0,0
				c0.3-0.1,0.4-0.5,0.2-0.7c-0.1-0.2-0.2-0.4-0.4-0.7c-0.1-0.3-0.5-0.3-0.7-0.2c0,0,0,0,0,0c-0.2-0.3-0.4-0.6-0.6-0.9
				c0,0,0,0,0.1,0c0.2-0.2,0.2-0.5,0.1-0.8c-0.2-0.2-0.3-0.4-0.5-0.6c-0.2-0.2-0.5-0.2-0.8,0c0,0,0,0-0.1,0.1
				c-0.3-0.2-0.5-0.5-0.8-0.7c0,0,0,0,0,0c0.2-0.2,0.1-0.6-0.1-0.8c-0.2-0.1-0.4-0.3-0.6-0.4c-0.2-0.2-0.6-0.1-0.7,0.2c0,0,0,0,0,0
				c-0.3-0.2-0.6-0.4-0.9-0.5c0,0,0,0,0,0c0.1-0.3,0-0.6-0.3-0.7c-0.2-0.1-0.5-0.2-0.7-0.3c-0.3-0.1-0.6,0-0.7,0.3
				c-0.3-0.1-0.7-0.2-1-0.3c0-0.3-0.1-0.5-0.4-0.6c-0.2,0-0.5-0.1-0.7-0.1c-0.3,0-0.5,0.1-0.6,0.4c-0.2,0-0.4,0-0.6-0.1V76.7z
				 M181,80.9c3.8,0.4,6.9,2.8,8.5,6l-1,0.3c0.2-0.1,0.2-0.3,0.1-0.5c-0.1-0.2-0.2-0.3-0.2-0.5c-0.1-0.2-0.3-0.2-0.5-0.1
				c0,0,0,0,0,0c-0.1-0.2-0.3-0.4-0.4-0.6c0,0,0,0,0,0c0.2-0.1,0.2-0.4,0.1-0.5c-0.1-0.1-0.2-0.3-0.4-0.4c-0.1-0.2-0.4-0.2-0.5,0
				c0,0,0,0,0,0c-0.2-0.2-0.4-0.3-0.6-0.5c0,0,0,0,0,0c0.1-0.2,0.1-0.4-0.1-0.5c-0.1-0.1-0.3-0.2-0.4-0.3c-0.2-0.1-0.4-0.1-0.5,0.1
				c0,0,0,0,0,0c-0.2-0.1-0.4-0.3-0.7-0.4c0,0,0,0,0,0c0.1-0.2,0-0.4-0.2-0.5c-0.2-0.1-0.3-0.1-0.5-0.2c-0.2-0.1-0.4,0-0.5,0.2
				c-0.2-0.1-0.5-0.2-0.7-0.2c0-0.2-0.1-0.4-0.3-0.4c-0.2,0-0.3-0.1-0.5-0.1c-0.2,0-0.4,0.1-0.4,0.3c0,0-0.1,0-0.1,0V80.9z
				 M169.3,89.3l1.4,0.4c0,0.2-0.1,0.5-0.1,0.7h0c-0.2,0-0.4,0.1-0.4,0.4c0,0.2,0,0.4,0,0.5v0c0,0.2,0.2,0.4,0.4,0.4h0
				c0,0.3,0,0.5,0.1,0.8h0c-0.2,0-0.3,0.2-0.3,0.4c0,0.2,0.1,0.3,0.1,0.5c0,0.2,0.2,0.3,0.4,0.3c0,0,0.1,0,0.1,0h0
				c0.1,0.2,0.1,0.5,0.2,0.7l0,0c-0.2,0.1-0.3,0.3-0.2,0.5c0.1,0.2,0.1,0.3,0.2,0.5c0.1,0.1,0.2,0.2,0.3,0.2c0.1,0,0.1,0,0.2,0
				c0,0,0,0,0,0c0.1,0.2,0.2,0.4,0.4,0.7c0,0,0,0,0,0c-0.2,0.1-0.2,0.4-0.1,0.5c0.1,0.1,0.2,0.3,0.3,0.4c0.1,0.1,0.2,0.2,0.3,0.2
				c0.1,0,0.2,0,0.2-0.1c0,0,0,0,0,0c0.1,0.1,0.1,0.1,0.2,0.2l-1,1.3c-1.8-1.9-2.8-4.5-2.8-7.3C169.1,90.8,169.2,90,169.3,89.3z
				 M175,88.4l-1.8-0.5c1.1-2,3-3.5,5.3-3.9v1.7C177,86.1,175.7,87.1,175,88.4z M172.4,90.2l1.9,0.6c0,0.1,0,0.2,0,0.3
				c0,1.3,0.4,2.4,1.2,3.4l-1.5,1.8c-1.1-1.3-1.7-3-1.7-4.8C172.3,91,172.3,90.6,172.4,90.2z M178.3,82.1
				C178.3,82.1,178.3,82.1,178.3,82.1c0-0.2-0.2-0.3-0.5-0.3c-0.2,0-0.3,0.1-0.5,0.1c-0.2,0.1-0.3,0.3-0.3,0.5v0
				c-0.2,0.1-0.5,0.2-0.7,0.3c0,0,0,0,0,0c-0.1-0.2-0.3-0.3-0.5-0.2c-0.2,0.1-0.3,0.2-0.5,0.2c-0.2,0.1-0.3,0.3-0.2,0.5c0,0,0,0,0,0
				c-0.2,0.1-0.4,0.3-0.6,0.4c0,0,0,0,0,0c-0.1-0.2-0.4-0.2-0.5-0.1c-0.1,0.1-0.3,0.2-0.4,0.3c-0.2,0.1-0.2,0.4,0,0.5c0,0,0,0,0,0
				c-0.2,0.2-0.4,0.4-0.5,0.5c0,0,0,0,0,0c-0.2-0.1-0.4-0.1-0.5,0c-0.1,0.1-0.2,0.3-0.3,0.4c-0.1,0.2-0.1,0.4,0.1,0.5c0,0,0,0,0,0
				c-0.1,0.2-0.3,0.4-0.4,0.6c0,0,0,0,0,0c-0.2-0.1-0.4,0-0.5,0.2c-0.1,0.2-0.2,0.3-0.2,0.5v0l-1-0.3c1.5-3.3,4.7-5.6,8.4-6.1v1.2
				C178.5,82.1,178.4,82.1,178.3,82.1z M174.8,99.2C174.8,99.2,174.9,99.2,174.8,99.2C174.9,99.2,174.9,99.2,174.8,99.2
				c-0.1,0.2,0,0.4,0.2,0.5c0.1,0.1,0.3,0.2,0.5,0.3c0.1,0,0.1,0,0.2,0c0.1,0,0.3-0.1,0.3-0.2v0c0.2,0.1,0.5,0.2,0.7,0.3v0
				c-0.1,0.2,0,0.4,0.2,0.5c0.2,0.1,0.3,0.1,0.5,0.2c0,0,0.1,0,0.1,0c0.2,0,0.3-0.1,0.4-0.3c0,0,0,0,0,0c0.2,0.1,0.5,0.1,0.8,0.1
				c0,0,0,0,0,0c0,0.2,0.1,0.4,0.3,0.4c0.2,0,0.3,0,0.5,0h0c0.2,0,0.4-0.2,0.4-0.4v0h0.1c0.2,0,0.4,0,0.7,0c0,0.2,0.2,0.3,0.4,0.3
				c0,0,0,0,0,0c0.2,0,0.3,0,0.5-0.1c0.2,0,0.3-0.2,0.3-0.4c0.2-0.1,0.5-0.1,0.7-0.2c0.1,0.2,0.2,0.2,0.4,0.2c0,0,0.1,0,0.1,0
				c0.2-0.1,0.3-0.1,0.5-0.2c0.2-0.1,0.3-0.3,0.2-0.5c0,0,0,0,0,0c0.2-0.1,0.5-0.2,0.7-0.3c0,0,0,0,0,0c0.1,0.1,0.2,0.2,0.3,0.2
				c0.1,0,0.1,0,0.2-0.1c0,0,0,0,0.1,0l0.6,0.8c-1.7,1.1-3.7,1.8-5.9,1.8c-2.2,0-4.3-0.7-6-1.8L174.8,99.2z M185.7,96.4l-1.5-1.9
				c0.7-0.9,1.2-2.1,1.2-3.4c0-0.1,0-0.2,0-0.3l2.1-0.6c0.1,0.4,0.1,0.9,0.1,1.3C187.5,93.3,186.8,95.1,185.7,96.4z M181,84
				c2.4,0.4,4.4,1.8,5.5,3.8l-2,0.6c-0.7-1.3-2-2.3-3.5-2.6V84z M182.2,96.1l1.6,1.9c-1.1,0.7-2.5,1.1-3.9,1.1c-1.5,0-2.8-0.4-4-1.1
				l1.5-1.9c0.7,0.4,1.5,0.6,2.4,0.6S181.4,96.4,182.2,96.1z M178.5,76.7v1.6c-0.3,0-0.6,0.1-0.8,0.1c0,0,0,0,0,0
				c-0.1-0.3-0.4-0.5-0.6-0.4c-0.2,0.1-0.5,0.1-0.7,0.2c-0.3,0.1-0.5,0.4-0.4,0.7c0,0,0,0,0,0c-0.3,0.1-0.7,0.2-1,0.4c0,0,0,0,0,0
				c-0.1-0.3-0.4-0.4-0.7-0.3c-0.2,0.1-0.5,0.2-0.7,0.3c-0.3,0.1-0.4,0.5-0.2,0.7c0,0,0,0,0,0c-0.3,0.2-0.6,0.4-0.9,0.6c0,0,0,0,0,0
				c-0.2-0.2-0.5-0.3-0.8-0.1c-0.2,0.1-0.4,0.3-0.6,0.5c-0.2,0.2-0.2,0.5-0.1,0.8c0,0,0,0,0,0c-0.3,0.2-0.5,0.5-0.8,0.8c0,0,0,0,0,0
				c-0.2-0.2-0.6-0.2-0.8,0.1c-0.2,0.2-0.3,0.4-0.5,0.6c-0.2,0.2-0.1,0.6,0.1,0.8c0,0,0,0,0,0c-0.2,0.3-0.4,0.6-0.6,0.9c0,0,0,0,0,0
				c-0.3-0.1-0.6,0-0.7,0.2c-0.1,0.2-0.2,0.4-0.3,0.7c-0.1,0.2,0,0.5,0.2,0.7l-1.8-0.5C168.1,80.7,172.9,77.1,178.5,76.7z
				 M169.2,102.2c-2.7-2.7-4.4-6.5-4.4-10.6c0-1.2,0.1-2.4,0.4-3.5l1.4,0.4c0,0.2,0.2,0.5,0.4,0.5h0c-0.1,0.4-0.1,0.7-0.1,1.1h0
				c-0.3,0-0.6,0.2-0.6,0.5c0,0.2,0,0.5,0,0.7v0.1c0,0.3,0.2,0.5,0.5,0.5h0c0,0.4,0,0.7,0.1,1.1h0c-0.3,0-0.5,0.3-0.4,0.6
				c0,0.2,0.1,0.5,0.1,0.7c0,0.2,0.3,0.4,0.5,0.4c0,0,0.1,0,0.1,0c0,0,0,0,0,0c0.1,0.3,0.2,0.7,0.3,1c0,0,0,0,0,0
				c-0.3,0.1-0.4,0.4-0.3,0.7c0.1,0.2,0.2,0.5,0.3,0.7c0.1,0.2,0.3,0.3,0.5,0.3c0.1,0,0.2,0,0.2-0.1c0,0,0,0,0,0
				c0.2,0.3,0.3,0.6,0.5,0.9c0,0,0,0,0,0c-0.2,0.2-0.3,0.5-0.1,0.7c0.1,0.2,0.3,0.4,0.4,0.6c0.1,0.1,0.3,0.2,0.4,0.2
				c0.1,0,0.2,0,0.3-0.1c0,0,0,0,0,0c0.2,0.3,0.4,0.5,0.7,0.7L169.2,102.2z M179.8,106.6c-3.2,0-6.2-1-8.7-2.8l1.3-1.7
				c0.1,0.1,0.2,0.2,0.4,0.2c0,0,0,0,0,0c-0.1,0.3-0.1,0.6,0.2,0.7c0.2,0.1,0.4,0.2,0.6,0.4c0.1,0,0.2,0.1,0.2,0.1
				c0.2,0,0.4-0.1,0.5-0.3c0,0,0,0,0,0c0.3,0.1,0.7,0.3,1,0.4c0,0,0,0,0,0c-0.1,0.3,0.1,0.6,0.3,0.7c0.2,0.1,0.5,0.2,0.7,0.2
				c0,0,0.1,0,0.1,0c0.2,0,0.5-0.2,0.5-0.4c0,0,0,0,0,0c0.3,0.1,0.7,0.2,1.1,0.2c0,0,0,0,0,0c0,0.3,0.2,0.6,0.5,0.6
				c0.2,0,0.5,0,0.7,0.1h0c0.3,0,0.5-0.2,0.5-0.5v0h0.1c0.3,0,0.6,0,0.9,0c0,0.3,0.3,0.5,0.5,0.5c0,0,0,0,0.1,0
				c0.2,0,0.5-0.1,0.7-0.1c0.3,0,0.5-0.3,0.4-0.6c0.4-0.1,0.7-0.2,1-0.3c0.1,0.2,0.3,0.4,0.5,0.4c0.1,0,0.1,0,0.2,0
				c0.2-0.1,0.5-0.2,0.7-0.2c0.3-0.1,0.4-0.4,0.3-0.7c0,0,0,0,0,0c0.3-0.1,0.6-0.3,1-0.5c0,0,0,0,0,0c0.1,0.2,0.3,0.3,0.5,0.3
				c0.1,0,0.2,0,0.3-0.1c0.2-0.1,0.4-0.2,0.5-0.3l0.8,1C186,105.6,183,106.6,179.8,106.6z M187.6,98.8l-0.6-0.7c0,0,0,0,0-0.1
				c0.1-0.2,0.1-0.4,0-0.5c0,0,0,0,0,0c0.2-0.2,0.3-0.4,0.5-0.6c0,0,0,0,0,0c0.1,0,0.1,0.1,0.2,0.1c0.1,0,0.2-0.1,0.3-0.2
				c0.1-0.1,0.2-0.3,0.3-0.4c0.1-0.2,0-0.4-0.1-0.5c0,0,0,0,0,0c0.1-0.2,0.2-0.4,0.3-0.7c0,0,0,0,0,0c0,0,0.1,0,0.1,0
				c0.1,0,0.3-0.1,0.4-0.2c0.1-0.2,0.1-0.3,0.2-0.5c0.1-0.2,0-0.4-0.2-0.5c0.1-0.2,0.1-0.5,0.2-0.7h0c0.2,0,0.3-0.1,0.4-0.3
				c0-0.2,0-0.4,0.1-0.5c0-0.2-0.1-0.4-0.3-0.4c0-0.2,0-0.4,0-0.6c0,0,0-0.1,0-0.2c0.2,0,0.3-0.2,0.3-0.4c0-0.2,0-0.3,0-0.5
				c0-0.2-0.2-0.3-0.4-0.3c0-0.1,0-0.2-0.1-0.3l1.1-0.3c0.2,0.7,0.2,1.5,0.2,2.2C190.5,94.4,189.4,96.9,187.6,98.8z M190.4,102.2
				l-0.8-0.9c0.2-0.1,0.3-0.3,0.4-0.4c0.2-0.2,0.2-0.6,0-0.8c0,0,0,0,0,0c0.2-0.3,0.5-0.5,0.7-0.8c0,0,0,0,0,0
				c0.1,0.1,0.2,0.1,0.3,0.1c0.2,0,0.3-0.1,0.5-0.2c0.1-0.2,0.3-0.4,0.4-0.6c0.1-0.2,0.1-0.6-0.2-0.7c0,0,0,0,0,0
				c0.2-0.3,0.3-0.6,0.5-1c0,0,0,0,0,0c0.1,0,0.1,0,0.2,0c0.2,0,0.4-0.1,0.5-0.4c0.1-0.2,0.2-0.5,0.2-0.7c0.1-0.3-0.1-0.6-0.3-0.7
				c0.1-0.3,0.2-0.7,0.3-1.1h0c0.3,0,0.5-0.2,0.5-0.5c0-0.2,0.1-0.5,0.1-0.7c0-0.3-0.2-0.5-0.4-0.6c0-0.3,0-0.6,0-0.9
				c0-0.1,0-0.1,0-0.2c0.3,0,0.5-0.3,0.5-0.6c0-0.2,0-0.5-0.1-0.7c0-0.3-0.3-0.5-0.5-0.5c0-0.3-0.1-0.6-0.2-0.8l1.4-0.4
				c0.3,1.1,0.4,2.3,0.4,3.5C194.8,95.7,193.1,99.5,190.4,102.2z"/>
		</g>
		<g class="st1">
			<path d="M198.5,92.6c0-0.4,0-0.8,0-1.2c0-0.1,0-0.2,0-0.3c0.4-0.1,0.6-0.4,0.6-0.8c0-0.3,0-0.7-0.1-1c0-0.4-0.4-0.7-0.8-0.7
				c-0.1-0.5-0.2-1-0.3-1.5c0.4-0.1,0.6-0.5,0.5-0.9c-0.1-0.3-0.2-0.7-0.3-1c-0.1-0.4-0.5-0.6-0.9-0.5c-0.2-0.5-0.4-0.9-0.6-1.4
				c0,0,0,0,0,0c0.4-0.2,0.5-0.6,0.3-1c-0.1-0.2-0.2-0.4-0.3-0.6l-4.4,1.7c0.5,0.7,0.9,1.5,1.3,2.3l-1.4,0.4
				c-0.1-0.2-0.2-0.4-0.3-0.6c0,0,0,0,0,0c0.3-0.1,0.4-0.5,0.2-0.7c-0.1-0.2-0.2-0.4-0.4-0.7c-0.1-0.3-0.5-0.3-0.7-0.2c0,0,0,0,0,0
				c0,0-0.1-0.1-0.1-0.1l-2.6,1c0.5,0.6,0.9,1.3,1.2,2l-1,0.3c0.2-0.1,0.2-0.3,0.1-0.5c-0.1-0.2-0.2-0.3-0.2-0.5
				c-0.1-0.2-0.3-0.2-0.5-0.1c0,0,0,0,0,0c-0.1-0.2-0.3-0.4-0.4-0.6c0,0,0,0,0,0c0.1-0.1,0.1-0.2,0.1-0.3l-2.3,0.9
				c0.5,0.5,0.9,1.1,1.3,1.7l-2,0.6c-0.3-0.6-0.7-1.1-1.2-1.5l-9.6,3.7l0.6,0.2c0,0.1,0,0.2,0,0.3c0,1.3,0.4,2.4,1.2,3.4l-1.5,1.8
				c-1.1-1.3-1.7-3-1.7-4.8c0-0.1,0-0.2,0-0.3l-1.6,0.6c0,0.2,0,0.5,0.1,0.7h0c-0.2,0-0.3,0.2-0.3,0.4c0,0.2,0.1,0.4,0.1,0.5
				c0,0.2,0.2,0.3,0.4,0.3c0,0,0.1,0,0.1,0h0c0.1,0.2,0.1,0.5,0.2,0.7l0,0c-0.2,0.1-0.3,0.3-0.2,0.5c0.1,0.2,0.1,0.3,0.2,0.5
				c0.1,0.1,0.2,0.2,0.3,0.2c0.1,0,0.1,0,0.2,0c0,0,0,0,0,0c0.1,0.2,0.2,0.4,0.4,0.7c0,0,0,0,0,0c-0.2,0.1-0.2,0.4-0.1,0.5
				c0.1,0.1,0.2,0.3,0.3,0.4c0.1,0.1,0.2,0.1,0.3,0.1c0.1,0,0.2,0,0.2-0.1c0,0,0,0,0,0c0.1,0.1,0.1,0.1,0.2,0.2l-1,1.3
				c-1.6-1.7-2.6-3.9-2.8-6.4l-2.7,1c0,0.1,0,0.1,0,0.2c0,0.2,0.1,0.5,0.1,0.7c0.1,0.2,0.3,0.4,0.5,0.4c0,0,0.1,0,0.1,0c0,0,0,0,0,0
				c0.1,0.4,0.2,0.7,0.3,1c0,0,0,0,0,0c-0.3,0.1-0.4,0.4-0.3,0.7c0.1,0.2,0.2,0.5,0.3,0.7c0.1,0.2,0.3,0.3,0.5,0.3
				c0.1,0,0.2,0,0.2,0c0,0,0,0,0,0c0.2,0.3,0.3,0.6,0.5,0.9c0,0,0,0,0,0c-0.2,0.2-0.3,0.5-0.1,0.7c0.1,0.2,0.3,0.4,0.4,0.6
				c0.1,0.1,0.3,0.2,0.4,0.2c0.1,0,0.2,0,0.3-0.1c0,0,0,0,0,0c0.2,0.3,0.4,0.5,0.7,0.7l-1.4,1.7c-2.2-2.2-3.7-5-4.2-8.2l-3.8,1.5
				c0,0,0,0.1,0,0.1c0.1,0.3,0.4,0.6,0.7,0.6c0.1,0,0.1,0,0.2,0c0,0,0,0,0,0c0.1,0.5,0.3,1,0.4,1.4c0,0,0,0,0,0
				c-0.4,0.2-0.6,0.6-0.4,1c0.1,0.3,0.3,0.6,0.4,1c0.1,0.3,0.4,0.4,0.7,0.4c0.1,0,0.2,0,0.3-0.1c0,0,0,0,0,0
				c0.2,0.4,0.5,0.9,0.7,1.3c0,0,0,0,0,0c-0.3,0.2-0.4,0.7-0.2,1c0.2,0.3,0.4,0.6,0.6,0.8c0.1,0.2,0.4,0.3,0.6,0.3
				c0.2,0,0.3,0,0.5-0.2c0,0,0,0,0,0c0.3,0.4,0.7,0.8,1,1.1l0,0c-0.3,0.3-0.3,0.8,0,1.1c0.3,0.2,0.5,0.5,0.8,0.7
				c0.1,0.1,0.3,0.2,0.5,0.2c0.2,0,0.4-0.1,0.6-0.3c0,0,0,0,0,0c0.4,0.3,0.8,0.6,1.2,0.9c0,0,0,0,0,0c-0.2,0.4-0.1,0.8,0.3,1
				c0.3,0.2,0.6,0.4,0.9,0.5c0.1,0.1,0.2,0.1,0.4,0.1c0.3,0,0.5-0.1,0.7-0.4c0,0,0,0,0,0c0.5,0.2,0.9,0.4,1.4,0.6c0,0,0,0,0,0
				c-0.1,0.4,0.1,0.8,0.5,1c0.3,0.1,0.7,0.2,1,0.3c0.1,0,0.1,0,0.2,0c0.3,0,0.6-0.2,0.7-0.5c0,0,0,0,0,0c0.5,0.1,1,0.2,1.5,0.3
				c0,0,0,0,0,0c0,0.4,0.3,0.8,0.7,0.8c0.3,0,0.7,0.1,1,0.1h0c0.4,0,0.7-0.3,0.8-0.7v0h0.2c0.4,0,0.9,0,1.3,0
				c0.1,0.4,0.4,0.6,0.7,0.6c0,0,0.1,0,0.1,0c0.3,0,0.7-0.1,1-0.1c0.4-0.1,0.7-0.4,0.6-0.8c0.5-0.1,1-0.2,1.5-0.4
				c0.1,0.3,0.4,0.5,0.7,0.5c0.1,0,0.2,0,0.2,0c0.3-0.1,0.7-0.2,1-0.3c0.4-0.1,0.6-0.6,0.4-1c0,0,0,0,0,0c0.5-0.2,0.9-0.4,1.3-0.7
				c0,0,0,0,0,0c0.1,0.2,0.4,0.4,0.7,0.4c0.1,0,0.3,0,0.4-0.1c0.3-0.2,0.6-0.4,0.9-0.6c0.3-0.2,0.4-0.7,0.2-1c0,0,0,0-0.1-0.1
				c0.4-0.3,0.8-0.6,1.2-0.9c0,0,0,0.1,0.1,0.1c0.1,0.2,0.3,0.2,0.5,0.2c0.2,0,0.4-0.1,0.5-0.2c0.3-0.2,0.5-0.5,0.7-0.7
				c0.3-0.3,0.3-0.8,0-1.1c0,0,0,0-0.1-0.1c0.3-0.4,0.6-0.8,0.9-1.2c0,0,0,0,0.1,0.1c0.1,0.1,0.3,0.1,0.4,0.1c0.2,0,0.5-0.1,0.6-0.3
				c0.2-0.3,0.4-0.6,0.5-0.9c0.2-0.4,0.1-0.8-0.3-1c0,0,0,0,0,0c0.2-0.4,0.5-0.9,0.7-1.3c0,0,0,0,0,0c0.1,0,0.2,0.1,0.3,0.1
				c0.3,0,0.6-0.2,0.7-0.5c0.1-0.3,0.2-0.6,0.3-1c0.1-0.4-0.1-0.8-0.5-0.9c0.1-0.5,0.3-1,0.4-1.5h0c0.4,0,0.7-0.3,0.7-0.6
				c0.1-0.3,0.1-0.7,0.1-1C199.1,93,198.8,92.7,198.5,92.6z M185.3,91.1c0-0.1,0-0.2,0-0.3l2.1-0.6c0.1,0.4,0.1,0.9,0.1,1.3
				c0,1.9-0.7,3.6-1.8,4.9l-1.5-1.9C184.8,93.6,185.3,92.4,185.3,91.1z M177.4,96.1c0.7,0.4,1.5,0.5,2.4,0.5s1.7-0.2,2.4-0.5
				l1.6,1.9c-1.1,0.7-2.5,1.1-3.9,1.1c-1.5,0-2.8-0.4-4-1.1L177.4,96.1z M174.8,99.2C174.8,99.2,174.9,99.2,174.8,99.2
				C174.9,99.2,174.9,99.2,174.8,99.2c-0.1,0.2,0,0.4,0.2,0.5c0.2,0.1,0.3,0.2,0.5,0.3c0.1,0,0.1,0,0.2,0c0.1,0,0.3-0.1,0.3-0.2v0
				c0.2,0.1,0.5,0.2,0.7,0.3v0c-0.1,0.2,0,0.4,0.2,0.5c0.2,0.1,0.3,0.1,0.5,0.2c0,0,0.1,0,0.1,0c0.2,0,0.3-0.1,0.4-0.3c0,0,0,0,0,0
				c0.2,0.1,0.5,0.1,0.8,0.1c0,0,0,0,0,0c0,0.2,0.1,0.4,0.3,0.4c0.2,0,0.3,0,0.5,0h0c0.2,0,0.4-0.2,0.4-0.4v0h0.1c0.2,0,0.4,0,0.7,0
				c0,0.2,0.2,0.3,0.4,0.3c0,0,0,0,0,0c0.2,0,0.3,0,0.5-0.1c0.2,0,0.3-0.2,0.3-0.4c0.2,0,0.5-0.1,0.7-0.2c0.1,0.2,0.2,0.2,0.4,0.2
				c0,0,0.1,0,0.1,0c0.2-0.1,0.3-0.1,0.5-0.2c0.2-0.1,0.3-0.3,0.2-0.5c0,0,0,0,0,0c0.2-0.1,0.5-0.2,0.7-0.3c0,0,0,0,0,0
				c0.1,0.1,0.2,0.2,0.3,0.2c0.1,0,0.1,0,0.2-0.1c0,0,0,0,0.1,0l0.6,0.8c-1.7,1.1-3.7,1.8-5.9,1.8c-2.2,0-4.3-0.7-6-1.8L174.8,99.2z
				 M179.8,106.6c-3.2,0-6.2-1-8.7-2.8l1.3-1.7c0.1,0.1,0.2,0.2,0.4,0.2c0,0,0,0,0,0c-0.2,0.3-0.1,0.6,0.2,0.7
				c0.2,0.1,0.4,0.2,0.7,0.4c0.1,0,0.2,0.1,0.2,0.1c0.2,0,0.4-0.1,0.5-0.3c0,0,0,0,0,0c0.3,0.2,0.7,0.3,1,0.4c0,0,0,0,0,0
				c-0.1,0.3,0.1,0.6,0.3,0.7c0.2,0.1,0.5,0.1,0.7,0.2c0.1,0,0.1,0,0.1,0c0.2,0,0.5-0.2,0.5-0.4c0,0,0,0,0,0
				c0.3,0.1,0.7,0.1,1.1,0.2c0,0,0,0,0,0c0,0.3,0.2,0.6,0.5,0.6c0.2,0,0.5,0,0.7,0.1h0c0.3,0,0.5-0.2,0.5-0.5v0h0.1
				c0.3,0,0.6,0,0.9,0c0,0.3,0.3,0.5,0.5,0.5c0,0,0,0,0.1,0c0.2,0,0.5-0.1,0.7-0.1c0.3,0,0.5-0.3,0.4-0.6c0.3-0.1,0.7-0.2,1.1-0.3
				c0.1,0.2,0.3,0.4,0.5,0.4c0.1,0,0.1,0,0.2,0c0.2-0.1,0.5-0.2,0.7-0.2c0.3-0.1,0.4-0.4,0.3-0.7c0,0,0,0,0,0c0.3-0.1,0.6-0.3,1-0.5
				c0,0,0,0,0,0c0.1,0.2,0.3,0.3,0.5,0.3c0.1,0,0.2,0,0.3-0.1c0.2-0.1,0.3-0.2,0.5-0.3l0.8,1C186,105.6,183,106.6,179.8,106.6z
				 M187.6,98.8l-0.6-0.7c0,0,0,0,0.1,0c0.1-0.2,0.1-0.4,0-0.5c0,0,0,0,0,0c0.2-0.2,0.3-0.4,0.5-0.6c0,0,0,0,0,0
				c0.1,0,0.1,0.1,0.2,0.1c0.1,0,0.2-0.1,0.3-0.2c0.1-0.1,0.2-0.3,0.3-0.4c0.1-0.2,0-0.4-0.1-0.5c0,0,0,0,0,0
				c0.1-0.2,0.2-0.5,0.3-0.7c0,0,0,0,0,0c0,0,0.1,0,0.1,0c0.2,0,0.3-0.1,0.4-0.2c0.1-0.2,0.1-0.3,0.2-0.5c0.1-0.2,0-0.4-0.2-0.5
				c0.1-0.2,0.1-0.5,0.2-0.7h0c0.2,0,0.3-0.1,0.4-0.3c0-0.2,0.1-0.4,0.1-0.5c0-0.2-0.1-0.4-0.3-0.4c0-0.2,0-0.4,0-0.6
				c0-0.1,0-0.1,0-0.2c0.2,0,0.3-0.2,0.3-0.4c0-0.2,0-0.3,0-0.5c0-0.2-0.2-0.3-0.4-0.3c0-0.1,0-0.2-0.1-0.3l1.1-0.3
				c0.2,0.7,0.2,1.5,0.2,2.2C190.5,94.4,189.4,96.9,187.6,98.8z M190.4,102.2l-0.8-0.9c0.2-0.1,0.3-0.3,0.4-0.4
				c0.2-0.2,0.2-0.6,0-0.8c0,0,0,0-0.1,0c0.2-0.3,0.5-0.5,0.7-0.8c0,0,0,0,0,0c0.1,0.1,0.2,0.1,0.3,0.1c0.2,0,0.3-0.1,0.5-0.2
				c0.1-0.2,0.3-0.4,0.4-0.6c0.2-0.2,0.1-0.6-0.2-0.7c0,0,0,0,0,0c0.2-0.3,0.3-0.6,0.5-1c0,0,0,0,0,0c0.1,0,0.1,0,0.2,0
				c0.2,0,0.4-0.1,0.5-0.4c0.1-0.2,0.2-0.5,0.2-0.7c0.1-0.3-0.1-0.6-0.3-0.7c0.1-0.3,0.2-0.7,0.3-1.1h0c0.3,0,0.5-0.2,0.5-0.5
				c0-0.2,0.1-0.5,0.1-0.7c0-0.3-0.2-0.5-0.4-0.6c0-0.3,0-0.6,0-0.9c0-0.1,0-0.1,0-0.2c0.3,0,0.5-0.3,0.5-0.6c0-0.2,0-0.5-0.1-0.7
				c0-0.3-0.3-0.5-0.5-0.5c0-0.3-0.1-0.5-0.2-0.8l1.4-0.4c0.3,1.1,0.4,2.3,0.4,3.5C194.8,95.7,193.1,99.5,190.4,102.2z"/>
		</g>
		<path class="st2" d="M186.5,107.4"/>
		<g>
			<g>
				<g>
					<path class="st3" d="M179.9,123.3c-1.9,0-3.5-1.5-3.5-3.3V89.5c0-1.8,1.6-3.3,3.5-3.3c1.9,0,3.5,1.5,3.5,3.3V120
						C183.4,121.8,181.8,123.3,179.9,123.3z"/>
					<path class="st0" d="M179.9,87.3c1.4,0,2.5,1,2.5,2.3V120c0,1.2-1.1,2.3-2.5,2.3s-2.5-1-2.5-2.3V89.5
						C177.4,88.3,178.5,87.3,179.9,87.3 M179.9,85.3c-2.5,0-4.5,1.9-4.5,4.3V120c0,2.4,2,4.3,4.5,4.3s4.5-1.9,4.5-4.3V89.5
						C184.4,87.2,182.3,85.3,179.9,85.3L179.9,85.3z"/>
				</g>
			</g>
			<g class="st1">
				<path d="M182.4,113.1v6.9c0,1.2-1.1,2.3-2.5,2.3s-2.5-1-2.5-2.3v-6.7L182.4,113.1z"/>
			</g>
			<g>
				<path class="st4" d="M177.9,127.8c-3.3,0-6-2.7-6-6c0-1.4,1.1-2.5,2.5-2.5h11.5c1.4,0,2.5,1.1,2.5,2.5c0,3.3-2.7,6-6,6H177.9z"
					/>
				<path class="st0" d="M185.9,120.3c0.8,0,1.5,0.7,1.5,1.5v0c0,2.8-2.2,5-5,5h-4.5c-2.8,0-5-2.2-5-5v0c0-0.8,0.7-1.5,1.5-1.5
					H185.9 M185.9,118.2h-11.5c-2,0-3.5,1.6-3.5,3.5c0,3.9,3.2,7.1,7.1,7.1h4.5c3.9,0,7.1-3.2,7.1-7.1
					C189.4,119.8,187.8,118.2,185.9,118.2L185.9,118.2z"/>
			</g>
			<g class="st1">
				<path d="M187,123.7c-0.3,0.6-0.6,1.1-1.1,1.6c-0.9,0.9-2.2,1.5-3.5,1.5h-4.5c-2.1,0-3.8-1.2-4.6-3l0,0c0.3-0.3,0.6-0.4,1.1-0.4
					h11.5C186.3,123.3,186.7,123.5,187,123.7z"/>
			</g>
		</g>
		<circle cx="179.9" cy="90.3" r="2"/>
	</g>
</g>
</svg>
