<?xml version="1.0" encoding="utf-8"?>
<!-- Generator: Adobe Illustrator 26.0.2, SVG Export Plug-In . SVG Version: 6.00 Build 0)  -->
<svg version="1.1" id="Layer_1" xmlns="http://www.w3.org/2000/svg" xmlns:xlink="http://www.w3.org/1999/xlink" x="0px" y="0px"
	 width="360px" height="200px" viewBox="0 0 360 200" style="enable-background:new 0 0 360 200;" xml:space="preserve">
<style type="text/css">
	.st0{fill:#AEDCDD;}
	.st1{fill:#142C4D;}
	.st2{opacity:0.2;}
	.st3{fill:#EE0000;}
	.st4{opacity:0.3;}
	.st5{fill:#FAAA4F;}
	.st6{fill:#030B21;}
</style>
<g id="wagonBike_00000091696163684357955590000005751246055069764013_">
	<g id="wagonPedals_00000139994700885170203710000011273127284493064884_">
		<g>
			<path class="st0" d="M180,109.7c-9.9,0-18-8.1-18-18s8.1-18,18-18s18,8.1,18,18S189.9,109.7,180,109.7z"/>
			<path class="st1" d="M180,74.4c9.6,0,17.3,7.8,17.3,17.3S189.5,109,180,109s-17.3-7.8-17.3-17.3S170.4,74.4,180,74.4 M180,73.1
				c-10.3,0-18.7,8.4-18.7,18.7s8.4,18.7,18.7,18.7s18.7-8.4,18.7-18.7S190.3,73.1,180,73.1L180,73.1z"/>
		</g>
		<circle class="st2" cx="181.4" cy="93.9" r="15.3"/>
		<g>
			<g>
				<path class="st3" d="M180,107.5c-8.7,0-15.7-7.1-15.7-15.7c0-8.7,7.1-15.7,15.7-15.7c8.7,0,15.7,7.1,15.7,15.7
					c0,7.1-4.8,13.4-11.7,15.2c-0.6,0.2-1.3,0.3-2,0.4C181.3,107.4,180.7,107.5,180,107.5z M180,100.8c0.6,0,1.2-0.1,1.8-0.2
					c0.6-0.1,1.2-0.3,1.7-0.5c0.6-0.3,1.3-0.6,1.8-1l-2.6-2.2c-0.2,0.1-0.4,0.2-0.6,0.3c-0.5,0.2-1,0.3-1.5,0.4l-0.8,3.3
					C179.9,100.8,179.9,100.8,180,100.8z M171.2,94.1c0.7,2.4,2.3,4.5,4.6,5.7l0.8-3.3c-0.9-0.6-1.6-1.5-2-2.5L171.2,94.1z
					 M188,95.8c0.7-1.3,1-2.7,1-4.1c0-1.1-0.2-2.1-0.6-3.2l-2.8,1.9c0.1,0.4,0.1,0.8,0.1,1.3c0,0.7-0.1,1.3-0.3,1.9L188,95.8z
					 M175.3,84c-2.2,1.3-3.7,3.5-4.2,6l3.4-0.1c0.4-1,1-1.9,1.8-2.6L175.3,84z M180.3,85.9c1.1,0.1,2.1,0.4,3,1.1l2.8-1.9
					c-1.7-1.6-3.9-2.4-6.2-2.4c-0.2,0-0.5,0-0.7,0L180.3,85.9z"/>
				<path class="st1" d="M180,76.7c8.3,0,15.1,6.8,15.1,15.1c0,7-4.8,12.9-11.2,14.6c-0.6,0.2-1.2,0.3-1.9,0.4
					c-0.6,0.1-1.3,0.1-1.9,0.1c-8.3,0-15.1-6.8-15.1-15.1S171.7,76.7,180,76.7 M179.8,86.6c0,0,0.1,0,0.2,0c1.3,0,2.4,0.5,3.3,1.2
					l3.9-2.6c-1.8-2-4.4-3.2-7.2-3.2c-0.5,0-1.1,0-1.6,0.1L179.8,86.6 M170.3,90.6l4.7-0.1c0.3-1.2,1.1-2.3,2.1-3l-1.4-4.5
					C172.8,84.4,170.7,87.2,170.3,90.6 M188.2,96.9c0.9-1.5,1.5-3.3,1.5-5.2c0-1.5-0.3-2.9-0.9-4.2l-3.9,2.6c0.2,0.5,0.2,1,0.2,1.6
					c0,0.8-0.2,1.5-0.5,2.1L188.2,96.9 M179.2,90.5c0.1-0.1,0.2-0.1,0.4-0.2c0,0,0.1,0,0.1,0c0.1,0,0.1,0,0.2,0c0,0,0,0,0,0l-0.3,0
					L179.2,90.5 M180.9,90.6C180.9,90.6,180.9,90.6,180.9,90.6C180.9,90.6,180.9,90.6,180.9,90.6C180.8,90.6,180.8,90.6,180.9,90.6
					C180.8,90.6,180.8,90.6,180.9,90.6C180.8,90.6,180.8,90.6,180.9,90.6C180.8,90.6,180.9,90.6,180.9,90.6 M181.3,92.1L181.3,92.1
					C181.3,92.1,181.3,92.1,181.3,92.1C181.3,92.1,181.3,92.1,181.3,92.1 M180.8,92.9L180.8,92.9c0.1,0,0.1-0.1,0.1-0.1
					C180.8,92.8,180.8,92.9,180.8,92.9 M180.6,93C180.6,93,180.6,93,180.6,93C180.6,93,180.6,93,180.6,93L180.6,93
					C180.6,93,180.6,93,180.6,93C180.6,93,180.6,93,180.6,93C180.6,93,180.6,93,180.6,93 M180.5,93C180.5,93,180.5,93,180.5,93
					C180.5,93,180.5,93,180.5,93C180.5,93,180.5,93,180.5,93 M176.2,100.7l1.1-4.6c-1.1-0.6-1.9-1.7-2.3-2.9l-4.7,0.1
					C171,96.7,173.2,99.5,176.2,100.7 M180,101.5c0.7,0,1.3-0.1,1.9-0.2c0.7-0.1,1.3-0.3,1.9-0.6c1-0.4,1.8-1,2.6-1.6l-2.6-2.2
					l-1-0.8c-0.3,0.2-0.6,0.4-0.9,0.5c-0.6,0.2-1.2,0.4-1.8,0.4l-1.1,4.6C179.3,101.4,179.6,101.5,180,101.5 M180,75.3
					c-9,0-16.4,7.4-16.4,16.4s7.4,16.4,16.4,16.4c0.7,0,1.4,0,2.1-0.1c0.7-0.1,1.4-0.2,2-0.4c7.2-1.9,12.2-8.4,12.2-15.9
					C196.4,82.7,189,75.3,180,75.3L180,75.3z M180.8,85.3l-0.6-2c1.8,0,3.4,0.6,4.8,1.7l-1.7,1.1C182.5,85.7,181.7,85.4,180.8,85.3
					L180.8,85.3z M172,89.2c0.5-1.7,1.6-3.1,3-4.2l0.6,2c-0.7,0.6-1.2,1.3-1.5,2.2L172,89.2L172,89.2z M186.4,90.8l1.7-1.1
					c0.2,0.7,0.3,1.4,0.3,2.1c0,1-0.2,2.1-0.6,3l-1.6-1.3c0.1-0.5,0.2-1.1,0.2-1.7C186.5,91.4,186.4,91.1,186.4,90.8L186.4,90.8z
					 M172.1,94.7l2.1-0.1c0.4,0.8,1,1.5,1.7,2.1l-0.5,2C173.9,97.8,172.8,96.4,172.1,94.7L172.1,94.7z M181.2,98.1
					c0.4-0.1,0.8-0.2,1.2-0.4c0.1,0,0.1-0.1,0.2-0.1l0.3,0.2l1.3,1.1c-0.3,0.2-0.6,0.3-1,0.5c-0.5,0.2-1.1,0.4-1.6,0.5
					c-0.3,0.1-0.6,0.1-0.9,0.1L181.2,98.1L181.2,98.1z"/>
			</g>
		</g>
		<g>
			<g class="st4">
				<path class="st1" d="M183.8,90.9v6l-1-0.8c-0.3,0.2-0.6,0.4-0.9,0.5v-5.7c0-0.5-0.2-1-0.6-1.3c0.3-0.2,0.6-0.3,0.9-0.3
					C183.1,89.3,183.8,90,183.8,90.9z"/>
			</g>
			<g class="st4">
				<path class="st1" d="M183.8,100.7v5.6c-0.6,0.2-1.2,0.3-1.9,0.4v-5.4C182.5,101.2,183.2,101,183.8,100.7z"/>
			</g>
			<g>
				<path class="st5" d="M179.9,125.5c-1.2,0-2.2-1-2.2-2.2V90.9c0-0.6,0.2-1.2,0.7-1.6c0.4-0.4,1-0.7,1.6-0.7c1.2,0,2.2,1,2.2,2.2
					v32.4C182.1,124.5,181.1,125.5,179.9,125.5z"/>
				<g>
					<path class="st1" d="M179.9,89.3c0.9,0,1.6,0.7,1.6,1.6v32.4c0,0.9-0.7,1.6-1.6,1.6c-0.9,0-1.6-0.7-1.6-1.6V90.9
						c0-0.4,0.2-0.8,0.5-1.1C179,89.5,179.4,89.3,179.9,89.3 M179.9,87.9c-0.8,0-1.5,0.3-2.1,0.9c-0.5,0.5-0.9,1.3-0.9,2.1v32.4
						c0,1.6,1.3,2.9,2.9,2.9c1.6,0,2.9-1.3,2.9-2.9V90.9C182.8,89.2,181.5,87.9,179.9,87.9L179.9,87.9z"/>
				</g>
			</g>
			<circle class="st6" cx="179.9" cy="91.5" r="0.9"/>
		</g>
		<g>
			<g>
				<path class="st5" d="M164.8,123.2v-1.7c0-1.1,0.9-1.9,1.9-1.9h25.8c1.1,0,1.9,0.9,1.9,1.9v1.7H164.8z"/>
				<g>
					<path class="st1" d="M192.6,120.2c0.7,0,1.2,0.6,1.2,1.2v1h-28.3v-1c0-0.7,0.6-1.2,1.2-1.2H192.6 M192.6,118.9h-25.8
						c-1.4,0-2.6,1.2-2.6,2.6v1v1.3h1.3h28.3h1.3v-1.3v-1C195.1,120.1,194,118.9,192.6,118.9L192.6,118.9z"/>
				</g>
			</g>
			<g>
				<path class="st3" d="M167.7,127.2c-1.6,0-2.9-1.3-2.9-2.9v-0.7h29.7v0.7c0,1.6-1.3,2.9-2.9,2.9H167.7z"/>
				<g>
					<path class="st1" d="M193.8,124.3c0,1.2-1,2.2-2.2,2.2h-23.8c-1.2,0-2.2-1-2.2-2.2H193.8 M195.1,122.9h-1.3h-28.3h-1.3v1.3
						c0,2,1.6,3.6,3.6,3.6h23.8c2,0,3.6-1.6,3.6-3.6V122.9L195.1,122.9z"/>
				</g>
			</g>
			<polygon class="st2" points="193.3,127 165.9,127 165.5,125.2 193.8,125.2 			"/>
		</g>
		<g>
			<path class="st0" d="M179.9,126.3c-1.6,0-2.9-1.3-2.9-2.9c0-1.6,1.3-2.9,2.9-2.9s2.9,1.3,2.9,2.9
				C182.8,125,181.5,126.3,179.9,126.3z"/>
			<path class="st1" d="M179.9,121.1c1.2,0,2.2,1,2.2,2.2c0,1.2-1,2.2-2.2,2.2s-2.2-1-2.2-2.2C177.6,122.1,178.6,121.1,179.9,121.1
				 M179.9,119.8c-2,0-3.6,1.6-3.6,3.6s1.6,3.6,3.6,3.6s3.6-1.6,3.6-3.6S181.8,119.8,179.9,119.8L179.9,119.8z"/>
		</g>
		<rect x="178.1" y="115.3" class="st2" width="3.6" height="3.6"/>
	</g>
</g>
</svg>
