<?xml version="1.0" encoding="utf-8"?>
<!-- Generator: Adobe Illustrator 26.0.2, SVG Export Plug-In . SVG Version: 6.00 Build 0)  -->
<svg version="1.1" id="Layer_1" xmlns="http://www.w3.org/2000/svg" xmlns:xlink="http://www.w3.org/1999/xlink" x="0px" y="0px"
	 width="360px" height="200px" viewBox="0 0 360 200" style="enable-background:new 0 0 360 200;" xml:space="preserve">
<style type="text/css">
	.st0{fill:none;stroke:#2B1010;stroke-width:0.8642;stroke-miterlimit:10;}
	.st1{fill:#272B33;}
	.st2{fill:#142C4D;}
	.st3{fill:#0C1726;}
	.st4{fill:#BAB1B5;}
	.st5{fill:#030B21;}
	.st6{opacity:0.65;fill:#BAB1B5;enable-background:new    ;}
	.st7{opacity:0.5;fill:#BAB1B5;enable-background:new    ;}
</style>
<g id="eBikeWheels_00000047033556651304084470000014373662460792936833_">
	<g>
		<g>
			<g>
				<line class="st0" x1="161.8" y1="93.5" x2="134.2" y2="79.3"/>
			</g>
			<line class="st0" x1="161.8" y1="93.5" x2="137.2" y2="73.7"/>
			<line class="st0" x1="164.4" y1="90.1" x2="138.5" y2="68.9"/>
			<line class="st0" x1="165.7" y1="87" x2="129" y2="90.1"/>
			<line class="st0" x1="166.2" y1="89.6" x2="130.3" y2="100.4"/>
			<line class="st0" x1="167" y1="85.3" x2="143.7" y2="65"/>
			<line class="st0" x1="177" y1="78.8" x2="143.7" y2="65"/>
			<line class="st0" x1="168.8" y1="83.6" x2="162.7" y2="51.2"/>
			<line class="st0" x1="168.8" y1="83.6" x2="157.1" y2="53.8"/>
			<line class="st0" x1="177" y1="78.8" x2="149.3" y2="60.3"/>
			<line class="st0" x1="164.4" y1="100.4" x2="136.8" y2="129.4"/>
			<line class="st0" x1="165.7" y1="103.9" x2="145.4" y2="136.7"/>
			<line class="st0" x1="167" y1="108.7" x2="131.6" y2="116.9"/>
			<line class="st0" x1="167.5" y1="106.1" x2="130.3" y2="106.9"/>
			<line class="st0" x1="171.8" y1="111.7" x2="170.9" y2="151.9"/>
			<line class="st0" x1="180" y1="112.5" x2="149.3" y2="141.1"/>
			<line class="st0" x1="181.7" y1="116.9" x2="157.1" y2="147.1"/>
			<line class="st0" x1="178.3" y1="114.7" x2="180" y2="152.3"/>
			<line class="st0" x1="183" y1="114.7" x2="207.2" y2="144.1"/>
			<line class="st0" x1="192.5" y1="111.2" x2="186" y2="151"/>
			<line class="st0" x1="195.1" y1="108.7" x2="197.7" y2="147.1"/>
			<line class="st0" x1="187.8" y1="111.7" x2="215.4" y2="136.7"/>
			<line class="st0" x1="218.9" y1="135" x2="200.7" y2="102.6"/>
			<line class="st0" x1="192.5" y1="108.7" x2="228" y2="116"/>
			<line class="st0" x1="226.2" y1="124.2" x2="200.3" y2="94.8"/>
			<line class="st0" x1="181.7" y1="76.7" x2="194.7" y2="52"/>
			<line class="st0" x1="180" y1="78" x2="188.2" y2="50.3"/>
			<line class="st0" x1="187.8" y1="78.8" x2="180.4" y2="49.5"/>
			<line class="st0" x1="187.8" y1="78.8" x2="173.5" y2="50.8"/>
			<line class="st0" x1="197.7" y1="86.6" x2="203.8" y2="55.5"/>
			<line class="st0" x1="189.1" y1="81" x2="219.3" y2="68.5"/>
			<line class="st0" x1="200.3" y1="93.5" x2="223.2" y2="76.7"/>
			<line class="st0" x1="228" y1="84" x2="199.9" y2="97.8"/>
			<line class="st0" x1="230.1" y1="90.1" x2="192.5" y2="85.8"/>
		</g>
		<g>
			<g>
				<g>
					<path class="st1" d="M180,171.5c-39.2,0-71.1-31.9-71.1-71.1s31.9-71.1,71.1-71.1s71.1,31.9,71.1,71.1S219.2,171.5,180,171.5z
						 M180,49.7c-28,0-50.8,22.8-50.8,50.8s22.8,50.8,50.8,50.8s50.8-22.8,50.8-50.8C230.8,72.4,208,49.7,180,49.7z"/>
					<path d="M180,30.7c38.5,0,69.8,31.3,69.8,69.8s-31.3,69.8-69.8,69.8s-69.8-31.3-69.8-69.8S141.5,30.7,180,30.7 M180,152.5
						c28.7,0,52.1-23.4,52.1-52.1S208.7,48.3,180,48.3s-52.1,23.4-52.1,52.1C127.9,129.2,151.3,152.5,180,152.5 M180,28.1
						c-39.9,0-72.4,32.5-72.4,72.4s32.5,72.4,72.4,72.4s72.4-32.5,72.4-72.4S219.9,28.1,180,28.1L180,28.1z M180,149.9
						c-27.3,0-49.5-22.2-49.5-49.5s22.2-49.5,49.5-49.5s49.5,22.2,49.5,49.5S207.3,149.9,180,149.9L180,149.9z"/>
				</g>
			</g>
			<g>
				<g>
					<path class="st1" d="M180,170.7c-38.7,0-70.2-31.5-70.2-70.2s31.5-70.2,70.2-70.2s70.2,31.5,70.2,70.2S218.7,170.7,180,170.7z
						 M180,48.8c-28.5,0-51.6,23.2-51.6,51.6c0,28.5,23.2,51.6,51.6,51.6c28.5,0,51.6-23.2,51.6-51.6S208.5,48.8,180,48.8z"/>
					<path class="st2" d="M180,30.7c38.5,0,69.8,31.3,69.8,69.8s-31.3,69.8-69.8,69.8s-69.8-31.3-69.8-69.8S141.5,30.7,180,30.7
						 M180,152.5c28.7,0,52.1-23.4,52.1-52.1S208.7,48.3,180,48.3s-52.1,23.4-52.1,52.1C127.9,129.2,151.3,152.5,180,152.5
						 M180,29.8c-39,0-70.6,31.7-70.6,70.6S141.1,171,180,171s70.6-31.7,70.6-70.6S218.9,29.8,180,29.8L180,29.8z M180,151.6
						c-28.2,0-51.2-23-51.2-51.2s23-51.2,51.2-51.2s51.2,23,51.2,51.2S208.2,151.6,180,151.6L180,151.6z"/>
				</g>
			</g>
			<g>
				<path class="st3" d="M249.8,100.4c0,38.5-31.3,69.8-69.8,69.8c-20,0-38.1-8.5-50.8-22c12.5,11.8,29.3,19,47.8,19
					c38.5,0,69.8-31.3,69.8-69.8c0-18.5-7.2-35.3-19-47.8C241.3,62.4,249.8,80.4,249.8,100.4z"/>
			</g>
			<path class="st4" d="M237.1,60.4c-12.8-16-32.5-26.3-54.5-26.3c-38.5,0-69.8,31.3-69.8,69.8c0,14.9,4.7,28.7,12.7,40
				c-9.5-11.9-15.2-27.1-15.2-43.5c0-38.5,31.3-69.8,69.8-69.8C203.6,30.7,224.5,42.4,237.1,60.4z"/>
			<path class="st4" d="M234.7,103.9c0,28.7-23.4,52.1-52.1,52.1c-17.8,0-33.5-9-42.9-22.7c9.6,11.7,24.1,19.2,40.3,19.2
				c28.7,0,52.1-23.4,52.1-52.1c0-10.9-3.4-21-9.1-29.4C230.3,80,234.7,91.4,234.7,103.9z"/>
			<g>
				<g>
					<path class="st5" d="M181.6,76.7c-11.1,0-20.1,9-20.1,20.1s9,20.1,20.1,20.1s20.1-9,20.1-20.1S192.7,76.7,181.6,76.7z
						 M194.6,96.8c0,2.5-0.7,4.9-2,6.9l-4.8-4.1c0.4-0.9,0.6-1.8,0.6-2.8c0-0.7-0.1-1.4-0.3-2.1l5.2-3.5
						C194.2,92.9,194.6,94.8,194.6,96.8z M179.9,97.5C179.9,97.6,179.9,97.6,179.9,97.5L179.9,97.5
						C179.9,97.5,179.9,97.4,179.9,97.5L179.9,97.5z M180.1,97.9L180.1,97.9C180.1,97.8,180.1,97.8,180.1,97.9
						C180.1,97.8,180.1,97.9,180.1,97.9z M182.8,95.3C182.9,95.3,182.9,95.3,182.8,95.3C182.9,95.4,182.9,95.4,182.8,95.3
						C182.9,95.4,182.9,95.4,182.8,95.3L182.8,95.3c-0.1-0.1-0.1-0.1-0.2-0.1c0,0-0.1,0-0.1-0.1l0,0c0,0,0.1,0,0.1,0.1l0,0
						C182.7,95.2,182.8,95.3,182.8,95.3L182.8,95.3z M183.4,97.4C183.5,97.3,183.5,97.3,183.4,97.4
						C183.4,97.3,183.4,97.3,183.4,97.4L183.4,97.4C183.5,97.3,183.4,97.4,183.4,97.4z M182.1,98.6L182.1,98.6L182.1,98.6
						L182.1,98.6C182,98.6,182,98.6,182.1,98.6z M182.4,98.5L182.4,98.5L182.4,98.5L182.4,98.5C182.3,98.6,182.3,98.6,182.4,98.5
						C182.3,98.5,182.3,98.5,182.4,98.5z M182.5,98.5L182.5,98.5L182.5,98.5L182.5,98.5L182.5,98.5z M182.7,98.3L182.7,98.3
						C182.8,98.3,182.8,98.3,182.7,98.3L182.7,98.3L182.7,98.3c-0.1,0.1-0.1,0.1-0.2,0.1C182.6,98.4,182.7,98.4,182.7,98.3z
						 M181.5,94.9L181.5,94.9c-0.1,0-0.2,0-0.3,0h-0.1c-0.2,0.1-0.3,0.1-0.5,0.2c0,0,0,0-0.1,0l0,0l0,0l0.4-0.3L181.5,94.9z
						 M181.6,83.8c3.8,0,7.3,1.7,9.6,4.3l-5.2,3.5c-1.2-1-2.7-1.6-4.4-1.6c-0.1,0-0.1,0-0.2,0l-1.9-6
						C180.2,83.9,180.9,83.8,181.6,83.8z M175.9,85.1l1.9,6c-1.4,0.9-2.4,2.3-2.8,4l-6.3,0.2C169.3,90.8,172,87,175.9,85.1z
						 M168.9,99.1l6.3-0.2c0.5,1.6,1.6,3,3.1,3.8l-1.5,6.1C172.7,107.1,169.6,103.5,168.9,99.1z M181.6,109.8c-0.4,0-0.9,0-1.3-0.1
						l1.5-6.1c1.3,0,2.5-0.5,3.6-1.1l4.8,4.1C187.9,108.6,184.9,109.8,181.6,109.8z"/>
				</g>
			</g>
		</g>
		<g>
			<g>
				<g>
					<path class="st1" d="M180,171.5c-39.2,0-71.1-31.9-71.1-71.1s31.9-71.1,71.1-71.1s71.1,31.9,71.1,71.1S219.2,171.5,180,171.5z
						 M180,49.7c-28,0-50.8,22.8-50.8,50.8s22.8,50.8,50.8,50.8s50.8-22.8,50.8-50.8C230.8,72.4,208,49.7,180,49.7z"/>
					<path d="M180,30.7c38.5,0,69.8,31.3,69.8,69.8s-31.3,69.8-69.8,69.8s-69.8-31.3-69.8-69.8S141.5,30.7,180,30.7 M180,152.5
						c28.7,0,52.1-23.4,52.1-52.1S208.7,48.3,180,48.3s-52.1,23.4-52.1,52.1C127.9,129.2,151.3,152.5,180,152.5 M180,28.1
						c-39.9,0-72.4,32.5-72.4,72.4s32.5,72.4,72.4,72.4s72.4-32.5,72.4-72.4S219.9,28.1,180,28.1L180,28.1z M180,149.9
						c-27.3,0-49.5-22.2-49.5-49.5s22.2-49.5,49.5-49.5s49.5,22.2,49.5,49.5S207.3,149.9,180,149.9L180,149.9z"/>
				</g>
			</g>
			<g>
				<g>
					<path class="st1" d="M180,170.7c-38.7,0-70.2-31.5-70.2-70.2s31.5-70.2,70.2-70.2s70.2,31.5,70.2,70.2S218.7,170.7,180,170.7z
						 M180,48.8c-28.5,0-51.6,23.2-51.6,51.6c0,28.5,23.2,51.6,51.6,51.6c28.5,0,51.6-23.2,51.6-51.6S208.5,48.8,180,48.8z"/>
					<path class="st2" d="M180,30.7c38.5,0,69.8,31.3,69.8,69.8s-31.3,69.8-69.8,69.8s-69.8-31.3-69.8-69.8S141.5,30.7,180,30.7
						 M180,152.5c28.7,0,52.1-23.4,52.1-52.1S208.7,48.3,180,48.3s-52.1,23.4-52.1,52.1C127.9,129.2,151.3,152.5,180,152.5
						 M180,29.8c-39,0-70.6,31.7-70.6,70.6S141.1,171,180,171s70.6-31.7,70.6-70.6S218.9,29.8,180,29.8L180,29.8z M180,151.6
						c-28.2,0-51.2-23-51.2-51.2s23-51.2,51.2-51.2s51.2,23,51.2,51.2S208.2,151.6,180,151.6L180,151.6z"/>
				</g>
			</g>
			<g>
				<path class="st3" d="M249.8,100.4c0,38.5-31.3,69.8-69.8,69.8c-20,0-38.1-8.5-50.8-22c12.5,11.8,29.3,19,47.8,19
					c38.5,0,69.8-31.3,69.8-69.8c0-18.5-7.2-35.3-19-47.8C241.3,62.4,249.8,80.4,249.8,100.4z"/>
			</g>
			<path class="st6" d="M237.1,60.4c-12.8-16-32.5-26.3-54.5-26.3c-38.5,0-69.8,31.3-69.8,69.8c0,14.9,4.7,28.7,12.7,40
				c-9.5-11.9-15.2-27.1-15.2-43.5c0-38.5,31.3-69.8,69.8-69.8C203.6,30.7,224.5,42.4,237.1,60.4z"/>
			<path class="st7" d="M234.7,103.9c0,28.7-23.4,52.1-52.1,52.1c-17.8,0-33.5-9-42.9-22.7c9.6,11.7,24.1,19.2,40.3,19.2
				c28.7,0,52.1-23.4,52.1-52.1c0-10.9-3.4-21-9.1-29.4C230.3,80,234.7,91.4,234.7,103.9z"/>
			<g>
				<g>
					<path class="st5" d="M181.6,76.7c-11.1,0-20.1,9-20.1,20.1s9,20.1,20.1,20.1s20.1-9,20.1-20.1S192.7,76.7,181.6,76.7z
						 M194.6,96.8c0,2.5-0.7,4.9-2,6.9l-4.8-4.1c0.4-0.9,0.6-1.8,0.6-2.8c0-0.7-0.1-1.4-0.3-2.1l5.2-3.5
						C194.2,92.9,194.6,94.8,194.6,96.8z M179.9,97.5C179.9,97.6,179.9,97.6,179.9,97.5L179.9,97.5
						C179.9,97.5,179.9,97.4,179.9,97.5L179.9,97.5z M180.1,97.9L180.1,97.9C180.1,97.8,180.1,97.8,180.1,97.9
						C180.1,97.8,180.1,97.9,180.1,97.9z M182.8,95.3C182.9,95.3,182.9,95.3,182.8,95.3C182.9,95.4,182.9,95.4,182.8,95.3
						C182.9,95.4,182.9,95.4,182.8,95.3L182.8,95.3c-0.1-0.1-0.1-0.1-0.2-0.1c0,0-0.1,0-0.1-0.1l0,0c0,0,0.1,0,0.1,0.1l0,0
						C182.7,95.2,182.8,95.3,182.8,95.3L182.8,95.3z M183.4,97.4C183.5,97.3,183.5,97.3,183.4,97.4
						C183.4,97.3,183.4,97.3,183.4,97.4L183.4,97.4C183.5,97.3,183.4,97.4,183.4,97.4z M182.1,98.6L182.1,98.6L182.1,98.6
						L182.1,98.6C182,98.6,182,98.6,182.1,98.6z M182.4,98.5L182.4,98.5L182.4,98.5L182.4,98.5C182.3,98.6,182.3,98.6,182.4,98.5
						C182.3,98.5,182.3,98.5,182.4,98.5z M182.5,98.5L182.5,98.5L182.5,98.5L182.5,98.5L182.5,98.5z M182.7,98.3L182.7,98.3
						C182.8,98.3,182.8,98.3,182.7,98.3L182.7,98.3L182.7,98.3c-0.1,0.1-0.1,0.1-0.2,0.1C182.6,98.4,182.7,98.4,182.7,98.3z
						 M181.5,94.9L181.5,94.9c-0.1,0-0.2,0-0.3,0h-0.1c-0.2,0.1-0.3,0.1-0.5,0.2c0,0,0,0-0.1,0l0,0l0,0l0.4-0.3L181.5,94.9z
						 M181.6,83.8c3.8,0,7.3,1.7,9.6,4.3l-5.2,3.5c-1.2-1-2.7-1.6-4.4-1.6c-0.1,0-0.1,0-0.2,0l-1.9-6
						C180.2,83.9,180.9,83.8,181.6,83.8z M175.9,85.1l1.9,6c-1.4,0.9-2.4,2.3-2.8,4l-6.3,0.2C169.3,90.8,172,87,175.9,85.1z
						 M168.9,99.1l6.3-0.2c0.5,1.6,1.6,3,3.1,3.8l-1.5,6.1C172.7,107.1,169.6,103.5,168.9,99.1z M181.6,109.8c-0.4,0-0.9,0-1.3-0.1
						l1.5-6.1c1.3,0,2.5-0.5,3.6-1.1l4.8,4.1C187.9,108.6,184.9,109.8,181.6,109.8z"/>
				</g>
			</g>
		</g>
	</g>
</g>
</svg>
