<?xml version="1.0" encoding="utf-8"?>
<!-- Generator: Adobe Illustrator 26.0.2, SVG Export Plug-In . SVG Version: 6.00 Build 0)  -->
<svg version="1.1" id="Layer_1" xmlns="http://www.w3.org/2000/svg" xmlns:xlink="http://www.w3.org/1999/xlink" x="0px" y="0px"
	 width="360px" height="200px" viewBox="0 0 360 200" style="enable-background:new 0 0 360 200;" xml:space="preserve">
<style type="text/css">
	.st0{fill:none;stroke:#333333;stroke-width:0.901;stroke-miterlimit:10;}
	.st1{fill:#EE0000;stroke:#142C4D;stroke-width:1.3515;stroke-miterlimit:10;}
	.st2{opacity:0.3;}
	.st3{fill:#142C4D;}
	.st4{fill:#27579A;}
	.st5{fill:#EE0000;}
</style>
<g id="lowRiderWheels_00000097465788560843414110000006691510793729031080_">
	<g>
		<g>
			<line class="st0" x1="182.5" y1="83.6" x2="185.8" y2="38.1"/>
			<line class="st0" x1="187.4" y1="81" x2="214.5" y2="48.9"/>
			<polyline class="st0" points="225.7,59.2 189.2,84.6 201,41.6 			"/>
			<line class="st0" x1="232.6" y1="72.3" x2="193.8" y2="94"/>
			<line class="st0" x1="195.1" y1="98.7" x2="238" y2="86.8"/>
			<line class="st0" x1="235.3" y1="118.7" x2="195.1" y2="96.7"/>
			<polyline class="st0" points="227.6,130.9 190.7,107 203.3,149.8 			"/>
			<polyline class="st0" points="218.1,142.6 185.8,110 189.2,156.4 			"/>
			<polyline class="st0" points="174.3,154.1 176.7,109.3 145.6,143.1 			"/>
			<polyline class="st0" points="159.6,150.7 170.6,107.7 135.1,133.2 			"/>
			<polyline class="st0" points="126.2,120.1 165.5,98.7 121.7,89.9 			"/>
			<polyline class="st0" points="121.7,105.7 165.5,94.6 124.4,73.7 			"/>
			<polyline class="st0" points="132.5,61.5 171.7,84.6 156.9,43.1 			"/>
			<polyline class="st0" points="143.6,50.5 176.4,80.6 172.7,38.1 			"/>
		</g>
		<g>
			<g>
				<path d="M180,164.2c-35.2,0-63.7-28.6-63.7-63.7s28.6-63.7,63.7-63.7s63.7,28.6,63.7,63.7S215.2,164.2,180,164.2z M180,48
					c-28.9,0-52.5,23.5-52.5,52.5S151,153,180,153c28.9,0,52.5-23.5,52.5-52.5S209,48,180,48z"/>
			</g>
		</g>
		<g>
			<path class="st1" d="M180,153.6c-29.3,0-53.2-23.8-53.2-53.2s23.8-53.2,53.2-53.2s53.2,23.8,53.2,53.2S209.3,153.6,180,153.6z
				 M180,56.7c-24.1,0-43.8,19.6-43.8,43.8s19.6,43.8,43.8,43.8c24.1,0,43.8-19.6,43.8-43.8S204.1,56.7,180,56.7z"/>
		</g>
		<g class="st2">
			<path class="st3" d="M232.5,100.4c0,28.9-23.5,52.5-52.5,52.5c-18.4,0-34.7-9.5-44-24l8.3-3.3c7.9,11.2,21,18.5,35.8,18.5
				c24.1,0,43.8-19.6,43.8-43.8c0-1.6-0.1-3.3-0.3-4.9l8.6-1.3C232.4,96.3,232.5,98.3,232.5,100.4z"/>
		</g>
		<g>
			<g>
				<path class="st4" d="M181.4,117.1c-11.2,0-20.3-9.1-20.3-20.3s9.1-20.3,20.3-20.3s20.3,9.1,20.3,20.3S192.5,117.1,181.4,117.1z"
					/>
				<path class="st3" d="M181.4,77.5c10.7,0,19.4,8.7,19.4,19.4s-8.7,19.4-19.4,19.4S162,107.6,162,96.9S170.7,77.5,181.4,77.5
					 M181.4,75.7c-11.7,0-21.2,9.5-21.2,21.2s9.5,21.2,21.2,21.2s21.2-9.5,21.2-21.2S193,75.7,181.4,75.7L181.4,75.7z"/>
			</g>
			<g>
				<path class="st5" d="M181.4,112.2c-8.4,0-15.3-6.9-15.3-15.3s6.9-15.3,15.3-15.3s15.3,6.9,15.3,15.3S189.8,112.2,181.4,112.2z"
					/>
				<path class="st3" d="M181.4,82.4c8,0,14.4,6.5,14.4,14.4s-6.5,14.4-14.4,14.4c-8,0-14.4-6.5-14.4-14.4S173.4,82.4,181.4,82.4
					 M181.4,80.6c-8.9,0-16.2,7.3-16.2,16.2s7.3,16.2,16.2,16.2s16.2-7.3,16.2-16.2S190.3,80.6,181.4,80.6L181.4,80.6z"/>
			</g>
			<g>
				<path class="st4" d="M181.4,108.1c-6.2,0-11.3-5.1-11.3-11.3c0-6.2,5.1-11.3,11.3-11.3s11.3,5.1,11.3,11.3
					C192.7,103,187.6,108.1,181.4,108.1z"/>
				<path class="st3" d="M181.4,86.5c5.7,0,10.4,4.6,10.4,10.4s-4.6,10.4-10.4,10.4S171,102.7,171,96.9S175.6,86.5,181.4,86.5
					 M181.4,84.7c-6.7,0-12.2,5.5-12.2,12.2c0,6.7,5.5,12.2,12.2,12.2s12.2-5.5,12.2-12.2C193.6,90.2,188.1,84.7,181.4,84.7
					L181.4,84.7z"/>
			</g>
		</g>
	</g>
</g>
</svg>
