<?xml version="1.0" encoding="utf-8"?>
<!-- Generator: Adobe Illustrator 26.0.2, SVG Export Plug-In . SVG Version: 6.00 Build 0)  -->
<svg version="1.1" id="Layer_1" xmlns="http://www.w3.org/2000/svg" xmlns:xlink="http://www.w3.org/1999/xlink" x="0px" y="0px"
	 width="360px" height="200px" viewBox="0 0 360 200" style="enable-background:new 0 0 360 200;" xml:space="preserve">
<style type="text/css">
	.st0{fill:#79C4C6;}
	.st1{fill:#2B1010;}
	.st2{fill:#5656C1;stroke:#142C4D;stroke-width:2.0528;stroke-miterlimit:10;}
	.st3{fill:#666666;}
	.st4{fill:#142C4D;}
	.st5{opacity:0.3;}
	.st6{opacity:0.1;enable-background:new    ;}
</style>
<g id="streetWheels">
	<g>
		<path class="st0" d="M244.5,100.5c0,35.6-28.9,64.5-64.5,64.5c-29,0-53.6-19.2-61.7-45.5c-1.8-6-2.8-12.4-2.8-19
			c0-35.6,28.9-64.5,64.5-64.5c26.6,0,49.4,16.1,59.3,39C242.7,82.8,244.5,91.4,244.5,100.5z"/>
		<g>
			<path d="M178.5,147c0.7,1.3,1.6,2.7,2.3,3.7h0.7l-0.1-3.8h2l0.2,9.2c-0.8,0.3-1.8,0.4-2.7,0.5c-2.6,0.1-4-1-4-2.9
				c0-1.2,0.7-2.2,1.9-2.5l0,0c-0.8-1-1.8-2.7-2.5-4L178.5,147z M180.7,155c0.4,0,0.7-0.1,0.9-0.1l-0.1-3.1h-0.9
				c-0.9,0-1.7,0.5-1.7,1.6C179,154.7,179.9,155.1,180.7,155z"/>
			<path d="M172,146.3c2.1,0.3,3.1,2.1,2.7,4.3c-0.3,2.2-1.9,3.6-3.9,3.2c-2-0.3-3.1-2.1-2.7-4.3C168.5,147.3,169.9,146,172,146.3z
				 M171.1,152.3c1,0.2,1.5-0.8,1.7-2.1c0.2-1.3,0-2.3-1-2.5c-1-0.1-1.5,0.7-1.7,2C169.9,151.1,170.1,152.2,171.1,152.3z"/>
			<path d="M164.8,144.6c1.8,0.6,2.7,1.6,2.2,3.2c-0.5,1.7-2.2,1.8-4,1.3c-0.3-0.1-0.5-0.2-0.7-0.2c-0.2,0.8-0.1,1.3,0.8,1.6
				c0.7,0.2,1.4,0.3,2,0.2l-0.1,1.5c-0.5,0-1.5,0-2.5-0.4c-1.6-0.5-2.3-1.6-2-3c0.1-0.3,0.1-0.5,0.2-0.8l1.3-3.8
				C162.5,144,163.6,144.2,164.8,144.6z M162.7,147.7c0.2,0.1,0.4,0.2,0.7,0.2c0.8,0.2,1.5,0.1,1.7-0.7c0.2-0.7-0.1-1.1-0.9-1.4
				c-0.4-0.1-0.6-0.2-0.9-0.2L162.7,147.7z"/>
			<path d="M157.7,141.6c2,1,2.6,2.9,1.5,5c-1.1,2.1-2.9,2.8-4.6,1.9c-0.5-0.2-0.8-0.5-1-0.8l-1.6,3l-1.7-0.9l4.7-9
				C155.6,140.8,156.7,141,157.7,141.6z M154.2,146.4c0.1,0.2,0.4,0.4,0.7,0.6c1,0.5,1.9-0.1,2.5-1.3c0.7-1.3,0.6-2.3-0.4-2.9
				c-0.3-0.2-0.6-0.3-0.8-0.3L154.2,146.4z"/>
			<path d="M145.3,132.2l1.2,1.2c-0.5,1-1.1,2.2-1.7,3.3c-0.2,0.3-0.4,0.6-0.5,0.7c1.2-0.7,2.8-1.7,4-2.3l1.2,1.2
				c-0.9,2-2.1,4.4-3.5,6.8l-1.5-1.4c0.7-1.2,1.5-2.4,2.1-3.6c0.2-0.4,0.4-0.6,0.5-0.8l-0.5,0.3c-1.3,0.8-2.7,1.6-3.9,2.4l-1.1-1.1
				c0.8-1.3,1.5-2.6,2.2-3.9c0.1-0.2,0.3-0.4,0.3-0.5c-0.1,0-0.4,0.3-0.7,0.5c-1.2,0.7-2.5,1.5-3.6,2.2l-1.4-1.3
				C140.9,134.4,143.3,133.2,145.3,132.2z"/>
			<path d="M142,127.7c1.1,1.6,1.2,2.9-0.2,3.9s-2.8,0.1-4-1.3c-0.2-0.2-0.3-0.5-0.4-0.6c-0.6,0.5-0.9,1-0.3,1.8
				c0.4,0.6,1,1.1,1.4,1.3l-1,1.1c-0.4-0.3-1.2-0.9-1.8-1.8c-1-1.4-0.9-2.6,0.2-3.6c0.2-0.2,0.4-0.4,0.7-0.5l3.3-2.3
				C140.5,126,141.3,126.7,142,127.7z M138.5,129c0.1,0.2,0.3,0.4,0.5,0.6c0.5,0.6,1.1,1,1.8,0.5c0.6-0.4,0.6-1,0.1-1.7
				c-0.2-0.3-0.4-0.5-0.6-0.7L138.5,129z"/>
			<path d="M132.5,123.4c0.1,0.4,0.2,0.6,0.3,0.9c0.2,0.4,0.4,0.7,0.6,0.8l5.2-2.7l0.9,1.8l-6.1,3.2c-0.5-0.4-1.1-1.1-1.7-2.1
				c-0.2-0.4-0.5-1-0.6-1.5C131.6,123.6,132.1,123.5,132.5,123.4z"/>
			<path d="M130.3,117.7c0,0.4,0.1,0.6,0.2,0.9c0.2,0.5,0.4,0.7,0.5,0.9l5.4-2l0.7,1.9l-6.5,2.4c-0.5-0.5-1-1.2-1.4-2.3
				c-0.2-0.4-0.3-1-0.4-1.5C129.3,117.8,129.8,117.8,130.3,117.7z"/>
			<path d="M127.2,115.4c0.2,0.6-0.1,1.2-0.7,1.4s-1.2-0.2-1.3-0.8c-0.2-0.6,0.1-1.2,0.7-1.4C126.5,114.4,127,114.8,127.2,115.4z
				 M135.4,114.2l-7.1,1.9l-0.5-1.9l7.1-1.9L135.4,114.2z"/>
			<path d="M134.2,107.8c0.3,2.1-1.1,3.5-3.3,3.8s-3.9-0.8-4.2-2.8c-0.3-2.1,1.1-3.5,3.3-3.8S133.9,105.7,134.2,107.8z M128.1,108.6
				c0.1,1,1.2,1.2,2.5,1.1c1.3-0.2,2.2-0.7,2.1-1.6c-0.1-1-1.1-1.2-2.4-1C128.9,107.1,128,107.6,128.1,108.6z"/>
			<path d="M127.8,99c-0.1,0.4-0.1,0.6-0.1,0.9c0,0.5,0.1,0.8,0.1,1l5.8,0.1v2l-6.9-0.1c-0.3-0.6-0.5-1.5-0.5-2.6
				c0-0.5,0.1-1.1,0.2-1.6C126.9,98.8,127.3,98.9,127.8,99z"/>
		</g>
		<path class="st1" d="M180,35c36.2,0,65.5,29.3,65.5,65.5S216.2,166,180,166s-65.5-29.3-65.5-65.5S143.9,35,180,35 M180,29.5
			c-19,0-36.8,7.4-50.2,20.8S109,81.5,109,100.5s7.4,36.8,20.8,50.2s31.2,20.8,50.2,20.8s36.8-7.4,50.2-20.8
			c13.4-13.4,20.8-31.2,20.8-50.2s-7.4-36.8-20.8-50.2C216.8,36.9,199,29.5,180,29.5L180,29.5z"/>
		<path class="st2" d="M180,40.1c33.4,0,60.4,27.1,60.4,60.4s-27.1,60.4-60.4,60.4s-60.4-27.1-60.4-60.4S146.7,40.1,180,40.1
			 M180,35c-17.5,0-33.9,6.8-46.3,19.2s-19.2,28.8-19.2,46.3s6.8,33.9,19.2,46.3S162.5,166,180,166s33.9-6.8,46.3-19.2
			s19.2-28.8,19.2-46.3s-6.8-33.9-19.2-46.3C214,41.8,197.5,35,180,35L180,35z"/>
		<g>
			<circle class="st3" cx="180" cy="100.5" r="17.8"/>
			<path class="st4" d="M180,83.5c9.4,0,17,7.6,17,17s-7.6,17-17,17s-17-7.6-17-17S170.6,83.5,180,83.5 M180,82
				c-10.2,0-18.5,8.3-18.5,18.5S169.8,119,180,119s18.5-8.3,18.5-18.5S190.2,82,180,82L180,82z"/>
		</g>
		<g class="st5">
			<circle cx="181.3" cy="101.7" r="13.2"/>
		</g>
		<g>
			<circle class="st3" cx="180" cy="100.5" r="13.2"/>
			<path class="st4" d="M180,88c6.9,0,12.5,5.6,12.5,12.5S186.9,113,180,113s-12.5-5.6-12.5-12.5S173.1,88,180,88 M180,86.5
				c-7.7,0-14,6.3-14,14s6.3,14,14,14s14-6.3,14-14S187.7,86.5,180,86.5L180,86.5z"/>
		</g>
		<g class="st5">
			<circle cx="180.8" cy="101.7" r="10.8"/>
		</g>
		<g>
			<circle class="st3" cx="180" cy="100.5" r="10.5"/>
			<path class="st4" d="M180,90.7c5.4,0,9.8,4.4,9.8,9.8s-4.4,9.8-9.8,9.8s-9.8-4.4-9.8-9.8C170.3,95.1,174.6,90.7,180,90.7
				 M180,89.2c-6.2,0-11.2,5-11.2,11.2s5,11.2,11.2,11.2s11.2-5,11.2-11.2S186.2,89.2,180,89.2L180,89.2z"/>
		</g>
		<path class="st6" d="M244.5,100.5c0,35.6-28.9,64.5-64.5,64.5c-29,0-53.6-19.2-61.7-45.5l121-44.5
			C242.7,82.8,244.5,91.4,244.5,100.5z"/>
	</g>
</g>
</svg>
