<?xml version="1.0" encoding="utf-8"?>
<!-- Generator: Adobe Illustrator 26.0.2, SVG Export Plug-In . SVG Version: 6.00 Build 0)  -->
<svg version="1.1" id="Layer_1" xmlns="http://www.w3.org/2000/svg" xmlns:xlink="http://www.w3.org/1999/xlink" x="0px" y="0px"
	 width="360px" height="200px" viewBox="0 0 360 200" style="enable-background:new 0 0 360 200;" xml:space="preserve">
<style type="text/css">
	.st0{fill:none;stroke:#142C4D;stroke-width:0.8993;stroke-miterlimit:10;}
	.st1{fill:#AEDCDD;}
	.st2{fill:#142C4D;}
	.st3{fill:#EE0000;}
	.st4{fill:#FAAA4F;}
	.st5{opacity:0.3;}
	.st6{fill:none;stroke:#FCD4D4;stroke-width:0.8993;stroke-miterlimit:10;}
	.st7{fill:none;stroke:#FFE7BD;stroke-width:0.8993;stroke-miterlimit:10;}
	.st8{fill:none;stroke:#FCD4D4;stroke-width:1.3489;stroke-miterlimit:10;}
</style>
<g id="wagonWheels_00000105384243931602524450000011939747136184735120_">
	<g>
		<line class="st0" x1="170.2" y1="90.8" x2="145.4" y2="66"/>
		<line class="st0" x1="176.9" y1="87.1" x2="169" y2="52.9"/>
		<line class="st0" x1="184.5" y1="87.5" x2="196" y2="54.3"/>
		<line class="st0" x1="190.7" y1="91.9" x2="218" y2="69.8"/>
		<line class="st0" x1="193.7" y1="98.9" x2="228.5" y2="94.7"/>
		<line class="st0" x1="193.5" y1="103.3" x2="227.9" y2="110.5"/>
		<line class="st0" x1="186.7" y1="112.6" x2="203.8" y2="143.2"/>
		<line class="st0" x1="178.9" y1="114.3" x2="176.2" y2="149.3"/>
		<line class="st0" x1="172.6" y1="112.2" x2="153.9" y2="141.9"/>
		<line class="st0" x1="192.5" y1="106.4" x2="224.2" y2="121.4"/>
		<line class="st0" x1="167.6" y1="106.7" x2="136.3" y2="122.4"/>
		<line class="st0" x1="166.4" y1="102.9" x2="131.8" y2="109"/>
		<line class="st0" x1="167.3" y1="95.2" x2="135" y2="81.5"/>
		<line class="st0" x1="173.1" y1="88.6" x2="155.5" y2="58.2"/>
		<line class="st0" x1="181.7" y1="86.8" x2="186" y2="52"/>
		<line class="st0" x1="187.3" y1="88.8" x2="205.8" y2="59"/>
		<line class="st0" x1="192.7" y1="95.1" x2="224.9" y2="81.3"/>
		<line class="st0" x1="166.2" y1="99.2" x2="131.3" y2="95.9"/>
		<line class="st0" x1="169" y1="92.1" x2="141.2" y2="70.8"/>
		<line class="st0" x1="189.8" y1="90.8" x2="214.6" y2="66"/>
		<line class="st0" x1="189.8" y1="110.3" x2="214.6" y2="135.1"/>
		<line class="st0" x1="183.1" y1="114" x2="191" y2="148.2"/>
		<line class="st0" x1="175.5" y1="113.6" x2="164" y2="146.7"/>
		<line class="st0" x1="169.2" y1="109.2" x2="141.9" y2="131.2"/>
		<line class="st0" x1="191" y1="108.9" x2="218.8" y2="130.3"/>
		<line class="st0" x1="170.2" y1="110.3" x2="145.4" y2="135.1"/>
		<g>
			<g>
				<circle class="st1" cx="180" cy="100.5" r="13.5"/>
				<g>
					<path class="st2" d="M180,87.9c7,0,12.6,5.6,12.6,12.6s-5.6,12.6-12.6,12.6s-12.6-5.6-12.6-12.6C167.4,93.6,173,87.9,180,87.9
						 M180,86.1c-7.9,0-14.4,6.5-14.4,14.4s6.5,14.4,14.4,14.4s14.4-6.5,14.4-14.4S187.9,86.1,180,86.1L180,86.1z"/>
				</g>
			</g>
			<g>
				<circle class="st2" cx="180" cy="100.5" r="9.9"/>
			</g>
			<g>
				<circle class="st1" cx="180" cy="100.5" r="7.7"/>
				<g>
					<path class="st2" d="M180,93.3c4,0,7.2,3.2,7.2,7.2s-3.2,7.2-7.2,7.2s-7.2-3.2-7.2-7.2S176,93.3,180,93.3 M180,92.3
						c-4.5,0-8.2,3.7-8.2,8.2s3.7,8.2,8.2,8.2s8.2-3.7,8.2-8.2C188.2,96,184.5,92.3,180,92.3L180,92.3z"/>
				</g>
			</g>
			<g>
				<g>
					<path d="M180,159c-32.2,0-58.5-26.2-58.5-58.5S147.7,42,180,42s58.5,26.2,58.5,58.5S212.2,159,180,159z M180,52.4
						c-26.5,0-48.1,21.6-48.1,48.1s21.6,48.1,48.1,48.1s48.1-21.6,48.1-48.1S206.5,52.4,180,52.4z"/>
				</g>
			</g>
			<g>
				<g>
					<g>
						<g>
							<path class="st3" d="M180,151.8c-28.3,0-51.3-23-51.3-51.3s23-51.3,51.3-51.3s51.3,23,51.3,51.3S208.3,151.8,180,151.8z
								 M180,58.3c-23.3,0-42.2,19-42.2,42.2s19,42.2,42.2,42.2s42.2-19,42.2-42.2S203.3,58.3,180,58.3z"/>
							<path class="st2" d="M180,50.1c27.8,0,50.4,22.6,50.4,50.4s-22.6,50.4-50.4,50.4s-50.4-22.6-50.4-50.4S152.2,50.1,180,50.1
								 M180,143.7c23.8,0,43.1-19.4,43.1-43.1c0-23.8-19.4-43.1-43.1-43.1c-23.8,0-43.1,19.4-43.1,43.1
								C136.8,124.3,156.2,143.7,180,143.7 M180,48.3c-28.8,0-52.2,23.4-52.2,52.2s23.4,52.2,52.2,52.2c28.8,0,52.2-23.4,52.2-52.2
								S208.8,48.3,180,48.3L180,48.3z M180,141.9c-22.8,0-41.3-18.5-41.3-41.3s18.5-41.3,41.3-41.3s41.3,18.5,41.3,41.3
								S202.8,141.9,180,141.9L180,141.9z"/>
						</g>
					</g>
				</g>
			</g>
			<g>
				<path class="st4" d="M180,148c-26.4,0-47.9-21.5-47.9-47.9s21.5-47.9,47.9-47.9c26.4,0,47.9,21.5,47.9,47.9S206.4,148,180,148z
					 M180,54.4c-25.2,0-45.6,20.5-45.6,45.6s20.5,45.6,45.6,45.6c25.2,0,45.6-20.5,45.6-45.6S205.2,54.4,180,54.4z"/>
			</g>
			<g class="st5">
				<path class="st2" d="M230.4,100.5c0,27.8-22.6,50.4-50.4,50.4c-21.1,0-39.2-13-46.7-31.4l6.9-2.2c6.6,15.5,21.9,26.3,39.7,26.3
					c23.8,0,43.1-19.4,43.1-43.1c0-3.1-0.3-6.1-0.9-9l6.9-2.2C229.9,92.9,230.4,96.7,230.4,100.5z"/>
			</g>
			<g>
				<g>
					<path class="st3" d="M158.7,126.9c-1.2,0-2.3-0.5-3-1.4l-7-8.8c-0.6-0.8-0.9-1.8-0.8-2.8s0.6-1.9,1.4-2.6
						c0.7-0.5,1.5-0.8,2.4-0.8c1.2,0,2.3,0.5,3,1.4l7,8.8c0.6,0.8,0.9,1.8,0.8,2.8s-0.6,1.9-1.4,2.6
						C160.4,126.6,159.5,126.9,158.7,126.9z"/>
					<g>
						<path class="st2" d="M151.7,111.1c0.9,0,1.8,0.4,2.5,1.2l7,8.8c1.1,1.4,0.9,3.3-0.5,4.4l0,0c-0.6,0.5-1.3,0.7-2,0.7
							c-0.9,0-1.8-0.4-2.5-1.2l-7-8.8c-1.1-1.4-0.9-3.3,0.5-4.4C150.3,111.3,151,111.1,151.7,111.1 M151.7,109.8L151.7,109.8
							c-1,0-2,0.3-2.8,1c-0.9,0.7-1.5,1.8-1.7,3c-0.1,1.2,0.2,2.4,1,3.3l7,8.8c0.9,1.1,2.1,1.7,3.5,1.7c1,0,2-0.3,2.8-1
							c0.9-0.7,1.5-1.8,1.7-3c0.1-1.2-0.2-2.4-1-3.3l-7-8.8C154.3,110.4,153,109.8,151.7,109.8L151.7,109.8z"/>
					</g>
				</g>
				<polyline class="st6" points="149.5,116.5 152.1,114.4 154.4,112.7 				"/>
				<polyline class="st6" points="157.8,116.9 155.5,118.7 152.8,120.8 				"/>
				<polyline class="st7" points="156,124.7 158.4,122.5 160.7,120.6 				"/>
				<polyline class="st8" points="160.7,125.4 158.4,122.5 155.5,118.7 152.1,114.4 149.9,111.6 				"/>
			</g>
		</g>
	</g>
</g>
</svg>
