<?xml version="1.0" encoding="utf-8"?>
<!-- Generator: Adobe Illustrator 26.0.2, SVG Export Plug-In . SVG Version: 6.00 Build 0)  -->
<svg version="1.1" id="Layer_1" xmlns="http://www.w3.org/2000/svg" xmlns:xlink="http://www.w3.org/1999/xlink" x="0px" y="0px"
	 width="360px" height="200px" viewBox="0 0 360 200" style="enable-background:new 0 0 360 200;" xml:space="preserve">
<style type="text/css">
	.st0{fill:#43ADAF;}
	.st1{fill:#142C4D;}
	.st2{fill:#5656C1;}
	.st3{opacity:0.3;fill:#FFFFFF;enable-background:new    ;}
	.st4{fill:#7C7679;}
	.st5{fill:#168989;}
	.st6{fill:#AEDCDD;}
	.st7{opacity:0.34;}
	.st8{fill:#3F3A3D;}
	.st9{opacity:0.41;}
</style>
<g id="eBikeHandles_00000044899175088111284820000005264886752099291545_">
	<g>
		<g>
			<path class="st0" d="M181.5,86.3c-0.3,0-0.5-0.1-0.7-0.3c0,0-0.1-0.1-0.2-0.1c-0.4-0.1-0.8-0.3-0.9-0.7l-0.1-0.3l0.2-0.3l0.3-0.4
				c-0.9,0.2-1.8,0.2-2.6,0.2c-1.2,0-2.3-0.2-3.5-0.5c-0.3-0.1-0.5-0.3-0.7-0.5c-0.2-0.3-0.2-0.6-0.1-0.9c0.1-0.2,0.2-0.4,0.4-0.6
				c0.2-0.2,0.5-0.2,0.7-0.2c0.1,0,0.2,0,0.3,0c1,0.3,2.1,0.4,3.1,0.4c1.8,0,3.7-0.4,5.8-1.1c0.1,0,0.3-0.1,0.4-0.1
				c0.4,0,0.7,0.2,0.9,0.5c0.3,0.4,0.3,1,0,1.4l-2.4,3C182.1,86.2,181.8,86.3,181.5,86.3z"/>
			<path class="st1" d="M183.9,81.7c0.2,0,0.3,0.1,0.4,0.2c0.1,0.2,0.1,0.4,0,0.6l-2.4,3c-0.1,0.1-0.2,0.2-0.4,0.2
				c-0.1,0-0.2,0-0.3-0.1c-0.2-0.2-1-0.3-0.9-0.6l1.6-1.9c-1.6,0.5-3,0.7-4.4,0.7c-1.1,0-2.2-0.2-3.4-0.5c-0.3-0.1-0.4-0.3-0.4-0.6
				c0-0.1,0.1-0.2,0.2-0.3s0.2-0.1,0.3-0.1h0.1c1.1,0.3,2.2,0.4,3.3,0.4c1.9,0,3.9-0.4,6-1.2C183.8,81.7,183.9,81.7,183.9,81.7
				 M183.9,80.4L183.9,80.4L183.9,80.4c-0.2,0-0.4,0-0.6,0.1c-2,0.7-3.8,1.1-5.6,1.1c-1,0-2-0.1-3-0.4c-0.1,0-0.3-0.1-0.5-0.1
				c-0.4,0-0.8,0.1-1.1,0.4c-0.3,0.2-0.5,0.6-0.6,1c-0.1,0.5-0.1,0.9,0.2,1.4c0.2,0.4,0.6,0.7,1.1,0.8c1.3,0.3,2.5,0.5,3.7,0.5
				c0.5,0,1,0,1.4-0.1c0,0.1,0,0.3,0,0.4c0.2,0.7,0.8,1,1.3,1.2c0,0,0.1,0,0.1,0.1c0.3,0.2,0.7,0.3,1,0.3c0.5,0,1.1-0.2,1.4-0.7
				l2.4-3c0.5-0.6,0.5-1.5,0.1-2.2C185,80.7,184.5,80.4,183.9,80.4L183.9,80.4L183.9,80.4z"/>
		</g>
	</g>
	<g>
		<path class="st2" d="M185.9,87.8h-0.1l-4.7-1c-0.1,0-0.2-0.1-0.3-0.2l-1.6-2.1c-0.1-0.2-0.1-0.4,0-0.6c0.1-0.2,0.3-0.3,0.5-0.3
			c0,0,0,0,0.1,0l4.2,0.5c0.1,0,0.3,0.1,0.4,0.2l2.1,2.6c0.1,0.2,0.2,0.4,0,0.6S186.1,87.8,185.9,87.8z"/>
		<path class="st1" d="M179.6,84.1l4.2,0.5l2.1,2.6l-4.7-1L179.6,84.1 M179.6,83c-0.4,0-0.8,0.2-1,0.6s-0.2,0.9,0.1,1.2l1.6,2.1
			c0.2,0.2,0.4,0.4,0.6,0.4l4.7,1c0.1,0,0.2,0,0.2,0c0.4,0,0.7-0.2,0.9-0.5c0.2-0.4,0.2-0.9-0.1-1.3l-2.1-2.6
			c-0.2-0.2-0.4-0.4-0.7-0.4L179.6,83C179.7,83,179.7,83,179.6,83L179.6,83z"/>
	</g>
	<polygon class="st3" points="179.6,84.1 183.8,84.6 185.9,87.3 181.2,86.2 	"/>
	<g>
		<g>
			<path class="st4" d="M188.2,88.5c-0.9-1.2-2.5-1.5-3.8-0.7l-17.7,11.6c-1.1,0.7-1.5,2-1.2,3.1l-0.1-0.1c-0.9-1.3-0.5-3,0.8-3.9
				l17.7-11.6c1.3-0.9,3-0.5,3.9,0.8C188,88,188.2,88.2,188.2,88.5z"/>
		</g>
		<path d="M187.1,91.6l-17.7,11.6c-0.5,0.3-1,0.5-1.5,0.5c-0.9,0-1.7-0.4-2.3-1.1l0,0c-0.3-1.2,0.1-2.4,1.2-3.1l17.6-11.7
			c1.2-0.8,2.9-0.5,3.8,0.7C188.6,89.6,188.2,90.9,187.1,91.6z"/>
		<path d="M187.1,91.6l-17.7,11.6c-0.5,0.3-1,0.5-1.5,0.5c-0.9,0-1.7-0.4-2.3-1.1l0,0c-0.3-1.2,0.1-2.4,1.2-3.1l17.6-11.7
			c1.2-0.8,2.9-0.5,3.8,0.7C188.6,89.6,188.2,90.9,187.1,91.6z"/>
		<g>
			<path class="st4" d="M174.6,112.7c-0.5-1.2-0.1-2.5,0.8-3.2l10.1-8.2l-2.2-9.2l-15.8,0.1c-1.6,0-2.8-1.3-2.8-2.8s1.2-2.8,2.8-2.8
				l18-0.1c1.3,0,2.4,0.9,2.7,2.2l3.1,13.1c0.3,1-0.1,2.2-1,2.8l-9.8,8l2.3,5.7l-5.4,1.6L174.6,112.7z"/>
			<path class="st1" d="M185.5,87.1c1,0,1.9,0.7,2.1,1.7l3.1,13.1c0.2,0.8-0.1,1.7-0.7,2.2l-10.2,8.3l2.3,5.5l-1,0.3l-3.2,0.9
				l-2.7-6.6c-0.4-0.9-0.1-1.9,0.6-2.5l10.4-8.4l-2.4-10.1l-16.3,0.1l0,0c-1.2,0-2.2-1-2.2-2.2c0-1.2,1-2.2,2.1-2.2L185.5,87.1
				L185.5,87.1 M185.5,85.8L185.5,85.8l-18.1,0.1c-0.9,0-1.8,0.4-2.4,1c-0.6,0.7-1,1.5-1,2.4c0,1.9,1.6,3.4,3.5,3.4l15.3-0.1l2,8.3
				l-9.8,7.9c-1.2,1-1.6,2.6-1,4l2.7,6.6l0.4,1.1l1.1-0.3l3.2-0.9l1-0.3l1.4-0.4l-0.5-1.3l-1.9-4.6l9.5-7.7c1-0.8,1.5-2.2,1.2-3.5
				L189,88.4C188.5,86.9,187.1,85.8,185.5,85.8L185.5,85.8z"/>
		</g>
		<g>
			<path class="st0" d="M167.2,91.6c-0.6,0-1.1-0.2-1.6-0.5c-0.8-0.5-1.3-1.4-1.3-2.3v-0.2l0,0c0-0.8,0.3-1.5,0.8-2
				c0.5-0.6,1.3-0.9,2.1-0.9l17.8-0.1c1.6,0,2.9,1.3,2.9,2.9c0,0.3,0,0.6-0.1,0.8c-0.3,1.2-1.5,2.1-2.8,2.1L167.2,91.6z"/>
			<path class="st1" d="M185,86.2c1.3,0,2.4,1,2.4,2.4c0,0.2,0,0.5-0.1,0.7c-0.3,1-1.2,1.7-2.3,1.7l-17.8,0.1l0,0
				c-0.5,0-0.9-0.1-1.3-0.4c-0.6-0.4-1-1.1-1.1-1.9l0,0v-0.1c0-1.3,1-2.4,2.4-2.4L185,86.2L185,86.2 M185,85.1L185,85.1L185,85.1
				l-17.8,0.1c-0.9,0-1.8,0.4-2.4,1s-0.9,1.4-1,2.2l0,0v0.4c0.1,1.1,0.6,2.1,1.6,2.7c0.6,0.4,1.2,0.6,1.9,0.6l17.8-0.1
				c1.5,0,2.9-1,3.3-2.5c0.1-0.3,0.1-0.6,0.1-1C188.5,86.7,186.9,85.1,185,85.1L185,85.1z"/>
		</g>
		<path class="st5" d="M187.4,88.6c0,0.2,0,0.5-0.1,0.7c-0.3,1-1.2,1.7-2.3,1.7l-17.8,0.1c-0.5,0-0.9-0.1-1.3-0.4s-0.8-0.7-0.9-1.2
			c0.3,0.2,0.7,0.2,1.1,0.2l18.8-0.1c1.1,0,2.1-0.7,2.4-1.7l0,0C187.4,88.2,187.4,88.4,187.4,88.6z"/>
		<g>
			<path class="st6" d="M187.4,88.6c0,0.2,0,0.4-0.1,0.7c-0.3-1-1.2-1.7-2.3-1.7l-17.8,0.1c-1.1,0-2,0.7-2.3,1.7
				c0-0.2-0.1-0.3-0.1-0.5l0,0v-0.1c0-1.3,1-2.4,2.4-2.4l17.8-0.1C186.3,86.2,187.4,87.3,187.4,88.6z"/>
		</g>
		<g class="st7">
			<path class="st8" d="M190,104l-10.2,8.3l2.3,5.5l-1,0.3l-2.6-6.2l10.2-8.3c0.6-0.5,0.9-1.4,0.7-2.2l-3.1-13.1
				c-0.1-0.5-0.4-0.9-0.8-1.2c1,0,1.9,0.7,2.1,1.7l3.1,13.1C191,102.6,190.7,103.5,190,104z"/>
		</g>
		<g>
			<path class="st0" d="M167.9,104.3c-1.1,0-2.1-0.5-2.8-1.4l-0.1-0.2l0,0c-0.5-0.8-0.7-1.7-0.5-2.6c0.2-0.9,0.7-1.7,1.5-2.2
				l17.7-11.6c0.6-0.4,1.2-0.6,1.9-0.6c1.2,0,2.3,0.6,2.9,1.6c0.2,0.3,0.3,0.6,0.4,0.9c0.4,1.4-0.1,3-1.4,3.9l-17.7,11.7
				C169.2,104.1,168.5,104.3,167.9,104.3z"/>
			<path class="st1" d="M185.5,86.5c0.9,0,1.8,0.4,2.3,1.3c0.2,0.2,0.3,0.5,0.3,0.7c0.4,1.2-0.1,2.5-1.1,3.2l-17.7,11.6
				c-0.5,0.3-1,0.5-1.5,0.5c-0.9,0-1.7-0.4-2.3-1.1l0,0l-0.1-0.1c-0.9-1.3-0.5-3,0.8-3.9l17.7-11.6C184.5,86.6,185,86.5,185.5,86.5
				 M185.5,85.2L185.5,85.2c-0.8,0-1.6,0.2-2.3,0.7l-17.7,11.6c-0.9,0.6-1.5,1.5-1.8,2.6c-0.2,1,0,2,0.5,2.9l0,0l0.2,0.3
				c0.8,1.1,2,1.7,3.3,1.7c0.8,0,1.6-0.2,2.2-0.7l17.7-11.6c1.5-1,2.2-2.9,1.7-4.6c-0.1-0.4-0.3-0.7-0.5-1.1
				C188.2,85.9,186.9,85.2,185.5,85.2L185.5,85.2z"/>
		</g>
		<g>
			<path class="st6" d="M187.6,87.4c-0.9-0.4-1.9-0.4-2.8,0.2l-17.7,11.6c-1.3,0.9-1.7,2.6-0.8,3.9l0.1,0.1l0,0
				c0,0.1,0.1,0.1,0.2,0.2c-0.4-0.2-0.7-0.5-1-0.8l0,0l-0.1-0.1c-0.9-1.3-0.5-3,0.8-3.9L184,87C185.2,86.1,186.7,86.4,187.6,87.4z"
				/>
		</g>
		<path class="st5" d="M187.1,91.6l-17.7,11.6c-0.5,0.3-1,0.5-1.5,0.5c-0.2,0-0.4,0-0.6-0.1c-0.3-1.2,0.1-2.5,1.2-3.2l17.7-11.6
			c0.6-0.4,1.4-0.5,2.1-0.4C188.6,89.6,188.1,90.9,187.1,91.6z"/>
		<g>
			<path class="st2" d="M183.3,94.9c-0.2,0-0.3-0.1-0.5-0.2c-0.1-0.1-0.2-0.3-0.2-0.5v-2.3c0-0.3,0.1-0.5,0.4-0.6l5.5-2.6
				c0.1,0,0.2-0.1,0.3-0.1c0.1,0,0.2,0,0.3,0.1c0.2,0.1,0.3,0.3,0.3,0.5l0.3,4.8c0,0.2-0.1,0.3-0.2,0.5c-0.1,0.1-0.3,0.2-0.5,0.2
				C189.1,94.8,183.3,94.9,183.3,94.9z"/>
			<g>
				<path class="st1" d="M188.8,89.3l0.3,4.8l-5.8,0.2V92L188.8,89.3 M188.8,88c-0.2,0-0.4,0-0.6,0.1l-5.5,2.6
					c-0.5,0.2-0.7,0.7-0.7,1.2v2.3c0,0.4,0.1,0.7,0.4,0.9c0.2,0.2,0.6,0.4,0.9,0.4l0,0l5.8-0.2c0.4,0,0.7-0.2,0.9-0.4
					c0.2-0.3,0.4-0.6,0.3-1l-0.3-4.8c0-0.4-0.3-0.8-0.6-1C189.3,88.1,189.1,88,188.8,88L188.8,88z"/>
			</g>
		</g>
		<g class="st9">
			<polygon class="st8" points="183.3,91.9 183.3,94.3 188.5,94.3 188.8,92.8 			"/>
		</g>
		<g>
			<path class="st0" d="M167.8,104.1c-0.4,0-0.7-0.1-1.1-0.2c-1.5-0.6-2.4-2.4-2-3.9c0.3-1.2,1.3-2,2.4-2c0.4,0,0.7,0.1,1.1,0.2
				c1.5,0.6,2.4,2.4,2,3.9C170,103.3,169,104.1,167.8,104.1z"/>
			<path class="st1" d="M167.2,98.5c0.3,0,0.6,0.1,0.9,0.2c1.2,0.5,2,2,1.7,3.3c-0.2,1-1,1.6-1.9,1.6c-0.3,0-0.6-0.1-0.9-0.2
				c-1.2-0.5-2-2-1.7-3.3C165.5,99.1,166.3,98.5,167.2,98.5 M167.2,97.3L167.2,97.3c-1.5,0-2.7,1-3,2.5c-0.4,1.8,0.6,3.9,2.3,4.6
				c0.4,0.2,0.9,0.3,1.3,0.3c1.5,0,2.7-1,3-2.5c0.4-1.8-0.6-3.9-2.3-4.6C168.1,97.4,167.6,97.3,167.2,97.3L167.2,97.3z"/>
		</g>
		<ellipse transform="matrix(0.8924 -0.4513 0.4513 0.8924 -27.5626 86.4699)" class="st5" cx="167.5" cy="101" rx="2.2" ry="2.6"/>
	</g>
	<g>
		<g>
			<path class="st0" d="M182.1,102.3c-0.3,0-0.6-0.1-0.8-0.2c-0.3-0.2-0.5-0.5-0.6-0.9s0-0.8,0.2-1.1c2.1-3.2,4.5-5.5,8.1-7.5
				l-2-0.2c-0.3,0-0.5-0.2-0.6-0.4c-0.2-0.4,0-0.9,0.3-1.5c0.1-0.2,0.2-0.4,0.2-0.5c0.1-0.7,0.7-1.2,1.4-1.2c0.1,0,0.2,0,0.2,0
				l6.3,1c0.6,0.1,1.1,0.6,1.2,1.3c0.1,0.6-0.3,1.3-0.9,1.5c-5.4,2.2-9.2,5.2-11.8,9.1C183,102,182.6,102.3,182.1,102.3L182.1,102.3
				z"/>
			<path class="st1" d="M188.2,89.4h0.1l6.3,1c0.4,0.1,0.6,0.3,0.7,0.7c0,0.4-0.2,0.7-0.5,0.8c-5.5,2.3-9.5,5.3-12.1,9.4
				c-0.1,0.2-0.4,0.3-0.6,0.4c0,0,0,0-0.1,0c-0.2,0-0.3,0-0.4-0.1c-0.4-0.2-0.5-0.7-0.2-1.1c2.4-3.7,5.1-6,9.7-8.3l-4.1-0.5
				c-0.4-0.1,0.4-1.2,0.4-1.6C187.5,89.7,187.8,89.4,188.2,89.4 M188.2,88.1L188.2,88.1c-1,0-1.9,0.7-2.1,1.7c0,0.1-0.1,0.2-0.2,0.3
				c-0.3,0.6-0.6,1.3-0.3,2.1c0.2,0.4,0.6,0.7,1.1,0.8l0,0l0,0h0.1c-2.8,1.8-4.8,3.9-6.7,6.7c-0.3,0.5-0.4,1-0.3,1.6
				c0.1,0.5,0.4,1,0.9,1.3c0.3,0.2,0.7,0.3,1.1,0.3h0.1c0.7,0,1.3-0.4,1.6-0.9c2.5-3.8,6.2-6.7,11.5-8.9c0.9-0.4,1.4-1.3,1.3-2.2
				s-0.8-1.7-1.8-1.8L188.2,88.1C188.4,88.1,188.3,88.1,188.2,88.1L188.2,88.1z"/>
		</g>
	</g>
	<g>
		<path class="st2" d="M187.3,92.6l-3.9-0.4c-0.3,0-0.5-0.2-0.6-0.5c-0.1-0.3,0.1-0.5,0.3-0.7l4.8-3c0.1-0.1,0.2-0.1,0.3-0.1h0.1
			l3,0.4c0.3,0,0.5,0.2,0.5,0.5c0,0.3,0,0.5-0.2,0.7l-3.9,3C187.7,92.5,187.5,92.6,187.3,92.6C187.4,92.6,187.3,92.6,187.3,92.6z"/>
		<path class="st1" d="M188.2,88.5l3,0.4l-3.9,3l-3.9-0.4L188.2,88.5 M188.2,87.2c-0.2,0-0.5,0.1-0.7,0.2l-4.8,3
			c-0.5,0.3-0.7,0.9-0.6,1.4s0.6,0.9,1.1,1l3.9,0.4h0.1c0.3,0,0.6-0.1,0.8-0.3l3.9-3c0.4-0.3,0.6-0.9,0.5-1.4s-0.6-0.9-1.1-1
			L188.2,87.2C188.4,87.2,188.3,87.2,188.2,87.2L188.2,87.2z"/>
	</g>
	<polygon class="st3" points="191.3,88.9 183.5,91.5 188.2,88.5 	"/>
</g>
</svg>
