<?xml version="1.0" encoding="utf-8"?>
<!-- Generator: Adobe Illustrator 26.0.2, SVG Export Plug-In . SVG Version: 6.00 Build 0)  -->
<svg version="1.1" id="Layer_1" xmlns="http://www.w3.org/2000/svg" xmlns:xlink="http://www.w3.org/1999/xlink" x="0px" y="0px"
	 width="360px" height="200px" viewBox="0 0 360 200" style="enable-background:new 0 0 360 200;" xml:space="preserve">
<style type="text/css">
	.st0{fill:#EE0000;}
	.st1{fill:#8F0000;}
	.st2{fill:#FFFFFF;}
	.st3{fill:#142C4D;}
	.st4{fill:#93D3E6;}
	.st5{fill:#4CB6D6;}
	.st6{opacity:0.3;}
	.st7{fill:none;stroke:#4D4D4D;stroke-width:4.5051;stroke-linecap:round;stroke-linejoin:round;stroke-miterlimit:10;}
	.st8{fill:#DD00FF;}
</style>
<g id="lowRiderHandles_00000001623035948438096200000009237475482095423159_">
	<g>
		<g>
			<path class="st0" d="M160.4,83.4c-1.3,0.2-2.6-0.4-3.1-1.7c-0.7-1.5,0-3.2,1.4-3.9l6.7-3.1c1.5-0.7,3.2,0,3.9,1.4
				c0.7,1.5,0,3.2-1.4,3.9l-6.7,3.1C160.9,83.3,160.7,83.4,160.4,83.4z"/>
			<path class="st1" d="M167.9,80.1l-6.7,3.1c-0.2,0.1-0.5,0.2-0.8,0.2c-1,0.2-1.9-0.2-2.6-0.9c0.1,0,0.2,0,0.3,0
				c0.3,0,0.5-0.1,0.8-0.2l6.7-3.1c1.5-0.7,2.1-2.4,1.4-3.9c-0.1-0.3-0.3-0.6-0.5-0.8c1.2-0.1,2.3,0.6,2.8,1.7
				C170,77.7,169.4,79.4,167.9,80.1z"/>
			<path class="st2" d="M169.6,77.2c-0.8-1.2-2.3-1.7-3.7-1.1l-6.7,3.1c-1.1,0.5-1.8,1.7-1.7,2.9c-0.1-0.1-0.1-0.2-0.2-0.3
				c-0.7-1.5,0-3.2,1.4-3.9l6.7-3.1c1.5-0.7,3.2,0,3.9,1.4C169.5,76.5,169.6,76.9,169.6,77.2z"/>
			<path class="st3" d="M160,84.2c-1.4,0-2.7-0.8-3.3-2.1c-0.8-1.8,0-3.9,1.8-4.8l6.7-3.1c1.8-0.8,3.9,0,4.8,1.8
				c0.8,1.8,0,3.9-1.8,4.8l-6.7,3.1c-0.3,0.1-0.6,0.2-0.9,0.3C160.3,84.1,160.2,84.2,160,84.2z M166.7,75.2c-0.3,0-0.6,0.1-0.9,0.2
				l-6.7,3.1c-1.1,0.5-1.6,1.9-1.1,3c0.4,0.9,1.4,1.4,2.4,1.3l0,0c0.2,0,0.4-0.1,0.6-0.2l6.7-3.1c1.1-0.5,1.6-1.9,1.1-3
				C168.4,75.7,167.5,75.2,166.7,75.2z"/>
		</g>
	</g>
	<g>
		<g>
			<ellipse transform="matrix(0.9875 -0.1578 0.1578 0.9875 -10.0253 27.4767)" class="st0" cx="168" cy="76.9" rx="5" ry="5.5"/>
			
				<ellipse transform="matrix(0.9875 -0.1578 0.1578 0.9875 -10.159 27.5825)" class="st1" cx="168.6" cy="77.8" rx="4.5" ry="4.9"/>
			<path class="st3" d="M168.2,83c-1.2,0-2.4-0.4-3.4-1.2c-1.2-1-2-2.4-2.3-4c-0.3-1.6,0.1-3.2,0.9-4.5c0.9-1.3,2.2-2.2,3.7-2.4
				c3.1-0.5,6,1.8,6.6,5.2l0,0c0.3,1.6-0.1,3.2-0.9,4.5c-0.9,1.3-2.2,2.2-3.7,2.4C168.7,83,168.4,83,168.2,83z M167.9,72.1
				c-0.2,0-0.4,0-0.6,0c-1.1,0.2-2.1,0.8-2.8,1.8s-0.9,2.3-0.7,3.6c0.2,1.3,0.8,2.4,1.8,3.1c0.9,0.8,2.1,1.1,3.2,0.9
				c1.1-0.2,2.1-0.8,2.8-1.8c0.7-1,0.9-2.3,0.7-3.6C171.9,73.8,170,72.1,167.9,72.1z"/>
		</g>
	</g>
	<g>
		<g>
			<g>
				<path class="st4" d="M192.9,123.7c-1.2,0-2.3-0.7-2.7-1.8l-17.9-43.5l-2.9,1c-0.3,0.1-0.6,0.1-0.8,0.1c-1.1,0-2.1-0.8-2.5-2.1
					v-0.1c-0.5-1.6,0.1-3.1,1.6-3.5l5.5-1.8c0.3-0.1,0.6-0.1,0.9-0.1c1.1,0,2,0.6,2.6,1.5c0.1,0.1,0.1,0.2,0.2,0.3l19,46
					c0.6,1.5-0.1,3.2-1.6,3.8c-0.3,0.1-0.6,0.2-1,0.2H192.9z"/>
				<path class="st3" d="M173.9,72.5c0.8,0,1.6,0.4,2,1.1c0,0.1,0.1,0.2,0.1,0.2l3,7.4l16,38.7c0.5,1.1-0.1,2.5-1.2,2.9
					c-0.2,0.1-0.5,0.2-0.8,0.2h-0.1c-0.9,0-1.7-0.5-2.1-1.4l-16.2-39.2l-2-4.9l-3.5,1.2c-0.2,0.1-0.4,0.1-0.6,0.1
					c-0.9,0-1.5-0.6-1.9-1.6l0,0c-0.4-1.2-0.1-2.4,1.1-2.8l5.5-1.8C173.5,72.5,173.7,72.5,173.9,72.5 M173.9,71.1L173.9,71.1
					c-0.4,0-0.8,0.1-1.1,0.2l-5.5,1.8c-1.7,0.6-2.5,2.3-2,4.2v0.1l0.1,0.2c0.5,1.5,1.7,2.4,3.1,2.4c0.3,0,0.7-0.1,1.1-0.2l2.3-0.8
					l1.5,3.7l16.2,39.5c0.6,1.4,1.9,2.2,3.3,2.2c0.1,0,0.1,0,0.2,0c0.4,0,0.8-0.1,1.2-0.3c1.8-0.8,2.7-2.9,2-4.7l-15.9-38.6l-3-7.4
					c-0.1-0.1-0.1-0.3-0.2-0.4C176.4,71.8,175.2,71.1,173.9,71.1L173.9,71.1z"/>
			</g>
			<path class="st5" d="M193.8,122.9c-0.2,0.1-0.5,0.2-0.8,0.2c-0.9,0-1.8-0.5-2.2-1.4l-5.4-13.2l4.2-1.6l5.4,13
				C195.5,121.1,194.9,122.4,193.8,122.9z"/>
			<g class="st6">
				<path class="st3" d="M193.8,122.9c-0.2,0.1-0.5,0.2-0.8,0.2c-0.9,0-1.8-0.5-2.2-1.4l-2.4-5.8l3.9-2.3l2.6,6.4
					C195.5,121.1,194.9,122.4,193.8,122.9z"/>
			</g>
			<g>
				<path class="st5" d="M178.6,80.4l-4.4,1.1l-1.6-4l-3.5,1.2c-1.2,0.4-2.1-0.3-2.5-1.5l0,0l9.3-3.5c0,0.1,0.1,0.2,0.1,0.2
					L178.6,80.4z"/>
				<g class="st6">
					<polygon class="st3" points="173.8,80.1 178.4,79.5 176.9,75.8 172.6,77.5 					"/>
				</g>
			</g>
		</g>
	</g>
	<g>
		<g>
			<g>
				<path class="st4" d="M180.4,127.5c-0.3-0.8-0.3-1.6,0.1-2.4s1-1.3,1.8-1.5l14.3-4l-17.5-48.4c-0.3-0.7-0.2-1.5,0.1-2.2
					c0.3-0.7,0.9-1.2,1.7-1.5c0.3-0.1,0.7-0.2,1-0.2c1.2,0,2.3,0.8,2.8,1.9l18.6,51.4c0.3,0.8,0.2,1.6-0.2,2.3
					c-0.4,0.7-1,1.3-1.8,1.5l-14.2,3.9l2.4,5.8l-5.6,1.8L180.4,127.5z"/>
				<path class="st3" d="M181.8,67.9c0.9,0,1.8,0.6,2.1,1.5l1.3,3.6l17.3,47.8c0.2,0.6,0.2,1.2-0.1,1.8c-0.3,0.6-0.8,1-1.4,1.1
					l-14.9,4.1l2.4,5.9l-2.2,0.7l-2.1,0.7l-3.2-7.9c-0.2-0.6-0.2-1.3,0.1-1.8c0.3-0.6,0.8-1,1.4-1.2l15-4.2l-14.9-41.2l-1.7-4.7
					l-1.2-3.2c-0.4-1.2,0.2-2.5,1.4-2.9C181.3,68,181.6,67.9,181.8,67.9 M181.8,66.6c-0.4,0-0.8,0.1-1.2,0.2
					c-1.9,0.7-2.8,2.7-2.2,4.6l1.1,3.2l1.7,4.7l14.4,39.9l-13.5,3.7c-1,0.3-1.8,1-2.3,1.9s-0.5,2-0.1,3l3.2,7.9l0.5,1.2l1.2-0.4
					l2.1-0.7l2.2-0.7l1.4-0.5l-0.6-1.3l-1.8-4.5l13.4-3.7c1-0.3,1.8-0.9,2.2-1.8c0.5-0.9,0.5-1.9,0.2-2.9l-17.2-47.9l-1.3-3.6
					C184.7,67.5,183.4,66.6,181.8,66.6L181.8,66.6z"/>
			</g>
			<path class="st5" d="M202.4,122.6c-0.3,0.6-0.8,1-1.4,1.1l-14.9,4.1l2.4,5.9l-2.2,0.7l-3-7.6l18-5.4l-15-41.5l-2.8,0.7l-2.6-6.5
				l4.4-1.1l17.3,47.8C202.8,121.4,202.7,122,202.4,122.6z"/>
			<g class="st6">
				<polygon class="st3" points="182.8,78.7 187.4,78.1 185.9,74.9 181.7,76.6 				"/>
			</g>
			<g class="st6">
				<path class="st3" d="M202.4,122.6c-0.3,0.6-0.8,1-1.4,1.1l-14.9,4.1l2.3,5.6l-2.3,0.4l-2.8-7l3.2-1l14.7-4.4l1.4-0.5
					C202.7,121.4,202.7,122,202.4,122.6z"/>
			</g>
		</g>
	</g>
	<path class="st7" d="M171.1,76"/>
	<g>
		<g>
			<circle class="st0" cx="181.1" cy="70.8" r="6"/>
			<path class="st1" d="M187.1,71.6c-0.5,3.3-3.6,5.6-6.9,5.1c-2.1-0.3-3.8-1.7-4.6-3.5c0.8,0.7,1.9,1.3,3.1,1.4
				c3.3,0.5,6.4-1.8,6.9-5.1c0.2-1.2,0-2.4-0.5-3.4C186.6,67.5,187.4,69.5,187.1,71.6z"/>
			<path class="st3" d="M181.1,77.5c-3.7,0-6.7-3-6.7-6.7c0-3.7,3-6.7,6.7-6.7s6.7,3,6.7,6.7C187.8,74.5,184.8,77.5,181.1,77.5z
				 M181.1,65.4c-3,0-5.4,2.4-5.4,5.4s2.4,5.4,5.4,5.4s5.4-2.4,5.4-5.4S184,65.4,181.1,65.4z"/>
		</g>
	</g>
	<g>
		<path class="st8" d="M182.3,66.5l-0.9-0.3C181.7,66.3,182,66.4,182.3,66.5z"/>
	</g>
	<g>
		<g>
			<path class="st0" d="M183.2,71.9c-0.3,0.8-0.8,1.5-1.6,1.8l-5.8,3l-2.9-5.6l5.8-3c0.7-0.4,1.6-0.4,2.4-0.2
				c0.8,0.3,1.5,0.8,1.8,1.6C183.4,70.3,183.5,71.1,183.2,71.9z"/>
			<path class="st1" d="M183.4,70.9c0,0.3,0,0.7-0.2,1c-0.3,0.8-0.8,1.5-1.6,1.8l-5.8,3l-0.6-1.2l7.3-4.1
				C182.9,71.3,183.1,71.1,183.4,70.9z"/>
			<path class="st2" d="M181.7,67.5c-0.3-0.2-0.6-0.3-0.9-0.4c-0.8-0.2-1.7-0.1-2.4,0.3l-5.7,3.3l0.7,1.1l7.4-4
				C181.1,67.7,181.4,67.5,181.7,67.5z"/>
			<path class="st3" d="M184.2,68.9c-0.5-1.1-1.5-1.9-2.6-2.2c-1.1-0.4-2.4-0.3-3.4,0.3l-7.1,3.6l4.1,8l7.1-3.6
				c1.1-0.5,1.9-1.5,2.2-2.6C184.8,71.3,184.8,70,184.2,68.9z M175.8,76.7l-2.9-5.6l5.8-3c0.7-0.4,1.6-0.4,2.4-0.2
				c0.8,0.3,1.5,0.8,1.8,1.6c0.4,0.8,0.5,1.6,0.2,2.4c-0.3,0.8-0.8,1.5-1.6,1.8L175.8,76.7z"/>
		</g>
		<g>
			
				<ellipse transform="matrix(0.2076 -0.9782 0.9782 0.2076 65.178 228.8003)" class="st0" cx="173.8" cy="74.2" rx="3.8" ry="3.8"/>
			<path class="st3" d="M173.8,78.7c-0.5,0-0.9-0.1-1.4-0.2c-1.1-0.4-2.1-1.2-2.6-2.2l0,0c-1.1-2.2-0.2-4.9,2-6.1
				c2.2-1.1,4.9-0.2,6.1,2c1.1,2.2,0.2,4.9-2,6.1C175.2,78.6,174.5,78.7,173.8,78.7z M171,75.7c0.4,0.8,1,1.3,1.8,1.6
				c0.8,0.3,1.7,0.2,2.4-0.2c1.5-0.8,2.2-2.7,1.4-4.2c-0.8-1.5-2.7-2.2-4.2-1.4C170.8,72.2,170.2,74.1,171,75.7L171,75.7z"/>
		</g>
	</g>
</g>
</svg>
