<?xml version="1.0" encoding="utf-8"?>
<!-- Generator: Adobe Illustrator 26.0.2, SVG Export Plug-In . SVG Version: 6.00 Build 0)  -->
<svg version="1.1" id="Layer_1" xmlns="http://www.w3.org/2000/svg" xmlns:xlink="http://www.w3.org/1999/xlink" x="0px" y="0px"
	 width="360px" height="200px" viewBox="0 0 360 200" style="enable-background:new 0 0 360 200;" xml:space="preserve">
<style type="text/css">
	.st0{fill:#142C4D;}
	.st1{fill:#666666;}
	.st2{fill:#281D1D;}
	.st3{fill:#EADFDF;}
	.st4{fill:#79C4C6;}
	.st5{fill:#168989;}
	.st6{fill:#0C514F;}
	.st7{fill:#C3F4F4;}
	.st8{fill:#666666;stroke:#000000;stroke-width:2;stroke-miterlimit:10;}
	.st9{opacity:0.51;}
	.st10{opacity:0.51;fill:#281D1D;enable-background:new    ;}
	.st11{fill:#37CCD3;}
</style>
<g id="streetHandles_00000177477447584132017640000010558410977298531482_">
	<g>
		<path class="st0" d="M204.8,103.4c-0.2,0.2-0.4,0.3-0.7,0.3c-0.2,0-0.3-0.1-0.5-0.2l0,0c-0.5-0.4-4.1-2.9-6.2-6.8
			c-0.8-1.4-1.1-2.9-1.4-4.1c-0.5-2.2-0.8-3.4-3.2-3.7c-0.5-0.1-0.7-0.5-0.7-0.9c0-0.2,0.1-0.5,0.4-0.6l2.3-1.5l0.3,0.1
			c3.5,0.8,3.7,3.2,3.9,5.5c0.1,1.2,0.3,2.5,0.8,3.8c1.4,3.6,4.4,6.4,4.8,6.9c0,0,0.1,0,0.1,0.1C205,102.6,205.1,103.1,204.8,103.4z
			"/>
		<g>
			<path class="st1" d="M179.2,84.7h5.9c2,0,3.7-1.2,4.4-3.1l0.3-0.8c0.3-0.8,1-1.2,1.8-1.2c0.6,0,1.2,0.3,1.6,0.9l2.7,4.1
				c0.9,1.4,0.7,3.2-0.6,4.3l-7.2,6.3L179.2,84.7z"/>
			<path class="st0" d="M191.7,80.5c0.3,0,0.6,0.1,0.8,0.4l2.7,4.1c0.6,1,0.5,2.2-0.4,3l-6.4,5.6l-6.9-8h3.7c2.4,0,4.5-1.5,5.4-3.7
				l0.3-0.8C191,80.7,191.3,80.5,191.7,80.5 M191.7,78.5L191.7,78.5c-1.2,0-2.3,0.7-2.7,1.9l-0.3,0.8c-0.5,1.4-2,2.4-3.5,2.4h-3.8
				H177l2.9,3.3l6.9,8l1.3,1.5l1.5-1.3l6.4-5.6c1.6-1.4,1.9-3.8,0.8-5.6l-2.7-4.1C193.6,79,192.7,78.5,191.7,78.5L191.7,78.5z"/>
		</g>
		<path class="st2" d="M194.8,88l-6.4,5.6l-0.5-0.6l-0.4-1.5c3.5-1.8,6.3-3.9,7.7-6.5C195.8,86,195.7,87.3,194.8,88z"/>
		<path class="st3" d="M192.5,81c-0.2,0.1-0.4,0.3-0.6,0.6l-0.4,0.9c-0.9,2.4-3.3,4-6,4H182l-0.7-0.8h3.7c2.4,0,4.5-1.5,5.4-3.7
			l0.3-0.8C191.1,80.4,192,80.3,192.5,81L192.5,81z"/>
		<g>
			<g>
				<path class="st1" d="M178.3,84.4h-13c-0.6,0-1.1,0.5-1.1,1.1V91c0,0.6,0.5,1.1,1.1,1.1h13c4.6,0,5,4.8,5,6.2
					c0,2.7-1,5.5-2.8,7.5c-2.1,2.3-5.1,3.6-8.7,3.6h-1.2c-1.5,0-2.6,1.2-2.6,2.6v2.5c0,1.5,1.2,2.6,2.6,2.6h1.2
					c7.4,0,12-3.3,14.5-6.2c3-3.4,4.8-8,4.8-12.6C191.1,90.2,185.8,84.4,178.3,84.4z M185.7,110.5c-2.4,2.7-6.7,5.9-13.8,5.9h-1.2
					c-1,0-1.8-0.8-1.8-1.8v-2.5c0-1,0.8-1.8,1.8-1.8h1.2c3.8,0,7.1-1.3,9.3-3.8c1.9-2.2,3-5.1,3-8c0-3.4-1.5-7.1-5.8-7.1h-13
					c-0.2,0-0.3-0.1-0.3-0.3v-5.5c0-0.2,0.1-0.3,0.3-0.3h13c7,0,11.9,5.4,11.9,13.2C190.2,102.8,188.6,107.2,185.7,110.5z"/>
				<path class="st0" d="M178.3,83.6h-13c-1.1,0-1.9,0.9-1.9,1.9V91c0,1.1,0.9,1.9,1.9,1.9h13c3.8,0,4.2,3.8,4.2,5.4
					c0,2.5-1,5.1-2.6,6.9c-1.9,2.2-4.7,3.3-8.1,3.3h-1.2c-1.9,0-3.5,1.6-3.5,3.5v2.5c0,1.9,1.6,3.5,3.5,3.5h1.2
					c7.7,0,12.5-3.5,15.1-6.4c3.2-3.6,5-8.4,5-13.2C191.9,89.7,186.3,83.6,178.3,83.6z M171.8,116.4h-1.2c-1,0-1.8-0.8-1.8-1.8v-2.5
					c0-1,0.8-1.8,1.8-1.8h1.2c3.8,0,7.1-1.3,9.3-3.8c1.9-2.2,3-5.1,3-8c0-3.4-1.5-7.1-5.8-7.1h-13c-0.2,0-0.3-0.1-0.3-0.3v-5.5
					c0-0.2,0.1-0.3,0.3-0.3h13c7,0,11.9,5.4,11.9,13.2c0,4.4-1.7,8.8-4.6,12.1C183.3,113.2,178.9,116.4,171.8,116.4z"/>
				<path class="st4" d="M190.2,98.4c0,0.3,0,0.6,0,0.8l0,0c-0.2,4.1-1.8,8.2-4.6,11.3c-2.4,2.7-6.7,5.9-13.8,5.9h-1.2
					c-1,0-1.8-0.8-1.8-1.8v-2.5c0-1,0.8-1.8,1.8-1.8h1.2c3.8,0,7.1-1.3,9.3-3.8c1.8-2,2.8-4.6,3-7.2c0-0.3,0-0.5,0-0.8
					c0-3.4-1.5-7.1-5.8-7.1h-13c-0.2,0-0.3-0.1-0.3-0.3v-5.5c0-0.2,0.1-0.3,0.3-0.3h13C185.4,85.2,190.2,90.6,190.2,98.4z"/>
				<path class="st5" d="M190.2,98.4c0,0.3,0,0.5,0,0.8l0,0c-0.1,2.7-0.9,5.4-2.1,7.7c-0.6,0-0.9-0.5-0.8-1.6c0.1-2.8-1.4-4.7-3.2-6
					c0,0,0-0.1,0-0.2c0-0.3,0-0.5,0-0.8c0-3.4-1.5-7.1-5.8-7.1h-0.2l-0.5-2l7.9-1.7C188.5,89.9,190.2,93.7,190.2,98.4z"/>
				<path class="st5" d="M180.8,91.8c-0.7-0.3-1.5-0.5-2.5-0.5h-13c-0.2,0-0.3-0.1-0.3-0.3v-0.5h12.1
					C178.7,90.5,179.9,91,180.8,91.8z"/>
				<path class="st5" d="M190.2,98.4c0,0.3,0,0.6,0,0.8l0,0c-0.2,4.1-1.8,8.2-4.6,11.3c-2.4,2.7-6.7,5.9-13.8,5.9h-1.2
					c-0.6,0-1.2-0.3-1.5-0.8c0.1,0,0.2,0,0.3,0h1.2c7.1,0,11.5-3.2,13.8-5.9c2.7-3.1,4.4-7.1,4.6-11.3l0,0c0-0.3,0-0.6,0-0.8
					c0-4.7-1.8-8.6-4.8-10.9C187.9,88.8,190.2,93.1,190.2,98.4z"/>
				<path class="st6" d="M190.2,97.2l-6.2-0.7c-0.3-1.8-1.2-3.5-2.8-4.4h7.8C189.6,93.5,190.1,95.3,190.2,97.2z"/>
				<path class="st7" d="M182.6,104.2c-0.5,1.1-1.1,2.1-1.9,3c-2.2,2.5-5.4,3.8-9.3,3.8h-1.2c-0.6,0-1.1,0.2-1.4,0.6
					c0.2-0.8,0.9-1.5,1.8-1.5h1.2c3.8,0,7.1-1.3,9.3-3.8C181.7,105.8,182.2,105,182.6,104.2z"/>
				<path class="st7" d="M183.6,86.4c-1.1-0.2-2.3-0.4-3.5-0.4h-14.7c-0.2,0-0.3,0.1-0.3,0.3v-0.8c0-0.2,0.1-0.3,0.3-0.3h13
					C180.3,85.2,182.1,85.6,183.6,86.4z"/>
			</g>
		</g>
		<path class="st8" d="M195.2,84.2"/>
	</g>
	<g>
		<g>
			<path class="st1" d="M179.7,123.3c-2.5,0-4.5-2-4.5-4.5s2-4.5,4.5-4.5c4.5,0,8.2-1.5,10.8-4.5c2.2-2.5,3.5-5.9,3.5-9.4
				c0-1.9-0.5-7.9-6.4-7.9H151c0.5,1.5,1.1,3.3,1.7,5.3c0.3,1,0.1,2.1-0.5,2.9c-0.9,1.3-2.7,2.1-4.5,2.1s-3.1-0.9-3.5-2.3
				c-2.1-6.6-3.4-10.8-3.6-11.3c-0.4-1.4-0.2-2.9,0.7-4s2.2-1.8,3.6-1.8h42.8c9,0,15.4,7,15.4,16.9c0,5.6-2.1,11.2-5.8,15.3
				C194.3,119.2,188.7,123.3,179.7,123.3z"/>
			<path class="st0" d="M187.7,84.3c8.6,0,14.6,6.6,14.6,16.2c0,5.4-2,10.8-5.6,14.8c-2.9,3.3-8.3,7.2-17,7.2
				c-2.1,0-3.8-1.7-3.8-3.8s1.7-3.8,3.8-3.8c4.7,0,8.7-1.6,11.4-4.7c2.4-2.7,3.7-6.2,3.7-9.9c0-1.4-0.3-8.7-7.1-8.7h-37.6
				c0.5,1.7,1.2,3.8,2,6.3c0.7,2.3-2,4.1-4.3,4.1c-1.3,0-2.4-0.5-2.8-1.8c-2.2-6.9-3.6-11.2-3.6-11.3c-0.4-1.1-0.1-2.4,0.6-3.3
				c0.7-0.9,1.8-1.5,3-1.5h42.7 M187.7,82.8h-42.8c-1.7,0-3.2,0.8-4.2,2.1c-1,1.3-1.3,3.1-0.8,4.7c0,0,1.3,4.3,3.6,11.3
				c0.6,1.8,2.2,2.8,4.3,2.8c2,0,4.1-1,5.1-2.4c0.8-1.1,1-2.4,0.6-3.6c-0.5-1.6-1-3.1-1.4-4.3h35.6c5.2,0,5.6,5.5,5.6,7.2
				c0,3.2-1.2,6.5-3.3,8.9c-2.4,2.7-6,4.2-10.3,4.2c-2.9,0-5.2,2.4-5.2,5.3s2.4,5.2,5.2,5.2c9.3,0,15-4.2,18.1-7.7
				c3.8-4.3,6-10.1,6-15.8C203.8,90.1,197.2,82.8,187.7,82.8L187.7,82.8z"/>
		</g>
	</g>
	<g>
		<path class="st3" d="M202.3,100.5c0,0.2,0,0.5,0,0.7c-0.2-9.2-6.2-15.6-14.6-15.6h-42.8c-1.2,0-2.3,0.6-3,1.5
			c-0.4,0.5-0.6,1-0.7,1.6c-0.2-1,0.1-2,0.7-2.8c0.7-1,1.8-1.5,3-1.5h42.8C196.3,84.3,202.3,90.9,202.3,100.5z"/>
	</g>
	<g class="st9">
		<path class="st2" d="M187.7,91.8h-37.6c0.5,1.7,1.2,3.9,2,6.3c1.1,3.4-5.3,5.7-6.9,2.8c2.4,0.4,5.7-1.5,4.9-4.1
			c-0.8-2.5-1.5-4.6-2-6.3h37.6c2.1,0,3.6,0.7,4.7,1.7C189.6,92,188.8,91.8,187.7,91.8z"/>
	</g>
	<g>
		<path class="st0" d="M220.2,106.6c-0.2,0.2-0.5,0.4-0.8,0.3c-0.2,0-0.4-0.1-0.6-0.2l0,0c-0.7-0.5-5-3.6-7.6-8.3
			c-1-1.8-1.4-3.5-1.7-5c-0.6-2.7-1-4.2-3.9-4.5c-0.6-0.1-0.9-0.6-0.9-1.1c0-0.3,0.2-0.6,0.5-0.8l2.8-1.8l0.4,0.1
			c4.2,1,4.5,3.9,4.8,6.7c0.1,1.4,0.3,3,1,4.7c1.7,4.5,5.4,7.9,5.9,8.4l0.1,0.1C220.5,105.6,220.5,106.2,220.2,106.6z"/>
		<g>
			<path class="st1" d="M189.3,83.8h6.7c2.5,0,4.8-1.6,5.7-3.9l0.4-1c0.3-0.8,1.1-1.4,2-1.4c0.7,0,1.4,0.4,1.8,1l3.3,5
				c1.1,1.6,0.8,3.7-0.7,5l-8.7,7.5L189.3,83.8z"/>
			<path class="st0" d="M204.1,78.5c0.4,0,0.7,0.2,0.9,0.5l3.3,5c0.8,1.2,0.6,2.8-0.5,3.7l-7.9,6.9l-8.5-9.8h4.5
				c2.9,0,5.6-1.8,6.6-4.6l0.4-1C203.2,78.8,203.7,78.5,204.1,78.5 M204.1,76.5L204.1,76.5c-1.3,0-2.5,0.8-2.9,2l-0.4,1
				c-0.7,2-2.6,3.3-4.7,3.3h-4.5h-4.4l2.9,3.3l8.5,9.8l1.3,1.5l1.5-1.3l7.9-6.9c1.8-1.6,2.2-4.3,0.8-6.3l-3.3-5
				C206.1,77,205.2,76.5,204.1,76.5L204.1,76.5z"/>
		</g>
		<path class="st10" d="M207.9,87.7l-7.9,6.9l-0.6-0.7L199,92c4.4-2.2,7.7-4.8,9.4-8C209.2,85.2,209,86.8,207.9,87.7z"/>
		<path class="st3" d="M205.1,79.1c-0.3,0.1-0.5,0.4-0.7,0.7l-0.4,1.1c-1.2,2.9-4.1,4.9-7.4,4.9h-4.2l-0.8-1h4.5
			c2.9,0,5.6-1.8,6.6-4.6l0.4-1C203.4,78.4,204.6,78.3,205.1,79.1L205.1,79.1z"/>
		<g>
			<g>
				<path class="st1" d="M187.7,83.3h-16c-0.7,0-1.4,0.6-1.4,1.4v6.8c0,0.7,0.6,1.4,1.4,1.4h16c5.7,0,6.1,5.9,6.1,7.7
					c0,3.4-1.3,6.7-3.5,9.2c-2.5,2.9-6.2,4.4-10.6,4.4h-1.5c-1.8,0-3.2,1.5-3.2,3.2v3c0,1.8,1.5,3.2,3.2,3.2h1.5
					c9.1,0,14.7-4.1,17.7-7.6c3.7-4.2,5.9-9.8,5.9-15.5C203.3,90.3,196.9,83.3,187.7,83.3z M196.7,115.3c-2.9,3.3-8.3,7.2-17,7.2
					h-1.5c-1.2,0-2.2-1-2.2-2.2v-3c0-1.2,1-2.2,2.2-2.2h1.5c4.7,0,8.7-1.6,11.4-4.7c2.4-2.6,3.7-6.2,3.7-9.9c0-4.2-1.9-8.7-7.1-8.7
					h-16c-0.2,0-0.4-0.2-0.4-0.4v-6.8c0-0.2,0.2-0.4,0.4-0.4h16c8.6,0,14.6,6.6,14.6,16.2C202.3,105.9,200.3,111.3,196.7,115.3z"/>
				<path class="st0" d="M187.7,82.3h-16c-1.3,0-2.4,1.1-2.4,2.4v6.8c0,1.3,1.1,2.4,2.4,2.4h16c4.6,0,5.1,4.7,5.1,6.7
					c0,3.1-1.2,6.2-3.2,8.5c-2.4,2.6-5.8,4-9.9,4h-1.5c-2.3,0-4.2,1.9-4.2,4.2v3c0,2.3,1.9,4.2,4.2,4.2h1.5c9.5,0,15.3-4.3,18.5-7.9
					c3.9-4.4,6.1-10.3,6.1-16.2C204.3,89.8,197.5,82.3,187.7,82.3z M179.7,122.5h-1.5c-1.2,0-2.2-1-2.2-2.2v-3c0-1.2,1-2.2,2.2-2.2
					h1.5c4.7,0,8.7-1.6,11.4-4.7c2.4-2.6,3.7-6.2,3.7-9.9c0-4.2-1.9-8.7-7.1-8.7h-16c-0.2,0-0.4-0.2-0.4-0.4v-6.8
					c0-0.2,0.2-0.4,0.4-0.4h16c8.6,0,14.6,6.6,14.6,16.2c0,5.4-2,10.8-5.6,14.8C193.8,118.6,188.5,122.5,179.7,122.5z"/>
				<path class="st4" d="M202.3,100.5c0,0.3,0,0.7,0,1l0,0c-0.2,5.1-2.2,10.1-5.6,13.8c-2.9,3.3-8.3,7.2-17,7.2h-1.5
					c-1.2,0-2.2-1-2.2-2.2v-3c0-1.2,1-2.2,2.2-2.2h1.5c4.7,0,8.7-1.6,11.4-4.7c2.2-2.4,3.5-5.6,3.7-8.9c0-0.3,0-0.6,0-1
					c0-4.2-1.9-8.7-7.1-8.7h-16c-0.2,0-0.4-0.2-0.4-0.4v-6.8c0-0.2,0.2-0.4,0.4-0.4h16C196.3,84.3,202.3,90.9,202.3,100.5z"/>
				<path class="st5" d="M190.8,92.4c-0.9-0.4-1.9-0.6-3-0.6h-16c-0.2,0-0.4-0.2-0.4-0.4v-0.6h14.8
					C188.2,90.8,189.7,91.4,190.8,92.4z"/>
				<path class="st5" d="M202.3,100.5c0,0.3,0,0.7,0,1l0,0c-0.2,5.1-2.2,10.1-5.6,13.8c-2.9,3.3-8.3,7.2-17,7.2h-1.5
					c-0.8,0-1.5-0.4-1.9-1c0.1,0,0.3,0,0.4,0h1.5c8.7,0,14.1-3.9,17-7.2c3.3-3.8,5.4-8.7,5.6-13.8l0,0c0-0.3,0-0.7,0-1
					c0-5.8-2.2-10.5-5.9-13.3C199.5,88.7,202.3,93.9,202.3,100.5z"/>
				<path class="st7" d="M193,107.6c-0.6,1.3-1.4,2.6-2.4,3.7c-2.7,3.1-6.7,4.7-11.4,4.7h-1.5c-0.7,0-1.3,0.3-1.7,0.8
					c0.2-1,1.1-1.8,2.2-1.8h1.5c4.7,0,8.7-1.6,11.4-4.7C191.9,109.5,192.5,108.6,193,107.6z"/>
				<path class="st7" d="M194.2,85.8c-1.4-0.3-2.8-0.5-4.3-0.5h-18.1c-0.2,0-0.4,0.2-0.4,0.4v-1c0-0.2,0.2-0.4,0.4-0.4h16
					C190.1,84.3,192.3,84.8,194.2,85.8z"/>
			</g>
		</g>
		<path class="st8" d="M208.5,83"/>
	</g>
	<path class="st11" d="M179.7,97.2"/>
</g>
</svg>
