<?xml version="1.0" encoding="utf-8"?>
<!-- Generator: Adobe Illustrator 26.0.2, SVG Export Plug-In . SVG Version: 6.00 Build 0)  -->
<svg version="1.1" id="Layer_1" xmlns="http://www.w3.org/2000/svg" xmlns:xlink="http://www.w3.org/1999/xlink" x="0px" y="0px"
	 width="360px" height="200px" viewBox="0 0 360 200" style="enable-background:new 0 0 360 200;" xml:space="preserve">
<style type="text/css">
	.st0{fill:none;stroke:#EE0000;stroke-width:1.7985;stroke-linecap:round;stroke-linejoin:round;stroke-miterlimit:10;}
	.st1{fill:none;stroke:#142C4D;stroke-width:1.7985;stroke-linecap:round;stroke-miterlimit:10;}
	.st2{fill:none;stroke:#FAAA4F;stroke-width:1.3489;stroke-linecap:round;stroke-linejoin:round;stroke-miterlimit:10;}
	.st3{fill:#7C7679;}
	.st4{fill:#142C4D;}
	.st5{opacity:0.2;enable-background:new    ;}
	.st6{fill:#EE0000;}
	.st7{opacity:0.6;}
	.st8{fill:#FFFFFF;}
	.st9{opacity:0.23;}
	.st10{opacity:0.2;}
	.st11{opacity:0.5;}
	.st12{fill:#EE0000;stroke:#142C4D;stroke-width:1.7985;stroke-miterlimit:10;}
</style>
<g id="wagonHandles_00000055707997246483192420000008454162380231624349_">
	<g>
		<path class="st0" d="M173.1,77.3c1.4,10.1-1.9,17.3-6.5,23.7"/>
		<path class="st1" d="M173.5,77.4c-5.2,8.8-12.2,12.4-19.8,14.5"/>
		<path class="st2" d="M173.6,77.4c-3.5,9.6-9.7,14.5-16.8,17.9"/>
		<path class="st1" d="M173.1,77.3c-0.9,10.1-5.6,16.5-11.5,21.7"/>
		<path class="st0" d="M173.3,77.3c-2,10-7.4,15.8-13.8,20.3"/>
		<path class="st2" d="M173.6,77.3c0.3,10.2-3.6,17-8.9,22.9"/>
	</g>
	<g>
		<g>
			<path class="st3" d="M191,125.8l-7.6-18.6c-0.5-1.2-0.1-2.5,0.9-3.4l14.9-12.2l-6.2-6.5c-1.1-1.2-1.1-3,0.1-4.1
				c0.3-0.3,0.7-0.5,1-0.6c0.1,0,0.1,0,0.2-0.1c0.1,0,0.2-0.1,0.3-0.1c0.1,0,0.3,0,0.5,0c0.3,0,0.6,0,0.9,0.1
				c0.5,0.1,0.9,0.4,1.2,0.8l8.4,8.8c0.6,0.6,0.9,1.4,0.8,2.2c-0.1,0.8-0.4,1.6-1.1,2.1l-15.8,12.7l7.7,18.9H191z"/>
			<path class="st4" d="M194.9,80.8c0.2,0,0.4,0,0.7,0.1c0.4,0.1,0.7,0.3,1,0.6l8.4,8.8c0.4,0.5,0.7,1.1,0.6,1.7
				c0,0.6-0.3,1.2-0.8,1.6l-16,13.1l7.5,18.4h-4.9l-7.5-18.2c-0.4-0.9-0.1-2,0.7-2.6L200,91.7l-6.7-7.1c-0.9-0.9-0.8-2.3,0.1-3.2
				c0.2-0.2,0.5-0.4,0.8-0.5c0.1,0,0.1,0,0.2-0.1c0.1,0,0.1,0,0.2,0C194.7,80.8,194.8,80.8,194.9,80.8 M194.9,79.5
				c-0.2,0-0.4,0-0.6,0.1c-0.1,0-0.2,0-0.3,0.1c-0.1,0-0.2,0.1-0.3,0.1c-0.4,0.1-0.9,0.4-1.2,0.8c-1.4,1.4-1.5,3.6-0.1,5.1l5.7,6
				l-14.3,11.7c-1.2,1-1.7,2.7-1.1,4.1l7.5,18.2l0.3,0.8h0.9h4.9h2l-0.8-1.9l-7.1-17.5l15.3-12.5c0.8-0.6,1.2-1.6,1.3-2.6
				c0.1-1-0.3-2-1-2.7l-8.4-8.8c-0.4-0.4-1-0.8-1.5-1C195.7,79.5,195.3,79.5,194.9,79.5L194.9,79.5z"/>
		</g>
	</g>
	<path class="st5" d="M204.8,93.6l-16,13.1l7.5,18.4H194l-7.9-19.3l16-13.1c0.5-0.4,0.8-1,0.8-1.6s-0.2-1.2-0.6-1.7l-8.1-8.5
		c0.1,0,0.1,0,0.2-0.1c0.1,0,0.1,0,0.2,0c0.3-0.1,0.7,0,1,0.1c0.4,0.1,0.7,0.3,1,0.6l8.4,8.8c0.4,0.5,0.7,1.1,0.6,1.7
		C205.5,92.6,205.2,93.2,204.8,93.6z"/>
	<g>
		<g>
			<path class="st6" d="M194.8,86c-0.7,0-1.4-0.2-1.9-0.7l-18.1-3.7c-0.3-0.1-0.6-0.2-0.9-0.3c-1.2-0.7-1.8-2-1.6-3.4
				c0.3-1.5,1.6-2.5,3.1-2.5c0.2,0,0.4,0,0.6,0.1l19.3,3.9c1.2,0.2,2.1,1.1,2.4,2.3l0.1,0.4c0.4,1.7-0.6,3.4-2.3,3.8
				C195.3,85.9,195,86,194.8,86z"/>
			<path class="st4" d="M175.4,76.3c0.1,0,0.3,0,0.5,0l19.3,3.9c0.8,0.2,1.5,0.8,1.7,1.6l0.1,0.3c0.3,1.2-0.4,2.4-1.6,2.7
				c-0.2,0-0.4,0.1-0.6,0.1c-0.6,0-1.1-0.2-1.5-0.6L175,80.6c-0.2,0-0.4-0.1-0.6-0.2c-0.8-0.5-1.3-1.4-1.1-2.4
				C173.4,77,174.3,76.3,175.4,76.3 M175.4,74.5L175.4,74.5c-1.9,0-3.6,1.4-4,3.2c-0.4,1.7,0.4,3.5,2,4.3c0.4,0.2,0.8,0.3,1.2,0.4
				l17.9,3.7c0.7,0.5,1.5,0.7,2.3,0.7c0.3,0,0.7,0,1-0.1c2.2-0.6,3.5-2.8,2.9-4.9l-0.1-0.3c-0.4-1.5-1.6-2.6-3.1-3l-19.3-3.9
				C175.9,74.5,175.7,74.5,175.4,74.5L175.4,74.5z"/>
		</g>
	</g>
	<g class="st7">
		<g>
			<path class="st8" d="M195.8,84.8c0.3-0.5,0.4-1.1,0.2-1.6l-0.1-0.3c-0.2-0.8-0.9-1.5-1.7-1.6l-19.3-3.9c-0.5-0.1-1.1,0-1.5,0.2
				c0.5-0.8,1.4-1.3,2.4-1.1l19.3,3.9c0.8,0.2,1.5,0.8,1.7,1.6l0.1,0.3C197.2,83.3,196.7,84.3,195.8,84.8z"/>
		</g>
	</g>
	<g class="st9">
		<path d="M195.3,85c-0.8,0.2-1.5,0-2.1-0.5l-18.3-3.7c-0.2,0-0.4-0.1-0.6-0.2c-0.8-0.5-1.3-1.4-1.1-2.4c0-0.2,0.1-0.5,0.3-0.7
			c0.2,0.3,0.5,0.6,0.9,0.8c0.2,0.1,0.4,0.2,0.6,0.2l18.3,3.7c0.5,0.5,1.3,0.7,2.1,0.5c0.6-0.2,1.1-0.6,1.4-1.1
			c0,0.1,0.1,0.2,0.1,0.3l0.1,0.3C197.3,83.5,196.5,84.7,195.3,85z"/>
	</g>
	<g>
		<g>
			<path class="st6" d="M176.9,94.3c-1.2,0-2.3-0.7-2.9-1.8c-0.7-1.6-0.1-3.5,1.5-4.2l17.8-8.3c0.4-0.2,0.9-0.3,1.3-0.3
				c0.7,0,1.4,0.2,2,0.7l0.3,0.2c1.4,1.1,1.6,3.1,0.5,4.4c-0.6,0.7-1.5,1.2-2.4,1.2c0,0,0,0-0.1,0L178.2,94
				c-0.3,0.1-0.6,0.2-0.9,0.3C177.1,94.3,177,94.3,176.9,94.3z"/>
			<path class="st4" d="M194.7,80.6c0.5,0,1,0.2,1.4,0.5l0.3,0.2c1,0.8,1.1,2.2,0.3,3.2c-0.4,0.5-1.1,0.8-1.8,0.8
				c-0.1,0-0.2,0-0.2,0l-16.9,7.9c-0.2,0.1-0.4,0.2-0.7,0.2c-0.1,0-0.2,0-0.3,0c-0.8,0-1.7-0.5-2-1.3c-0.5-1.1,0-2.5,1.1-3l17.8-8.3
				C194.1,80.7,194.4,80.6,194.7,80.6 M194.7,78.8c-0.6,0-1.2,0.1-1.7,0.4l-17.8,8.3c-2,0.9-2.9,3.4-2,5.4c0.7,1.4,2.1,2.3,3.7,2.3
				c0.2,0,0.4,0,0.5,0c0.4-0.1,0.8-0.2,1.2-0.3l16.5-7.7c1.2,0,2.3-0.6,3-1.5c1.4-1.7,1.1-4.3-0.6-5.7l-0.3-0.2
				C196.5,79.1,195.6,78.8,194.7,78.8L194.7,78.8z"/>
		</g>
	</g>
	<g class="st10">
		<path d="M196.7,84.5c-0.5,0.6-1.3,0.9-2,0.8l-16.9,7.9c-0.2,0.1-0.4,0.2-0.7,0.2c-0.9,0.1-1.9-0.4-2.3-1.3
			c-0.1-0.1-0.1-0.2-0.1-0.4c0.3,0.1,0.6,0.1,0.9,0.1c0.2,0,0.4-0.1,0.7-0.2l16.9-7.9c0.7,0.1,1.5-0.2,2-0.8s0.6-1.4,0.4-2.1
			c0.2,0.1,0.4,0.2,0.6,0.3l0.3,0.2C197.4,82.1,197.5,83.5,196.7,84.5z"/>
	</g>
	<g class="st11">
		<g>
			<path class="st8" d="M176.6,92.1c0.2,0.5,0.7,0.9,1.1,1.1c-0.2,0.1-0.4,0.1-0.6,0.2c-0.9,0.1-1.9-0.4-2.3-1.3
				c-0.5-1.1,0-2.5,1.1-3l17.8-8.3c0.6-0.3,1.3-0.3,1.9,0c0,0,0,0-0.1,0l-17.8,8.3C176.6,89.7,176.1,91,176.6,92.1z"/>
		</g>
	</g>
	<circle class="st12" cx="176.8" cy="91.4" r="2.7"/>
	<g>
		<path class="st0" d="M176.3,91.3c3.6,9.5,2,17.3-1.1,24.5"/>
		<path class="st1" d="M176.7,91.3c-3.1,9.7-9.2,14.8-16.1,18.6"/>
		<path class="st2" d="M176.7,91.3c-1.3,10.1-6.2,16.3-12.3,21.2"/>
		<path class="st1" d="M176.3,91.3c1.4,10.1-1.8,17.3-6.4,23.7"/>
		<path class="st0" d="M176.5,91.3c0.3,10.2-3.7,17-9,22.9"/>
		<path class="st2" d="M176.7,91.2c2.6,9.8,0.3,17.4-3.5,24.3"/>
	</g>
</g>
</svg>
