<?xml version="1.0" encoding="utf-8"?>
<!-- Generator: Adobe Illustrator 26.0.2, SVG Export Plug-In . SVG Version: 6.00 Build 0)  -->
<svg version="1.1" id="Layer_1" xmlns="http://www.w3.org/2000/svg" xmlns:xlink="http://www.w3.org/1999/xlink" x="0px" y="0px"
	 width="360px" height="200px" viewBox="0 0 360 200" style="enable-background:new 0 0 360 200;" xml:space="preserve">
<style type="text/css">
	.st0{fill:#4F4249;}
	.st1{fill:#142C4D;}
	.st2{fill:#7C7679;}
	.st3{fill:#EE0000;}
	.st4{opacity:0.6;}
	.st5{fill:#FFFFFF;}
	.st6{fill:#585D68;}
	.st7{fill:#AEDCDD;}
	.st8{fill:#43ADAF;}
</style>
<g id="eBikeSaddle_00000080171392748912851520000004430867237086799550_">
	<g>
		<g>
			<g>
				<path class="st0" d="M162.8,106.8c-0.7,0-1.3-0.6-1.3-1.3s0.6-1.3,1.3-1.3h5.2l5.1-4c0.2-0.2,0.5-0.3,0.8-0.3
					c0.4,0,0.8,0.2,1,0.5c0.2,0.3,0.3,0.6,0.3,1c0,0.3-0.2,0.7-0.5,0.9l-5.5,4.3c-0.2,0.2-0.5,0.3-0.8,0.3h-5.6V106.8z"/>
				<path class="st1" d="M173.8,100.3c0.3,0,0.5,0.1,0.7,0.3c0.3,0.4,0.2,0.9-0.1,1.2l-5.5,4.3c-0.2,0.1-0.3,0.2-0.5,0.2h-5.6
					c-0.5,0-0.9-0.4-0.9-0.9s0.4-0.9,0.9-0.9h5.3l5.2-4.1C173.5,100.4,173.6,100.3,173.8,100.3 M173.8,99.5c-0.4,0-0.8,0.1-1.1,0.4
					l-5,3.9h-5c-1,0-1.7,0.8-1.7,1.7s0.8,1.7,1.7,1.7h5.6c0.4,0,0.8-0.1,1.1-0.4l5.5-4.3c0.4-0.3,0.6-0.7,0.6-1.2
					c0.1-0.5-0.1-0.9-0.4-1.3C174.9,99.7,174.4,99.5,173.8,99.5L173.8,99.5z"/>
			</g>
		</g>
		<g>
			<g>
				<path class="st2" d="M164.5,108.5c-0.7,0-1.3-0.6-1.3-1.3c0-0.7,0.6-1.3,1.3-1.3h4.9l5.1-8c0.2-0.4,0.7-0.6,1.1-0.6
					c0.2,0,0.5,0.1,0.7,0.2c0.6,0.4,0.8,1.2,0.4,1.8l-5.5,8.6c-0.2,0.4-0.6,0.6-1.1,0.6C170.1,108.5,164.5,108.5,164.5,108.5z"/>
				<path class="st1" d="M175.6,97.7c0.2,0,0.3,0,0.5,0.1c0.4,0.3,0.5,0.8,0.3,1.2l-5.5,8.6c-0.2,0.3-0.4,0.4-0.7,0.4h-5.6
					c-0.5,0-0.9-0.4-0.9-0.9s0.4-0.9,0.9-0.9h5.1l5.2-8.2C175,97.8,175.3,97.7,175.6,97.7 M175.6,96.8L175.6,96.8
					c-0.6,0-1.1,0.3-1.5,0.8l-4.9,7.8h-4.7c-1,0-1.7,0.8-1.7,1.7c0,1,0.8,1.7,1.7,1.7h5.6c0.6,0,1.1-0.3,1.5-0.8l5.5-8.6
					c0.2-0.4,0.3-0.9,0.2-1.3c-0.1-0.5-0.4-0.8-0.8-1.1C176.2,96.9,175.9,96.8,175.6,96.8L175.6,96.8z"/>
			</g>
		</g>
		<g>
			<path class="st0" d="M176.4,98.6L176.4,98.6c0,0.2-0.1,0.3-0.1,0.4l-2.5,4l-3,4.7c-0.2,0.3-0.4,0.4-0.7,0.4h-5.6h-0.1h-0.1
				c-0.1,0-0.1,0-0.2-0.1c0.1-0.4,0.4-0.8,0.9-0.8h5.1l2.4-3.7l0.2-0.4l-1,0.1l2.9-4.6l0.3-0.5c0.3-0.4,0.8-0.5,1.2-0.3
				c0.1,0,0.1,0.1,0.2,0.2C176.3,98.1,176.4,98.4,176.4,98.6z"/>
		</g>
		<g>
			<path class="st3" d="M163.2,112.9c-1.7,0-3.1-1.4-3.1-3.1v-5.6c0-1.7,1.4-3.1,3.1-3.1c0.5,0,1,0.4,1,1v9.9
				C164.2,112.5,163.7,112.9,163.2,112.9z"/>
			<g>
				<path class="st1" d="M163.2,102v9.9c-1.2,0-2.2-1-2.2-2.2v-5.6C161,103,162,102,163.2,102 M163.2,100.1c-2.3,0-4.1,1.8-4.1,4.1
					v5.6c0,2.3,1.8,4.1,4.1,4.1c1.1,0,1.9-0.9,1.9-1.9v-9.9C165.1,101,164.3,100.1,163.2,100.1L163.2,100.1z"/>
			</g>
		</g>
		<g class="st4">
			<path class="st5" d="M163.2,111.1v0.9H163c-1.1,0-1.9-0.9-1.9-1.9V104c0-0.5,0.2-0.9,0.5-1.3c0,0.1,0,0.3,0,0.4v6.1
				C161.5,110.2,162.2,111,163.2,111.1z"/>
		</g>
	</g>
	<g>
		<path class="st6" d="M183.3,97.1l0.1,0.2c-1.4,0.2-2.8,0.5-4.2,0.8c-0.2-1,0.4-2,1.5-2.4C181.7,95.4,182.9,96,183.3,97.1z"/>
	</g>
	<g>
		<path class="st2" d="M181.9,111c-4-12.6-4-12.7-4-12.8l-0.1-0.8l0.8-0.2c1.4-0.3,2.8-0.6,4.3-0.8l0.7-0.1L188,110l-5.8,1.8
			L181.9,111z"/>
		<path class="st1" d="M183,97.3l3.9,12.2l-4.1,1.3c0,0-4-12.5-4-12.7C180.2,97.8,181.6,97.5,183,97.3 M184.2,95.3l-1.5,0.2
			c-1.5,0.2-2.9,0.5-4.3,0.8l-1.6,0.3l0.2,1.6c0,0.2,0,0.3,4.1,12.9l0.5,1.6l1.6-0.5l4.1-1.3l1.7-0.5l-0.5-1.7l-3.9-12.2L184.2,95.3
			L184.2,95.3z"/>
	</g>
	<g>
		<path class="st0" d="M184.7,102.6l-3.9,2c-1-3.2-2-6.4-2-6.5c1.5-0.3,2.9-0.6,4.3-0.8L184.7,102.6z"/>
	</g>
	<g>
		<g>
			<g>
				<path class="st7" d="M168.5,101.2c-4.4,0-8.3-1.6-9.8-2.1c-2-0.8-3.8-2.7-4.8-4.1c-0.4-0.6-0.9-1.4-1.1-2.1
					c-0.2-1,0-2.1,0.7-2.9c0.7-0.8,2.1-1.8,5-1.8c0.2,0,0.4,0,0.6,0c1.3,0.1,3.3,0.2,5.6,0.4c4.8,0.4,10.8,0.8,15.4,0.8
					c1.2,0,2.2,0,3.1-0.1c0.7-0.1,1.6-0.1,2.6-0.2c3.1-0.3,6.9-0.6,10.5-0.6c6,0,9.3,0.9,10.6,2.8c0.4,0.6,0.5,1.2,0.5,1.9v0.1v0.1
					c-0.8,2.5-4.6,2.8-10.9,3.4c-3.5,0.3-7.9,0.7-12.9,1.6c-1.4,0.2-2.8,0.5-4.2,0.8c-2.1,0.5-4.1,1-6.2,1.6
					C171.7,101,170.1,101.2,168.5,101.2z"/>
				<path class="st1" d="M158.4,88.9c0.2,0,0.4,0,0.6,0c4.1,0.2,14.1,1.2,21,1.2c1.2,0,2.2,0,3.2-0.1c3-0.2,8.3-0.8,13-0.8
					c4.5,0,8.6,0.5,9.8,2.4c0.3,0.4,0.4,0.8,0.4,1.4c-1,3.1-9.9,2.1-23.1,4.4c-1.4,0.2-2.8,0.5-4.2,0.8c-2,0.4-4.1,1-6.2,1.6
					c-1.5,0.4-3,0.6-4.4,0.6c-4.1,0-7.8-1.4-9.5-2.1c-1.7-0.7-3.4-2.4-4.4-3.8c-0.5-0.7-0.8-1.4-0.9-1.8
					C153.3,91.2,154.2,88.9,158.4,88.9 M158.4,87.1c-3.3,0-4.9,1.2-5.6,2.2c-0.8,1.1-1.1,2.4-0.8,3.7c0.2,0.7,0.6,1.5,1.2,2.4
					c1.1,1.6,3,3.6,5.2,4.4c1.5,0.6,5.6,2.2,10.1,2.2c1.7,0,3.4-0.2,4.9-0.7c2-0.6,4.1-1.1,6.1-1.6c1.4-0.3,2.8-0.6,4.2-0.8
					c4.9-0.9,9.3-1.3,12.8-1.6c6.7-0.6,10.7-0.9,11.6-4l0.1-0.2v-0.2c0-0.9-0.2-1.7-0.6-2.4c-1.4-2.2-4.9-3.1-11.3-3.1
					c-3.6,0-7.5,0.3-10.6,0.6c-1,0.1-1.9,0.2-2.6,0.2c-0.9,0.1-1.9,0.1-3,0.1c-4.6,0-10.5-0.4-15.3-0.8c-2.3-0.2-4.3-0.3-5.6-0.4
					C158.9,87.1,158.6,87.1,158.4,87.1L158.4,87.1z"/>
			</g>
			<path class="st8" d="M206.4,92.9c-1,3.1-9.9,2.1-23.1,4.4c-1.4,0.2-2.8,0.5-4.2,0.8c-2,0.4-4.1,1-6.2,1.6
				c-5.7,1.7-11.6-0.6-13.9-1.5c-1.7-0.7-3.4-2.4-4.4-3.8c0.1-1.6,1.6-3.5,6.1-3.3c5.3,0.2,19.9,1.7,27.2,1.2
				c4.2-0.3,12.1-1.2,18.2-0.8C206.3,91.9,206.4,92.4,206.4,92.9z"/>
		</g>
	</g>
</g>
</svg>
