<?xml version="1.0" encoding="utf-8"?>
<!-- Generator: Adobe Illustrator 26.0.2, SVG Export Plug-In . SVG Version: 6.00 Build 0)  -->
<svg version="1.1" id="Layer_1" xmlns="http://www.w3.org/2000/svg" xmlns:xlink="http://www.w3.org/1999/xlink" x="0px" y="0px"
	 width="360px" height="200px" viewBox="0 0 360 200" style="enable-background:new 0 0 360 200;" xml:space="preserve">
<style type="text/css">
	.st0{fill:#C9C5C7;}
	.st1{fill:#142C4D;}
	.st2{opacity:0.5;}
	.st3{fill:#565254;}
	.st4{fill:#A09A9D;}
	.st5{fill:#7C7679;}
	.st6{fill:#3A3739;}
	.st7{fill:#EE0000;}
	.st8{fill:#AEDCDD;}
	.st9{opacity:0.3;}
	.st10{fill:#565254;stroke:#142C4D;stroke-width:1.802;stroke-linecap:round;stroke-linejoin:round;stroke-miterlimit:10;}
</style>
<g id="lowRiderSaddle_00000139276480956769627430000009147234140689244843_">
	<g>
		<g>
			<g>
				<path class="st0" d="M186.6,114.2c-1.3,0-2.4-0.8-2.8-2l-2.4-7.4c-0.2-0.7-0.2-1.5,0.2-2.2c0.4-0.7,1-1.2,1.7-1.5
					c0.3-0.1,0.6-0.1,0.9-0.1c1.3,0,2.4,0.8,2.8,2l2.4,7.4c0.2,0.7,0.2,1.5-0.2,2.2c-0.4,0.7-1,1.2-1.7,1.5
					C187.2,114.1,186.9,114.2,186.6,114.2z"/>
				<path class="st1" d="M184.1,101.6c0.9,0,1.8,0.6,2.1,1.6l2.4,7.4c0.4,1.2-0.3,2.5-1.4,2.8c-0.2,0.1-0.5,0.1-0.7,0.1
					c-0.9,0-1.8-0.6-2.1-1.6l-2.4-7.4c-0.4-1.2,0.3-2.5,1.4-2.8C183.7,101.6,183.9,101.6,184.1,101.6 M184.1,100.3L184.1,100.3
					c-0.4,0-0.8,0.1-1.1,0.2c-1.9,0.6-2.9,2.7-2.3,4.5l2.4,7.4c0.5,1.5,1.9,2.5,3.4,2.5c0.4,0,0.8-0.1,1.1-0.2
					c1.9-0.6,2.9-2.7,2.3-4.5l-2.4-7.4C187.1,101.3,185.7,100.3,184.1,100.3L184.1,100.3z"/>
			</g>
		</g>
		<g class="st2">
			<path class="st1" d="M187.2,106l-4,2.4l-1.3-3.9c-0.4-1.2,0.3-2.5,1.4-2.8c1.2-0.4,2.5,0.3,2.8,1.4L187.2,106z"/>
		</g>
		<g>
			<g>
				<path class="st0" d="M181.5,118.5c-0.4,0-0.8-0.2-1.2-0.6c-0.3-0.4-0.5-0.8-0.5-1.2c0-0.3,0.1-0.5,0.3-0.6l5.6-4.6
					c0.2-0.1,0.4-0.2,0.6-0.2c0.4,0,0.8,0.2,1.2,0.6c0.3,0.4,0.5,0.8,0.5,1.2c0,0.3-0.1,0.5-0.3,0.6l-5.6,4.6
					C181.9,118.4,181.7,118.5,181.5,118.5z"/>
				<g>
					<path class="st1" d="M186.4,111.8c0.3,0,0.6,0.2,0.9,0.5c0.4,0.4,0.5,0.9,0.2,1.1l-5.6,4.6c-0.1,0.1-0.2,0.1-0.3,0.1
						c-0.3,0-0.6-0.2-0.9-0.5l0,0c-0.4-0.4-0.5-0.9-0.2-1.1l5.6-4.6C186.2,111.8,186.3,111.8,186.4,111.8 M186.4,110.9
						c-0.3,0-0.6,0.1-0.9,0.3l-5.6,4.6c-0.3,0.2-0.4,0.6-0.5,0.9c0,0.5,0.2,1,0.6,1.5c0.4,0.5,1,0.8,1.5,0.8c0.3,0,0.6-0.1,0.9-0.3
						l5.6-4.6c0.3-0.2,0.4-0.6,0.5-0.9c0-0.5-0.2-1-0.6-1.5C187.5,111.1,186.9,110.9,186.4,110.9L186.4,110.9z"/>
				</g>
			</g>
			<g>
				<path class="st3" d="M180.4,117.4c-0.4,0-0.8-0.2-1.1-0.6c-0.5-0.6-0.6-1.4-0.2-1.8l5.1-5.2c0.2-0.2,0.4-0.2,0.6-0.2
					c0.4,0,0.8,0.2,1.1,0.6c0.5,0.6,0.6,1.4,0.2,1.8l-5.1,5.2C180.8,117.3,180.6,117.4,180.4,117.4L180.4,117.4z"/>
				<g>
					<path class="st1" d="M184.8,110c0.2,0,0.5,0.2,0.8,0.4l0,0c0.4,0.4,0.5,1,0.2,1.2l-5.1,5.2c-0.1,0.1-0.2,0.1-0.3,0.1
						c-0.2,0-0.5-0.2-0.8-0.4c-0.4-0.4-0.5-1-0.2-1.2l5.1-5.2C184.5,110,184.6,110,184.8,110 M184.8,109.1c-0.4,0-0.7,0.1-0.9,0.4
						l-5.1,5.2c-0.6,0.6-0.5,1.6,0.2,2.4c0.4,0.5,0.9,0.8,1.5,0.8c0.4,0,0.7-0.1,0.9-0.4l5.1-5.2c0.6-0.6,0.5-1.6-0.2-2.4
						C185.8,109.3,185.3,109.1,184.8,109.1L184.8,109.1z"/>
				</g>
			</g>
			<g>
				<path class="st4" d="M178.8,115.8c-0.4,0-0.8-0.2-1.2-0.6c-0.3-0.4-0.5-0.8-0.5-1.2c0-0.3,0.1-0.5,0.3-0.6l5.6-4.6
					c0.2-0.1,0.4-0.2,0.6-0.2c0.4,0,0.8,0.2,1.2,0.6c0.3,0.4,0.5,0.8,0.5,1.2c0,0.3-0.1,0.5-0.3,0.6l-5.6,4.6
					C179.2,115.7,179,115.8,178.8,115.8z"/>
				<g>
					<path class="st1" d="M183.7,109.1c0.3,0,0.6,0.2,0.9,0.5c0.4,0.4,0.5,0.9,0.2,1.1l-5.6,4.6c-0.1,0.1-0.2,0.1-0.3,0.1
						c-0.3,0-0.6-0.2-0.9-0.5c-0.4-0.4-0.5-0.9-0.2-1.1l5.6-4.6C183.5,109.1,183.6,109.1,183.7,109.1 M183.7,108.2
						c-0.3,0-0.6,0.1-0.9,0.3l-5.6,4.6c-0.3,0.2-0.4,0.6-0.5,0.9c0,0.5,0.2,1,0.6,1.5c0.4,0.5,1,0.8,1.5,0.8c0.3,0,0.6-0.1,0.9-0.3
						l5.6-4.6c0.3-0.2,0.4-0.6,0.5-0.9c0-0.5-0.2-1-0.6-1.5C184.8,108.4,184.2,108.2,183.7,108.2L183.7,108.2z"/>
				</g>
			</g>
			<g>
				<path class="st3" d="M178,114.9c-0.4,0-0.8-0.2-1.1-0.5c-0.6-0.6-0.7-1.3-0.4-1.8l4.6-5.7c0.2-0.2,0.4-0.3,0.7-0.3
					c0.4,0,0.8,0.2,1.1,0.5c0.6,0.6,0.7,1.3,0.4,1.8l-4.6,5.7C178.5,114.7,178.2,114.9,178,114.9L178,114.9z"/>
				<g>
					<path class="st1" d="M181.8,107.1c0.2,0,0.5,0.1,0.8,0.4l0,0c0.4,0.4,0.6,0.9,0.3,1.2l-4.6,5.7c-0.1,0.1-0.2,0.1-0.3,0.1
						c-0.2,0-0.5-0.1-0.8-0.4l0,0c-0.4-0.4-0.6-0.9-0.3-1.2l4.6-5.7C181.5,107.1,181.6,107.1,181.8,107.1 M181.8,106.2
						c-0.4,0-0.8,0.2-1,0.5l-4.6,5.7c-0.5,0.6-0.3,1.7,0.4,2.4c0.4,0.4,0.9,0.6,1.4,0.6c0.4,0,0.8-0.2,1-0.5l4.6-5.7
						c0.5-0.6,0.3-1.7-0.4-2.4C182.8,106.4,182.3,106.2,181.8,106.2L181.8,106.2z"/>
				</g>
			</g>
			<g>
				<path class="st5" d="M176.1,112.9c-0.4,0-0.8-0.2-1.2-0.6c-0.3-0.4-0.5-0.8-0.5-1.2c0-0.3,0.1-0.5,0.3-0.6l5.6-4.6
					c0.2-0.1,0.4-0.2,0.6-0.2c0.4,0,0.8,0.2,1.2,0.6c0.3,0.4,0.5,0.8,0.5,1.2c0,0.3-0.1,0.5-0.3,0.6l-5.6,4.6
					C176.5,112.8,176.3,112.9,176.1,112.9z"/>
				<g>
					<path class="st1" d="M180.9,106.1c0.3,0,0.6,0.2,0.9,0.5c0.4,0.4,0.5,0.9,0.2,1.1l-5.6,4.6c-0.1,0.1-0.2,0.1-0.3,0.1
						c-0.3,0-0.6-0.2-0.9-0.5c-0.4-0.4-0.5-0.9-0.2-1.1l5.6-4.6C180.7,106.2,180.8,106.1,180.9,106.1 M180.9,105.2
						c-0.3,0-0.6,0.1-0.9,0.3l-5.6,4.6c-0.3,0.2-0.4,0.6-0.5,0.9c0,0.5,0.2,1,0.6,1.5c0.4,0.5,1,0.8,1.5,0.8c0.3,0,0.6-0.1,0.9-0.3
						l5.6-4.6c0.3-0.2,0.4-0.6,0.5-0.9c0-0.5-0.2-1-0.6-1.5S181.4,105.2,180.9,105.2L180.9,105.2z"/>
				</g>
			</g>
			<g>
				<path class="st6" d="M175.1,111.9c-0.4,0-0.8-0.2-1.1-0.5c-0.6-0.6-0.7-1.3-0.3-1.8l4.7-5.5c0.2-0.2,0.4-0.3,0.7-0.3
					c0.4,0,0.8,0.2,1.1,0.5c0.6,0.6,0.7,1.3,0.3,1.8l-4.7,5.5C175.6,111.8,175.4,111.9,175.1,111.9L175.1,111.9z"/>
				<g>
					<path class="st1" d="M179.1,104.2c0.2,0,0.5,0.1,0.8,0.4c0.4,0.4,0.5,0.9,0.3,1.2l-4.7,5.5c-0.1,0.1-0.2,0.1-0.3,0.1
						c-0.2,0-0.5-0.1-0.8-0.4c-0.4-0.4-0.5-0.9-0.3-1.2l4.7-5.5C178.8,104.2,178.9,104.2,179.1,104.2 M179.1,103.3
						c-0.4,0-0.8,0.2-1,0.5l-4.7,5.5c-0.5,0.6-0.4,1.7,0.4,2.4c0.4,0.4,0.9,0.6,1.4,0.6c0.4,0,0.8-0.2,1-0.5l4.7-5.5
						c0.5-0.6,0.4-1.7-0.4-2.4C180.1,103.5,179.6,103.3,179.1,103.3L179.1,103.3z"/>
				</g>
			</g>
			<g>
				<path class="st5" d="M175.4,108.1c-0.4,0-0.9-0.4-1.1-0.9c-0.2-0.4-0.2-0.8-0.1-1.1c0.1-0.2,0.2-0.3,0.4-0.4l6.8-2.5
					c0.1,0,0.2,0,0.2,0c0.4,0,0.9,0.4,1.1,0.9c0.2,0.4,0.2,0.8,0.1,1.1c-0.1,0.2-0.2,0.3-0.4,0.4l-6.8,2.5
					C175.6,108.1,175.5,108.1,175.4,108.1z"/>
				<g>
					<path class="st1" d="M181.8,103.4c0.3,0,0.6,0.3,0.8,0.7c0.2,0.5,0.1,1-0.2,1.1l-6.8,2.5h-0.1c-0.3,0-0.6-0.3-0.8-0.7
						c-0.2-0.5-0.1-1,0.2-1.1l6.8-2.5C181.7,103.4,181.7,103.4,181.8,103.4 M181.8,102.8c-0.1,0-0.2,0-0.4,0.1l-6.8,2.5
						c-0.3,0.1-0.5,0.3-0.6,0.6c-0.2,0.4-0.2,0.9,0.1,1.4c0.3,0.7,0.8,1.1,1.4,1.1c0.1,0,0.2,0,0.4-0.1l6.8-2.5
						c0.3-0.1,0.5-0.3,0.6-0.6c0.2-0.4,0.2-0.9-0.1-1.4C182.9,103.2,182.3,102.8,181.8,102.8L181.8,102.8z"/>
				</g>
			</g>
		</g>
		<g>
			<g>
				<g>
					<path class="st1" d="M168.4,112.3c-3.5,0-6.6-1.3-7.9-1.9c-2.8-1.2-5.8-5.3-7-7.7c-0.3-0.6-0.6-1.2-0.8-1.8
						c-0.6-1.7-0.7-4.3,0.5-6.4c0.9-1.5,2.5-2.4,4.5-2.7c1.4-0.2,3.4-0.4,5.8-0.7c6.1-0.6,14.4-1.4,19-3.1c0.7-0.3,1.6-0.6,2.6-1
						c4.6-1.8,10.8-4.2,15.7-4.2c5.5,0,7.1,3.1,7.5,5.7v0.1v0.1c0,4.2-4,5.8-9.9,8.2c-5.8,2.3-13.7,5.5-22.3,12.7
						C173.8,111.4,171.3,112.3,168.4,112.3z"/>
					<path class="st1" d="M200.7,83.8c3.4,0,6,1.3,6.6,5v0.1c0,7.2-14.7,5.8-31.9,20.2c-2.2,1.8-4.7,2.5-7,2.5
						c-3.2,0-6.1-1.2-7.6-1.8c-2.4-1-5.2-4.6-6.6-7.3c-0.3-0.6-0.6-1.1-0.7-1.6c-0.9-2.6-0.6-7.2,4.3-7.9c4.9-0.7,18.5-1.5,24.9-3.8
						C186.8,87.5,194.9,83.8,200.7,83.8 M200.7,82L200.7,82c-5.1,0-11.4,2.5-16.1,4.3c-1,0.4-1.8,0.7-2.6,1
						c-4.5,1.6-12.7,2.5-18.7,3.1c-2.4,0.2-4.4,0.4-5.9,0.7c-2.9,0.4-4.4,2-5.1,3.2c-1.4,2.3-1.2,5.2-0.6,7.1
						c0.2,0.6,0.5,1.2,0.8,1.9c1.1,2.2,4.2,6.7,7.5,8.1c1.4,0.6,4.6,1.9,8.3,1.9c3.1,0,5.9-1,8.1-2.9c8.5-7,16.3-10.2,22.1-12.5
						c6.1-2.5,10.5-4.2,10.5-9v-0.1v-0.2v-0.1C208.2,82.8,203.5,82,200.7,82L200.7,82z"/>
				</g>
				<g>
					<path class="st7" d="M207.3,88.8c0,7.2-14.7,5.8-31.9,20.2c-0.1,0.1-0.2,0.1-0.2,0.2c-1.3,1-2.7,1.6-4,2
						c-0.7,0.2-1.4,0.3-2.2,0.3c-1.3,0.1-2.5-0.1-3.6-0.3c-1.9-0.4-3.5-1-4.5-1.5c-2.2-0.9-4.6-3.9-6.1-6.5c0.7-1.4,1.1-2.4,3.5-3.2
						c2-0.5,5.6-0.4,9.4-0.4c1.2,0,2.5,0,3.7,0c0.7,0,1.4,0,2.1-0.1c1.3-0.1,2.6-0.2,3.7-0.4c0.7-0.1,1.4-0.3,2-0.5
						C183.7,96.8,200.7,89.4,207.3,88.8z"/>
				</g>
			</g>
			<path class="st8" d="M171.3,99.4l-2.3,12c-1.3,0.1-2.5-0.1-3.6-0.3l2.2-11.6C168.8,99.5,170,99.5,171.3,99.4z"/>
			<path class="st8" d="M177.1,98.9l-2,10.2c-1.3,1-2.7,1.6-4,2l2.3-11.8C174.7,99.3,176,99.1,177.1,98.9z"/>
			<g class="st9">
				<path class="st1" d="M207.3,89c-0.3,7-14.8,5.8-31.9,20c-0.1,0.1-0.2,0.1-0.2,0.2c-1.3,1-2.7,1.6-4,2c-0.7,0.2-1.4,0.3-2.2,0.3
					c-1.3,0.1-2.5-0.1-3.6-0.3c-1.9-0.4-3.5-1-4.5-1.5c-1.5-0.6-3.2-2.3-4.5-4.1c0.6,0.4,1.1,0.7,1.7,0.9c1.1,0.4,2.9,1.1,5,1.5
					c1.2,0.2,2.6,0.4,4,0.3c0.8,0,1.6-0.1,2.4-0.3c1.5-0.3,3-0.9,4.4-2c0.1-0.1,0.2-0.1,0.3-0.2C189.2,94.2,202.7,92.9,207.3,89z"/>
			</g>
			<path class="st8" d="M197.3,84.1c-4.2,1.7-12,5.4-17.2,6.7c-6.7,1.7-17.2,2.4-22.1,3.2c-4.6,0.7-4.6,5.4-3.9,8
				c-0.2-0.5-0.4-0.9-0.5-1.3c-0.9-2.6-0.6-7.2,4.3-7.9c4.9-0.7,18.5-1.5,24.9-3.8C186,87.7,192,85.1,197.3,84.1z"/>
		</g>
	</g>
	<path class="st10" d="M188.8,105"/>
</g>
</svg>
