<?xml version="1.0" encoding="utf-8"?>
<!-- Generator: Adobe Illustrator 26.0.2, SVG Export Plug-In . SVG Version: 6.00 Build 0)  -->
<svg version="1.1" id="Layer_1" xmlns="http://www.w3.org/2000/svg" xmlns:xlink="http://www.w3.org/1999/xlink" x="0px" y="0px"
	 width="360px" height="200px" viewBox="0 0 360 200" style="enable-background:new 0 0 360 200;" xml:space="preserve">
<style type="text/css">
	.st0{fill:#EE0000;}
	.st1{fill:#142C4D;}
	.st2{opacity:0.6;}
	.st3{fill:#FFFFFF;}
	.st4{opacity:0.2;}
</style>
<g id="triSeat_00000178163565147610292710000015424833377724614837_">
	<g>
		<path class="st0" d="M160.2,106.9c-2.5,0-3.2-1.7-3.5-2.5l-3-7.3c-0.3-0.7-0.2-1.5,0.2-2.2c0.4-0.6,1.2-1,1.9-1h9.3
			c2.9,0,5,0.2,7.3,0.4c2.7,0.3,5.4,0.5,9.7,0.5c4.6,0,10.6,0,14.9-0.1c3.7,0,7.1,2,8.9,5.1c0.5,0.8,0.5,1.7,0,2.6
			c-0.4,0.8-1.2,1.3-2.1,1.4c-1.4,0-2.6,0-3.8,0c-17.9,0-29.1,0.8-37.6,2.8C161.5,106.8,160.8,106.9,160.2,106.9z"/>
		<path class="st1" d="M165.1,94.8c6.1,0,8.9,0.9,17,0.9c4.6,0,10.6,0,14.9-0.1c0,0,0,0,0.1,0c3.4,0,6.5,1.8,8.2,4.7l0,0
			c0.7,1.1-0.1,2.6-1.4,2.7c-1.3,0-2.6,0-3.8,0c-17,0-28.9,0.7-37.8,2.8c-0.8,0.2-1.4,0.3-1.9,0.3c-1.8,0-2.3-1-2.7-1.9l-3-7.3
			c-0.6-1.1,0.1-2.1,1.2-2.1H165.1 M165.1,93.1h-9.2c-1.1,0-2.1,0.5-2.6,1.4c-0.6,0.9-0.7,2-0.3,3l3,7.3c0.3,0.8,1.2,3,4.3,3
			c0.7,0,1.5-0.1,2.3-0.3c8.4-1.9,19.6-2.7,37.4-2.7c1.2,0,2.5,0,3.8,0h0.1h0.1c1.2-0.1,2.3-0.8,2.8-1.8c0.6-1.1,0.5-2.3-0.1-3.4
			c-2-3.4-5.7-5.5-9.6-5.5H197c-4.3-0.1-10.3-0.1-14.9-0.1c-4.2,0-6.9-0.3-9.6-0.5C170.2,93.3,168,93.1,165.1,93.1L165.1,93.1z"/>
	</g>
	<g>
		<path class="st1" d="M163.1,99.9c0.5,0.5,1,0.7,1.5,0.7c0.6,0,0.9-0.2,0.9-0.6c0-0.3-0.2-0.5-0.7-0.6l-0.9-0.2
			c-0.8-0.1-1.2-0.5-1.2-1.2c0-0.8,0.7-1.4,1.8-1.4c0.7,0,1.4,0.2,1.9,0.6l-0.5,0.8c-0.5-0.4-0.9-0.5-1.4-0.5s-0.8,0.2-0.8,0.5
			c0,0.3,0.2,0.4,0.6,0.5l0.8,0.1c0.9,0.1,1.3,0.6,1.3,1.3c0,0.9-0.7,1.4-1.9,1.4c-0.7,0-1.5-0.3-2-0.8L163.1,99.9z"/>
		<path class="st1" d="M166.7,100.3c0-0.6,0.5-1,1.4-1c0.3,0,0.6,0,0.8,0.1v-0.2c0-0.4-0.2-0.6-0.7-0.6c-0.3,0-0.6,0.1-1,0.3
			l-0.3-0.6c0.5-0.2,1-0.4,1.5-0.4c0.9,0,1.4,0.5,1.4,1.2v2.2h-0.9V101c-0.3,0.2-0.6,0.3-1,0.3C167.2,101.3,166.7,100.9,166.7,100.3
			z M168.1,100.7c0.3,0,0.5-0.1,0.7-0.2V100c-0.2-0.1-0.5-0.1-0.7-0.1c-0.4,0-0.6,0.2-0.6,0.4S167.8,100.7,168.1,100.7z"/>
		<path class="st1" d="M172.7,101c-0.3,0.2-0.6,0.3-1,0.3c-1,0-1.7-0.8-1.7-1.7c0-1,0.8-1.7,1.7-1.7c0.3,0,0.6,0.1,0.9,0.3v-1.4
			l0.9-0.2v4.7h-0.9L172.7,101L172.7,101z M171.8,100.6c0.3,0,0.6-0.1,0.8-0.3v-1.4c-0.2-0.2-0.5-0.3-0.8-0.3c-0.6,0-1,0.4-1,1
			C170.9,100.1,171.3,100.6,171.8,100.6z"/>
		<path class="st1" d="M176.5,101c-0.3,0.2-0.6,0.3-1,0.3c-1,0-1.7-0.8-1.7-1.7c0-1,0.8-1.7,1.7-1.7c0.3,0,0.7,0.1,0.9,0.3v-1.4
			l0.9-0.2v4.7h-0.9L176.5,101L176.5,101z M175.7,100.6c0.3,0,0.6-0.1,0.8-0.3v-1.4c-0.2-0.2-0.5-0.3-0.8-0.3c-0.6,0-1,0.4-1,1
			C174.7,100.1,175.1,100.6,175.7,100.6z"/>
		<path class="st1" d="M178.8,101.3h-0.9v-4.5l0.9-0.2V101.3z"/>
		<path class="st1" d="M181,101.3c-1,0-1.8-0.8-1.8-1.7c0-1,0.8-1.7,1.7-1.7c1,0,1.7,0.8,1.7,1.8v0.2h-2.5c0.1,0.4,0.5,0.7,1,0.7
			c0.3,0,0.6-0.1,0.7-0.3l0.6,0.5C181.9,101.2,181.5,101.3,181,101.3z M180.1,99.3h1.6c-0.1-0.4-0.4-0.7-0.8-0.7
			C180.5,98.6,180.2,98.8,180.1,99.3z"/>
		<path class="st1" d="M184.8,99.9c0,0.4,0.3,0.7,0.7,0.7c0.3,0,0.5-0.1,0.7-0.3v-2.4h0.9v3.4h-1V101c-0.3,0.2-0.6,0.3-0.9,0.3
			c-0.8,0-1.3-0.6-1.3-1.3v-2.1h0.9V99.9z"/>
		<path class="st1" d="M187.5,97.9h0.9v0.3c0.3-0.2,0.6-0.3,1-0.3c1,0,1.7,0.8,1.7,1.7c0,1-0.8,1.7-1.7,1.7c-0.3,0-0.7-0.1-0.9-0.3
			v1.6h-0.9v-4.7H187.5z M188.3,98.9v1.3c0.2,0.2,0.5,0.3,0.8,0.3c0.6,0,1-0.4,1-1c0-0.6-0.4-1-1-1
			C188.8,98.6,188.5,98.7,188.3,98.9z"/>
	</g>
	<g class="st2">
		<path class="st3" d="M201.8,96.9c-0.2,0-0.4,0-0.6,0c-4.7,0-11.3,0.1-16.4,0.1c-8.8,0-11.9-1-18.6-1H156c-0.7,0-1.2,0.4-1.5,0.9
			v-0.1c-0.4-1,0.3-2,1.4-2h9.2c6.1,0,8.9,0.9,17,0.9c4.6,0,10.6,0,14.9-0.1C198.7,95.6,200.3,96.1,201.8,96.9z"/>
	</g>
	<g class="st4">
		<path d="M205.4,101.2c0,0.9-0.7,1.7-1.7,1.8c-19-0.1-32,0.6-41.6,2.8c-3.4,0.8-4.2-0.4-4.7-1.7l-0.8-2.2c0.6,0.9,1.6,1.6,4.3,0.9
			c9.6-2.2,22.6-2.9,41.6-2.8c0.8,0,1.4-0.5,1.6-1.2c0.4,0.5,0.8,1,1.1,1.5C205.3,100.6,205.4,100.9,205.4,101.2z"/>
	</g>
	<g>
		<path class="st1" d="M160.9,99.7L160.9,99.7l-0.8-1.1c-0.3-0.4-1-0.5-1.3,0l-0.3,0.3l-0.5-0.2c-0.3-0.1-0.4-0.5-0.2-0.7l0.9-1.1
			c0.3-0.4,1-0.4,1.3,0l1.5,2C161.8,99.3,161.4,99.9,160.9,99.7z"/>
		<path class="st1" d="M160.9,101.8l-2.8-1c-0.3-0.1-0.4-0.5-0.2-0.7l0.5-0.7l0.3-0.4c0.4-0.4,1-0.4,1.4,0l0.8,1.1l0.6,0.9
			C161.8,101.4,161.4,102,160.9,101.8z"/>
	</g>
</g>
</svg>
