<?xml version="1.0" encoding="utf-8"?>
<!-- Generator: Adobe Illustrator 26.0.2, SVG Export Plug-In . SVG Version: 6.00 Build 0)  -->
<svg version="1.1" id="Layer_1" xmlns="http://www.w3.org/2000/svg" xmlns:xlink="http://www.w3.org/1999/xlink" x="0px" y="0px"
	 width="360px" height="200px" viewBox="0 0 360 200" style="enable-background:new 0 0 360 200;" xml:space="preserve">
<style type="text/css">
	.st0{fill:#FAAA4F;}
	.st1{fill:#142C4D;}
	.st2{fill:#EE0000;}
	.st3{opacity:0.2;}
	.st4{opacity:0.6;}
	.st5{fill:#FFFFFF;}
</style>
<g id="wagonSeat_00000077305946903041416400000010725338019019541377_">
	<g>
		<g>
			<path class="st0" d="M190.8,129.4c-1.4,0-2.6-0.9-3-2.2l-2.4-7.4c-0.5-1.6,0.4-3.4,2-4c0.3-0.1,0.6-0.2,1-0.2
				c1.4,0,2.6,0.9,3,2.2l2.4,7.4c0.3,0.8,0.2,1.7-0.2,2.4c-0.4,0.8-1,1.3-1.8,1.6C191.5,129.4,191.1,129.4,190.8,129.4z"/>
			<path class="st1" d="M188.4,116.7c0.9,0,1.8,0.6,2.1,1.6l2.4,7.4c0.4,1.2-0.3,2.4-1.4,2.8c-0.2,0.1-0.5,0.1-0.7,0.1
				c-0.9,0-1.8-0.6-2.1-1.6l-2.4-7.4c-0.4-1.2,0.3-2.4,1.4-2.8C187.9,116.7,188.2,116.7,188.4,116.7 M188.4,114.9L188.4,114.9
				c-0.4,0-0.8,0.1-1.3,0.2c-2.1,0.7-3.3,3-2.6,5.1l2.4,7.4c0.5,1.7,2.1,2.8,3.8,2.8c0.4,0,0.8-0.1,1.3-0.2c2.1-0.7,3.3-3,2.6-5.1
				l-2.4-7.4C191.7,116,190.1,114.9,188.4,114.9L188.4,114.9z"/>
		</g>
	</g>
	<g>
		<g>
			<g>
				<path class="st0" d="M164.9,111.3c-4.5,0-8.2-3.7-8.2-8.2V92.8h4.9v10.3c0,1.8,1.4,3.2,3.2,3.2h3v4.9L164.9,111.3L164.9,111.3z"
					/>
				<path class="st1" d="M160.8,93.7v9.4c0,2.3,1.9,4.1,4.1,4.1h2.1v3.1h-2.1c-4,0-7.3-3.3-7.3-7.3v-9.4h3.2 M162.6,91.9h-1.8h-3.1
					h-1.8v1.8v9.4c0,5,4.1,9.1,9.1,9.1h2.1h1.8v-1.8v-3.1v-1.8h-1.8H165c-1.3,0-2.3-1-2.3-2.3v-9.4L162.6,91.9L162.6,91.9z"/>
			</g>
		</g>
		<g>
			<path class="st2" d="M155.8,99.8c-2.7,0-5-2.2-5-5V75.7c0-2.3,1.9-4.2,4.2-4.2h3.6c3,0,5.5,2.2,5.8,5.2l2.3,18.7
				c0.1,1.1-0.2,2.3-1,3.2s-1.9,1.4-3,1.4h-6.9V99.8z"/>
			<g>
				<path class="st1" d="M158.7,72.4c2.5,0,4.6,1.9,4.9,4.4l2.3,18.7c0.2,1.9-1.2,3.5-3.1,3.5h-7c-2.2,0-4.1-1.8-4.1-4.1V75.7
					c0-1.8,1.5-3.3,3.3-3.3H158.7 M158.7,70.6h-3.6c-2.8,0-5.1,2.3-5.1,5.1v19.1c0,3.2,2.6,5.9,5.9,5.9h7c1.4,0,2.7-0.6,3.7-1.7
					c0.9-1.1,1.4-2.5,1.2-3.9l-2.4-18.6C165,73.2,162.1,70.6,158.7,70.6L158.7,70.6z"/>
			</g>
		</g>
		<g class="st3">
			<path d="M162.8,98.9h-7c-1.4,0-2.7-0.7-3.4-1.8c0.1,0,0.2,0,0.2,0h7c1.9,0,3.3-1.6,3.1-3.5l-2.3-18.7c-0.1-1-0.5-1.8-1.1-2.5
				c2.2,0.3,3.9,2.1,4.2,4.3l2.3,18.7C166.2,97.3,164.7,98.9,162.8,98.9z"/>
		</g>
		<g class="st4">
			<path class="st5" d="M161.6,73.3c-0.1,0-0.3,0-0.4,0h-3.8c-1.9,0-3.4,1.5-3.4,3.4v19.8c0,0.8,0.2,1.6,0.6,2.2
				c-1.7-0.5-2.9-2.1-2.9-3.9V75.7c0-1.8,1.5-3.3,3.3-3.3h3.6C159.8,72.4,160.8,72.7,161.6,73.3z"/>
		</g>
		<g>
			<path class="st2" d="M180.5,123.2c-4.8,0-8.8-3-10.3-4.1c-2.7-2-5-8-5.2-11.1c-0.1-1.7,0.3-4.2,1.9-5.8c1.1-1.2,2.6-1.8,4.4-1.8
				c0.3,0,0.5,0,0.8,0c1.3,0.1,2.5,0.3,3.7,0.5c2.2,0.3,4.2,0.6,6.8,0.6c1.4,0,2.8-0.1,4.3-0.2l0.8-0.1c2.2-0.2,5.3-0.5,8.3-0.5
				c5.5,0,9.2,1.1,11.2,3.3c1.3,1.5,1.9,3.4,1.7,5.7v0.1v0.1c-1.1,4.3-2,4.7-6.2,5.8c-3.1,0.8-8.2,2.3-17.1,6.5
				C183.8,122.8,182.2,123.2,180.5,123.2L180.5,123.2z"/>
			<g>
				<path class="st1" d="M171.2,101.2c0.2,0,0.5,0,0.7,0c3.7,0.4,6.5,1,10.5,1c1.3,0,2.7-0.1,4.4-0.2c2.3-0.2,5.7-0.6,9-0.6
					c6.3,0,12.6,1.4,12,8c-1.7,7-2.6,2.1-22.8,11.8c-1.5,0.7-3.1,1-4.5,1c-4.4,0-8.1-2.7-9.8-4c-2.5-1.9-4.7-7.7-4.9-10.4
					C165.7,105.3,166.8,101.2,171.2,101.2 M171.2,99.4L171.2,99.4c-2,0-3.8,0.7-5,2.1c-1.8,1.9-2.2,4.6-2.1,6.5
					c0.2,3.2,2.6,9.5,5.6,11.7c1.6,1.2,5.8,4.3,10.8,4.3c1.8,0,3.6-0.4,5.3-1.2c8.8-4.2,13.9-5.6,16.9-6.5c4.4-1.2,5.7-1.8,6.9-6.5
					v-0.1v-0.1c0.3-2.6-0.4-4.8-1.9-6.4c-2.2-2.4-6.1-3.6-11.9-3.6c-3,0-6.1,0.3-8.4,0.6l-0.8,0.1c-1.5,0.2-2.9,0.2-4.2,0.2
					c-2.5,0-4.6-0.3-6.7-0.6c-1.2-0.2-2.4-0.3-3.7-0.5C171.8,99.4,171.5,99.4,171.2,99.4L171.2,99.4L171.2,99.4z"/>
			</g>
		</g>
		<g class="st4">
			<path class="st5" d="M205.7,103.9c-5.7-1.4-13.7-0.7-18.5-0.4c-8.1,0.6-11.9-0.5-17.8-1.1c-0.6-0.1-1.1-0.1-1.6,0
				c0.9-0.8,2.2-1.3,4-1.1c4.9,0.5,8.1,1.5,14.9,0.8C191.9,101.5,201.5,100.3,205.7,103.9z"/>
		</g>
		<g class="st3">
			<path d="M207.8,109.5c-1.7,7-2.6,2.1-22.8,11.8c-6.2,3-12-1.3-14.3-2.9c-2.3-1.7-4.3-6.6-4.8-9.5c0.8,1.7,1.9,3.3,3,4.1
				c2.2,1.7,8.1,5.9,14.3,2.9c20.2-9.7,21.1-4.7,22.8-11.8l0,0C207.3,105.3,208,107,207.8,109.5z"/>
		</g>
	</g>
</g>
</svg>
