<?xml version="1.0" encoding="utf-8"?>
<!-- Generator: Adobe Illustrator 26.0.2, SVG Export Plug-In . SVG Version: 6.00 Build 0)  -->
<svg version="1.1" id="Layer_1" xmlns="http://www.w3.org/2000/svg" xmlns:xlink="http://www.w3.org/1999/xlink" x="0px" y="0px"
	 width="360px" height="200px" viewBox="0 0 360 200" style="enable-background:new 0 0 360 200;" xml:space="preserve">
<style type="text/css">
	.st0{fill:none;stroke:#333333;stroke-width:0.848;stroke-miterlimit:10;}
	.st1{fill:#AEDCDD;}
	.st2{fill:#142C4D;}
	.st3{opacity:0.2;enable-background:new    ;}
	.st4{opacity:0.8;}
</style>
<g id="triWheels">
	<g>
		<line class="st0" x1="185.5" y1="85.8" x2="185.5" y2="46"/>
		<line class="st0" x1="187" y1="86.4" x2="212.5" y2="56.2"/>
		<polyline class="st0" points="223,65.9 188.7,89.8 199.7,49.3 		"/>
		<line class="st0" x1="229.4" y1="78.3" x2="193" y2="98.6"/>
		<line class="st0" x1="194.2" y1="103.1" x2="234.5" y2="91.8"/>
		<line class="st0" x1="232" y1="121.9" x2="194.2" y2="101.2"/>
		<polyline class="st0" points="224.8,133.4 190,110.9 201.9,151.2 		"/>
		<polyline class="st0" points="215.9,144.4 185.5,113.8 188.7,157.4 		"/>
		<polyline class="st0" points="174.6,155.3 176.9,113 147.6,144.8 		"/>
		<polyline class="st0" points="160.8,152 171.1,111.6 137.7,135.6 		"/>
		<polyline class="st0" points="129.4,123.2 166.3,103.1 125.1,94.8 		"/>
		<polyline class="st0" points="125.1,109.6 166.3,99.2 127.7,79.5 		"/>
		<polyline class="st0" points="135.3,68.1 172.2,89.8 158.2,50.7 		"/>
		<polyline class="st0" points="145.7,57.7 174.6,87.2 173.1,46 		"/>
		<g>
			<path class="st1" d="M179.8,167.3c-36.9,0-67-30.1-67-67s30.1-67,67-67s67,30.1,67,67S216.8,167.3,179.8,167.3z M179.8,46.9
				c-29.5,0-53.4,24-53.4,53.4s24,53.4,53.4,53.4s53.4-24,53.4-53.4S209.3,46.9,179.8,46.9z"/>
			<path class="st2" d="M179.8,34.2c36.5,0,66.1,29.6,66.1,66.1s-29.6,66.1-66.1,66.1s-66.1-29.6-66.1-66.1S143.3,34.2,179.8,34.2
				 M179.8,154.6c30,0,54.3-24.3,54.3-54.3S209.8,46,179.8,46s-54.3,24.3-54.3,54.3S149.9,154.6,179.8,154.6 M179.8,32.5
				c-37.4,0-67.8,30.4-67.8,67.8s30.4,67.8,67.8,67.8s67.8-30.4,67.8-67.8S217.2,32.5,179.8,32.5L179.8,32.5z M179.8,152.9
				c-29,0-52.6-23.6-52.6-52.6s23.6-52.6,52.6-52.6s52.6,23.6,52.6,52.6S208.8,152.9,179.8,152.9L179.8,152.9z"/>
		</g>
		<g>
			<path class="st2" d="M186.3,44.3l0.9-5.1l3.6,0.6l-0.2,1.1l-2.5-0.4l-0.2,0.9l1.5,0.3l-0.2,1.1l-1.5-0.3l-0.4,2.1L186.3,44.3z"/>
			<path class="st2" d="M193.5,45.8l-0.1-1.1l-1.9-0.5l-0.6,0.9l-1.2-0.3l3.3-4.5l1.1,0.3l0.7,5.5L193.5,45.8z M193.2,43.6l-0.2-1.2
				c0-0.2,0-0.3,0-0.5c0,0.1-0.1,0.2-0.3,0.4l-0.7,1L193.2,43.6z"/>
			<path class="st2" d="M196.9,47c-0.5-0.2-0.8-0.4-1.1-0.8c-0.3-0.4-0.4-0.8-0.4-1.3h1.1c0,0.3,0.1,0.5,0.2,0.7
				c0.1,0.2,0.3,0.3,0.5,0.4c0.2,0.1,0.4,0.1,0.6,0.1s0.3-0.1,0.3-0.3c0-0.1,0-0.2,0-0.3c-0.1-0.1-0.1-0.2-0.2-0.3
				c-0.1-0.1-0.2-0.2-0.4-0.3c-0.1-0.1-0.2-0.2-0.3-0.2c-0.1-0.1-0.2-0.1-0.3-0.2c-0.1-0.1-0.2-0.2-0.3-0.3
				c-0.1-0.1-0.1-0.2-0.2-0.3c-0.1-0.1-0.1-0.2-0.1-0.3c0-0.1,0-0.2,0-0.4c0-0.1,0-0.3,0.1-0.4c0.1-0.4,0.4-0.7,0.8-0.8
				c0.4-0.2,0.9-0.1,1.4,0c0.4,0.2,0.8,0.4,1,0.7s0.3,0.7,0.3,1.1h-1.1c0-0.4-0.2-0.7-0.6-0.8c-0.4-0.1-0.6-0.1-0.7,0.2
				c0,0.1,0,0.1,0,0.2s0.1,0.1,0.2,0.2c0.1,0.1,0.2,0.1,0.2,0.2c0.1,0,0.2,0.1,0.3,0.2c0.1,0.1,0.3,0.2,0.3,0.3
				c0.1,0.1,0.2,0.2,0.3,0.3c0.1,0.1,0.2,0.2,0.3,0.3c0.1,0.1,0.1,0.2,0.2,0.4c0.1,0.1,0.1,0.3,0.1,0.5s0,0.3-0.1,0.5
				c-0.2,0.5-0.5,0.8-0.9,0.9C197.9,47.2,197.4,47.1,196.9,47z"/>
			<path class="st2" d="M203.4,45l-1.7,3.8l-1-0.5l1.7-3.8l-1.4-0.6l0.4-1l3.8,1.7l-0.4,1L203.4,45z"/>
			<path class="st2" d="M206,50.9l2.7-4.5l3.1,1.9l-0.5,0.9l-2.1-1.3l-0.5,0.8l1.3,0.8l-0.5,0.9l-1.3-0.8l-1.1,1.8L206,50.9z"/>
			<path class="st2" d="M211.3,54.4c-0.3-0.2-0.5-0.4-0.6-0.6c-0.2-0.2-0.3-0.5-0.3-0.7s0-0.5,0-0.8s0.1-0.5,0.2-0.7
				c0.1-0.2,0.2-0.5,0.4-0.7s0.3-0.4,0.5-0.6s0.4-0.3,0.6-0.4c0.2-0.1,0.5-0.2,0.7-0.2s0.5,0,0.8,0c0.3,0.1,0.5,0.2,0.8,0.4
				c0.3,0.2,0.6,0.5,0.7,0.8c0.2,0.3,0.2,0.6,0.2,0.9s-0.1,0.6-0.2,0.9c-0.1,0.3-0.3,0.6-0.5,0.9s-0.4,0.5-0.7,0.7
				c-0.2,0.2-0.5,0.4-0.8,0.5c-0.3,0.1-0.6,0.1-1,0.1C212,54.8,211.6,54.7,211.3,54.4z M211.9,53.6c0.2,0.2,0.4,0.2,0.7,0.2
				c0.2,0,0.5-0.1,0.7-0.3c0.2-0.1,0.4-0.3,0.5-0.5c0.2-0.2,0.3-0.4,0.4-0.7c0.1-0.2,0.1-0.5,0.1-0.7s-0.2-0.4-0.4-0.6
				c-0.2-0.2-0.5-0.2-0.7-0.2s-0.5,0.1-0.7,0.3c-0.2,0.1-0.4,0.3-0.5,0.5c-0.1,0.2-0.2,0.3-0.3,0.5c-0.1,0.2-0.1,0.3-0.1,0.5
				s0,0.4,0.1,0.5C211.6,53.3,211.8,53.4,211.9,53.6z"/>
			<path class="st2" d="M213.9,56.3l3.4-3.9l1.9,1.7c0.5,0.4,0.7,0.8,0.7,1.2s-0.2,0.8-0.5,1.2c-0.2,0.2-0.5,0.4-0.8,0.5
				c-0.3,0.1-0.6,0.1-0.9,0l-0.6,2.2l-1-0.8l0.5-2l-0.8-0.7l-1.2,1.4L213.9,56.3z M216.7,54.9l1.1,0.9c0.3,0.3,0.6,0.2,0.8-0.1
				c0.1-0.1,0.2-0.3,0.2-0.4c0-0.1-0.1-0.3-0.2-0.4l-1.1-0.9L216.7,54.9z"/>
			<path class="st2" d="M218.4,60.3l3.1-4.4l0.8,0.9l-1.7,2.3c0,0,0,0.1-0.1,0.1l-0.1,0.1c0,0,0.1,0,0.1-0.1l0.1-0.1l2.5-1.4
				l0.7,0.7l-1.6,2.4l-0.1,0.1c0,0.1-0.1,0.1-0.1,0.1s0,0,0.1,0c0,0,0.1,0,0.1-0.1h0.1l2.4-1.5l0.8,0.9l-4.6,2.7l-0.7-0.8l1.6-2.5
				c0,0,0.1-0.1,0.2-0.2c-0.1,0.1-0.2,0.2-0.2,0.2l-2.6,1.5L218.4,60.3z"/>
			<path class="st2" d="M223.9,66.9l0.6-0.9l-1.2-1.6l-1,0.3l-0.7-1l5.4-1.5l0.7,0.9l-2.9,4.8L223.9,66.9z M225.1,65.1l0.6-1
				c0.1-0.2,0.2-0.3,0.3-0.4c-0.1,0-0.2,0.1-0.4,0.1l-1.2,0.3L225.1,65.1z"/>
			<path class="st2" d="M225,68.5l4.4-2.7l1.3,2.2c0.3,0.5,0.4,1,0.3,1.4c-0.1,0.4-0.4,0.7-0.8,1c-0.3,0.2-0.6,0.2-0.9,0.3
				c-0.3,0-0.6-0.1-0.9-0.3l-1.2,1.9l-0.7-1.1l1.1-1.8l-0.5-0.9l-1.6,1L225,68.5z M228.1,67.9l0.7,1.2c0.2,0.3,0.5,0.4,0.8,0.2
				c0.1-0.1,0.2-0.2,0.3-0.3c0.1-0.1,0-0.3-0.1-0.5l-0.7-1.2L228.1,67.9z"/>
			<path class="st2" d="M232.4,70.6l0.9,1.7c0.2,0.4,0.3,0.8,0.3,1.1c0,0.3,0,0.7-0.2,1c-0.1,0.3-0.3,0.5-0.5,0.8
				c-0.2,0.2-0.5,0.4-0.8,0.6c-0.2,0.1-0.5,0.2-0.7,0.2c-0.2,0.1-0.5,0.1-0.7,0.1s-0.5-0.1-0.8-0.2c-0.2-0.1-0.5-0.3-0.7-0.5
				c-0.2-0.2-0.4-0.5-0.6-0.8l-0.8-1.7L232.4,70.6z M229.6,74.2c0.2,0.4,0.5,0.6,0.8,0.7c0.4,0.1,0.7,0,1.1-0.2
				c0.4-0.2,0.6-0.4,0.8-0.8c0.2-0.3,0.2-0.7,0-1l-0.4-0.9l-2.7,1.4L229.6,74.2z"/>
		</g>
		<g>
			<path d="M180,170.5c-38.6,0-70-31.4-70-70s31.4-70,70-70s70,31.4,70,70S218.6,170.5,180,170.5z M180,36.9
				c-35.1,0-63.6,28.5-63.6,63.6s28.5,63.6,63.6,63.6s63.6-28.5,63.6-63.6S215.1,36.9,180,36.9z"/>
		</g>
		<g>
			<g>
				<path class="st1" d="M180,117.1c-9.1,0-16.5-7.4-16.5-16.5S170.9,84,180,84c9.1,0,16.5,7.4,16.5,16.5S189.2,117.1,180,117.1z"/>
				<path class="st2" d="M180,84.8c8.7,0,15.7,7,15.7,15.7s-7,15.7-15.7,15.7s-15.7-7-15.7-15.7C164.4,91.9,171.4,84.8,180,84.8
					 M180,83.1c-9.6,0-17.4,7.8-17.4,17.4s7.8,17.4,17.4,17.4c9.6,0,17.4-7.8,17.4-17.4S189.6,83.1,180,83.1L180,83.1z"/>
			</g>
			<g>
				<path class="st2" d="M180,114.2c-7.5,0-13.7-6.1-13.7-13.7s6.1-13.7,13.7-13.7c7.5,0,13.7,6.1,13.7,13.7S187.6,114.2,180,114.2z
					"/>
				<g>
					<path class="st2" d="M180,87.2c7.4,0,13.4,6,13.4,13.4s-6,13.4-13.4,13.4c-7.4,0-13.4-6-13.4-13.4S172.7,87.2,180,87.2
						 M180,86.5c-7.7,0-14,6.3-14,14s6.3,14,14,14s14-6.3,14-14S187.8,86.5,180,86.5L180,86.5z"/>
				</g>
			</g>
			<g>
				<path class="st1" d="M180,112.5c-6.6,0-12-5.4-12-12s5.4-12,12-12c6.6,0,12,5.4,12,12S186.7,112.5,180,112.5z"/>
				<path class="st2" d="M180,89.2c6.3,0,11.4,5.1,11.4,11.4c0,6.3-5.1,11.4-11.4,11.4s-11.4-5.1-11.4-11.4
					C168.7,94.2,173.8,89.2,180,89.2 M180,87.9c-6.9,0-12.6,5.7-12.6,12.6s5.7,12.6,12.6,12.6c6.9,0,12.6-5.7,12.6-12.6
					S187,87.9,180,87.9L180,87.9z"/>
			</g>
			<g>
				<path class="st2" d="M180,110.4c-5.4,0-9.9-4.4-9.9-9.9s4.4-9.9,9.9-9.9s9.9,4.4,9.9,9.9S185.5,110.4,180,110.4z"/>
				<g>
					<path class="st2" d="M180,91c5.3,0,9.5,4.3,9.5,9.5s-4.3,9.5-9.5,9.5s-9.5-4.3-9.5-9.5S174.8,91,180,91 M180,90.3
						c-5.6,0-10.2,4.6-10.2,10.2s4.6,10.2,10.2,10.2c5.6,0,10.2-4.6,10.2-10.2S185.7,90.3,180,90.3L180,90.3z"/>
				</g>
			</g>
			<g>
				<path class="st1" d="M180,108.8c-4.6,0-8.3-3.7-8.3-8.3s3.7-8.3,8.3-8.3c4.6,0,8.3,3.7,8.3,8.3S184.6,108.8,180,108.8z"/>
				<path class="st2" d="M180,92.7c4.3,0,7.8,3.5,7.8,7.8s-3.5,7.8-7.8,7.8s-7.8-3.5-7.8-7.8S175.7,92.7,180,92.7 M180,91.8
					c-4.8,0-8.7,3.9-8.7,8.7s3.9,8.7,8.7,8.7s8.7-3.9,8.7-8.7S184.8,91.8,180,91.8L180,91.8z"/>
			</g>
			<g>
				<path class="st2" d="M180,107c-3.6,0-6.5-2.9-6.5-6.5s2.9-6.5,6.5-6.5c3.6,0,6.5,2.9,6.5,6.5S183.6,107,180,107z"/>
				<path class="st2" d="M180,94.4c3.4,0,6.1,2.8,6.1,6.1c0,3.4-2.8,6.1-6.1,6.1c-3.4,0-6.1-2.8-6.1-6.1
					C173.9,97.1,176.6,94.4,180,94.4 M180,93.7c-3.8,0-6.8,3.1-6.8,6.8s3.1,6.8,6.8,6.8c3.7,0,6.8-3.1,6.8-6.8S183.8,93.7,180,93.7
					L180,93.7z"/>
			</g>
		</g>
		<path class="st3" d="M165.6,106.6c3.4,8,12.6,11.7,20.6,8.3c7.4-3.2,11.2-11.4,8.9-18.9c-7.2,4.7-8.2,5.7-13.8,7
			c-4.4,1.1-7.4,1.5-16.4,1.4C165,105.2,165.3,105.9,165.6,106.6z"/>
		<path class="st3" d="M243.6,100.5c0,35.1-28.5,63.6-63.6,63.6c-33.5,0-61-26-63.4-58.9c0,0,9-1.4,9.1-0.4
			c2.3,27.8,25.6,49.7,54.1,49.7c30,0,54.3-24.3,54.3-54.3c0-11.4-3.5-21.9-9.5-30.7c-0.9-1.2,6.5-7,6.5-7
			C239,73.2,243.6,86.3,243.6,100.5z"/>
		<path class="st3" d="M243.9,104.5c-2.1,35-32.4,61.7-67.4,59.6c-15.6-1-29.5-7.5-40-17.5l8.6-4.8c8.6,7.3,19.6,12,31.7,12.7
			c29.9,1.8,55.7-20.9,57.5-50.8c0.2-3.7,0.1-7.4-0.4-10.9l8.8-4.9C243.8,93.2,244.2,98.8,243.9,104.5z"/>
		<g>
			<g class="st4">
				<path class="st1" d="M166.5,34.5c-0.3,0-0.6-0.2-0.6-0.5c-0.1-0.3,0.2-0.7,0.5-0.8c4.5-0.9,9.2-1.4,13.9-1.4
					c0.4,0,0.6,0.3,0.6,0.6s-0.3,0.6-0.6,0.6c-4.6,0-9.2,0.5-13.6,1.4C166.6,34.5,166.5,34.5,166.5,34.5z"/>
			</g>
			<g class="st4">
				<path class="st1" d="M112.5,93.3C112.4,93.3,112.4,93.3,112.5,93.3c-0.4,0-0.7-0.4-0.6-0.7c0.2-1.6,0.4-3.2,0.7-4.7
					c4.8-25.7,24.3-46.7,49.5-53.6c0.3-0.1,0.7,0.1,0.8,0.4c0.1,0.3-0.1,0.7-0.4,0.8c-24.8,6.8-43.8,27.4-48.6,52.6
					c-0.3,1.5-0.5,3.1-0.7,4.6C113.1,93.1,112.8,93.3,112.5,93.3z"/>
			</g>
			<g class="st4">
				<path class="st1" d="M112,98.7L112,98.7c-0.4,0-0.6-0.3-0.6-0.7c0-0.9,0.1-1.9,0.2-2.9c0-0.4,0.3-0.6,0.7-0.6s0.6,0.3,0.6,0.7
					c-0.1,0.9-0.1,1.9-0.2,2.8C112.7,98.5,112.4,98.7,112,98.7z"/>
			</g>
			<g class="st4">
				<path class="st1" d="M112,101.4c-0.4,0-0.6-0.3-0.6-0.6v-0.5c0-0.3,0.3-0.6,0.6-0.6l0,0c0.4,0,0.6,0.3,0.6,0.6v0.5
					C112.6,101.1,112.3,101.4,112,101.4z"/>
			</g>
		</g>
	</g>
</g>
</svg>
