<?xml version="1.0" encoding="utf-8"?>
<!-- Generator: Adobe Illustrator 26.0.2, SVG Export Plug-In . SVG Version: 6.00 Build 0)  -->
<svg version="1.1" id="Layer_1" xmlns="http://www.w3.org/2000/svg" xmlns:xlink="http://www.w3.org/1999/xlink" x="0px" y="0px"
	 width="360px" height="200px" viewBox="0 0 360 200" style="enable-background:new 0 0 360 200;" xml:space="preserve">
<style type="text/css">
	.st0{fill:#142C4D;}
	.st1{opacity:0.3;}
	.st2{fill:#FAAA4F;stroke:#142C4D;stroke-width:1.7284;stroke-miterlimit:10;}
	.st3{fill:#7C7679;}
	.st4{fill:#272B33;}
	.st5{fill:#EE0000;}
	.st6{fill:#FAAA4F;}
</style>
<g id="eBike_00000146491654461650898250000008875516547112535970_">
	<g id="eBikePedals_00000175324453512597224330000012235858698344693636_">
		<g>
			<g>
				<path class="st0" d="M193.5,95.2c0-0.4,0-0.7,0-1.1c0-0.1,0-0.2,0-0.3c0.3-0.1,0.6-0.3,0.5-0.7c0-0.3,0-0.6-0.1-0.9
					c0-0.3-0.3-0.6-0.7-0.6c-0.1-0.4-0.1-0.9-0.3-1.3c0.3-0.1,0.5-0.4,0.4-0.8c-0.1-0.3-0.2-0.6-0.3-0.9c-0.1-0.3-0.5-0.5-0.8-0.4
					c-0.2-0.4-0.3-0.8-0.5-1.2c0,0,0,0,0,0c0.3-0.2,0.4-0.6,0.3-0.9c-0.1-0.3-0.3-0.5-0.4-0.8c-0.2-0.3-0.6-0.4-0.9-0.2
					c0,0,0,0-0.1,0c-0.2-0.4-0.5-0.7-0.8-1.1c0,0,0,0,0.1,0c0.3-0.2,0.3-0.6,0.1-0.9c-0.2-0.2-0.4-0.5-0.6-0.7
					c-0.2-0.3-0.7-0.3-0.9,0c0,0,0,0-0.1,0.1c-0.3-0.3-0.6-0.6-1-0.9c0,0,0,0,0.1-0.1c0.2-0.3,0.2-0.7-0.1-0.9
					c-0.2-0.2-0.5-0.3-0.7-0.5c-0.3-0.2-0.7-0.1-0.9,0.2c0,0,0,0,0,0.1c-0.4-0.2-0.7-0.4-1.1-0.6c0,0,0,0,0,0c0.1-0.3,0-0.7-0.3-0.9
					c-0.3-0.1-0.5-0.2-0.8-0.3c-0.3-0.1-0.7,0-0.8,0.4c-0.4-0.1-0.8-0.3-1.3-0.4c0.1-0.3-0.2-0.7-0.5-0.7c-0.3-0.1-0.6-0.1-0.9-0.2
					c-0.3-0.1-0.7,0.2-0.7,0.5c-0.4-0.1-0.9-0.1-1.3-0.1v0c0-0.4-0.3-0.6-0.6-0.6c-0.3,0-0.6,0-0.9,0c-0.4,0-0.6,0.3-0.6,0.7v0
					c-0.4,0-0.9,0.1-1.3,0.2c0,0,0,0,0,0c-0.1-0.4-0.4-0.6-0.8-0.5c-0.3,0.1-0.6,0.1-0.9,0.2c-0.3,0.1-0.5,0.5-0.5,0.8c0,0,0,0,0,0
					c-0.4,0.1-0.8,0.3-1.2,0.4c0,0,0,0,0,0c-0.2-0.3-0.5-0.5-0.9-0.3c-0.3,0.1-0.5,0.3-0.8,0.4c-0.3,0.2-0.4,0.6-0.3,0.9
					c0,0,0,0,0,0c-0.4,0.2-0.7,0.4-1.1,0.7c0,0,0,0,0,0c-0.2-0.3-0.6-0.3-0.9-0.1c-0.2,0.2-0.5,0.4-0.7,0.6
					c-0.3,0.2-0.3,0.6-0.1,0.9c0,0,0,0,0,0c-0.3,0.3-0.6,0.6-0.9,0.9c0,0,0,0,0,0c-0.3-0.2-0.7-0.2-0.9,0.1
					c-0.2,0.2-0.4,0.5-0.6,0.7c-0.2,0.3-0.2,0.7,0.1,0.9c0,0,0,0,0,0c-0.3,0.4-0.5,0.7-0.7,1.1c0,0,0,0,0,0c-0.3-0.2-0.7,0-0.9,0.3
					c-0.1,0.3-0.3,0.5-0.4,0.8c-0.2,0.3,0,0.7,0.3,0.9c0,0,0,0,0,0c-0.2,0.4-0.3,0.8-0.4,1.2c0,0,0,0,0,0c-0.3-0.1-0.7,0.1-0.8,0.5
					c-0.1,0.3-0.2,0.6-0.2,0.9c-0.1,0.4,0.1,0.7,0.5,0.8h0c-0.1,0.4-0.1,0.9-0.2,1.3h0c-0.4,0-0.7,0.3-0.7,0.6c0,0.3,0,0.6,0,0.9
					v0.1c0,0.4,0.3,0.6,0.6,0.6h0c0,0.4,0.1,0.9,0.1,1.3h0c-0.4,0.1-0.6,0.4-0.5,0.7c0,0.3,0.1,0.6,0.2,0.9c0.1,0.3,0.3,0.5,0.6,0.5
					c0,0,0.1,0,0.1,0c0,0,0,0,0,0c0.1,0.4,0.2,0.8,0.4,1.2c0,0,0,0,0,0c-0.3,0.1-0.5,0.5-0.4,0.8c0.1,0.3,0.2,0.6,0.4,0.8
					c0.1,0.2,0.3,0.4,0.6,0.4c0.1,0,0.2,0,0.3-0.1c0,0,0,0,0,0c0.2,0.4,0.4,0.8,0.6,1.1c0,0,0,0,0,0c-0.3,0.2-0.4,0.6-0.2,0.9
					c0.2,0.2,0.3,0.5,0.5,0.7c0.1,0.2,0.3,0.3,0.5,0.3c0.1,0,0.3,0,0.4-0.1c0,0,0,0,0,0c0.3,0.3,0.6,0.7,0.9,1l0,0
					c-0.2,0.3-0.2,0.7,0,0.9c0.2,0.2,0.4,0.4,0.7,0.6c0.1,0.1,0.3,0.2,0.4,0.2c0.2,0,0.4-0.1,0.5-0.2c0,0,0,0,0,0
					c0.3,0.3,0.7,0.5,1.1,0.8c0,0,0,0,0,0c-0.2,0.3-0.1,0.7,0.2,0.9c0.3,0.2,0.5,0.3,0.8,0.4c0.1,0.1,0.2,0.1,0.3,0.1
					c0.2,0,0.5-0.1,0.6-0.3c0,0,0,0,0,0c0.4,0.2,0.8,0.4,1.2,0.5c0,0,0,0,0,0c-0.1,0.3,0.1,0.7,0.4,0.8c0.3,0.1,0.6,0.2,0.9,0.3
					c0.1,0,0.1,0,0.2,0c0.3,0,0.5-0.2,0.6-0.5c0,0,0,0,0,0c0.4,0.1,0.8,0.2,1.3,0.2c0,0,0,0,0,0c0,0.4,0.2,0.7,0.6,0.7
					c0.3,0,0.6,0.1,0.9,0.1h0c0.3,0,0.6-0.3,0.6-0.6v0h0.2c0.4,0,0.8,0,1.1,0c0.1,0.3,0.3,0.5,0.6,0.5c0,0,0.1,0,0.1,0
					c0.3,0,0.6-0.1,0.9-0.1c0.3-0.1,0.6-0.4,0.5-0.7c0.4-0.1,0.9-0.2,1.3-0.3c0.1,0.3,0.3,0.4,0.6,0.4c0.1,0,0.1,0,0.2,0
					c0.3-0.1,0.6-0.2,0.9-0.3c0.3-0.1,0.5-0.5,0.4-0.8c0,0,0,0,0,0c0.4-0.2,0.8-0.4,1.2-0.6c0,0,0,0,0,0c0.1,0.2,0.3,0.3,0.6,0.3
					c0.1,0,0.2,0,0.3-0.1c0.3-0.2,0.5-0.3,0.8-0.5c0.3-0.2,0.4-0.6,0.2-0.9c0,0,0,0,0-0.1c0.3-0.3,0.7-0.5,1-0.8c0,0,0,0,0.1,0.1
					c0.1,0.1,0.3,0.2,0.5,0.2c0.2,0,0.3-0.1,0.4-0.2c0.2-0.2,0.4-0.4,0.6-0.6c0.2-0.3,0.2-0.7,0-0.9c0,0,0,0-0.1-0.1
					c0.3-0.3,0.6-0.7,0.8-1c0,0,0,0,0.1,0c0.1,0.1,0.2,0.1,0.4,0.1c0.2,0,0.4-0.1,0.5-0.3c0.2-0.3,0.3-0.5,0.5-0.8
					c0.2-0.3,0.1-0.7-0.2-0.9c0,0,0,0,0,0c0.2-0.4,0.4-0.8,0.6-1.2c0,0,0,0,0,0c0.1,0,0.2,0,0.2,0c0.3,0,0.5-0.2,0.6-0.4
					c0.1-0.3,0.2-0.6,0.3-0.8c0.1-0.3-0.1-0.7-0.4-0.8c0.1-0.4,0.2-0.8,0.3-1.3h0c0.3,0,0.6-0.2,0.6-0.5c0-0.3,0.1-0.6,0.1-0.9
					C194,95.6,193.8,95.3,193.5,95.2z M178.4,81.4c4.9,0.4,9,3.5,10.8,7.8l-1.2,0.4c-0.1-0.2-0.1-0.3-0.2-0.5c0,0,0,0,0,0
					c0.2-0.1,0.3-0.4,0.2-0.6c-0.1-0.2-0.2-0.4-0.3-0.6c-0.1-0.2-0.4-0.3-0.6-0.2c0,0,0,0,0,0c-0.2-0.3-0.4-0.5-0.5-0.8c0,0,0,0,0,0
					c0.2-0.2,0.2-0.5,0.1-0.6c-0.1-0.2-0.3-0.3-0.4-0.5c-0.2-0.2-0.5-0.2-0.7,0c0,0,0,0,0,0c-0.2-0.2-0.5-0.4-0.7-0.6c0,0,0,0,0,0
					c0.2-0.2,0.1-0.5-0.1-0.6c-0.2-0.1-0.3-0.3-0.5-0.4c-0.2-0.1-0.5-0.1-0.6,0.1c0,0,0,0,0,0c-0.3-0.2-0.5-0.3-0.8-0.5c0,0,0,0,0,0
					c0.1-0.2,0-0.5-0.2-0.6c-0.2-0.1-0.4-0.2-0.6-0.2c-0.2-0.1-0.5,0-0.6,0.3c-0.3-0.1-0.6-0.2-0.9-0.3c0-0.2-0.1-0.5-0.4-0.5
					c-0.2,0-0.4-0.1-0.6-0.1c-0.2,0-0.5,0.1-0.5,0.4c-0.2,0-0.3,0-0.5,0V81.4z M178.4,85.1c3.2,0.4,6,2.4,7.3,5.2l-0.9,0.3
					c0.1-0.1,0.2-0.3,0.1-0.4c-0.1-0.1-0.1-0.3-0.2-0.4c-0.1-0.2-0.3-0.2-0.4-0.1c0,0,0,0,0,0c-0.1-0.2-0.3-0.4-0.4-0.5c0,0,0,0,0,0
					c0.1-0.1,0.2-0.3,0-0.5c-0.1-0.1-0.2-0.2-0.3-0.3c-0.1-0.1-0.3-0.1-0.5,0c0,0,0,0,0,0c-0.2-0.2-0.3-0.3-0.5-0.4c0,0,0,0,0,0
					c0.1-0.1,0.1-0.4-0.1-0.5c-0.1-0.1-0.2-0.2-0.4-0.3c-0.2-0.1-0.4-0.1-0.5,0.1c0,0,0,0,0,0c-0.2-0.1-0.4-0.2-0.6-0.3c0,0,0,0,0,0
					c0.1-0.2,0-0.4-0.2-0.4c-0.1-0.1-0.3-0.1-0.4-0.2c-0.2-0.1-0.3,0-0.4,0.2c-0.2-0.1-0.4-0.1-0.6-0.2c0-0.2-0.1-0.3-0.3-0.4
					c-0.1,0-0.3-0.1-0.4-0.1c-0.2,0-0.3,0.1-0.4,0.3c0,0-0.1,0-0.1,0V85.1z M168.3,92.4l1.2,0.4c0,0.2-0.1,0.4-0.1,0.6h0
					c-0.2,0-0.3,0.1-0.3,0.3c0,0.2,0,0.3,0,0.5v0c0,0.2,0.1,0.3,0.3,0.3h0c0,0.2,0,0.4,0.1,0.7h0c-0.2,0-0.3,0.2-0.3,0.4
					c0,0.2,0.1,0.3,0.1,0.4c0,0.2,0.2,0.3,0.3,0.3c0,0,0,0,0.1,0h0c0.1,0.2,0.1,0.4,0.2,0.6l0,0c-0.2,0.1-0.3,0.3-0.2,0.4
					c0.1,0.1,0.1,0.3,0.2,0.4c0.1,0.1,0.2,0.2,0.3,0.2c0,0,0.1,0,0.1,0c0,0,0,0,0,0c0.1,0.2,0.2,0.4,0.3,0.6c0,0,0,0,0,0
					c-0.1,0.1-0.2,0.3-0.1,0.5c0.1,0.1,0.2,0.2,0.3,0.4c0.1,0.1,0.2,0.1,0.3,0.1c0.1,0,0.1,0,0.2-0.1c0,0,0,0,0,0
					c0,0.1,0.1,0.1,0.1,0.2l-0.9,1.1c-1.5-1.7-2.4-3.9-2.4-6.3C168.1,93.6,168.2,93,168.3,92.4z M173.2,91.6l-1.6-0.5
					c0.9-1.7,2.6-3,4.6-3.3v1.5C174.9,89.6,173.8,90.4,173.2,91.6z M170.9,93.2l1.6,0.5c0,0.1,0,0.2,0,0.3c0,1.1,0.4,2.1,1,2.9
					l-1.3,1.5c-0.9-1.1-1.5-2.6-1.5-4.1C170.9,93.9,170.9,93.5,170.9,93.2z M176.1,86.2C176.1,86.2,176.1,86.2,176.1,86.2
					c0-0.2-0.2-0.3-0.4-0.3c-0.1,0-0.3,0.1-0.4,0.1c-0.2,0-0.3,0.2-0.2,0.4v0c-0.2,0.1-0.4,0.1-0.6,0.2c0,0,0,0,0,0
					c-0.1-0.2-0.3-0.2-0.4-0.2c-0.1,0.1-0.3,0.1-0.4,0.2c-0.2,0.1-0.2,0.3-0.1,0.4c0,0,0,0,0,0c-0.2,0.1-0.4,0.2-0.6,0.4
					c0,0,0,0,0,0c-0.1-0.1-0.3-0.2-0.5-0.1c-0.1,0.1-0.2,0.2-0.4,0.3c-0.1,0.1-0.2,0.3,0,0.5c0,0,0,0,0,0c-0.2,0.2-0.3,0.3-0.5,0.5
					c0,0,0,0,0,0c-0.1-0.1-0.3-0.1-0.5,0c-0.1,0.1-0.2,0.2-0.3,0.4c-0.1,0.1-0.1,0.4,0.1,0.5c0,0,0,0,0,0c-0.1,0.2-0.2,0.4-0.4,0.6
					c0,0,0,0,0,0c-0.2-0.1-0.4,0-0.4,0.1c-0.1,0.1-0.1,0.3-0.2,0.4v0l-0.9-0.3c1.3-2.8,4-4.9,7.3-5.2v1
					C176.2,86.1,176.1,86.1,176.1,86.2z M173.1,100.9C173.1,100.9,173.1,100.9,173.1,100.9C173.1,100.9,173.1,100.9,173.1,100.9
					c-0.1,0.2,0,0.4,0.1,0.5c0.1,0.1,0.3,0.2,0.4,0.2c0,0,0.1,0,0.2,0c0.1,0,0.2-0.1,0.3-0.2v0c0.2,0.1,0.4,0.2,0.6,0.3v0
					c-0.1,0.2,0,0.4,0.2,0.4c0.1,0,0.3,0.1,0.4,0.1c0,0,0.1,0,0.1,0c0.1,0,0.3-0.1,0.3-0.2c0,0,0,0,0,0c0.2,0.1,0.4,0.1,0.6,0.1
					c0,0,0,0,0,0c0,0.2,0.1,0.3,0.3,0.4c0.1,0,0.3,0,0.5,0h0c0.2,0,0.3-0.1,0.3-0.3v0h0.1c0.2,0,0.4,0,0.6,0c0,0.2,0.2,0.3,0.3,0.3
					c0,0,0,0,0,0c0.1,0,0.3,0,0.4-0.1c0.2,0,0.3-0.2,0.3-0.4c0.2,0,0.4-0.1,0.6-0.2c0.1,0.1,0.2,0.2,0.3,0.2c0,0,0.1,0,0.1,0
					c0.1,0,0.3-0.1,0.4-0.2c0.2-0.1,0.3-0.3,0.2-0.4c0,0,0,0,0,0c0.2-0.1,0.4-0.2,0.6-0.3c0,0,0,0,0,0c0.1,0.1,0.2,0.2,0.3,0.2
					c0.1,0,0.1,0,0.2,0c0,0,0,0,0.1,0l0.5,0.7c-1.5,1-3.2,1.5-5.1,1.5c-1.9,0-3.7-0.6-5.2-1.6L173.1,100.9z M182.4,98.5l-1.3-1.6
					c0.6-0.8,1-1.8,1-2.9c0-0.1,0-0.2,0-0.3l1.8-0.5c0.1,0.4,0.1,0.7,0.1,1.1C184,95.9,183.4,97.3,182.4,98.5z M178.4,87.7
					c2,0.3,3.8,1.6,4.7,3.3l-1.7,0.5c-0.6-1.1-1.7-2-3.1-2.3V87.7z M179.4,98.2l1.4,1.7c-1,0.6-2.1,0.9-3.4,0.9
					c-1.3,0-2.5-0.4-3.5-1l1.3-1.6c0.6,0.3,1.3,0.5,2.1,0.5C178.1,98.7,178.8,98.5,179.4,98.2z M176.3,81.4v1.4
					c-0.2,0-0.5,0.1-0.7,0.1c0,0,0,0,0,0c-0.1-0.3-0.3-0.4-0.6-0.4c-0.2,0-0.4,0.1-0.6,0.2c-0.2,0.1-0.4,0.3-0.3,0.6c0,0,0,0,0,0
					c-0.3,0.1-0.6,0.2-0.9,0.3c0,0,0,0,0,0c-0.1-0.2-0.4-0.3-0.6-0.2c-0.2,0.1-0.4,0.2-0.6,0.3c-0.2,0.1-0.3,0.4-0.2,0.6
					c0,0,0,0,0,0c-0.3,0.2-0.5,0.3-0.8,0.5c0,0,0,0,0,0c-0.2-0.2-0.4-0.2-0.6-0.1c-0.2,0.1-0.3,0.3-0.5,0.4
					c-0.2,0.2-0.2,0.5-0.1,0.7c0,0,0,0,0,0c-0.2,0.2-0.4,0.4-0.7,0.7c0,0,0,0,0,0c-0.2-0.2-0.5-0.1-0.6,0.1
					c-0.1,0.2-0.3,0.3-0.4,0.5c-0.2,0.2-0.1,0.5,0.1,0.6c0,0,0,0,0,0c-0.2,0.3-0.3,0.5-0.5,0.8c0,0,0,0,0,0c-0.2-0.1-0.5,0-0.6,0.2
					c-0.1,0.2-0.2,0.4-0.3,0.6c-0.1,0.2,0,0.5,0.2,0.6l-1.5-0.4C167.2,84.9,171.4,81.8,176.3,81.4z M168.2,103.5
					c-2.3-2.3-3.8-5.6-3.8-9.2c0-1,0.1-2,0.4-3l1.2,0.3c0,0.2,0.2,0.4,0.4,0.4h0c-0.1,0.3-0.1,0.6-0.1,0.9h0c-0.3,0-0.5,0.2-0.5,0.4
					c0,0.2,0,0.4,0,0.6v0c0,0.3,0.2,0.5,0.5,0.5h0c0,0.3,0,0.6,0.1,0.9h0c-0.3,0-0.4,0.3-0.4,0.5c0,0.2,0.1,0.4,0.1,0.6
					c0,0.2,0.2,0.4,0.4,0.4c0,0,0.1,0,0.1,0c0,0,0,0,0,0c0.1,0.3,0.2,0.6,0.3,0.9c0,0,0,0,0,0c-0.2,0.1-0.4,0.4-0.3,0.6
					c0.1,0.2,0.2,0.4,0.3,0.6c0.1,0.2,0.2,0.3,0.4,0.3c0.1,0,0.1,0,0.2,0c0,0,0,0,0,0c0.1,0.3,0.3,0.5,0.5,0.8c0,0,0,0,0,0
					c-0.2,0.1-0.3,0.4-0.1,0.6c0.1,0.2,0.2,0.4,0.4,0.5c0.1,0.1,0.2,0.2,0.4,0.2c0.1,0,0.2,0,0.3-0.1c0,0,0,0,0,0
					c0.2,0.2,0.4,0.4,0.6,0.6L168.2,103.5z M177.3,107.3c-2.8,0-5.4-0.9-7.5-2.4l1.2-1.4c0.1,0.1,0.2,0.1,0.3,0.2c0,0,0,0,0,0
					c-0.1,0.2-0.1,0.5,0.2,0.6c0.2,0.1,0.4,0.2,0.6,0.3c0.1,0,0.1,0.1,0.2,0.1c0.2,0,0.3-0.1,0.4-0.2c0,0,0,0,0,0
					c0.3,0.1,0.6,0.3,0.9,0.4c0,0,0,0,0,0c-0.1,0.2,0,0.5,0.3,0.6c0.2,0.1,0.4,0.1,0.6,0.2c0,0,0.1,0,0.1,0c0.2,0,0.4-0.1,0.4-0.3
					c0,0,0,0,0,0c0.3,0.1,0.6,0.1,0.9,0.2c0,0,0,0,0,0c0,0.3,0.2,0.5,0.4,0.5c0.2,0,0.4,0,0.6,0h0c0.2,0,0.4-0.2,0.5-0.4v0h0.1
					c0.3,0,0.5,0,0.8,0c0,0.2,0.2,0.4,0.5,0.4c0,0,0,0,0.1,0c0.2,0,0.4-0.1,0.6-0.1c0.2,0,0.4-0.3,0.4-0.5c0.3-0.1,0.6-0.1,0.9-0.2
					c0.1,0.2,0.2,0.3,0.4,0.3c0,0,0.1,0,0.1,0c0.2-0.1,0.4-0.1,0.6-0.2c0.2-0.1,0.4-0.4,0.3-0.6c0,0,0,0,0,0
					c0.3-0.1,0.6-0.3,0.8-0.4c0,0,0,0,0,0c0.1,0.1,0.2,0.2,0.4,0.2c0.1,0,0.2,0,0.2-0.1c0.2-0.1,0.3-0.2,0.4-0.3l0.7,0.9
					C182.7,106.4,180.1,107.3,177.3,107.3z M184.1,100.6l-0.5-0.6c0,0,0,0,0,0c0.1-0.1,0.1-0.3,0-0.5c0,0,0,0,0,0
					c0.1-0.2,0.3-0.3,0.4-0.5c0,0,0,0,0,0c0.1,0,0.1,0.1,0.2,0.1c0.1,0,0.2-0.1,0.3-0.1c0.1-0.1,0.2-0.3,0.2-0.4
					c0.1-0.2,0-0.4-0.1-0.4c0,0,0,0,0,0c0.1-0.2,0.2-0.4,0.3-0.6c0,0,0,0,0,0c0,0,0.1,0,0.1,0c0.1,0,0.3-0.1,0.3-0.2
					c0.1-0.1,0.1-0.3,0.1-0.4c0.1-0.2,0-0.3-0.2-0.4c0.1-0.2,0.1-0.4,0.2-0.6h0c0.2,0,0.3-0.1,0.3-0.3c0-0.2,0-0.3,0.1-0.5
					c0-0.2-0.1-0.3-0.3-0.4c0-0.2,0-0.4,0-0.5c0,0,0-0.1,0-0.1c0.2,0,0.3-0.2,0.3-0.3c0-0.1,0-0.3,0-0.4c0-0.2-0.2-0.3-0.3-0.3
					c0-0.1,0-0.2,0-0.3l1-0.3c0.1,0.6,0.2,1.3,0.2,1.9C186.6,96.7,185.7,98.9,184.1,100.6z M186.5,103.5l-0.7-0.8
					c0.1-0.1,0.3-0.3,0.4-0.4c0.2-0.2,0.2-0.5,0-0.7c0,0,0,0,0,0c0.2-0.2,0.4-0.5,0.6-0.7c0,0,0,0,0,0c0.1,0.1,0.2,0.1,0.3,0.1
					c0.2,0,0.3-0.1,0.4-0.2c0.1-0.2,0.2-0.4,0.3-0.5c0.1-0.2,0.1-0.5-0.2-0.6c0,0,0,0,0,0c0.2-0.3,0.3-0.5,0.4-0.8c0,0,0,0,0,0
					c0.1,0,0.1,0,0.2,0c0.2,0,0.4-0.1,0.4-0.3c0.1-0.2,0.1-0.4,0.2-0.6c0.1-0.2-0.1-0.5-0.3-0.6c0.1-0.3,0.2-0.6,0.2-0.9h0
					c0.2,0,0.4-0.2,0.5-0.4c0-0.2,0.1-0.4,0.1-0.6c0-0.2-0.1-0.5-0.4-0.5c0-0.3,0-0.5,0-0.8c0-0.1,0-0.1,0-0.2
					c0.2,0,0.4-0.2,0.4-0.5c0-0.2,0-0.4-0.1-0.6c0-0.2-0.2-0.4-0.5-0.4c0-0.2-0.1-0.5-0.1-0.7l1.2-0.4c0.2,1,0.4,2,0.4,3
					C190.3,97.9,188.8,101.2,186.5,103.5z"/>
			</g>
			<g class="st1">
				<path d="M193.5,95.2c0-0.4,0-0.7,0-1.1c0-0.1,0-0.2,0-0.3c0.3-0.1,0.6-0.3,0.5-0.7c0-0.3,0-0.6-0.1-0.9c0-0.3-0.3-0.6-0.7-0.6
					c-0.1-0.4-0.1-0.9-0.3-1.3c0.3-0.1,0.5-0.4,0.4-0.8c-0.1-0.3-0.2-0.6-0.3-0.9c-0.1-0.3-0.5-0.5-0.8-0.4
					c-0.2-0.4-0.3-0.8-0.5-1.2c0,0,0,0,0,0c0.3-0.2,0.4-0.6,0.3-0.9c-0.1-0.2-0.2-0.3-0.3-0.5l-3.8,1.5c0.4,0.6,0.8,1.3,1.1,2
					l-1.2,0.4c-0.1-0.2-0.1-0.3-0.2-0.5c0,0,0,0,0,0c0.2-0.1,0.3-0.4,0.2-0.6c-0.1-0.2-0.2-0.4-0.3-0.6c-0.1-0.2-0.4-0.3-0.6-0.2
					c0,0,0,0,0,0c0,0,0-0.1-0.1-0.1l-2.3,0.9c0.4,0.5,0.8,1.1,1.1,1.7l-0.9,0.3c0.1-0.1,0.2-0.3,0.1-0.4c-0.1-0.1-0.1-0.3-0.2-0.4
					c-0.1-0.2-0.3-0.2-0.4-0.1c0,0,0,0,0,0c-0.1-0.2-0.3-0.4-0.4-0.5c0,0,0,0,0,0C184,89,184,89,184,88.9l-1.9,0.8
					c0.4,0.4,0.8,0.9,1.1,1.4l-1.7,0.5c-0.3-0.5-0.6-0.9-1.1-1.3l-8.3,3.2l0.5,0.1c0,0.1,0,0.2,0,0.3c0,1.1,0.4,2.1,1,2.9l-1.3,1.5
					c-0.9-1.1-1.5-2.6-1.5-4.1c0-0.1,0-0.2,0-0.3l-1.4,0.5c0,0.2,0,0.4,0.1,0.6h0c-0.2,0-0.3,0.2-0.3,0.4c0,0.2,0.1,0.3,0.1,0.4
					c0,0.2,0.2,0.3,0.3,0.3c0,0,0,0,0.1,0h0c0.1,0.2,0.1,0.4,0.2,0.6l0,0c-0.2,0.1-0.3,0.3-0.2,0.4c0.1,0.1,0.1,0.3,0.2,0.4
					c0.1,0.1,0.2,0.2,0.3,0.2c0,0,0.1,0,0.1,0c0,0,0,0,0,0c0.1,0.2,0.2,0.4,0.3,0.6c0,0,0,0,0,0c-0.1,0.1-0.2,0.3-0.1,0.5
					c0.1,0.1,0.2,0.2,0.3,0.4c0.1,0.1,0.2,0.1,0.3,0.1c0.1,0,0.1,0,0.2-0.1c0,0,0,0,0,0c0,0.1,0.1,0.1,0.1,0.2l-0.9,1.1
					c-1.4-1.5-2.2-3.4-2.4-5.5l-2.3,0.9c0,0.1,0,0.1,0,0.2c0,0.2,0.1,0.4,0.1,0.6c0,0.2,0.2,0.4,0.4,0.4c0,0,0.1,0,0.1,0
					c0,0,0,0,0,0c0.1,0.3,0.2,0.6,0.3,0.9c0,0,0,0,0,0c-0.2,0.1-0.4,0.4-0.3,0.6c0.1,0.2,0.2,0.4,0.3,0.6c0.1,0.2,0.2,0.3,0.4,0.3
					c0.1,0,0.1,0,0.2,0c0,0,0,0,0,0c0.1,0.3,0.3,0.5,0.5,0.8c0,0,0,0,0,0c-0.2,0.1-0.3,0.4-0.1,0.6c0.1,0.2,0.2,0.3,0.4,0.5
					c0.1,0.1,0.2,0.2,0.4,0.2c0.1,0,0.2,0,0.3-0.1c0,0,0,0,0,0c0.2,0.2,0.4,0.4,0.6,0.6l-1.2,1.4c-1.9-1.9-3.2-4.3-3.6-7.1l-3.2,1.3
					c0,0,0,0.1,0,0.1c0.1,0.3,0.3,0.5,0.6,0.5c0,0,0.1,0,0.1,0c0,0,0,0,0,0c0.1,0.4,0.2,0.8,0.4,1.2c0,0,0,0,0,0
					c-0.3,0.1-0.5,0.5-0.4,0.8c0.1,0.3,0.2,0.6,0.4,0.8c0.1,0.2,0.3,0.4,0.6,0.4c0.1,0,0.2,0,0.3-0.1c0,0,0,0,0,0
					c0.2,0.4,0.4,0.8,0.6,1.1c0,0,0,0,0,0c-0.3,0.2-0.4,0.6-0.2,0.9c0.2,0.2,0.3,0.5,0.5,0.7c0.1,0.2,0.3,0.3,0.5,0.3
					c0.1,0,0.3,0,0.4-0.1c0,0,0,0,0,0c0.3,0.3,0.6,0.7,0.9,1l0,0c-0.2,0.3-0.2,0.7,0,0.9c0.2,0.2,0.4,0.4,0.7,0.6
					c0.1,0.1,0.3,0.2,0.4,0.2c0.2,0,0.4-0.1,0.5-0.2c0,0,0,0,0,0c0.3,0.3,0.7,0.5,1.1,0.8c0,0,0,0,0,0c-0.2,0.3-0.1,0.7,0.2,0.9
					c0.3,0.2,0.5,0.3,0.8,0.4c0.1,0.1,0.2,0.1,0.3,0.1c0.2,0,0.5-0.1,0.6-0.3c0,0,0,0,0,0c0.4,0.2,0.8,0.4,1.2,0.5c0,0,0,0,0,0
					c-0.1,0.3,0.1,0.7,0.4,0.8c0.3,0.1,0.6,0.2,0.9,0.3c0.1,0,0.1,0,0.2,0c0.3,0,0.5-0.2,0.6-0.5c0,0,0,0,0,0
					c0.4,0.1,0.8,0.2,1.3,0.2c0,0,0,0,0,0c0,0.4,0.2,0.7,0.6,0.7c0.3,0,0.6,0.1,0.9,0.1h0c0.3,0,0.6-0.3,0.6-0.6v0h0.2
					c0.4,0,0.8,0,1.1,0c0.1,0.3,0.3,0.5,0.6,0.5c0,0,0.1,0,0.1,0c0.3,0,0.6-0.1,0.9-0.1c0.3-0.1,0.6-0.4,0.5-0.7
					c0.4-0.1,0.9-0.2,1.3-0.3c0.1,0.3,0.3,0.4,0.6,0.4c0.1,0,0.1,0,0.2,0c0.3-0.1,0.6-0.2,0.9-0.3c0.3-0.1,0.5-0.5,0.4-0.8
					c0,0,0,0,0,0c0.4-0.2,0.8-0.4,1.2-0.6c0,0,0,0,0,0c0.1,0.2,0.3,0.3,0.6,0.3c0.1,0,0.2,0,0.3-0.1c0.3-0.2,0.5-0.3,0.8-0.5
					c0.3-0.2,0.4-0.6,0.2-0.9c0,0,0,0,0-0.1c0.3-0.3,0.7-0.5,1-0.8c0,0,0,0,0.1,0.1c0.1,0.1,0.3,0.2,0.5,0.2c0.2,0,0.3-0.1,0.4-0.2
					c0.2-0.2,0.4-0.4,0.6-0.6c0.2-0.3,0.2-0.7,0-0.9c0,0,0,0-0.1-0.1c0.3-0.3,0.6-0.7,0.8-1c0,0,0,0,0.1,0c0.1,0.1,0.2,0.1,0.4,0.1
					c0.2,0,0.4-0.1,0.5-0.3c0.2-0.3,0.3-0.5,0.5-0.8c0.2-0.3,0.1-0.7-0.2-0.9c0,0,0,0,0,0c0.2-0.4,0.4-0.8,0.6-1.2c0,0,0,0,0,0
					c0.1,0,0.2,0,0.2,0c0.3,0,0.5-0.2,0.6-0.4c0.1-0.3,0.2-0.6,0.3-0.8c0.1-0.3-0.1-0.7-0.4-0.8c0.1-0.4,0.2-0.8,0.3-1.3h0
					c0.3,0,0.6-0.2,0.6-0.5c0-0.3,0.1-0.6,0.1-0.9C194,95.6,193.8,95.3,193.5,95.2z M182.1,93.9c0-0.1,0-0.2,0-0.3l1.8-0.5
					c0.1,0.4,0.1,0.7,0.1,1.1c0,1.6-0.6,3.1-1.6,4.2l-1.3-1.6C181.7,96,182.1,95,182.1,93.9z M175.3,98.2c0.6,0.3,1.3,0.5,2.1,0.5
					s1.5-0.2,2.1-0.5l1.4,1.7c-1,0.6-2.1,0.9-3.4,0.9c-1.3,0-2.5-0.4-3.5-1L175.3,98.2z M173.1,100.9
					C173.1,100.9,173.1,100.9,173.1,100.9C173.1,100.9,173.1,100.9,173.1,100.9c-0.1,0.2,0,0.4,0.1,0.5c0.1,0.1,0.3,0.2,0.4,0.2
					c0,0,0.1,0,0.2,0c0.1,0,0.2-0.1,0.3-0.2v0c0.2,0.1,0.4,0.2,0.6,0.3v0c-0.1,0.2,0,0.4,0.2,0.4c0.1,0,0.3,0.1,0.4,0.1
					c0,0,0.1,0,0.1,0c0.1,0,0.3-0.1,0.3-0.2c0,0,0,0,0,0c0.2,0.1,0.4,0.1,0.6,0.1c0,0,0,0,0,0c0,0.2,0.1,0.3,0.3,0.4
					c0.1,0,0.3,0,0.5,0h0c0.2,0,0.3-0.1,0.3-0.3v0h0.1c0.2,0,0.4,0,0.6,0c0,0.2,0.2,0.3,0.3,0.3c0,0,0,0,0,0c0.1,0,0.3,0,0.4-0.1
					c0.2,0,0.3-0.2,0.3-0.4c0.2,0,0.4-0.1,0.6-0.2c0.1,0.1,0.2,0.2,0.3,0.2c0,0,0.1,0,0.1,0c0.1,0,0.3-0.1,0.4-0.2
					c0.2-0.1,0.3-0.3,0.2-0.4c0,0,0,0,0,0c0.2-0.1,0.4-0.2,0.6-0.3c0,0,0,0,0,0c0.1,0.1,0.2,0.2,0.3,0.2c0.1,0,0.1,0,0.2,0
					c0,0,0,0,0.1,0l0.5,0.7c-1.5,1-3.2,1.5-5.1,1.5c-1.9,0-3.7-0.6-5.2-1.6L173.1,100.9z M177.3,107.3c-2.8,0-5.4-0.9-7.5-2.4
					l1.2-1.4c0.1,0.1,0.2,0.1,0.3,0.2c0,0,0,0,0,0c-0.1,0.2-0.1,0.5,0.2,0.6c0.2,0.1,0.4,0.2,0.6,0.3c0.1,0,0.1,0.1,0.2,0.1
					c0.2,0,0.3-0.1,0.4-0.2c0,0,0,0,0,0c0.3,0.1,0.6,0.3,0.9,0.4c0,0,0,0,0,0c-0.1,0.2,0,0.5,0.3,0.6c0.2,0.1,0.4,0.1,0.6,0.2
					c0,0,0.1,0,0.1,0c0.2,0,0.4-0.1,0.4-0.3c0,0,0,0,0,0c0.3,0.1,0.6,0.1,0.9,0.2c0,0,0,0,0,0c0,0.3,0.2,0.5,0.4,0.5
					c0.2,0,0.4,0,0.6,0h0c0.2,0,0.4-0.2,0.5-0.4v0h0.1c0.3,0,0.5,0,0.8,0c0,0.2,0.2,0.4,0.5,0.4c0,0,0,0,0.1,0
					c0.2,0,0.4-0.1,0.6-0.1c0.2,0,0.4-0.3,0.4-0.5c0.3-0.1,0.6-0.1,0.9-0.2c0.1,0.2,0.2,0.3,0.4,0.3c0,0,0.1,0,0.1,0
					c0.2-0.1,0.4-0.1,0.6-0.2c0.2-0.1,0.4-0.4,0.3-0.6c0,0,0,0,0,0c0.3-0.1,0.6-0.3,0.8-0.4c0,0,0,0,0,0c0.1,0.1,0.2,0.2,0.4,0.2
					c0.1,0,0.2,0,0.2-0.1c0.2-0.1,0.3-0.2,0.4-0.3l0.7,0.9C182.7,106.4,180.1,107.3,177.3,107.3z M184.1,100.6l-0.5-0.6c0,0,0,0,0,0
					c0.1-0.1,0.1-0.3,0-0.5c0,0,0,0,0,0c0.1-0.2,0.3-0.3,0.4-0.5c0,0,0,0,0,0c0.1,0,0.1,0.1,0.2,0.1c0.1,0,0.2-0.1,0.3-0.1
					c0.1-0.1,0.2-0.3,0.2-0.4c0.1-0.2,0-0.4-0.1-0.4c0,0,0,0,0,0c0.1-0.2,0.2-0.4,0.3-0.6c0,0,0,0,0,0c0,0,0.1,0,0.1,0
					c0.1,0,0.3-0.1,0.3-0.2c0.1-0.1,0.1-0.3,0.1-0.4c0.1-0.2,0-0.3-0.2-0.4c0.1-0.2,0.1-0.4,0.2-0.6h0c0.2,0,0.3-0.1,0.3-0.3
					c0-0.2,0-0.3,0.1-0.5c0-0.2-0.1-0.3-0.3-0.4c0-0.2,0-0.4,0-0.5c0,0,0-0.1,0-0.1c0.2,0,0.3-0.2,0.3-0.3c0-0.1,0-0.3,0-0.4
					c0-0.2-0.2-0.3-0.3-0.3c0-0.1,0-0.2,0-0.3l1-0.3c0.1,0.6,0.2,1.3,0.2,1.9C186.6,96.7,185.7,98.9,184.1,100.6z M186.5,103.5
					l-0.7-0.8c0.1-0.1,0.3-0.3,0.4-0.4c0.2-0.2,0.2-0.5,0-0.7c0,0,0,0,0,0c0.2-0.2,0.4-0.5,0.6-0.7c0,0,0,0,0,0
					c0.1,0.1,0.2,0.1,0.3,0.1c0.2,0,0.3-0.1,0.4-0.2c0.1-0.2,0.2-0.4,0.3-0.5c0.1-0.2,0.1-0.5-0.2-0.6c0,0,0,0,0,0
					c0.2-0.3,0.3-0.5,0.4-0.8c0,0,0,0,0,0c0.1,0,0.1,0,0.2,0c0.2,0,0.4-0.1,0.4-0.3c0.1-0.2,0.1-0.4,0.2-0.6
					c0.1-0.2-0.1-0.5-0.3-0.6c0.1-0.3,0.2-0.6,0.2-0.9h0c0.2,0,0.4-0.2,0.5-0.4c0-0.2,0.1-0.4,0.1-0.6c0-0.2-0.1-0.5-0.4-0.5
					c0-0.3,0-0.5,0-0.8c0-0.1,0-0.1,0-0.2c0.2,0,0.4-0.2,0.4-0.5c0-0.2,0-0.4-0.1-0.6c0-0.2-0.2-0.4-0.5-0.4c0-0.2-0.1-0.5-0.1-0.7
					l1.2-0.4c0.2,1,0.4,2,0.4,3C190.3,97.9,188.8,101.2,186.5,103.5z"/>
			</g>
			<path class="st2" d="M183.2,108"/>
			<g>
				<g>
					<g>
						<path class="st3" d="M186.1,120.2c-1.2,0-2.3-0.7-2.7-1.8l-9.1-24.7c-0.5-1.5,0.3-3.1,1.9-3.7c0.4-0.1,0.7-0.2,1.1-0.2
							c1.2,0,2.3,0.7,2.7,1.8l9.1,24.7c0.3,0.7,0.2,1.5-0.2,2.2c-0.4,0.7-1,1.2-1.7,1.5C186.9,120.1,186.5,120.2,186.1,120.2z"/>
						<path class="st0" d="M177.3,90.6c0.8,0,1.6,0.5,1.9,1.2l9.1,24.7c0.4,1-0.2,2.2-1.4,2.6c-0.3,0.1-0.5,0.1-0.8,0.1
							c-0.8,0-1.6-0.5-1.9-1.2l-9.1-24.7c-0.4-1,0.2-2.2,1.4-2.6C176.8,90.7,177.1,90.6,177.3,90.6 M177.3,88.9L177.3,88.9
							c-0.5,0-1,0.1-1.4,0.3c-2,0.7-3.1,2.9-2.4,4.8l9.1,24.7c0.5,1.4,1.9,2.4,3.5,2.4c0.5,0,1-0.1,1.4-0.3c2-0.7,3.1-2.9,2.4-4.8
							l-9.1-24.7C180.3,89.8,178.9,88.9,177.3,88.9L177.3,88.9z"/>
					</g>
				</g>
				<g class="st1">
					<path d="M186.2,111l2.1,5.6c0.4,1-0.2,2.2-1.4,2.6c-1.1,0.4-2.3-0.1-2.7-1.1l-2-5.5L186.2,111z"/>
				</g>
			</g>
			<circle cx="177.4" cy="93.2" r="1.7"/>
		</g>
		<g>
			<g>
				<path class="st4" d="M175.7,122.8c-0.4,0-0.6-0.3-0.6-0.6v-6c0-0.4,0.3-0.6,0.6-0.6h22c0.4,0,0.6,0.3,0.6,0.6v6
					c0,0.4-0.3,0.6-0.6,0.6H175.7z"/>
				<g>
					<path class="st0" d="M197.7,116.1v6h-22v-6H197.7 M197.7,114.8h-22c-0.7,0-1.3,0.6-1.3,1.3v6c0,0.7,0.6,1.3,1.3,1.3h22
						c0.7,0,1.3-0.6,1.3-1.3v-6C199,115.4,198.4,114.8,197.7,114.8L197.7,114.8z"/>
				</g>
			</g>
			<g>
				<rect x="177" y="117.8" class="st5" width="3.9" height="2.6"/>
			</g>
			<g>
				<rect x="192.5" y="117.8" class="st6" width="3.9" height="2.6"/>
			</g>
		</g>
		<g>
			<path class="st3" d="M186.4,121.9c-1.1,0-2.1-0.7-2.4-1.7c-0.2-0.6-0.2-1.4,0.1-2c0.3-0.6,0.8-1.1,1.5-1.3
				c0.3-0.1,0.6-0.2,0.9-0.2c1.1,0,2.1,0.7,2.4,1.7c0.2,0.6,0.2,1.4-0.1,2c-0.3,0.6-0.8,1.1-1.5,1.3
				C187,121.8,186.7,121.9,186.4,121.9z"/>
			<path class="st0" d="M186.4,117.5c0.7,0,1.4,0.4,1.6,1.1c0.3,0.9-0.1,1.9-1,2.2c-0.2,0.1-0.4,0.1-0.6,0.1c-0.7,0-1.4-0.4-1.6-1.1
				c-0.3-0.9,0.1-1.9,1-2.2C186,117.6,186.2,117.5,186.4,117.5 M186.4,115.8c-0.4,0-0.8,0.1-1.2,0.2c-1.8,0.7-2.7,2.6-2.1,4.4
				c0.5,1.4,1.8,2.3,3.2,2.3c0.4,0,0.8-0.1,1.2-0.2c1.8-0.7,2.7-2.6,2.1-4.4C189.1,116.7,187.8,115.8,186.4,115.8L186.4,115.8z"/>
		</g>
	</g>
</g>
</svg>
