<?xml version="1.0" encoding="utf-8"?>
<!-- Generator: Adobe Illustrator 26.0.2, SVG Export Plug-In . SVG Version: 6.00 Build 0)  -->
<svg version="1.1" id="Layer_1" xmlns="http://www.w3.org/2000/svg" xmlns:xlink="http://www.w3.org/1999/xlink" x="0px" y="0px"
	 width="360px" height="200px" viewBox="0 0 360 200" style="enable-background:new 0 0 360 200;" xml:space="preserve">
<style type="text/css">
	.st0{fill:#C9C5C7;}
	.st1{fill:#142C4D;}
	.st2{opacity:0.11;}
	.st3{opacity:0.3;}
	.st4{fill:#EE0000;}
	.st5{fill:#AEDCDD;}
	.st6{fill:#27579A;}
	.st7{fill:#030B21;}
</style>
<g id="lowRider_00000052805082683343689640000016824558153425155760_">
	<g id="lowRiderPedals_00000116923437221694630120000006087276563068504463_">
		<g>
			<g>
				<path class="st0" d="M180,106.8c-8.7,0-15.8-7.1-15.8-15.8s7.1-15.8,15.8-15.8c8.7,0,15.8,7.1,15.8,15.8
					c0,7.2-4.8,13.4-11.8,15.2c-0.6,0.2-1.3,0.3-2,0.4C181.4,106.7,180.7,106.8,180,106.8z M180,100.1c0.6,0,1.2-0.1,1.8-0.2
					c0.6-0.1,1.2-0.3,1.8-0.5c0.6-0.3,1.3-0.6,1.8-1l-2.6-2.2c-0.2,0.1-0.4,0.2-0.6,0.3c-0.5,0.2-1,0.3-1.5,0.4l-0.8,3.3
					C179.9,100.1,179.9,100.1,180,100.1z M171.2,93.4c0.7,2.4,2.3,4.5,4.6,5.7l0.8-3.3c-0.9-0.6-1.6-1.5-2-2.5L171.2,93.4z
					 M188.1,95.1c0.7-1.3,1-2.7,1-4.1c0-1.1-0.2-2.2-0.6-3.2l-2.8,1.9c0.1,0.4,0.1,0.8,0.1,1.3c0,0.7-0.1,1.3-0.3,1.9L188.1,95.1z
					 M175.3,83.2c-2.2,1.3-3.7,3.5-4.2,6l3.4-0.1c0.4-1,1-1.9,1.8-2.6L175.3,83.2z M180.3,85.2c1.1,0.1,2.1,0.4,3,1.1l2.8-1.9
					c-1.7-1.6-3.9-2.4-6.2-2.4c-0.2,0-0.5,0-0.7,0L180.3,85.2z"/>
				<path class="st1" d="M180,75.9c8.3,0,15.1,6.8,15.1,15.1c0,7-4.8,12.9-11.3,14.6c-0.6,0.2-1.2,0.3-1.9,0.4
					c-0.6,0.1-1.3,0.1-2,0.1c-8.3,0-15.1-6.8-15.1-15.1S171.6,75.9,180,75.9 M179.8,85.9c0,0,0.1,0,0.2,0c1.3,0,2.4,0.5,3.3,1.2
					l3.9-2.6c-1.8-2-4.4-3.2-7.2-3.2c-0.5,0-1.1,0-1.6,0.1L179.8,85.9 M170.3,89.9l4.7-0.1c0.3-1.3,1.1-2.3,2.1-3l-1.4-4.5
					C172.7,83.7,170.6,86.5,170.3,89.9 M188.2,96.2c0.9-1.5,1.5-3.3,1.5-5.2c0-1.5-0.3-2.9-0.9-4.2l-3.9,2.6c0.2,0.5,0.2,1,0.2,1.6
					c0,0.8-0.2,1.5-0.5,2.1L188.2,96.2 M179.2,89.8c0.1-0.1,0.2-0.1,0.4-0.2c0,0,0.1,0,0.1,0c0.1,0,0.1,0,0.2,0c0,0,0,0,0,0l-0.3,0
					L179.2,89.8 M180.9,89.9C180.9,89.9,180.9,89.9,180.9,89.9C180.9,89.9,180.9,89.9,180.9,89.9C180.9,89.9,180.9,89.9,180.9,89.9
					C180.9,89.9,180.9,89.9,180.9,89.9C180.9,89.9,180.8,89.9,180.9,89.9C180.8,89.9,180.8,89.9,180.9,89.9
					C180.8,89.9,180.8,89.9,180.9,89.9C180.9,89.9,180.9,89.9,180.9,89.9 M181.3,91.4L181.3,91.4C181.3,91.4,181.3,91.4,181.3,91.4
					C181.3,91.4,181.3,91.4,181.3,91.4 M180.8,92.2L180.8,92.2c0.1,0,0.1-0.1,0.1-0.1C180.9,92.1,180.8,92.1,180.8,92.2 M180.6,92.3
					C180.6,92.3,180.6,92.3,180.6,92.3C180.6,92.3,180.6,92.3,180.6,92.3C180.6,92.3,180.6,92.3,180.6,92.3L180.6,92.3 M180.5,92.3
					C180.5,92.3,180.5,92.3,180.5,92.3C180.5,92.3,180.5,92.3,180.5,92.3C180.5,92.3,180.5,92.3,180.5,92.3 M176.2,100l1.1-4.6
					c-1.1-0.6-1.9-1.7-2.3-2.9l-4.7,0.1C170.9,96,173.2,98.8,176.2,100 M180,100.8c0.7,0,1.3-0.1,2-0.2c0.7-0.1,1.3-0.3,1.9-0.6
					c1-0.4,1.8-1,2.6-1.6l-2.6-2.2l-1-0.8c-0.3,0.2-0.6,0.4-0.9,0.5c-0.6,0.2-1.2,0.4-1.8,0.4l-1.1,4.6
					C179.3,100.8,179.6,100.8,180,100.8 M180,74.6c-9.1,0-16.4,7.4-16.4,16.4s7.4,16.4,16.4,16.4c0.7,0,1.4,0,2.1-0.1
					c0.7-0.1,1.4-0.2,2-0.4c7.2-1.9,12.3-8.4,12.3-15.9C196.4,81.9,189,74.6,180,74.6L180,74.6z M180.8,84.6l-0.6-2
					c1.8,0,3.5,0.7,4.8,1.7l-1.7,1.1C182.6,85,181.7,84.7,180.8,84.6L180.8,84.6z M171.9,88.5c0.5-1.7,1.6-3.1,3-4.2l0.6,2
					c-0.7,0.6-1.2,1.3-1.5,2.2L171.9,88.5L171.9,88.5z M186.4,90.1l1.7-1.1c0.2,0.7,0.3,1.4,0.3,2.1c0,1-0.2,2.1-0.6,3l-1.6-1.3
					c0.1-0.5,0.2-1.1,0.2-1.7C186.5,90.7,186.4,90.4,186.4,90.1L186.4,90.1z M172.1,94l2.1-0.1c0.4,0.8,1,1.5,1.7,2.1l-0.5,2
					C173.9,97.1,172.7,95.6,172.1,94L172.1,94z M181.2,97.4c0.4-0.1,0.8-0.2,1.2-0.4c0.1,0,0.1-0.1,0.2-0.1l0.3,0.2l1.3,1.1
					c-0.3,0.2-0.6,0.3-1,0.5c-0.5,0.2-1.1,0.4-1.6,0.5c-0.3,0.1-0.6,0.1-0.9,0.1L181.2,97.4L181.2,97.4z"/>
			</g>
		</g>
		<g class="st2">
			<path class="st1" d="M195.1,91c0,7-4.8,12.9-11.3,14.6c-0.6,0.2-1.2,0.3-1.9,0.4c-0.6,0.1-1.3,0.1-2,0.1
				c-6.6,0-12.3-4.3-14.3-10.2c2.8,3.6,7.1,6,12,6c0.7,0,1.3,0,2-0.1c0.6-0.1,1.3-0.2,1.9-0.4c6.5-1.7,11.3-7.6,11.3-14.6
				c0-1.7-0.3-3.3-0.8-4.8C193.9,84.5,195.1,87.6,195.1,91z"/>
		</g>
		<g>
			<g class="st3">
				<path class="st1" d="M183.8,90.1v6l-1-0.8c-0.3,0.2-0.6,0.4-0.9,0.5v-5.7c0-0.5-0.2-1-0.6-1.3c0.3-0.2,0.6-0.3,0.9-0.3
					C183.1,88.5,183.8,89.2,183.8,90.1z"/>
			</g>
			<g class="st3">
				<path class="st1" d="M183.8,100v5.6c-0.6,0.2-1.2,0.3-1.9,0.4v-5.4C182.6,100.4,183.2,100.2,183.8,100z"/>
			</g>
			<g>
				<path class="st4" d="M179.9,121.2c-1.2,0-2.3-1-2.3-2.3V90.1c0-0.6,0.2-1.2,0.7-1.6c0.4-0.4,1-0.7,1.6-0.7c1.2,0,2.3,1,2.3,2.3
					v28.8C182.1,120.2,181.1,121.2,179.9,121.2z"/>
				<path class="st1" d="M179.9,88.5c0.9,0,1.6,0.7,1.6,1.6v28.8c0,0.9-0.7,1.6-1.6,1.6c-0.9,0-1.6-0.7-1.6-1.6V90.1
					c0-0.4,0.2-0.8,0.5-1.1C179.1,88.7,179.5,88.5,179.9,88.5 M179.9,87.2c-0.8,0-1.5,0.3-2.1,0.9c-0.5,0.5-0.9,1.3-0.9,2.1v28.8
					c0,1.6,1.3,2.9,2.9,2.9s2.9-1.3,2.9-2.9V90.1C182.8,88.5,181.5,87.2,179.9,87.2L179.9,87.2z"/>
			</g>
			<g class="st3">
				<rect x="178.4" y="116.5" class="st1" width="3.2" height="2.3"/>
			</g>
			<polygon class="st5" points="178.3,95.5 178.3,97.8 181.5,95.5 181.5,93.2 			"/>
			<polygon class="st5" points="178.3,100 178.3,102.3 181.5,100 181.5,97.7 			"/>
			<polygon class="st5" points="178.3,104.5 178.3,106.8 181.5,104.5 181.5,102.2 			"/>
			<polygon class="st5" points="178.3,109 178.3,111.3 181.5,109 181.5,106.7 			"/>
			<polygon class="st5" points="178.3,113.5 178.3,115.8 181.5,113.5 181.5,111.2 			"/>
			<g>
				<path class="st6" d="M185.9,125.5c-0.4,0-0.7-0.2-0.8-0.6c-0.5-0.2-2.3-0.6-5.1-0.6c-2.8,0-4.6,0.3-5.1,0.6
					c-0.1,0.3-0.5,0.6-0.8,0.6c-0.5,0-6-0.8-6-3.1v-1c0-1.7,1.4-3.1,3.1-3.1c0.2,0,0.5,0.1,0.6,0.3c0.1,0.1,0.2,0.2,0.2,0.3
					c0.7,0.3,3.4,0.8,8,0.8s7.3-0.4,8-0.8c0-0.1,0.1-0.2,0.2-0.3c0.2-0.2,0.4-0.3,0.6-0.3c1.7,0,3.1,1.4,3.1,3.1v1
					C191.9,124.6,186.4,125.5,185.9,125.5z"/>
				<path class="st1" d="M188.8,119.2c1.2,0,2.2,1,2.2,2.2v1c0,1.2-4.3,2.2-5.1,2.2c0-0.8-3-1.1-5.9-1.1s-5.9,0.4-5.9,1.1
					c-0.8,0-5.1-1-5.1-2.2v-1c0-1.2,1-2.2,2.2-2.2c0,0.9,4.4,1.4,8.8,1.4S188.8,120.1,188.8,119.2 M188.8,117.4
					c-0.6,0-1.1,0.3-1.4,0.7c-0.9,0.3-3.5,0.6-7.4,0.6c-3.9,0-6.5-0.3-7.4-0.6c-0.1-0.1-0.1-0.1-0.2-0.2c-0.3-0.3-0.8-0.5-1.3-0.5
					c-2.2,0-4,1.8-4,4v1c0,3.4,6.8,4,6.9,4c0.6,0,1.1-0.3,1.4-0.7c0.6-0.2,2.1-0.4,4.5-0.4s3.9,0.2,4.5,0.4c0.3,0.4,0.9,0.7,1.4,0.7
					c0.1,0,6.9-0.6,6.9-4v-1C192.8,119.2,191,117.4,188.8,117.4L188.8,117.4z"/>
			</g>
			<circle class="st7" cx="179.9" cy="90.8" r="0.9"/>
		</g>
		<circle class="st5" cx="179.7" cy="121.9" r="0.9"/>
		<circle class="st4" cx="171.6" cy="121.9" r="1.4"/>
		<circle class="st4" cx="188.5" cy="121.9" r="1.6"/>
	</g>
</g>
</svg>
