<?xml version="1.0" encoding="utf-8"?>
<!-- Generator: Adobe Illustrator 26.0.2, SVG Export Plug-In . SVG Version: 6.00 Build 0)  -->
<svg version="1.1" id="Layer_1" xmlns="http://www.w3.org/2000/svg" xmlns:xlink="http://www.w3.org/1999/xlink" x="0px" y="0px"
	 width="360px" height="200px" viewBox="0 0 360 200" style="enable-background:new 0 0 360 200;" xml:space="preserve">
<style type="text/css">
	.st0{fill:#051423;stroke:#051423;stroke-width:1.2721;stroke-miterlimit:10;}
	.st1{fill:#79C4C6;}
	.st2{fill:#051423;}
	.st3{opacity:0.3;}
	.st4{fill:#142C4D;}
	.st5{fill:#FAAA4F;stroke:#142C4D;stroke-width:1.6961;stroke-miterlimit:10;}
	.st6{opacity:0.5;}
	.st7{fill:#EE0000;}
	.st8{opacity:0.4;}
	.st9{fill:#04162B;}
	.st10{fill:#EADFDF;}
</style>
<g id="triBike_00000032631134863766610170000004925492562954949292_">
	<g id="triPedals_00000165929948008818142490000004477595895536311958_">
		<path class="st0" d="M191.8,91.5c-0.1,5.9-3.3,9.7-7.5,11.4c-0.5,0.2-1,0.3-1.4,0.5c-7.1,1.9-16-2-16.1-11.8
			C167.1,75,191.6,75.2,191.8,91.5z"/>
		<g>
			<g>
				<path class="st1" d="M179.3,101.7c-5.6,0-10.2-4.6-10.2-10.2s4.6-10.2,10.2-10.2c5.6,0,10.2,4.6,10.2,10.2
					S184.9,101.7,179.3,101.7z M179.3,82.2c-5.1,0-9.3,4.2-9.3,9.3c0,5.1,4.2,9.3,9.3,9.3c5.1,0,9.3-4.2,9.3-9.3
					C188.7,86.4,184.5,82.2,179.3,82.2z"/>
			</g>
			<g>
				<path class="st1" d="M179.3,103.6c-6.7,0-12.1-5.4-12.1-12.1s5.4-12.1,12.1-12.1s12.1,5.4,12.1,12.1S186,103.6,179.3,103.6z
					 M179.3,80.3c-6.2,0-11.2,5-11.2,11.2s5,11.2,11.2,11.2s11.2-5,11.2-11.2S185.5,80.3,179.3,80.3z"/>
			</g>
			<g>
				<path class="st1" d="M179.3,99.9c-4.6,0-8.3-3.7-8.3-8.3s3.7-8.3,8.3-8.3s8.3,3.7,8.3,8.3S183.9,99.9,179.3,99.9z M179.3,84
					c-4.1,0-7.5,3.4-7.5,7.5s3.4,7.5,7.5,7.5s7.5-3.4,7.5-7.5S183.5,84,179.3,84z"/>
			</g>
			<g>
				<path class="st1" d="M179.3,98.2c-3.7,0-6.6-3-6.6-6.6s3-6.6,6.6-6.6c3.7,0,6.6,3,6.6,6.6S183,98.2,179.3,98.2z M179.3,85.7
					c-3.2,0-5.8,2.6-5.8,5.8s2.6,5.8,5.8,5.8c3.2,0,5.8-2.6,5.8-5.8S182.5,85.7,179.3,85.7z"/>
			</g>
			<path class="st2" d="M180.8,86.7h-2.5c0.7,0,0.7-7.6,0-7.6h2.5C180.1,79,180.1,86.7,180.8,86.7z"/>
			<path class="st2" d="M184.4,91.6l-0.5-2.5c0.1,0.7,7.6-0.9,7.5-1.6l0.5,2.5C191.7,89.4,184.2,90.9,184.4,91.6z"/>
			<path class="st2" d="M181.2,96.3l2.1-1.5c-0.6,0.4,3.8,6.6,4.4,6.2l-2.1,1.5C186.2,102.1,181.8,95.9,181.2,96.3z"/>
			<path class="st2" d="M176,95.1l2.2,1.3c-0.6-0.4-4.6,6.2-4,6.5l-2.2-1.3C172.7,102,176.6,95.4,176,95.1z"/>
			<path class="st2" d="M175.1,89.4l-0.3,2.5c0.1-0.7-7.5-1.7-7.6-1l0.3-2.5C167.4,89.1,175,90.1,175.1,89.4z"/>
		</g>
		<g class="st3">
			<path class="st4" d="M191.4,91.5c0,6.7-5.4,12.1-12.1,12.1c-6.4,0-11.7-5-12.1-11.4l22.5-6.9C190.8,87.2,191.4,89.3,191.4,91.5z"
				/>
		</g>
		<g>
			<path class="st5" d="M185.2,108"/>
			<g>
				<g class="st6">
					<g>
						<path d="M183.8,89.8v13c-0.4,0.2-0.8,0.3-1.3,0.4V89.8c0-0.9-0.6-1.6-1.5-1.8c0.2-0.1,0.4-0.1,0.6-0.1
							C182.8,87.9,183.8,88.8,183.8,89.8z"/>
					</g>
				</g>
				<g>
					<g>
						<path class="st7" d="M179.5,121.2c-1.5,0-2.8-1.1-2.8-2.6V90.3c0-1.4,1.2-2.6,2.8-2.6c1.5,0,2.8,1.1,2.8,2.6v28.4
							C182.3,120.1,181.1,121.2,179.5,121.2z"/>
						<path class="st4" d="M179.5,88.3c1.2,0,2.1,0.9,2.1,1.9v28.4c0,1.1-0.9,1.9-2.1,1.9c-1.2,0-2.1-0.9-2.1-1.9V90.3
							C177.4,89.2,178.4,88.3,179.5,88.3 M179.5,87.1c-1.9,0-3.4,1.4-3.4,3.2v28.4c0,1.8,1.5,3.2,3.4,3.2s3.4-1.4,3.4-3.2V90.3
							C182.9,88.5,181.4,87.1,179.5,87.1L179.5,87.1z"/>
					</g>
				</g>
				<g class="st3">
					<path class="st4" d="M181.7,112.8v5.8c0,1.1-0.9,1.9-2.1,1.9c-1.2,0-2.1-0.9-2.1-1.9v-5.7L181.7,112.8z"/>
				</g>
			</g>
			<circle cx="179.5" cy="91.3" r="1.3"/>
			<g>
				<path class="st4" d="M189.4,125.3c-0.2,0-0.4,0-0.6-0.1l-17-5.4c-1-0.2-1.7-0.6-2.2-1c-0.7-0.6-1-1.4-0.8-2.2
					c0.2-1,1.1-1.7,2.2-1.7c0.2,0,0.3,0,0.5,0.1l19.5,4.6c0.5,0.1,0.9,0.4,1.2,0.9c0.3,0.4,0.3,0.9,0.2,1.4l-0.3,1.3
					C191.8,124.4,190.7,125.3,189.4,125.3z"/>
				<g>
					<path class="st4" d="M170.9,115.5c0.1,0,0.2,0,0.4,0l19.5,4.6c0.7,0.2,1.1,0.8,0.9,1.5l-0.3,1.3c-0.2,1-1.1,1.6-2,1.6
						c-0.2,0-0.3,0-0.5-0.1l-16.9-5.3c-1.7-0.4-2.9-1.1-2.6-2.5C169.6,116,170.2,115.5,170.9,115.5 M170.9,114.3L170.9,114.3
						c-1.3,0-2.5,0.9-2.8,2.2c-0.2,0.9-0.3,3.1,3.5,4l16.9,5.3l0,0l0,0c0.3,0.1,0.5,0.1,0.8,0.1c1.6,0,2.9-1.1,3.3-2.6l0.3-1.3
						c0.2-0.7,0-1.3-0.3-1.9c-0.4-0.6-0.9-1-1.6-1.1l-19.5-4.6C171.4,114.3,171.2,114.3,170.9,114.3L170.9,114.3z"/>
				</g>
			</g>
			<g class="st8">
				<path d="M191.4,123c-0.3,1.1-1.4,1.8-2.5,1.6l-16.9-5.3c-1.5-0.4-2.7-1-2.6-2.1L191.4,123z"/>
			</g>
			<g>
				<path class="st7" d="M179.5,121c-0.9,0-1.7-0.8-1.7-1.7c0-0.9,0.8-1.7,1.7-1.7s1.7,0.8,1.7,1.7C181.2,120.2,180.5,121,179.5,121
					z"/>
				<path class="st9" d="M179.5,118c0.7,0,1.3,0.6,1.3,1.3s-0.6,1.3-1.3,1.3c-0.7,0-1.3-0.6-1.3-1.3S178.8,118,179.5,118
					 M179.5,117.2c-1.2,0-2.1,1-2.1,2.1s1,2.1,2.1,2.1s2.1-1,2.1-2.1S180.7,117.2,179.5,117.2L179.5,117.2z"/>
			</g>
			<path class="st10" d="M175.8,117.3c-0.7,0-1.4-0.1-2.1-0.3l-4-0.9c0.1-0.1,0.2-0.2,0.3-0.3c0.3-0.2,0.8-0.3,1.2-0.2l6.1,1.2
				L175.8,117.3z"/>
			<g>
				<path class="st7" d="M191.5,121.8c-0.3,0-0.5-0.1-0.7-0.2c-0.8-0.7-1.3-1.7-1.2-2.8c0-0.3,0.1-0.7,0.2-1.1
					c0.3-2.2,0.7-4.4-2.9-6.5c-0.5-0.3-0.7-0.8-0.5-1.3c0.1-0.6,0.6-0.9,1.2-0.9c0.1,0,0.2,0,0.4,0.1c3.7,1.1,5.5,3.3,5.2,6.2
					l-0.5,5.5C192.6,121.3,192.1,121.8,191.5,121.8L191.5,121.8z"/>
				<g>
					<path class="st4" d="M187.5,109.6c0.1,0,0.1,0,0.2,0c2.4,0.8,5,2.3,4.8,5.5l-0.5,5.5c0,0.3-0.2,0.4-0.5,0.4
						c-0.1,0-0.2,0-0.3-0.1c-0.7-0.5-1-1.3-0.9-2.2c0.3-2.4,1.6-5.5-3.1-8.2C186.7,110.4,187,109.6,187.5,109.6 M187.5,108.3
						c-0.8,0-1.6,0.6-1.8,1.4c-0.2,0.8,0.1,1.6,0.8,2c3.3,1.9,3,3.7,2.6,5.8c-0.1,0.4-0.1,0.7-0.2,1.1c-0.1,1.3,0.4,2.5,1.4,3.3
						c0.3,0.2,0.7,0.4,1.1,0.4c0.9,0,1.7-0.7,1.8-1.6l0.5-5.5c0.3-3.2-1.7-5.6-5.7-6.8C187.9,108.4,187.7,108.3,187.5,108.3
						L187.5,108.3z"/>
				</g>
			</g>
			<g class="st3">
				<path class="st4" d="M192.5,115.2l-0.5,5.5c-0.1,0.5-0.6,0.6-0.9,0.2l0,0c-0.4-0.3-0.6-0.8-0.8-1.3c0.9,0.1,1-1.3,1-1.3
					c0.1-1.4,0.7-5,0.3-6.2C192.3,113,192.6,114.1,192.5,115.2z"/>
			</g>
			<path class="st10" d="M189.6,110.4c-1.1,0-2,0-2.6,0c-0.2-0.4,0.2-1,0.7-0.8C188.3,109.8,189,110.1,189.6,110.4z"/>
		</g>
	</g>
</g>
</svg>
