<?xml version="1.0" encoding="utf-8"?>
<!-- Generator: Adobe Illustrator 26.0.2, SVG Export Plug-In . SVG Version: 6.00 Build 0)  -->
<svg version="1.1" id="Layer_1" xmlns="http://www.w3.org/2000/svg" xmlns:xlink="http://www.w3.org/1999/xlink" x="0px" y="0px"
	 width="360px" height="200px" viewBox="0 0 360 200" style="enable-background:new 0 0 360 200;" xml:space="preserve">
<style type="text/css">
	.st0{fill:#4F4646;}
	.st1{fill:#142C4D;}
	.st2{fill:#9E9298;}
	.st3{fill:#231E1E;stroke:#142C4D;stroke-width:1.2963;stroke-miterlimit:10;}
	.st4{fill:none;stroke:#FF0066;stroke-width:0.8642;stroke-miterlimit:10;}
	.st5{fill:#FFFFFF;}
	.st6{opacity:0.28;}
	.st7{fill:#EE0000;}
</style>
<g id="eBikeFrame_00000065057586240151479720000016445949659876729772_">
	<g>
		<g>
			<path class="st0" d="M169.7,130.3c-2.8-2.8-3.2-7.2-0.8-10.5l26.5-36.2c1.1-1.5,2.7-2.6,4.4-3l7.1-1.9c0.4-0.1,0.8-0.2,1.2-0.2
				c0.3,0,0.6-0.1,0.9-0.1c1.7,0,3.3,0.5,4.6,1.5l5.1,3.6l-40.1,55.6L169.7,130.3z"/>
			<path class="st1" d="M208.9,79.1c1.5,0,3,0.5,4.3,1.4l4.5,3.2l-39.3,54.4l-8.3-8.2c-2.6-2.6-2.9-6.7-0.8-9.6l25.5-34.9l1-1.3
				c1-1.4,2.4-2.3,4.1-2.8l7.1-1.9c0.4-0.1,0.7-0.2,1.1-0.2C208.4,79.1,208.6,79.1,208.9,79.1 M208.9,77.8c-0.3,0-0.7,0-1,0.1
				c-0.4,0-0.8,0.1-1.3,0.2l-7.1,1.9c-1.9,0.5-3.6,1.7-4.8,3.3l-1,1.3l-25.5,34.9c-2.6,3.5-2.2,8.2,0.9,11.3l8.3,8.2l1.1,1.1
				l0.9-1.2l39.3-54.4l0.8-1.1l-1.1-0.8l-4.5-3.2C212.5,78.3,210.7,77.8,208.9,77.8L208.9,77.8z"/>
		</g>
		<polygon class="st2" points="194.5,89.6 193.4,91.1 191.7,89.7 193,88 		"/>
		<polygon class="st2" points="192.3,93.5 191.9,93.9 191.6,93.6 189.8,92.3 190.3,91.6 191.9,93.1 		"/>
		<path class="st2" d="M210.4,85.3l-12.5,4.8l-2.9-4.9l1-1.3c1-1.4,2.4-2.3,4.1-2.8l7.1-1.9c0.4-0.1,0.7-0.2,1.1-0.2L210.4,85.3z"/>
		<path class="st3" d="M179.2,140.7l-8.3-8.2c-2.6-2.6-2.9-6.7-0.8-9.6l26.5-36.2c1-1.4,2.4-2.3,4.1-2.8l7.1-1.9
			c2.1-0.6,4.4-0.2,6.2,1.1l4.5,3.2L179.2,140.7z"/>
		<path class="st4" d="M196.1,81"/>
		<path class="st4" d="M197.8,84.5"/>
		<g>
			<path class="st0" d="M169.7,130.3c-2.8-2.8-3.2-7.2-0.8-10.5l26.5-36.2c1.1-1.5,2.7-2.6,4.4-3l7.1-1.9c0.4-0.1,0.8-0.2,1.2-0.2
				c0.3,0,0.6-0.1,0.9-0.1c1.7,0,3.3,0.5,4.6,1.5l5.1,3.6l-40.1,55.6L169.7,130.3z"/>
			<path class="st1" d="M208.9,79.1c1.5,0,3,0.5,4.3,1.4l4.5,3.2l-39.3,54.4l-8.3-8.2c-2.6-2.6-2.9-6.7-0.8-9.6l25.5-34.9l1-1.3
				c1-1.4,2.4-2.3,4.1-2.8l7.1-1.9c0.4-0.1,0.7-0.2,1.1-0.2C208.4,79.1,208.6,79.1,208.9,79.1 M208.9,77.8c-0.3,0-0.7,0-1,0.1
				c-0.4,0-0.8,0.1-1.3,0.2l-7.1,1.9c-1.9,0.5-3.6,1.7-4.8,3.3l-1,1.3l-25.5,34.9c-2.6,3.5-2.2,8.2,0.9,11.3l8.3,8.2l1.1,1.1
				l0.9-1.2l39.3-54.4l0.8-1.1l-1.1-0.8l-4.5-3.2C212.5,78.3,210.7,77.8,208.9,77.8L208.9,77.8z"/>
		</g>
		<polygon class="st2" points="194.5,89.6 193.4,91.1 191.7,89.7 193,88 		"/>
		<polygon class="st2" points="192.3,93.5 191.9,93.9 191.6,93.6 189.8,92.3 190.3,91.6 191.9,93.1 		"/>
		<path class="st2" d="M210.4,85.3l-12.5,4.8l-2.9-4.9l1-1.3c1-1.4,2.4-2.3,4.1-2.8l7.1-1.9c0.4-0.1,0.7-0.2,1.1-0.2L210.4,85.3z"/>
		<path class="st3" d="M179.2,140.7l-8.3-8.2c-2.6-2.6-2.9-6.7-0.8-9.6l26.5-36.2c1-1.4,2.4-2.3,4.1-2.8l7.1-1.9
			c2.1-0.6,4.4-0.2,6.2,1.1l4.5,3.2L179.2,140.7z"/>
		<path class="st4" d="M196.1,81"/>
		<path class="st4" d="M197.8,84.5"/>
		<g>
			<path class="st5" d="M179.5,131l-7.5-5.2l2.9-4.1l0.8,0.6l-1.7,2.5l2.5,1.7l1.2-1.7l0.8,0.6l-1.2,1.7l2.5,1.7l1.7-2.5l0.8,0.6
				L179.5,131z"/>
			<path class="st5" d="M179.6,123.7l-0.8-0.6l2.9-4.1l0.8,0.6L179.6,123.7z"/>
			<path class="st5" d="M186.7,120.6l-7.5-5.2l2.3-3.3c0.3-0.5,0.7-0.7,1.3-0.8c0.6-0.1,1.1,0,1.5,0.3l0.5,0.3
				c0.4,0.3,0.6,0.6,0.8,1.1c0.2,0.5,0,1-0.4,1.6l0.6-0.8c0.2-0.2,0.4-0.4,0.7-0.4c0.3,0,0.5,0,0.8,0.2l2.9,2l-1.2,1.7l-2.5-1.7
				c-0.2-0.2-0.5-0.2-0.8-0.2c-0.3,0.1-0.5,0.2-0.7,0.4l-0.6,0.8l3.3,2.3L186.7,120.6z M183.7,116l0.6-0.8c0.2-0.2,0.2-0.5,0.2-0.8
				c-0.1-0.3-0.2-0.5-0.4-0.7l-0.8-0.6c-0.2-0.2-0.5-0.2-0.8-0.2c-0.3,0.1-0.5,0.2-0.6,0.4l-0.6,0.8L183.7,116z"/>
			<path class="st5" d="M191.6,113.5l-5.8-4l-0.6,0.8l-0.8-0.6l0.3-2.2l0.6-0.8l7.5,5.2L191.6,113.5z"/>
			<path class="st5" d="M194.1,109.9l-7.5-5.2l2.3-3.3c0.3-0.5,0.7-0.7,1.3-0.8c0.6-0.1,1.1,0,1.5,0.3l4.1,2.9
				c0.4,0.3,0.7,0.7,0.8,1.3c0.1,0.6,0,1.1-0.3,1.5L194.1,109.9z M194.4,107.7l0.6-0.8c0.2-0.2,0.2-0.5,0.2-0.8
				c-0.1-0.3-0.2-0.5-0.4-0.6l-4.1-2.9c-0.2-0.2-0.5-0.2-0.8-0.2c-0.3,0.1-0.5,0.2-0.6,0.4l-0.6,0.8L194.4,107.7z"/>
			<path class="st5" d="M198.7,103.3l-7.5-5.2l2.3-3.3c0.3-0.5,0.7-0.7,1.3-0.8c0.6-0.1,1.1,0,1.5,0.3l0.5,0.3
				c0.4,0.3,0.6,0.6,0.8,1.1c0.2,0.5,0,1-0.4,1.6l0.6-0.8c0.2-0.2,0.4-0.4,0.7-0.4c0.3,0,0.5,0,0.8,0.2l2.9,2L201,100l-2.5-1.7
				c-0.2-0.2-0.5-0.2-0.8-0.2c-0.3,0.1-0.5,0.2-0.7,0.4l-0.6,0.8l3.3,2.3L198.7,103.3z M195.7,98.8l0.6-0.8c0.2-0.2,0.2-0.5,0.2-0.8
				c-0.1-0.3-0.2-0.5-0.4-0.7l-0.8-0.6c-0.2-0.2-0.5-0.2-0.8-0.2c-0.3,0.1-0.5,0.2-0.6,0.4l-0.6,0.8L195.7,98.8z"/>
		</g>
		<path class="st5" d="M166.6,131"/>
		<g class="st6">
			<polygon class="st0" points="182.3,126.9 179.5,131 172,125.8 173,124.4 175.3,122 175.7,122.2 174,124.7 176.5,126.5 
				177.6,124.8 178.4,125.4 177.3,127 179.8,128.8 181.5,126.3 			"/>
		</g>
		<g class="st6">
			<polygon class="st0" points="182.5,119.5 179.6,123.7 178.8,123.1 181.7,119 			"/>
		</g>
		<g class="st6">
			<path class="st0" d="M202.2,98.3L201,100l-2.5-1.7c0,0-0.1,0-0.1-0.1l1.4-1.5L202.2,98.3z"/>
		</g>
		<g class="st6">
			<polygon class="st0" points="199.9,101.6 198.7,103.3 195.6,101.1 197,99.7 			"/>
		</g>
		<g class="st6">
			<path class="st0" d="M196.4,106.6l-2.3,3.3l-4.2-2.9l1.4-1.5l3.1,2.2l0.6-0.8c0.2-0.2,0.2-0.5,0.2-0.8c-0.1-0.3-0.2-0.5-0.4-0.6
				l-2-1.4l1.4-1.5l1.7,1.2c0.4,0.3,0.7,0.7,0.8,1.3C196.8,105.6,196.7,106.1,196.4,106.6z"/>
		</g>
		<g class="st6">
			<polygon class="st0" points="192.8,111.8 191.6,113.5 186.8,110.1 188.2,108.7 			"/>
		</g>
		<g class="st6">
			<path class="st0" d="M185.1,115.8l-0.6,0.8l3.3,2.3l-1.1,1.7l-6-4.2l1.4-1.5l1.6,1.1l0.6-0.8c0.2-0.2,0.2-0.5,0.2-0.8
				c-0.1-0.3-0.2-0.5-0.4-0.7l-0.4-0.3l1.4-1.5c0.3,0.2,0.5,0.6,0.6,1c0.2,0.5,0,1-0.4,1.6l0.6-0.8c0.2-0.2,0.4-0.4,0.7-0.4
				c0.3,0,0.5,0,0.8,0.2l2.9,2l-1.1,1.7l-2.5-1.7c-0.2-0.2-0.5-0.2-0.8-0.2C185.5,115.4,185.3,115.6,185.1,115.8z"/>
		</g>
	</g>
	<g>
		<path class="st7" d="M168,165.9c-0.2,0-0.4,0-0.6,0l-94.2-14.3c-1.4-0.2-2.6-1.1-3.1-2.4c-0.3-0.7-0.4-1.4-0.3-2.2
			c0.1-0.6,0.3-1.2,0.6-1.8c0.6-0.8,13.8-20.9,31.5-35.1c15.8-12.6,33.3-23.3,38-26.1l-8.7-28.2c-0.2-0.5,0-1.1,0.3-1.6
			c0.9-1.3,3.5-2.1,5.2-2.1s2.2,0.8,2.3,1.3l9.5,30.8c1.8,0.3,3.8,0.5,5.8,0.5c4.2,0,8.4-0.7,12.4-2c5-1.7,15-9.6,25.5-17.9
			c17.6-14,37.6-29.8,50.5-29.8c1.7,0,3.2,1.1,3.8,2.6c4,10.6,34.4,84.2,43.7,106.5c0.4,1,0.4,2.1,0,3.1s-1.2,1.8-2.2,2.2
			c-0.5,0.2-1,0.3-1.6,0.3c-1.7,0-3.2-1-3.8-2.5c-10-24.1-28-67.7-37.7-91.6l-73.6,108.3c-0.1,0.1-0.1,0.2-0.2,0.2
			c0,0.1-0.1,0.1-0.2,0.2l0,0l0,0l-0.2,0.2v0.1h-0.1c-0.1,0.1-0.2,0.2-0.2,0.2l-0.2,0.1c-0.1,0.1-0.2,0.1-0.3,0.2
			c-0.1,0.1-0.2,0.1-0.4,0.2c-0.1,0.1-0.3,0.1-0.4,0.2l-0.2,0.1c-0.1,0-0.2,0-0.2,0.1C168.6,165.9,168.3,165.9,168,165.9z
			 M162.2,156.8l-19.8-64.6c-5.7,3.5-21.3,13.3-35.3,24.4c-11.2,9-20.8,20.9-26,27.9L162.2,156.8z M169.4,152.4l71.9-105.8
			c-0.5-1.1-0.9-2.2-1.2-3.1c-10.6,2.3-28.4,16.3-42.7,27.7c-11.7,9.2-21.7,17.2-28.1,19.3c-4.9,1.6-9.9,2.4-14.8,2.4
			c-1.1,0-2.2,0-3.3-0.1L169.4,152.4z"/>
		<path class="st1" d="M242.8,35.9c1.3,0,2.6,0.8,3,2.1c4.2,11.1,37.1,90.7,43.7,106.6c0.7,1.7-0.1,3.6-1.8,4.2
			c-0.4,0.2-0.8,0.2-1.2,0.2c-1.3,0-2.5-0.8-3-2c-7.3-17.7-28-67.7-38.3-93l0,0l-73.5,108.2l-0.9,1.4v0.1c0,0.1-0.1,0.1-0.1,0.2
			c0,0.1-0.1,0.1-0.1,0.2c-0.1,0.1-0.1,0.2-0.2,0.2l0,0c-0.1,0.1-0.1,0.1-0.2,0.2l0,0c0,0-0.1,0-0.1,0.1c-0.1,0.1-0.2,0.1-0.2,0.2
			c-0.1,0.1-0.2,0.1-0.3,0.2c-0.1,0.1-0.2,0.1-0.3,0.1c-0.1,0-0.1,0-0.2,0.1c-0.1,0-0.1,0-0.2,0c-0.2,0.1-0.5,0.1-0.7,0.1
			s-0.3,0-0.5,0l-2.8-0.4l-91.4-13.8c-1.1-0.2-2-0.9-2.5-1.9c-0.2-0.5-0.3-1.1-0.3-1.7c0.1-0.5,0.2-1,0.5-1.4
			c0.6-0.8,13.9-20.9,31.4-34.9c16.8-13.4,35.5-24.7,38.5-26.4l-8.9-28.9c-0.4-1.2,2.8-2.6,4.7-2.6c0.8,0,1.3,0.2,1.5,0.7l9.6,31.3
			c1.8,0.3,4,0.6,6.5,0.6c3.7,0,8.1-0.5,12.7-2.1c5.1-1.7,15.2-9.7,25.8-18.1C210.3,51.6,230.2,35.9,242.8,35.9 M154.5,92.1
			c-1.6,0-3.1-0.1-4.5-0.2l19.2,62.5l73.1-107.7c-0.7-1.6-1.2-3-1.7-4.2c-10.8,1.8-29,16.3-43.8,28c-11.6,9.2-21.5,17.1-27.8,19.1
			C163.6,91.5,158.6,92.1,154.5,92.1 M163.4,157.9l-20.5-67c-5.2,3.1-21.6,13.3-36.4,25.1c-12,9.6-22.2,22.6-27,29.2L163.4,157.9
			 M242.8,34.1c-13.2,0-33.3,15.9-51.1,30c-10,7.9-20.4,16.2-25.3,17.8c-3.9,1.3-8,2-12.1,2c-1.7,0-3.5-0.1-5.1-0.4l-9.3-30.3
			c-0.2-0.6-0.8-1.9-3.1-1.9c-2,0-4.8,1-5.9,2.5c-0.5,0.7-0.7,1.5-0.5,2.3l8.5,27.6c-5.4,3.2-22.2,13.6-37.5,25.8
			c-17.8,14.2-31.2,34.4-31.7,35.3c-0.4,0.6-0.7,1.4-0.8,2.2c-0.1,0.9,0,1.8,0.4,2.6c0.7,1.6,2.1,2.6,3.8,2.9l91.4,13.8l2.8,0.4
			c0.3,0,0.5,0.1,0.7,0.1c0.3,0,0.7,0,1-0.1c0.1,0,0.2,0,0.2-0.1l0,0h0.1l0.2-0.1c0.2,0,0.4-0.1,0.5-0.2c0.2-0.1,0.3-0.1,0.4-0.2
			c0.1-0.1,0.2-0.1,0.3-0.2l0.1-0.1l0.1-0.1l0,0l0.1-0.1l0,0l0.1-0.1l0.5-0.5v-0.1c0,0,0,0,0-0.1c0,0,0.1-0.1,0.1-0.2l0,0l0.9-1.4
			l71.7-105.6c9.8,24.1,27.3,66.4,37.1,90.1c0.8,1.9,2.6,3.1,4.6,3.1c0.7,0,1.3-0.1,1.9-0.4c1.2-0.5,2.2-1.5,2.7-2.7s0.5-2.6,0-3.8
			c-11.8-28.6-39.8-96.3-43.7-106.5C246.7,35.4,244.8,34.1,242.8,34.1L242.8,34.1z M154.5,93.8c5.1,0,10.2-0.8,15.1-2.5
			c6.5-2.2,16.6-10.2,28.3-19.4l0,0c13.9-11,31.2-24.7,41.6-27.4c0.2,0.6,0.5,1.3,0.8,2l-70.6,104l-17.4-56.7
			C153.1,93.8,153.8,93.8,154.5,93.8L154.5,93.8z M82.6,143.9c5.3-7.1,14.5-18.1,25-26.6c13.2-10.6,27.9-19.9,34.3-23.8l19.1,62.2
			L82.6,143.9L82.6,143.9z"/>
	</g>
</g>
</svg>
