<?xml version="1.0" encoding="utf-8"?>
<!-- Generator: Adobe Illustrator 26.0.3, SVG Export Plug-In . SVG Version: 6.00 Build 0)  -->
<svg version="1.1" id="footerBanner" xmlns="http://www.w3.org/2000/svg" xmlns:xlink="http://www.w3.org/1999/xlink" x="0px"
	 y="0px" viewBox="0 0 420 100" style="enable-background:new 0 0 420 100;" xml:space="preserve">
<style type="text/css">
	.st0{fill:#D2E2E9;}
	.st1{fill:#B6D2DF;}
	.st2{fill:#ACC2CB;}
	.st3{fill:#FCA249;}
	.st4{fill:#FDCE9D;}
	.st5{fill:#FDB866;}
	.st6{fill:none;}
	.st7{fill:#FFFFFF;}
	.st8{font-family:'Repo-Black';}
	.st9{font-size:19.8px;}
</style>
<g id="footerBackground">
	<path class="st0" d="M419.7,100.2V14.1h-0.1c-0.3-2.2-2.2-3.9-4.5-3.9c-2.4,0-4.3-2.2-4.3-4.5V5.1c0-2.5-2-4.5-4.5-4.5L13,0.6
		c-2.5,0-4.5,2-4.5,4.5v0.2c0,2.7-2.1,4.7-4.8,4.9c-2.1,0.1-3.8,1.8-4,3.9l0,0v86.2L419.7,100.2L419.7,100.2z"/>
	<rect x="-0.3" y="60.2" class="st1" width="420" height="40.1"/>
</g>
<g id="nextButton">
	<path id="buttonShade" class="st2" d="M390.1,71.6c0,0,0.3,1.5-66.1,1.5s-63.3-1.5-63.3-1.5c-5.1,0-9.2-4.2-9.2-9.2l-0.8-24
		c0-5.1,4.2-9.2,9.2-9.2c0,0-5-1.5,64.9-1.5s66,1.5,66,1.5c5.1,0,9.2,4.2,9.2,9.2l-0.8,24C399.2,67.5,395.2,71.6,390.1,71.6z"/>
	<path id="buttonDark" class="st3" d="M396.2,39.7l-0.3,9.5l-0.4,11.9c0.1,4.5-3.6,8.2-8.2,8.2c0,0-3.3,1.4-62.6,1.4
		s-61.4-1.4-61.4-1.4c-4.5,0-8.2-3.7-8.2-8.2l-0.4-11.9l-0.3-9.5c0-4.5,3.7-8.2,8.2-8.2c0,0,0.5-1.4,62.9-1.4s62.5,1.4,62.5,1.4
		C392.5,31.4,396.2,35.1,396.2,39.7z"/>
	<path id="buttonLight" class="st4" d="M395.9,49.1l-0.4,11.9c0.1,4.5-3.6,8.2-8.2,8.2c0,0-3.3,1.4-62.6,1.4s-61.4-1.4-61.4-1.4
		c-4.5,0-8.2-3.7-8.2-8.2l-0.4-11.9H395.9z"/>
	<path id="buttonMain" class="st5" d="M384.8,66.5c0,0-5.2,1.2-59.9,1.2s-58.2-1.2-58.2-1.2c-4.2,0-7.5-3.4-7.5-7.5l-0.6-17.7
		c0-4.2,3.4-7.5,7.5-7.5c0,0,2-1.2,59.5-1.2s59.9,1.2,59.9,1.2c4.2,0,7.5,3.4,7.5,7.5L392.3,59C392.3,63.1,388.9,66.5,384.8,66.5z"
		/>
	<rect x="277.5" y="40.9" class="st6" width="96.3" height="18.5"/>
	<text transform="matrix(1 0 0 1 299.5028 56.3467)" class="st7 st8 st9">NEXT</text>
</g>
<g id="backButton">
	<path id="buttonShade_00000176036720417185415300000006022198444660424351_" class="st2" d="M159,71.6c0,0,0.3,1.5-66.1,1.5
		s-63.3-1.5-63.3-1.5c-5.1,0-9.2-4.2-9.2-9.2l-0.8-24c0-5.1,4.2-9.2,9.2-9.2c0,0-5-1.5,64.9-1.5s66,1.5,66,1.5
		c5.1,0,9.2,4.2,9.2,9.2l-0.8,24C168.1,67.5,164.1,71.6,159,71.6z"/>
	<path id="buttonDark_00000009591308197950772440000016393861473838655646_" class="st3" d="M165.1,39.7l-0.3,9.5l-0.4,11.9
		c0.1,4.5-3.6,8.2-8.2,8.2c0,0-3.3,1.4-62.6,1.4s-61.4-1.4-61.4-1.4c-4.5,0-8.2-3.7-8.2-8.2l-0.4-11.9l-0.3-9.5
		c0-4.5,3.7-8.2,8.2-8.2c0,0,0.5-1.4,62.9-1.4s62.5,1.4,62.5,1.4C161.4,31.4,165.1,35.1,165.1,39.7z"/>
	<path id="buttonLight_00000096028915141423644740000008870248116224704188_" class="st4" d="M164.8,49.1l-0.4,11.9
		c0.1,4.5-3.6,8.2-8.2,8.2c0,0-3.3,1.4-62.6,1.4s-61.4-1.4-61.4-1.4c-4.5,0-8.2-3.7-8.2-8.2l-0.4-11.9H164.8z"/>
	<path id="buttonMain_00000078748862112873375040000006318725608977109380_" class="st5" d="M153.7,66.5c0,0-5.2,1.2-59.9,1.2
		s-58.2-1.2-58.2-1.2c-4.2,0-7.5-3.4-7.5-7.5l-0.6-17.7c0-4.2,3.4-7.5,7.5-7.5c0,0,2-1.2,59.5-1.2s59.9,1.2,59.9,1.2
		c4.2,0,7.5,3.4,7.5,7.5L161.2,59C161.2,63.1,157.8,66.5,153.7,66.5z"/>
	<rect x="46.4" y="40.9" class="st6" width="96.3" height="18.5"/>
	<text transform="matrix(1 0 0 1 68.3047 56.3467)" class="st7 st8 st9">BACK</text>
</g>
</svg>
