<?xml version="1.0" encoding="utf-8"?>
<!-- Generator: Adobe Illustrator 26.0.3, SVG Export Plug-In . SVG Version: 6.00 Build 0)  -->
<svg version="1.1" id="gauge" xmlns="http://www.w3.org/2000/svg" xmlns:xlink="http://www.w3.org/1999/xlink" x="0px" y="0px"
	 viewBox="0 0 70 70" style="enable-background:new 0 0 70 70;" xml:space="preserve">
<style type="text/css">
	.st0{fill:#88E1E3;}
	.st1{enable-background:new    ;}
	.st2{fill:#32A5A6;}
	.st3{fill:#142C4D;}
	.st4{opacity:0.16;}
	.st5{fill:#FFFFFF;}
	.st6{fill:#F3400B;}
	.st7{fill:#F9B466;}
</style>
<g id="badgeBackground">
	<g id="lowLights">
		<path class="st0" d="M67.3,36C67.3,17.1,53.9,1.8,35,1.8S2.7,17.1,2.7,36S16.1,68.2,35,68.2S67.3,55,67.3,36z"/>
	</g>
	<g id="dropShadow" class="st1">
		<path class="st2" d="M35,5.6c16.3,0,28.5,13.1,28.5,30.5c0,16.7-11.7,28.4-28.5,28.4C18.2,64.4,6.5,52.8,6.5,36
			C6.5,18.7,18.7,5.6,35,5.6 M35,1.8C16.1,1.8,2.7,17.1,2.7,36S16.1,68.2,35,68.2S67.3,55,67.3,36S53.9,1.8,35,1.8L35,1.8z"/>
	</g>
	<g id="border" class="st1">
		<path class="st3" d="M35,69.5C15.2,69.5,1.4,55.7,1.4,36C1.4,15.8,15.9,0.5,35,0.5S68.6,15.8,68.6,36C68.6,55.7,54.8,69.5,35,69.5
			z M35,3.1C17.3,3.1,4,17.2,4,36c0,18.2,12.7,30.9,31,30.9S66,54.2,66,36C66,17.2,52.7,3.1,35,3.1z"/>
	</g>
	<g id="shine" class="st4">
		<path class="st5" d="M61.1,35.4c3.6-13.7-3.5-26-17.1-29.5S19,9.2,15.4,22.8s9.5,3,23.1,6.6S57.6,49,61.1,35.4z"/>
	</g>
</g>
<path id="dangerGauge" class="st6" d="M21.3,15.8h27.5c1.3,0,2.3,1,2.3,2.3l0,0c0,1.3-1,2.3-2.3,2.3H21.3c-1.3,0-2.3-1-2.3-2.3l0,0
	C19,16.8,20,15.8,21.3,15.8z"/>
<path id="warningGauge" class="st7" d="M21.3,24.2h27.5c1.3,0,2.3,1,2.3,2.3l0,0c0,1.3-1,2.3-2.3,2.3H21.3c-1.3,0-2.3-1-2.3-2.3l0,0
	C19,25.3,20,24.2,21.3,24.2z"/>
<path id="highGauge" class="st5" d="M21.3,32.7h27.5c1.3,0,2.3,1,2.3,2.3l0,0c0,1.3-1,2.3-2.3,2.3H21.3c-1.3,0-2.3-1-2.3-2.3l0,0
	C19,33.7,20,32.7,21.3,32.7z"/>
<path id="mediumGauge" class="st5" d="M21.3,41.2h27.5c1.3,0,2.3,1,2.3,2.3l0,0c0,1.3-1,2.3-2.3,2.3H21.3c-1.3,0-2.3-1-2.3-2.3l0,0
	C19,42.2,20,41.2,21.3,41.2z"/>
<path id="lowGauge" class="st5" d="M21.3,49.7h27.5c1.3,0,2.3,1,2.3,2.3l0,0c0,1.3-1,2.3-2.3,2.3H21.3c-1.3,0-2.3-1-2.3-2.3l0,0
	C19,50.7,20,49.7,21.3,49.7z"/>
</svg>
