<?xml version="1.0" encoding="utf-8"?>
<!-- Generator: Adobe Illustrator 26.0.3, SVG Export Plug-In . SVG Version: 6.00 Build 0)  -->
<svg version="1.1" id="Layer_1" xmlns="http://www.w3.org/2000/svg" xmlns:xlink="http://www.w3.org/1999/xlink" x="0px" y="0px"
	 width="185px" height="55px" viewBox="0 0 185 55" style="enable-background:new 0 0 185 55;" xml:space="preserve">
<style type="text/css">
	.st0{fill:#FCA249;}
	.st1{fill:#FDCE9D;}
	.st2{fill:#FDB866;}
</style>
<g id="nextButton">
	<path id="buttonDark" class="st0" d="M184.6,13.6l-0.4,12.3l-0.5,15.5c0.1,5.9-4.7,10.7-10.6,10.7c0,0-4.3,1.8-81.4,1.8
		s-79.8-1.8-79.8-1.8c-5.9,0-10.7-4.8-10.7-10.7L0.8,25.9L0.4,13.6c0-5.9,4.8-10.7,10.7-10.7c0,0,0.6-1.8,81.7-1.8
		s81.2,1.8,81.2,1.8C179.9,2.9,184.6,7.7,184.6,13.6z"/>
	<path id="buttonLight" class="st1" d="M184.2,25.9l-0.5,15.5c0.1,5.9-4.7,10.7-10.6,10.7c0,0-4.3,1.8-81.4,1.8s-79.8-1.8-79.8-1.8
		c-5.9,0-10.7-4.8-10.7-10.7L0.8,25.9H184.2z"/>
	<path id="buttonMain" class="st2" d="M169.8,48.5c0,0-6.8,1.6-77.9,1.6s-75.6-1.6-75.6-1.6c-5.4,0-9.8-4.4-9.8-9.8l-0.8-23
		c0-5.4,4.4-9.8,9.8-9.8c0,0,2.6-1.6,77.3-1.6s77.8,1.6,77.8,1.6c5.4,0,9.8,4.4,9.8,9.8l-0.8,23C179.5,44,175.1,48.5,169.8,48.5z"/>
</g>
</svg>
