<?xml version="1.0" encoding="utf-8"?>
<!-- Generator: Adobe Illustrator 26.0.3, SVG Export Plug-In . SVG Version: 6.00 Build 0)  -->
<svg version="1.1" id="printScreen" xmlns="http://www.w3.org/2000/svg" xmlns:xlink="http://www.w3.org/1999/xlink" x="0px"
	 y="0px" viewBox="0 0 360 440" style="enable-background:new 0 0 360 440;" xml:space="preserve">
<style type="text/css">
	.st0{fill:#228585;}
	.st1{fill:#82C9CB;}
	.st2{opacity:0.3;}
	.st3{opacity:0.6;fill:none;stroke:#46B4B8;stroke-width:0.7753;stroke-miterlimit:10;enable-background:new    ;}
	.st4{fill:#45B8BB;}
	.st5{fill:#D2E2E9;}
	.st6{fill:#B6D2DF;}
	.st7{fill:#596464;}
	.st8{opacity:0.75;}
</style>
<g id="printerGroup">
	<g id="gridScreen">
		<path class="st0" d="M339.2,320.2H25.4c-4.3,0-7.8-3.7-7.8-8.4v-280c0-5.4,4.1-9.8,9.1-9.8h311.1c5,0,9.1,4.4,9.1,9.8v280.1
			C346.9,316.4,343.4,320.2,339.2,320.2z"/>
		<path class="st1" d="M24.7,315.1c-5.5,0-10-4.5-10-10v-287h333v290.5c0,4.2-3.4,7.6-7.6,7.6L24.7,315.1z"/>
		<g class="st2">
			<rect x="18.5" y="22" class="st3" width="21.6" height="19.3"/>
			<rect x="40" y="22" class="st3" width="21.6" height="19.3"/>
			<rect x="61.6" y="22" class="st3" width="21.6" height="19.3"/>
			<rect x="83.2" y="22" class="st3" width="21.6" height="19.3"/>
			<rect x="104.8" y="22" class="st3" width="21.6" height="19.3"/>
			<rect x="126.3" y="22" class="st3" width="21.6" height="19.3"/>
			<rect x="148" y="22" class="st3" width="21.6" height="19.3"/>
			<rect x="169.6" y="22" class="st3" width="21.6" height="19.3"/>
			<rect x="191.1" y="22" class="st3" width="21.6" height="19.3"/>
			<rect x="212.7" y="22" class="st3" width="21.6" height="19.3"/>
			<rect x="234.3" y="22" class="st3" width="21.6" height="19.3"/>
			<rect x="255.8" y="22" class="st3" width="21.6" height="19.3"/>
			<rect x="277.4" y="22" class="st3" width="21.6" height="19.3"/>
			<rect x="299" y="22" class="st3" width="21.6" height="19.3"/>
			<rect x="320.6" y="22" class="st3" width="21.6" height="19.3"/>
			<rect x="18.5" y="41.3" class="st3" width="21.6" height="19.3"/>
			<rect x="40" y="41.3" class="st3" width="21.6" height="19.3"/>
			<rect x="61.6" y="41.3" class="st3" width="21.6" height="19.3"/>
			<rect x="83.2" y="41.3" class="st3" width="21.6" height="19.3"/>
			<rect x="104.8" y="41.3" class="st3" width="21.6" height="19.3"/>
			<rect x="126.3" y="41.3" class="st3" width="21.6" height="19.3"/>
			<rect x="148" y="41.3" class="st3" width="21.6" height="19.3"/>
			<rect x="169.6" y="41.3" class="st3" width="21.6" height="19.3"/>
			<rect x="191.1" y="41.3" class="st3" width="21.6" height="19.3"/>
			<rect x="212.7" y="41.3" class="st3" width="21.6" height="19.3"/>
			<rect x="234.3" y="41.3" class="st3" width="21.6" height="19.3"/>
			<rect x="255.8" y="41.3" class="st3" width="21.6" height="19.3"/>
			<rect x="277.4" y="41.3" class="st3" width="21.6" height="19.3"/>
			<rect x="299" y="41.3" class="st3" width="21.6" height="19.3"/>
			<rect x="320.6" y="41.3" class="st3" width="21.6" height="19.3"/>
			<rect x="18.5" y="60.5" class="st3" width="21.6" height="19.3"/>
			<rect x="40" y="60.5" class="st3" width="21.6" height="19.3"/>
			<rect x="61.6" y="60.5" class="st3" width="21.6" height="19.3"/>
			<rect x="83.2" y="60.5" class="st3" width="21.6" height="19.3"/>
			<rect x="104.8" y="60.5" class="st3" width="21.6" height="19.3"/>
			<rect x="126.3" y="60.5" class="st3" width="21.6" height="19.3"/>
			<rect x="148" y="60.5" class="st3" width="21.6" height="19.3"/>
			<rect x="169.6" y="60.5" class="st3" width="21.6" height="19.3"/>
			<rect x="191.1" y="60.5" class="st3" width="21.6" height="19.3"/>
			<rect x="212.7" y="60.5" class="st3" width="21.6" height="19.3"/>
			<rect x="234.3" y="60.5" class="st3" width="21.6" height="19.3"/>
			<rect x="255.8" y="60.5" class="st3" width="21.6" height="19.3"/>
			<rect x="277.4" y="60.5" class="st3" width="21.6" height="19.3"/>
			<rect x="299" y="60.5" class="st3" width="21.6" height="19.3"/>
			<rect x="320.6" y="60.5" class="st3" width="21.6" height="19.3"/>
			<rect x="18.5" y="79.9" class="st3" width="21.6" height="19.3"/>
			<rect x="40" y="79.9" class="st3" width="21.6" height="19.3"/>
			<rect x="61.6" y="79.9" class="st3" width="21.6" height="19.3"/>
			<rect x="83.2" y="79.9" class="st3" width="21.6" height="19.3"/>
			<rect x="104.8" y="79.9" class="st3" width="21.6" height="19.3"/>
			<rect x="126.3" y="79.9" class="st3" width="21.6" height="19.3"/>
			<rect x="148" y="79.9" class="st3" width="21.6" height="19.3"/>
			<rect x="169.6" y="79.9" class="st3" width="21.6" height="19.3"/>
			<rect x="191.1" y="79.9" class="st3" width="21.6" height="19.3"/>
			<rect x="212.7" y="79.9" class="st3" width="21.6" height="19.3"/>
			<rect x="234.3" y="79.9" class="st3" width="21.6" height="19.3"/>
			<rect x="255.8" y="79.9" class="st3" width="21.6" height="19.3"/>
			<rect x="277.4" y="79.9" class="st3" width="21.6" height="19.3"/>
			<rect x="299" y="79.9" class="st3" width="21.6" height="19.3"/>
			<rect x="320.6" y="79.9" class="st3" width="21.6" height="19.3"/>
			<rect x="18.5" y="99.2" class="st3" width="21.6" height="19.3"/>
			<rect x="40" y="99.2" class="st3" width="21.6" height="19.3"/>
			<rect x="61.6" y="99.2" class="st3" width="21.6" height="19.3"/>
			<rect x="83.2" y="99.2" class="st3" width="21.6" height="19.3"/>
			<rect x="104.8" y="99.2" class="st3" width="21.6" height="19.3"/>
			<rect x="126.3" y="99.2" class="st3" width="21.6" height="19.3"/>
			<rect x="148" y="99.2" class="st3" width="21.6" height="19.3"/>
			<rect x="169.6" y="99.2" class="st3" width="21.6" height="19.3"/>
			<rect x="191.1" y="99.2" class="st3" width="21.6" height="19.3"/>
			<rect x="212.7" y="99.2" class="st3" width="21.6" height="19.3"/>
			<rect x="234.3" y="99.2" class="st3" width="21.6" height="19.3"/>
			<rect x="255.8" y="99.2" class="st3" width="21.6" height="19.3"/>
			<rect x="277.4" y="99.2" class="st3" width="21.6" height="19.3"/>
			<rect x="299" y="99.2" class="st3" width="21.6" height="19.3"/>
			<rect x="320.6" y="99.2" class="st3" width="21.6" height="19.3"/>
			<rect x="18.5" y="118.5" class="st3" width="21.6" height="19.3"/>
			<rect x="40" y="118.5" class="st3" width="21.6" height="19.3"/>
			<rect x="61.6" y="118.5" class="st3" width="21.6" height="19.3"/>
			<rect x="83.2" y="118.5" class="st3" width="21.6" height="19.3"/>
			<rect x="104.8" y="118.5" class="st3" width="21.6" height="19.3"/>
			<rect x="126.3" y="118.5" class="st3" width="21.6" height="19.3"/>
			<rect x="148" y="118.5" class="st3" width="21.6" height="19.3"/>
			<rect x="169.6" y="118.5" class="st3" width="21.6" height="19.3"/>
			<rect x="191.1" y="118.5" class="st3" width="21.6" height="19.3"/>
			<rect x="212.7" y="118.5" class="st3" width="21.6" height="19.3"/>
			<rect x="234.3" y="118.5" class="st3" width="21.6" height="19.3"/>
			<rect x="255.8" y="118.5" class="st3" width="21.6" height="19.3"/>
			<rect x="277.4" y="118.5" class="st3" width="21.6" height="19.3"/>
			<rect x="299" y="118.5" class="st3" width="21.6" height="19.3"/>
			<rect x="320.6" y="118.5" class="st3" width="21.6" height="19.3"/>
			<rect x="18.5" y="137.8" class="st3" width="21.6" height="19.3"/>
			<rect x="40" y="137.8" class="st3" width="21.6" height="19.3"/>
			<rect x="61.6" y="137.8" class="st3" width="21.6" height="19.3"/>
			<rect x="83.2" y="137.8" class="st3" width="21.6" height="19.3"/>
			<rect x="104.8" y="137.8" class="st3" width="21.6" height="19.3"/>
			<rect x="126.3" y="137.8" class="st3" width="21.6" height="19.3"/>
			<rect x="148" y="137.8" class="st3" width="21.6" height="19.3"/>
			<rect x="169.6" y="137.8" class="st3" width="21.6" height="19.3"/>
			<rect x="191.1" y="137.8" class="st3" width="21.6" height="19.3"/>
			<rect x="212.7" y="137.8" class="st3" width="21.6" height="19.3"/>
			<rect x="234.3" y="137.8" class="st3" width="21.6" height="19.3"/>
			<rect x="255.8" y="137.8" class="st3" width="21.6" height="19.3"/>
			<rect x="277.4" y="137.8" class="st3" width="21.6" height="19.3"/>
			<rect x="299" y="137.8" class="st3" width="21.6" height="19.3"/>
			<rect x="320.6" y="137.8" class="st3" width="21.6" height="19.3"/>
			<rect x="18.5" y="157.2" class="st3" width="21.6" height="19.3"/>
			<rect x="40" y="157.2" class="st3" width="21.6" height="19.3"/>
			<rect x="61.6" y="157.2" class="st3" width="21.6" height="19.3"/>
			<rect x="83.2" y="157.2" class="st3" width="21.6" height="19.3"/>
			<rect x="104.8" y="157.2" class="st3" width="21.6" height="19.3"/>
			<rect x="126.3" y="157.2" class="st3" width="21.6" height="19.3"/>
			<rect x="148" y="157.2" class="st3" width="21.6" height="19.3"/>
			<rect x="169.6" y="157.2" class="st3" width="21.6" height="19.3"/>
			<rect x="191.1" y="157.2" class="st3" width="21.6" height="19.3"/>
			<rect x="212.7" y="157.2" class="st3" width="21.6" height="19.3"/>
			<rect x="234.3" y="157.2" class="st3" width="21.6" height="19.3"/>
			<rect x="255.8" y="157.2" class="st3" width="21.6" height="19.3"/>
			<rect x="277.4" y="157.2" class="st3" width="21.6" height="19.3"/>
			<rect x="299" y="157.2" class="st3" width="21.6" height="19.3"/>
			<rect x="320.6" y="157.2" class="st3" width="21.6" height="19.3"/>
			<rect x="18.5" y="176.5" class="st3" width="21.6" height="19.3"/>
			<rect x="40" y="176.5" class="st3" width="21.6" height="19.3"/>
			<rect x="61.6" y="176.5" class="st3" width="21.6" height="19.3"/>
			<rect x="83.2" y="176.5" class="st3" width="21.6" height="19.3"/>
			<rect x="104.8" y="176.5" class="st3" width="21.6" height="19.3"/>
			<rect x="126.3" y="176.5" class="st3" width="21.6" height="19.3"/>
			<rect x="148" y="176.5" class="st3" width="21.6" height="19.3"/>
			<rect x="169.6" y="176.5" class="st3" width="21.6" height="19.3"/>
			<rect x="191.1" y="176.5" class="st3" width="21.6" height="19.3"/>
			<rect x="212.7" y="176.5" class="st3" width="21.6" height="19.3"/>
			<rect x="234.3" y="176.5" class="st3" width="21.6" height="19.3"/>
			<rect x="255.8" y="176.5" class="st3" width="21.6" height="19.3"/>
			<rect x="277.4" y="176.5" class="st3" width="21.6" height="19.3"/>
			<rect x="299" y="176.5" class="st3" width="21.6" height="19.3"/>
			<rect x="320.6" y="176.5" class="st3" width="21.6" height="19.3"/>
			<rect x="18.5" y="195.7" class="st3" width="21.6" height="19.3"/>
			<rect x="40" y="195.7" class="st3" width="21.6" height="19.3"/>
			<rect x="61.6" y="195.7" class="st3" width="21.6" height="19.3"/>
			<rect x="83.2" y="195.7" class="st3" width="21.6" height="19.3"/>
			<rect x="104.8" y="195.7" class="st3" width="21.6" height="19.3"/>
			<rect x="126.3" y="195.7" class="st3" width="21.6" height="19.3"/>
			<rect x="148" y="195.7" class="st3" width="21.6" height="19.3"/>
			<rect x="169.6" y="195.7" class="st3" width="21.6" height="19.3"/>
			<rect x="191.1" y="195.7" class="st3" width="21.6" height="19.3"/>
			<rect x="212.7" y="195.7" class="st3" width="21.6" height="19.3"/>
			<rect x="234.3" y="195.7" class="st3" width="21.6" height="19.3"/>
			<rect x="255.8" y="195.7" class="st3" width="21.6" height="19.3"/>
			<rect x="277.4" y="195.7" class="st3" width="21.6" height="19.3"/>
			<rect x="299" y="195.7" class="st3" width="21.6" height="19.3"/>
			<rect x="320.6" y="195.7" class="st3" width="21.6" height="19.3"/>
			<rect x="18.5" y="215.1" class="st3" width="21.6" height="19.3"/>
			<rect x="40" y="215.1" class="st3" width="21.6" height="19.3"/>
			<rect x="61.6" y="215.1" class="st3" width="21.6" height="19.3"/>
			<rect x="83.2" y="215.1" class="st3" width="21.6" height="19.3"/>
			<rect x="104.8" y="215.1" class="st3" width="21.6" height="19.3"/>
			<rect x="126.3" y="215.1" class="st3" width="21.6" height="19.3"/>
			<rect x="148" y="215.1" class="st3" width="21.6" height="19.3"/>
			<rect x="169.6" y="215.1" class="st3" width="21.6" height="19.3"/>
			<rect x="191.1" y="215.1" class="st3" width="21.6" height="19.3"/>
			<rect x="212.7" y="215.1" class="st3" width="21.6" height="19.3"/>
			<rect x="234.3" y="215.1" class="st3" width="21.6" height="19.3"/>
			<rect x="255.8" y="215.1" class="st3" width="21.6" height="19.3"/>
			<rect x="277.4" y="215.1" class="st3" width="21.6" height="19.3"/>
			<rect x="299" y="215.1" class="st3" width="21.6" height="19.3"/>
			<rect x="320.6" y="215.1" class="st3" width="21.6" height="19.3"/>
			<rect x="18.5" y="234.4" class="st3" width="21.6" height="19.3"/>
			<rect x="40" y="234.4" class="st3" width="21.6" height="19.3"/>
			<rect x="61.6" y="234.4" class="st3" width="21.6" height="19.3"/>
			<rect x="83.2" y="234.4" class="st3" width="21.6" height="19.3"/>
			<rect x="104.8" y="234.4" class="st3" width="21.6" height="19.3"/>
			<rect x="126.3" y="234.4" class="st3" width="21.6" height="19.3"/>
			<rect x="148" y="234.4" class="st3" width="21.6" height="19.3"/>
			<rect x="169.6" y="234.4" class="st3" width="21.6" height="19.3"/>
			<rect x="191.1" y="234.4" class="st3" width="21.6" height="19.3"/>
			<rect x="212.7" y="234.4" class="st3" width="21.6" height="19.3"/>
			<rect x="234.3" y="234.4" class="st3" width="21.6" height="19.3"/>
			<rect x="255.8" y="234.4" class="st3" width="21.6" height="19.3"/>
			<rect x="277.4" y="234.4" class="st3" width="21.6" height="19.3"/>
			<rect x="299" y="234.4" class="st3" width="21.6" height="19.3"/>
			<rect x="320.6" y="234.4" class="st3" width="21.6" height="19.3"/>
			<rect x="18.5" y="253.7" class="st3" width="21.6" height="19.3"/>
			<rect x="40" y="253.7" class="st3" width="21.6" height="19.3"/>
			<rect x="61.6" y="253.7" class="st3" width="21.6" height="19.3"/>
			<rect x="83.2" y="253.7" class="st3" width="21.6" height="19.3"/>
			<rect x="104.8" y="253.7" class="st3" width="21.6" height="19.3"/>
			<rect x="126.3" y="253.7" class="st3" width="21.6" height="19.3"/>
			<rect x="148" y="253.7" class="st3" width="21.6" height="19.3"/>
			<rect x="169.6" y="253.7" class="st3" width="21.6" height="19.3"/>
			<rect x="191.1" y="253.7" class="st3" width="21.6" height="19.3"/>
			<rect x="212.7" y="253.7" class="st3" width="21.6" height="19.3"/>
			<rect x="234.3" y="253.7" class="st3" width="21.6" height="19.3"/>
			<rect x="255.8" y="253.7" class="st3" width="21.6" height="19.3"/>
			<rect x="277.4" y="253.7" class="st3" width="21.6" height="19.3"/>
			<rect x="299" y="253.7" class="st3" width="21.6" height="19.3"/>
			<rect x="320.6" y="253.7" class="st3" width="21.6" height="19.3"/>
			<rect x="18.5" y="273" class="st3" width="21.6" height="19.3"/>
			<rect x="40" y="273" class="st3" width="21.6" height="19.3"/>
			<rect x="61.6" y="273" class="st3" width="21.6" height="19.3"/>
			<rect x="83.2" y="273" class="st3" width="21.6" height="19.3"/>
			<rect x="104.8" y="273" class="st3" width="21.6" height="19.3"/>
			<rect x="126.3" y="273" class="st3" width="21.6" height="19.3"/>
			<rect x="148" y="273" class="st3" width="21.6" height="19.3"/>
			<rect x="169.6" y="273" class="st3" width="21.6" height="19.3"/>
			<rect x="191.1" y="273" class="st3" width="21.6" height="19.3"/>
			<rect x="212.7" y="273" class="st3" width="21.6" height="19.3"/>
			<rect x="234.3" y="273" class="st3" width="21.6" height="19.3"/>
			<rect x="255.8" y="273" class="st3" width="21.6" height="19.3"/>
			<rect x="277.4" y="273" class="st3" width="21.6" height="19.3"/>
			<rect x="299" y="273" class="st3" width="21.6" height="19.3"/>
			<rect x="320.6" y="273" class="st3" width="21.6" height="19.3"/>
			<rect x="18.5" y="292.4" class="st3" width="21.6" height="19.3"/>
			<rect x="40" y="292.4" class="st3" width="21.6" height="19.3"/>
			<rect x="61.6" y="292.4" class="st3" width="21.6" height="19.3"/>
			<rect x="83.2" y="292.4" class="st3" width="21.6" height="19.3"/>
			<rect x="104.8" y="292.4" class="st3" width="21.6" height="19.3"/>
			<rect x="126.3" y="292.4" class="st3" width="21.6" height="19.3"/>
			<rect x="148" y="292.4" class="st3" width="21.6" height="19.3"/>
			<rect x="169.6" y="292.4" class="st3" width="21.6" height="19.3"/>
			<rect x="191.1" y="292.4" class="st3" width="21.6" height="19.3"/>
			<rect x="212.7" y="292.4" class="st3" width="21.6" height="19.3"/>
			<rect x="234.3" y="292.4" class="st3" width="21.6" height="19.3"/>
			<rect x="255.8" y="292.4" class="st3" width="21.6" height="19.3"/>
			<rect x="277.4" y="292.4" class="st3" width="21.6" height="19.3"/>
			<rect x="299" y="292.4" class="st3" width="21.6" height="19.3"/>
			<rect x="320.6" y="292.4" class="st3" width="21.6" height="19.3"/>
		</g>
		<path class="st4" d="M340.1,324.7l-315.4-1c-10.3,0-18.6-8.3-18.6-18.6v-287c0-4.8,3.8-8.6,8.6-8.6h333c4.8,0,8.6,3.8,8.6,8.6
			v290.5C356.1,317.4,349,324.7,340.1,324.7z M23.1,31.3v271.3c0,3.1,2.5,5.6,5.6,5.7l302.5,0.9c4.3,0,7.8-3.5,7.8-7.7V31.4
			c0-2.5-2.1-4.7-4.7-4.7H27.8C25.3,26.6,23.1,28.8,23.1,31.3z"/>
	</g>
	<path id="mainFrame" class="st5" d="M18.6,305.8V29.3c0-4.2,3.5-7.7,7.7-7.7h309c4.2,0,7.7,3.5,7.7,7.7v278.6
		c0,2.9-2.4,5.3-5.3,5.3l-312.6-1C21.4,312.3,18.6,309.4,18.6,305.8z M357.4,12.4c-0.3-1.9-1.9-3.3-3.7-3.3c-2,0-3.7-1.9-3.7-3.8
		V4.8c0-2.1-1.7-3.8-3.8-3.8H13.8C11.7,1,10,2.7,10,4.8V5c0,2.2-1.8,4-4.1,4.1c-1.8,0.1-3.2,1.5-3.4,3.3l0,0v0.3v411.5v0.5h0.1
		c0.3,1.9,1.9,3.3,3.7,3.3c2,0,3.7,1.9,3.7,3.8v0.4c0,2.1,1.7,3.8,3.8,3.8h332.4c2.1,0,3.8-1.7,3.8-3.8V432c0-2.2,1.8-4,4.1-4.1
		c1.8-0.1,3.2-1.5,3.4-3.3l0,0v-0.3V12.9L357.4,12.4L357.4,12.4z"/>
	<path id="shadowFrame" class="st6" d="M357.5,228.7v195.9l0,0c-0.2,1.8-1.6,3.2-3.4,3.3c-2.3,0.2-4.1,1.9-4.1,4.1v0.2
		c0,2.1-1.7,3.8-3.8,3.8H13.8c-2.1,0-3.8-1.7-3.8-3.8v-0.3c0-2-1.6-3.8-3.7-3.8c-2,0-3.5-1.4-3.7-3.3H2.5v-196h16.1v77
		c0,3.6,2.9,6.5,6.5,6.5l312.7,1c2.9,0,5.3-2.4,5.3-5.3v-79.2L357.5,228.7L357.5,228.7z"/>
	<g id="trackBottom">
		<g>
			<path class="st7" d="M24.2,321.1h315.1c1.5,0,2.8,1.3,2.8,2.8l0,0c0,1.5-1.3,2.8-2.8,2.8H24.2c-1.5,0-2.8-1.3-2.8-2.8l0,0
				C21.4,322.4,22.7,321.1,24.2,321.1z"/>
		</g>
		<g class="st8">
			<path d="M24.2,321.1h315.1c1.5,0,2.8,1.3,2.8,2.8l0,0c0,1.5-1.3,2.8-2.8,2.8H24.2c-1.5,0-2.8-1.3-2.8-2.8l0,0
				C21.4,322.4,22.7,321.1,24.2,321.1z"/>
		</g>
	</g>
	<g id="trackTop">
		<g>
			<path class="st7" d="M24.2,8h315.1c1.5,0,2.8,1.3,2.8,2.8l0,0c0,1.5-1.3,2.8-2.8,2.8H24.2c-1.5,0-2.8-1.3-2.8-2.8l0,0
				C21.4,9.3,22.7,8,24.2,8z"/>
		</g>
		<g class="st8">
			<path d="M24.2,8h315.1c1.5,0,2.8,1.3,2.8,2.8l0,0c0,1.5-1.3,2.8-2.8,2.8H24.2c-1.5,0-2.8-1.3-2.8-2.8l0,0C21.4,9.3,22.7,8,24.2,8
				z"/>
		</g>
	</g>
</g>
</svg>
