<?xml version="1.0" encoding="utf-8"?>
<!-- Generator: Adobe Illustrator 26.0.3, SVG Export Plug-In . SVG Version: 6.00 Build 0)  -->
<svg version="1.1" id="printHead_00000127044431277366780500000003292409466999802539_"
	 xmlns="http://www.w3.org/2000/svg" xmlns:xlink="http://www.w3.org/1999/xlink" x="0px" y="0px" viewBox="0 0 100 110"
	 style="enable-background:new 0 0 100 110;" xml:space="preserve">
<style type="text/css">
	.st0{fill:url(#SVGID_1_);}
	.st1{fill:url(#SVGID_00000147935714085890127910000014567768429098983044_);}
	.st2{fill:#90A8B1;}
	.st3{opacity:0.2;fill:none;stroke:#90A8B1;stroke-width:0.7252;stroke-miterlimit:10;enable-background:new    ;}
	.st4{fill:url(#SVGID_00000075858480179018787830000013894205894840660636_);}
	.st5{fill:url(#SVGID_00000024691322992072652950000009508333796442343830_);}
	.st6{fill:url(#SVGID_00000177471537363086704220000015765763707628579751_);}
	.st7{enable-background:new    ;}
	.st8{fill:url(#SVGID_00000139295126632096252080000011787803328948122801_);}
	.st9{fill:#08C632;}
	.st10{opacity:0.15;}
	.st11{fill:#9AD5E5;}
	.st12{fill:url(#SVGID_00000054971954829264413330000015495752816425705623_);}
	.st13{fill:url(#SVGID_00000099627582096334756010000010399776999664061600_);}
	.st14{fill:#C51E03;}
	.st15{fill:url(#SVGID_00000026147846116836919630000014612403728001140662_);}
	.st16{fill:#87A9B3;}
	.st17{fill:#FFFFFF;}
	.st18{fill:#89A3AB;}
	.st19{fill:url(#SVGID_00000008107047192121330530000011732125255315422081_);}
	.st20{fill:url(#SVGID_00000093162016019908407130000008944164210269011847_);}
	.st21{fill:url(#SVGID_00000015356511617784264510000003783632672452186269_);}
	.st22{fill:url(#SVGID_00000041990823820100999430000005903714638082790293_);}
	.st23{fill:url(#SVGID_00000065074726676353202240000014305156626415838371_);}
</style>
<g id="printHead">
	
		<linearGradient id="SVGID_1_" gradientUnits="userSpaceOnUse" x1="59.7" y1="-142.4976" x2="59.7" y2="-221.0176" gradientTransform="matrix(1 0 0 1 0 240)">
		<stop  offset="0" style="stop-color:#B6D2DF"/>
		<stop  offset="0.3235" style="stop-color:#B9D4E0"/>
		<stop  offset="0.6045" style="stop-color:#C4DAE4"/>
		<stop  offset="0.821" style="stop-color:#D2E2E9"/>
	</linearGradient>
	<path class="st0" d="M28.3,108.3H91c4.4,0,7.9-3.5,7.9-7.9V32c0-4.4-3.5-7.9-7.9-7.9H28.4c-4.4,0-7.9,3.5-7.9,7.9v68.4
		C20.4,104.8,23.9,108.3,28.3,108.3z"/>
	
		<linearGradient id="SVGID_00000165230650840188278040000010347054182736342950_" gradientUnits="userSpaceOnUse" x1="25.65" y1="-213.1648" x2="25.65" y2="-208.2421" gradientTransform="matrix(1 0 0 1 0 240)">
		<stop  offset="0" style="stop-color:#B6D2DF"/>
		<stop  offset="0.3235" style="stop-color:#B9D4E0"/>
		<stop  offset="0.6045" style="stop-color:#C4DAE4"/>
		<stop  offset="0.821" style="stop-color:#D2E2E9"/>
	</linearGradient>
	<circle style="fill:url(#SVGID_00000165230650840188278040000010347054182736342950_);" cx="25.6" cy="29.7" r="2.5"/>
	<path class="st2" d="M23.9,29.4h3.4c0.1,0,0.3,0.1,0.3,0.3l0,0c0,0.1-0.1,0.3-0.3,0.3h-3.4c-0.1,0-0.3-0.1-0.3-0.3l0,0
		C23.6,29.5,23.8,29.4,23.9,29.4z"/>
	<circle class="st3" cx="25.6" cy="29.7" r="2.8"/>
	
		<linearGradient id="SVGID_00000035522671909041237830000005224659171600149402_" gradientUnits="userSpaceOnUse" x1="25.65" y1="-139.9253" x2="25.65" y2="-135.0027" gradientTransform="matrix(1 0 0 1 0 240)">
		<stop  offset="0" style="stop-color:#B6D2DF"/>
		<stop  offset="0.3235" style="stop-color:#B9D4E0"/>
		<stop  offset="0.6045" style="stop-color:#C4DAE4"/>
		<stop  offset="0.821" style="stop-color:#D2E2E9"/>
	</linearGradient>
	<circle style="fill:url(#SVGID_00000035522671909041237830000005224659171600149402_);" cx="25.6" cy="102.9" r="2.5"/>
	<path class="st2" d="M23.9,102.6h3.4c0.1,0,0.3,0.1,0.3,0.3l0,0c0,0.1-0.1,0.3-0.3,0.3h-3.4c-0.1,0-0.3-0.1-0.3-0.3l0,0
		C23.6,102.7,23.8,102.6,23.9,102.6z"/>
	<circle class="st3" cx="25.6" cy="102.9" r="2.8"/>
	
		<linearGradient id="SVGID_00000171706514357026456600000018070181172989024654_" gradientUnits="userSpaceOnUse" x1="93.75" y1="-213.1648" x2="93.75" y2="-208.2421" gradientTransform="matrix(1 0 0 1 0 240)">
		<stop  offset="0" style="stop-color:#B6D2DF"/>
		<stop  offset="0.3235" style="stop-color:#B9D4E0"/>
		<stop  offset="0.6045" style="stop-color:#C4DAE4"/>
		<stop  offset="0.821" style="stop-color:#D2E2E9"/>
	</linearGradient>
	<circle style="fill:url(#SVGID_00000171706514357026456600000018070181172989024654_);" cx="93.8" cy="29.7" r="2.5"/>
	<path class="st2" d="M92.1,29.4h3.4c0.1,0,0.3,0.1,0.3,0.3l0,0c0,0.1-0.1,0.3-0.3,0.3h-3.4c-0.1,0-0.3-0.1-0.3-0.3l0,0
		C91.8,29.5,91.9,29.4,92.1,29.4z"/>
	<circle class="st3" cx="93.8" cy="29.7" r="2.8"/>
	
		<linearGradient id="SVGID_00000103969533007109506740000003733889854277787022_" gradientUnits="userSpaceOnUse" x1="93.75" y1="-139.9253" x2="93.75" y2="-135.0027" gradientTransform="matrix(1 0 0 1 0 240)">
		<stop  offset="0" style="stop-color:#B6D2DF"/>
		<stop  offset="0.3235" style="stop-color:#B9D4E0"/>
		<stop  offset="0.6045" style="stop-color:#C4DAE4"/>
		<stop  offset="0.821" style="stop-color:#D2E2E9"/>
	</linearGradient>
	<circle style="fill:url(#SVGID_00000103969533007109506740000003733889854277787022_);" cx="93.8" cy="102.9" r="2.5"/>
	<path class="st2" d="M92.1,102.6h3.4c0.1,0,0.3,0.1,0.3,0.3l0,0c0,0.1-0.1,0.3-0.3,0.3h-3.4c-0.1,0-0.3-0.1-0.3-0.3l0,0
		C91.8,102.7,91.9,102.6,92.1,102.6z"/>
	<circle class="st3" cx="93.8" cy="102.9" r="2.8"/>
	<path class="st2" d="M31.3,104.3H88l-0.5-2H31.8L31.3,104.3z"/>
	<path class="st2" d="M31.3,102H88l-0.5-2H31.8L31.3,102z"/>
	<path class="st2" d="M31.3,99.6H88l-0.5-2H31.8L31.3,99.6z"/>
	<path class="st2" d="M31.3,97.2H88l-0.5-2H31.8L31.3,97.2z"/>
	<g class="st7">
		
			<linearGradient id="SVGID_00000075873422721878162680000012064116930769514624_" gradientUnits="userSpaceOnUse" x1="29.95" y1="-198.8271" x2="29.95" y2="-202.0678" gradientTransform="matrix(1 0 0 1 0 240)">
			<stop  offset="2.700576e-02" style="stop-color:#05C66B"/>
			<stop  offset="0.1059" style="stop-color:#19CA73"/>
			<stop  offset="0.2339" style="stop-color:#35CF7D"/>
			<stop  offset="0.3472" style="stop-color:#45D284"/>
			<stop  offset="0.4333" style="stop-color:#4BD386"/>
			<stop  offset="0.5456" style="stop-color:#53D58C"/>
			<stop  offset="0.7227" style="stop-color:#6AD99E"/>
			<stop  offset="0.9414" style="stop-color:#8FE1BA"/>
			<stop  offset="0.9911" style="stop-color:#98E3C1"/>
		</linearGradient>
		<path style="fill:url(#SVGID_00000075873422721878162680000012064116930769514624_);" d="M31.6,39.5c0-1-0.7-1.8-1.7-1.8
			s-1.7,0.8-1.7,1.8s0.7,1.7,1.7,1.7S31.6,40.5,31.6,39.5z"/>
	</g>
	<g class="st7">
		<path class="st9" d="M29.9,37.9c0.8,0,1.5,0.7,1.5,1.6S30.8,41,29.9,41s-1.5-0.6-1.5-1.5S29.1,37.9,29.9,37.9 M29.9,37.8
			c-1,0-1.7,0.8-1.7,1.8s0.7,1.7,1.7,1.7s1.7-0.7,1.7-1.7C31.6,38.5,30.9,37.8,29.9,37.8L29.9,37.8z"/>
	</g>
	<g class="st10">
		<path class="st11" d="M31.3,39.5c0.2-0.7-0.2-1.3-0.9-1.5s-1.3,0.2-1.5,0.9s0.5,0.2,1.2,0.3C30.8,39.4,31.1,40.2,31.3,39.5z"/>
	</g>
	<g class="st7">
		
			<linearGradient id="SVGID_00000106134262318596217270000005840223359403326870_" gradientUnits="userSpaceOnUse" x1="29.9264" y1="-199.0325" x2="29.9498" y2="-200.1387" gradientTransform="matrix(1 0 0 1 0 240)">
			<stop  offset="0" style="stop-color:#02A651"/>
			<stop  offset="1" style="stop-color:#49D5E9;stop-opacity:0"/>
		</linearGradient>
		<path style="fill:url(#SVGID_00000106134262318596217270000005840223359403326870_);" d="M28.6,39.8c0.1,0.7,0.6,1.2,1.4,1.2
			c0.7,0,1.3-0.5,1.4-1.1"/>
	</g>
	<g class="st7">
		
			<linearGradient id="SVGID_00000131329460588830112860000012089958355844308138_" gradientUnits="userSpaceOnUse" x1="34.55" y1="-198.8271" x2="34.55" y2="-202.0678" gradientTransform="matrix(1 0 0 1 0 240)">
			<stop  offset="2.700576e-02" style="stop-color:#C51E03"/>
			<stop  offset="0.1144" style="stop-color:#C92D1A"/>
			<stop  offset="0.239" style="stop-color:#CE3E36"/>
			<stop  offset="0.3494" style="stop-color:#D14846"/>
			<stop  offset="0.4333" style="stop-color:#D24C4C"/>
			<stop  offset="0.5466" style="stop-color:#D45454"/>
			<stop  offset="0.7255" style="stop-color:#D96B6B"/>
			<stop  offset="0.9463" style="stop-color:#E09090"/>
			<stop  offset="0.9911" style="stop-color:#E29898"/>
		</linearGradient>
		<path style="fill:url(#SVGID_00000131329460588830112860000012089958355844308138_);" d="M36.2,39.5c0-1-0.7-1.8-1.7-1.8
			s-1.7,0.8-1.7,1.8s0.7,1.7,1.7,1.7S36.2,40.5,36.2,39.5z"/>
	</g>
	<g class="st7">
		<path class="st14" d="M34.6,37.9c0.8,0,1.5,0.7,1.5,1.6S35.4,41,34.6,41s-1.5-0.6-1.5-1.5S33.8,37.9,34.6,37.9 M34.6,37.8
			c-1,0-1.7,0.8-1.7,1.8s0.7,1.7,1.7,1.7s1.7-0.7,1.7-1.7C36.2,38.5,35.6,37.8,34.6,37.8L34.6,37.8z"/>
	</g>
	<g class="st10">
		<path class="st11" d="M35.9,39.5c0.2-0.7-0.2-1.3-0.9-1.5s-1.3,0.2-1.5,0.9s0.5,0.2,1.2,0.3C35.4,39.4,35.8,40.2,35.9,39.5z"/>
	</g>
	<g class="st7">
		
			<linearGradient id="SVGID_00000072277088758050922290000007545316302112425906_" gradientUnits="userSpaceOnUse" x1="34.5263" y1="-199.0326" x2="34.5498" y2="-200.1388" gradientTransform="matrix(1 0 0 1 0 240)">
			<stop  offset="0" style="stop-color:#A41702"/>
			<stop  offset="1" style="stop-color:#E64949;stop-opacity:0"/>
		</linearGradient>
		<path style="fill:url(#SVGID_00000072277088758050922290000007545316302112425906_);" d="M33.1,39.8c0.1,0.7,0.6,1.2,1.4,1.2
			c0.7,0,1.3-0.5,1.4-1.1"/>
	</g>
	<rect x="23.6" y="44.9" class="st16" width="71.8" height="46.5"/>
	<g>
		<g>
			<path class="st17" d="M28.6,67.3c-0.9,0-1.8-0.1-2.6-0.3v-6.8c0.7-0.2,1.6-0.3,2.5-0.3c2,0,3.2,0.7,3.2,2.1
				c0,0.7-0.4,1.1-0.8,1.4c0.6,0.3,1.1,0.9,1.1,1.7C31.8,66.5,30.8,67.3,28.6,67.3z M28.6,61.4L28.6,61.4c-0.2,0-0.3,0-0.4,0v1.3
				h0.3c0.7,0,0.9-0.2,0.9-0.7C29.4,61.6,29.1,61.4,28.6,61.4z M28.4,64.2c-0.1,0-0.2,0-0.3,0v1.5c0.1,0,0.2,0,0.4,0
				c0.7,0,1-0.2,1-0.7C29.6,64.4,29.2,64.2,28.4,64.2z"/>
			<path class="st17" d="M36.1,67.3c-1.6,0-2.7-0.8-2.9-2.2c0-0.3-0.1-0.6-0.1-1v-4.2h2.3v3.9c0,1.2,0,1.6,0.7,1.6
				c0.4,0,0.7-0.2,0.7-0.9v-0.8v-3.8h2.2v4.7C38.9,66.3,37.8,67.3,36.1,67.3z"/>
			<path class="st17" d="M44.4,67.2c-0.4-0.9-0.8-1.8-1.3-2.7h-0.2v2.7h-2.3v-7c0.8-0.2,1.6-0.3,2.4-0.3c2.2,0,3.3,0.9,3.3,2.4
				c0,0.8-0.5,1.5-1.1,1.8l0,0c0.6,0.8,1.1,2.1,1.6,3.1H44.4z M43.4,61.5c-0.2,0-0.3,0-0.4,0v1.8h0.4c0.4,0,0.8-0.4,0.8-1
				C44.2,61.8,43.8,61.5,43.4,61.5z"/>
			<path class="st17" d="M51.8,67.2c-0.4-0.9-0.8-1.8-1.3-2.7h-0.2v2.7h-2.3v-7c0.8-0.2,1.6-0.3,2.4-0.3c2.2,0,3.3,0.9,3.3,2.4
				c0,0.8-0.5,1.5-1.1,1.8l0,0c0.6,0.8,1.1,2.1,1.6,3.1H51.8z M50.8,61.5c-0.2,0-0.3,0-0.4,0v1.8h0.4c0.4,0,0.8-0.4,0.8-1
				C51.6,61.8,51.1,61.5,50.8,61.5z"/>
			<path class="st17" d="M55.2,64.7v-1.6h3.3v1.6H55.2z"/>
			<path class="st17" d="M65.6,67.2c-0.1-1.2-0.1-2.7-0.2-3.7c0,0.1-0.1,0.2-0.1,0.3s-0.6,1.8-1,2.9h-1.3c-0.4-1.1-1-2.9-1-2.9
				c-0.1-0.1-0.1-0.3-0.1-0.3c0,0.1-0.1,2.2-0.2,3.7h-2c0.2-2.3,0.4-5.1,0.6-7.3h2.1c0.3,0.8,0.7,1.9,1,2.8c0.1,0.3,0.2,0.6,0.3,0.8
				c0,0,0.2-0.5,0.3-0.7c0.4-1,0.8-2.1,1.1-2.9h2c0.3,2.2,0.5,5,0.6,7.3H65.6L65.6,67.2z"/>
			<path class="st17" d="M73.8,67.2c-0.2-0.9-0.3-1-0.3-1.2h-2c-0.1,0.4-0.3,0.8-0.4,1.2h-2.2c0.9-2.8,1.7-5.1,2.6-7.3h2.1
				c0.8,2.2,1.7,4.5,2.6,7.3H73.8z M72.6,62.9c-0.1-0.3-0.1-0.5-0.2-0.6c0,0.1-0.1,0.3-0.2,0.6c-0.1,0.5-0.3,1-0.4,1.5H73
				C72.8,63.9,72.6,63.4,72.6,62.9z"/>
			<path class="st17" d="M80.6,61.7v5.5h-2.3v-5.5h-1.6v-1.8H82v1.8C82,61.7,80.6,61.7,80.6,61.7z"/>
			<path class="st17" d="M83.8,67.2v-7.3h2.3v7.3H83.8z"/>
			<path class="st17" d="M90.4,67.3c-2.3,0-3.3-1.6-3.3-3.8c0-2.1,1.2-3.8,3.4-3.8c1,0,1.7,0.3,2.1,0.6L92,61.9
				c-0.4-0.2-0.8-0.3-1.3-0.3c-0.7,0-1.3,0.5-1.3,1.6c0,0.2,0,0.5,0,0.7c0.1,0.8,0.5,1.5,1.3,1.5c0.1,0,0.3,0,0.4-0.1
				c0.4-0.1,0.7-0.2,0.9-0.3l0.6,1.7C92.1,67.1,91.4,67.3,90.4,67.3z"/>
			<path class="st17" d="M49.6,76.4c-0.9,0-1.8-0.2-2.4-0.5c0.2-0.6,0.3-1.1,0.5-1.7c0.4,0.2,0.9,0.4,1.6,0.4c0.6,0,1-0.3,1-0.7
				s-0.4-0.6-1-0.7c-0.2,0-0.5,0-0.7,0v-1.5c0.4,0,0.7-0.1,1-0.2s0.6-0.2,0.6-0.5s-0.3-0.5-0.7-0.5c-0.5,0-1,0.2-1.4,0.4l-0.7-1.5
				c0.5-0.3,1.4-0.6,2.3-0.6c1.8,0,2.6,0.8,2.6,2.1c0,0.5-0.3,1-0.7,1.3l0,0c0.7,0.4,1,0.9,1,1.7C52.6,75.4,51.6,76.4,49.6,76.4z"/>
			<path class="st17" d="M56.2,76.4c-1.9,0-2.8-1.7-2.8-3.8c0-2,0.8-3.8,2.8-3.8c1.9,0,2.7,1.7,2.7,3.8S58.1,76.4,56.2,76.4z
				 M56.2,70.6c-0.5,0-0.6,0.8-0.6,2.1s0.1,2.1,0.6,2.1s0.6-0.8,0.6-2.1C56.8,71.3,56.6,70.6,56.2,70.6z"/>
			<path class="st17" d="M62.3,76.4c-1.9,0-2.8-1.7-2.8-3.8c0-2,0.8-3.8,2.8-3.8c1.9,0,2.7,1.7,2.7,3.8
				C65.1,74.7,64.2,76.4,62.3,76.4z M62.3,70.6c-0.5,0-0.6,0.8-0.6,2.1s0.1,2.1,0.6,2.1s0.6-0.8,0.6-2.1
				C62.9,71.3,62.8,70.6,62.3,70.6z"/>
			<path class="st17" d="M68.6,76.4c-1.9,0-2.8-1.7-2.8-3.8c0-2,0.8-3.8,2.8-3.8c1.9,0,2.7,1.7,2.7,3.8
				C71.2,74.7,70.4,76.4,68.6,76.4z M68.6,70.6c-0.5,0-0.6,0.8-0.6,2.1s0.1,2.1,0.6,2.1s0.6-0.8,0.6-2.1
				C69.1,71.3,68.9,70.6,68.6,70.6z"/>
		</g>
	</g>
	<path class="st18" d="M19.3,94.4L19.3,94.4c0.6,0,1.1-0.4,1.1-1v-57c0-0.5-0.4-1-1-1h-0.1c-0.5,0-1,0.4-1,1v57
		C18.3,94,18.8,94.4,19.3,94.4z"/>
	<path class="st18" d="M2.1,94.4L2.1,94.4c0.6,0,1.1-0.4,1.1-1v-57c0-0.5-0.4-1-1-1H2.1c-0.5,0-1,0.4-1,1v57
		C1.1,94,1.6,94.4,2.1,94.4z"/>
	
		<linearGradient id="SVGID_00000040544286026905874020000008699661590923063457_" gradientUnits="userSpaceOnUse" x1="14.5234" y1="-175.65" x2="18.3137" y2="-175.65" gradientTransform="matrix(1 0 0 1 0 240)">
		<stop  offset="0" style="stop-color:#F69B46"/>
		<stop  offset="1" style="stop-color:#FAB566"/>
	</linearGradient>
	<path style="fill:url(#SVGID_00000040544286026905874020000008699661590923063457_);" d="M16.4,92.2c-1,0-1.9-0.8-1.9-1.9V38.4
		c0-1,0.8-1.9,1.9-1.9s1.9,0.8,1.9,1.9v51.9C18.3,91.4,17.6,92.2,16.4,92.2z"/>
	
		<linearGradient id="SVGID_00000054951060932529248360000010951935274456085177_" gradientUnits="userSpaceOnUse" x1="10.7438" y1="-175.65" x2="14.534" y2="-175.65" gradientTransform="matrix(1 0 0 1 0 240)">
		<stop  offset="0" style="stop-color:#F69B46"/>
		<stop  offset="1" style="stop-color:#FAB566"/>
	</linearGradient>
	<path style="fill:url(#SVGID_00000054951060932529248360000010951935274456085177_);" d="M12.6,92.2c-1,0-1.9-0.8-1.9-1.9V38.4
		c0-1,0.8-1.9,1.9-1.9s1.9,0.8,1.9,1.9v51.9C14.6,91.4,13.8,92.2,12.6,92.2z"/>
	
		<linearGradient id="SVGID_00000104708438793525436970000005689998630109394088_" gradientUnits="userSpaceOnUse" x1="6.9641" y1="-175.65" x2="10.7544" y2="-175.65" gradientTransform="matrix(1 0 0 1 0 240)">
		<stop  offset="0" style="stop-color:#F69B46"/>
		<stop  offset="1" style="stop-color:#FAB566"/>
	</linearGradient>
	<path style="fill:url(#SVGID_00000104708438793525436970000005689998630109394088_);" d="M8.9,92.2c-1,0-1.9-0.8-1.9-1.9V38.4
		c0-1,0.8-1.9,1.9-1.9c1,0,1.9,0.8,1.9,1.9v51.9C10.8,91.4,9.9,92.2,8.9,92.2z"/>
	
		<linearGradient id="SVGID_00000052784511614755457180000008711015075838977950_" gradientUnits="userSpaceOnUse" x1="3.0444" y1="-175.65" x2="6.8347" y2="-175.65" gradientTransform="matrix(1 0 0 1 0 240)">
		<stop  offset="0" style="stop-color:#F69B46"/>
		<stop  offset="1" style="stop-color:#FAB566"/>
	</linearGradient>
	<path style="fill:url(#SVGID_00000052784511614755457180000008711015075838977950_);" d="M4.9,92.2c-1,0-1.9-0.8-1.9-1.9V38.4
		c0-1,0.8-1.9,1.9-1.9s1.9,0.8,1.9,1.9v51.9C6.8,91.4,6.1,92.2,4.9,92.2z"/>
	
		<linearGradient id="SVGID_00000142858927340137278300000002873852543726754178_" gradientUnits="userSpaceOnUse" x1="32.7226" y1="-193.75" x2="-7.0283" y2="-193.75" gradientTransform="matrix(1 0 0 1 0 240)">
		<stop  offset="0" style="stop-color:#F69B46"/>
		<stop  offset="1" style="stop-color:#FAB566"/>
	</linearGradient>
	<path style="fill:url(#SVGID_00000142858927340137278300000002873852543726754178_);" d="M8.9,91.5L8.9,91.5c-1,0-1.9-0.8-1.9-1.9
		V14.7C7.1,7.1,13.2,1,20.8,1h10.4c8.7,0,15.7,7,15.7,15.7v7.2H43v-7.3C43,10,37.7,4.7,31.1,4.7H20.8c-5.5,0-9.9,4.4-9.9,9.9v74.9
		C10.8,90.6,9.9,91.5,8.9,91.5z"/>
	<path class="st18" d="M40.8,19L40.8,19C40.9,19,40.9,19,40.8,19C40.9,19,40.9,19,40.8,19L40.8,19z"/>
	<path class="st18" d="M42.2,24.1h5.1c0.3,0,0.5-0.2,0.5-0.5l0,0c0-0.3-0.2-0.5-0.5-0.5h-5.1c-0.3,0-0.5,0.2-0.5,0.5l0,0
		C41.8,23.9,42.1,24.1,42.2,24.1z"/>
</g>
</svg>
