<?xml version="1.0" encoding="utf-8"?>
<!-- Generator: Adobe Illustrator 26.0.3, SVG Export Plug-In . SVG Version: 6.00 Build 0)  -->
<svg version="1.1" id="printArm" xmlns="http://www.w3.org/2000/svg" xmlns:xlink="http://www.w3.org/1999/xlink" x="0px" y="0px"
	 viewBox="0 0 18 330" style="enable-background:new 0 0 18 330;" xml:space="preserve">
<style type="text/css">
	.st0{fill:url(#Arm_00000169541773693602920370000008197742403596806061_);}
	.st1{fill:#CDE3E9;}
	.st2{fill:#3A6571;}
	.st3{fill:#4B8D95;}
	.st4{fill:#193035;}
</style>
<g id="ArmMechanism">
	
		<linearGradient id="Arm_00000105421156463076876970000015462732395663132587_" gradientUnits="userSpaceOnUse" x1="0.375" y1="-74.5" x2="17.625" y2="-74.5" gradientTransform="matrix(1 0 0 1 0 240)">
		<stop  offset="0" style="stop-color:#C5D9E5"/>
		<stop  offset="0.3945" style="stop-color:#A5BCC3"/>
		<stop  offset="0.5118" style="stop-color:#9BB2B8"/>
		<stop  offset="1" style="stop-color:#CFE6EF"/>
	</linearGradient>
	<path id="Arm" style="fill:url(#Arm_00000105421156463076876970000015462732395663132587_);" d="M17.6,321.4c0,5.1-4.4,9.2-9.6,8.6
		c-3.8-0.4-7-3.5-7.6-7.4c-0.4-2.8,0.6-5.4,2.4-7.2c0.7-0.7,1-1.7,1-2.6V18.3c0-1-0.3-2-1-2.6c-1.5-1.5-2.5-3.6-2.5-6
		c0-5.1,4.4-9.2,9.6-8.6c3.8,0.4,7,3.5,7.6,7.4c0.4,2.8-0.6,5.4-2.4,7.2c-0.7,0.7-1,1.6-1,2.6v294.4c0,0.9,0.3,2,1,2.6
		C16.7,317,17.6,319.1,17.6,321.4z"/>
	<g id="armBottomBolt">
		<circle class="st1" cx="9" cy="321.4" r="6.9"/>
		<g>
			<polygon class="st2" points="12.6,318.5 8.3,316.8 4.7,319.8 5.4,324.3 9.7,326 13.3,323.1 			"/>
		</g>
		<g>
			<polyline class="st3" points="12.6,318.5 8.3,316.8 4.7,319.8 5.4,324.3 			"/>
		</g>
		<g>
			<polygon class="st4" points="11.4,319.4 8.5,318.3 6.1,320.3 6.6,323.4 9.5,324.5 11.9,322.5 			"/>
		</g>
	</g>
	<g id="armTopBolt">
		<circle class="st1" cx="9" cy="9.5" r="6.9"/>
		<g>
			<g>
				<polygon class="st2" points="11.8,13.1 13.5,8.9 10.6,5.2 6.1,6 4.4,10.3 7.3,13.9 				"/>
			</g>
			<g>
				<polyline class="st3" points="11.8,13.1 13.5,8.9 10.6,5.2 6.1,6 				"/>
			</g>
			<g>
				<polygon class="st4" points="10.9,12 12.1,9 10.1,6.7 7,7.1 5.8,10.1 7.9,12.5 				"/>
			</g>
		</g>
	</g>
</g>
</svg>
