<?xml version="1.0" encoding="utf-8"?>
<!-- Generator: Adobe Illustrator 26.0.3, SVG Export Plug-In . SVG Version: 6.00 Build 0)  -->
<svg version="1.1" id="printScreen" xmlns="http://www.w3.org/2000/svg" xmlns:xlink="http://www.w3.org/1999/xlink" x="0px"
	 y="0px" viewBox="0 0 360 345" style="enable-background:new 0 0 360 345;" xml:space="preserve">
<style type="text/css">
	.st0{fill:#82C9CB;}
	.st1{opacity:0.3;}
	.st2{opacity:0.6;fill:none;stroke:#46B4B8;stroke-width:0.7753;stroke-miterlimit:10;enable-background:new    ;}
	.st3{fill:#45B8BB;}
	.st4{fill:#D2E2E9;}
	.st5{fill:#B6D2DF;}
	.st6{opacity:0.75;}
	.st7{fill:#596464;}
</style>
<g id="gridScreen">
	<path class="st0" d="M24.8,248.5c-5.5,0-10-4.5-10-10V18.2h333V242c0,4.2-3.4,7.6-7.6,7.6L24.8,248.5z"/>
	<g class="st1">
		<rect x="18.6" y="22" class="st2" width="21.6" height="19.3"/>
		<rect x="40.2" y="22" class="st2" width="21.6" height="19.3"/>
		<rect x="61.8" y="22" class="st2" width="21.6" height="19.3"/>
		<rect x="83.3" y="22" class="st2" width="21.6" height="19.3"/>
		<rect x="104.9" y="22" class="st2" width="21.6" height="19.3"/>
		<rect x="126.5" y="22" class="st2" width="21.6" height="19.3"/>
		<rect x="148.1" y="22" class="st2" width="21.6" height="19.3"/>
		<rect x="169.7" y="22" class="st2" width="21.6" height="19.3"/>
		<rect x="191.3" y="22" class="st2" width="21.6" height="19.3"/>
		<rect x="212.9" y="22" class="st2" width="21.6" height="19.3"/>
		<rect x="234.4" y="22" class="st2" width="21.6" height="19.3"/>
		<rect x="256" y="22" class="st2" width="21.6" height="19.3"/>
		<rect x="277.6" y="22" class="st2" width="21.6" height="19.3"/>
		<rect x="299.1" y="22" class="st2" width="21.6" height="19.3"/>
		<rect x="320.8" y="22" class="st2" width="21.6" height="19.3"/>
		<rect x="18.6" y="41.3" class="st2" width="21.6" height="19.3"/>
		<rect x="40.2" y="41.3" class="st2" width="21.6" height="19.3"/>
		<rect x="61.8" y="41.3" class="st2" width="21.6" height="19.3"/>
		<rect x="83.3" y="41.3" class="st2" width="21.6" height="19.3"/>
		<rect x="104.9" y="41.3" class="st2" width="21.6" height="19.3"/>
		<rect x="126.5" y="41.3" class="st2" width="21.6" height="19.3"/>
		<rect x="148.1" y="41.3" class="st2" width="21.6" height="19.3"/>
		<rect x="169.7" y="41.3" class="st2" width="21.6" height="19.3"/>
		<rect x="191.3" y="41.3" class="st2" width="21.6" height="19.3"/>
		<rect x="212.9" y="41.3" class="st2" width="21.6" height="19.3"/>
		<rect x="234.4" y="41.3" class="st2" width="21.6" height="19.3"/>
		<rect x="256" y="41.3" class="st2" width="21.6" height="19.3"/>
		<rect x="277.6" y="41.3" class="st2" width="21.6" height="19.3"/>
		<rect x="299.1" y="41.3" class="st2" width="21.6" height="19.3"/>
		<rect x="320.8" y="41.3" class="st2" width="21.6" height="19.3"/>
		<rect x="18.6" y="60.5" class="st2" width="21.6" height="19.3"/>
		<rect x="40.2" y="60.5" class="st2" width="21.6" height="19.3"/>
		<rect x="61.8" y="60.5" class="st2" width="21.6" height="19.3"/>
		<rect x="83.3" y="60.5" class="st2" width="21.6" height="19.3"/>
		<rect x="104.9" y="60.5" class="st2" width="21.6" height="19.3"/>
		<rect x="126.5" y="60.5" class="st2" width="21.6" height="19.3"/>
		<rect x="148.1" y="60.5" class="st2" width="21.6" height="19.3"/>
		<rect x="169.7" y="60.5" class="st2" width="21.6" height="19.3"/>
		<rect x="191.3" y="60.5" class="st2" width="21.6" height="19.3"/>
		<rect x="212.9" y="60.5" class="st2" width="21.6" height="19.3"/>
		<rect x="234.4" y="60.5" class="st2" width="21.6" height="19.3"/>
		<rect x="256" y="60.5" class="st2" width="21.6" height="19.3"/>
		<rect x="277.6" y="60.5" class="st2" width="21.6" height="19.3"/>
		<rect x="299.1" y="60.5" class="st2" width="21.6" height="19.3"/>
		<rect x="320.8" y="60.5" class="st2" width="21.6" height="19.3"/>
		<rect x="18.6" y="79.9" class="st2" width="21.6" height="19.3"/>
		<rect x="40.2" y="79.9" class="st2" width="21.6" height="19.3"/>
		<rect x="61.8" y="79.9" class="st2" width="21.6" height="19.3"/>
		<rect x="83.3" y="79.9" class="st2" width="21.6" height="19.3"/>
		<rect x="104.9" y="79.9" class="st2" width="21.6" height="19.3"/>
		<rect x="126.5" y="79.9" class="st2" width="21.6" height="19.3"/>
		<rect x="148.1" y="79.9" class="st2" width="21.6" height="19.3"/>
		<rect x="169.7" y="79.9" class="st2" width="21.6" height="19.3"/>
		<rect x="191.3" y="79.9" class="st2" width="21.6" height="19.3"/>
		<rect x="212.9" y="79.9" class="st2" width="21.6" height="19.3"/>
		<rect x="234.4" y="79.9" class="st2" width="21.6" height="19.3"/>
		<rect x="256" y="79.9" class="st2" width="21.6" height="19.3"/>
		<rect x="277.6" y="79.9" class="st2" width="21.6" height="19.3"/>
		<rect x="299.1" y="79.9" class="st2" width="21.6" height="19.3"/>
		<rect x="320.8" y="79.9" class="st2" width="21.6" height="19.3"/>
		<rect x="18.6" y="99.2" class="st2" width="21.6" height="19.3"/>
		<rect x="40.2" y="99.2" class="st2" width="21.6" height="19.3"/>
		<rect x="61.8" y="99.2" class="st2" width="21.6" height="19.3"/>
		<rect x="83.3" y="99.2" class="st2" width="21.6" height="19.3"/>
		<rect x="104.9" y="99.2" class="st2" width="21.6" height="19.3"/>
		<rect x="126.5" y="99.2" class="st2" width="21.6" height="19.3"/>
		<rect x="148.1" y="99.2" class="st2" width="21.6" height="19.3"/>
		<rect x="169.7" y="99.2" class="st2" width="21.6" height="19.3"/>
		<rect x="191.3" y="99.2" class="st2" width="21.6" height="19.3"/>
		<rect x="212.9" y="99.2" class="st2" width="21.6" height="19.3"/>
		<rect x="234.4" y="99.2" class="st2" width="21.6" height="19.3"/>
		<rect x="256" y="99.2" class="st2" width="21.6" height="19.3"/>
		<rect x="277.6" y="99.2" class="st2" width="21.6" height="19.3"/>
		<rect x="299.1" y="99.2" class="st2" width="21.6" height="19.3"/>
		<rect x="320.8" y="99.2" class="st2" width="21.6" height="19.3"/>
		<rect x="18.6" y="118.5" class="st2" width="21.6" height="19.3"/>
		<rect x="40.2" y="118.5" class="st2" width="21.6" height="19.3"/>
		<rect x="61.8" y="118.5" class="st2" width="21.6" height="19.3"/>
		<rect x="83.3" y="118.5" class="st2" width="21.6" height="19.3"/>
		<rect x="104.9" y="118.5" class="st2" width="21.6" height="19.3"/>
		<rect x="126.5" y="118.5" class="st2" width="21.6" height="19.3"/>
		<rect x="148.1" y="118.5" class="st2" width="21.6" height="19.3"/>
		<rect x="169.7" y="118.5" class="st2" width="21.6" height="19.3"/>
		<rect x="191.3" y="118.5" class="st2" width="21.6" height="19.3"/>
		<rect x="212.9" y="118.5" class="st2" width="21.6" height="19.3"/>
		<rect x="234.4" y="118.5" class="st2" width="21.6" height="19.3"/>
		<rect x="256" y="118.5" class="st2" width="21.6" height="19.3"/>
		<rect x="277.6" y="118.5" class="st2" width="21.6" height="19.3"/>
		<rect x="299.1" y="118.5" class="st2" width="21.6" height="19.3"/>
		<rect x="320.8" y="118.5" class="st2" width="21.6" height="19.3"/>
		<rect x="18.6" y="137.8" class="st2" width="21.6" height="19.3"/>
		<rect x="40.2" y="137.8" class="st2" width="21.6" height="19.3"/>
		<rect x="61.8" y="137.8" class="st2" width="21.6" height="19.3"/>
		<rect x="83.3" y="137.8" class="st2" width="21.6" height="19.3"/>
		<rect x="104.9" y="137.8" class="st2" width="21.6" height="19.3"/>
		<rect x="126.5" y="137.8" class="st2" width="21.6" height="19.3"/>
		<rect x="148.1" y="137.8" class="st2" width="21.6" height="19.3"/>
		<rect x="169.7" y="137.8" class="st2" width="21.6" height="19.3"/>
		<rect x="191.3" y="137.8" class="st2" width="21.6" height="19.3"/>
		<rect x="212.9" y="137.8" class="st2" width="21.6" height="19.3"/>
		<rect x="234.4" y="137.8" class="st2" width="21.6" height="19.3"/>
		<rect x="256" y="137.8" class="st2" width="21.6" height="19.3"/>
		<rect x="277.6" y="137.8" class="st2" width="21.6" height="19.3"/>
		<rect x="299.1" y="137.8" class="st2" width="21.6" height="19.3"/>
		<rect x="320.8" y="137.8" class="st2" width="21.6" height="19.3"/>
		<rect x="18.6" y="157.2" class="st2" width="21.6" height="19.3"/>
		<rect x="40.2" y="157.2" class="st2" width="21.6" height="19.3"/>
		<rect x="61.8" y="157.2" class="st2" width="21.6" height="19.3"/>
		<rect x="83.3" y="157.2" class="st2" width="21.6" height="19.3"/>
		<rect x="104.9" y="157.2" class="st2" width="21.6" height="19.3"/>
		<rect x="126.5" y="157.2" class="st2" width="21.6" height="19.3"/>
		<rect x="148.1" y="157.2" class="st2" width="21.6" height="19.3"/>
		<rect x="169.7" y="157.2" class="st2" width="21.6" height="19.3"/>
		<rect x="191.3" y="157.2" class="st2" width="21.6" height="19.3"/>
		<rect x="212.9" y="157.2" class="st2" width="21.6" height="19.3"/>
		<rect x="234.4" y="157.2" class="st2" width="21.6" height="19.3"/>
		<rect x="256" y="157.2" class="st2" width="21.6" height="19.3"/>
		<rect x="277.6" y="157.2" class="st2" width="21.6" height="19.3"/>
		<rect x="299.1" y="157.2" class="st2" width="21.6" height="19.3"/>
		<rect x="320.8" y="157.2" class="st2" width="21.6" height="19.3"/>
		<rect x="18.6" y="176.5" class="st2" width="21.6" height="19.3"/>
		<rect x="40.2" y="176.5" class="st2" width="21.6" height="19.3"/>
		<rect x="61.8" y="176.5" class="st2" width="21.6" height="19.3"/>
		<rect x="83.3" y="176.5" class="st2" width="21.6" height="19.3"/>
		<rect x="104.9" y="176.5" class="st2" width="21.6" height="19.3"/>
		<rect x="126.5" y="176.5" class="st2" width="21.6" height="19.3"/>
		<rect x="148.1" y="176.5" class="st2" width="21.6" height="19.3"/>
		<rect x="169.7" y="176.5" class="st2" width="21.6" height="19.3"/>
		<rect x="191.3" y="176.5" class="st2" width="21.6" height="19.3"/>
		<rect x="212.9" y="176.5" class="st2" width="21.6" height="19.3"/>
		<rect x="234.4" y="176.5" class="st2" width="21.6" height="19.3"/>
		<rect x="256" y="176.5" class="st2" width="21.6" height="19.3"/>
		<rect x="277.6" y="176.5" class="st2" width="21.6" height="19.3"/>
		<rect x="299.1" y="176.5" class="st2" width="21.6" height="19.3"/>
		<rect x="320.8" y="176.5" class="st2" width="21.6" height="19.3"/>
		<rect x="18.6" y="195.7" class="st2" width="21.6" height="19.3"/>
		<rect x="40.2" y="195.7" class="st2" width="21.6" height="19.3"/>
		<rect x="61.8" y="195.7" class="st2" width="21.6" height="19.3"/>
		<rect x="83.3" y="195.7" class="st2" width="21.6" height="19.3"/>
		<rect x="104.9" y="195.7" class="st2" width="21.6" height="19.3"/>
		<rect x="126.5" y="195.7" class="st2" width="21.6" height="19.3"/>
		<rect x="148.1" y="195.7" class="st2" width="21.6" height="19.3"/>
		<rect x="169.7" y="195.7" class="st2" width="21.6" height="19.3"/>
		<rect x="191.3" y="195.7" class="st2" width="21.6" height="19.3"/>
		<rect x="212.9" y="195.7" class="st2" width="21.6" height="19.3"/>
		<rect x="234.4" y="195.7" class="st2" width="21.6" height="19.3"/>
		<rect x="256" y="195.7" class="st2" width="21.6" height="19.3"/>
		<rect x="277.6" y="195.7" class="st2" width="21.6" height="19.3"/>
		<rect x="299.1" y="195.7" class="st2" width="21.6" height="19.3"/>
		<rect x="320.8" y="195.7" class="st2" width="21.6" height="19.3"/>
		<rect x="18.6" y="215.1" class="st2" width="21.6" height="19.3"/>
		<rect x="40.2" y="215.1" class="st2" width="21.6" height="19.3"/>
		<rect x="61.8" y="215.1" class="st2" width="21.6" height="19.3"/>
		<rect x="83.3" y="215.1" class="st2" width="21.6" height="19.3"/>
		<rect x="104.9" y="215.1" class="st2" width="21.6" height="19.3"/>
		<rect x="126.5" y="215.1" class="st2" width="21.6" height="19.3"/>
		<rect x="148.1" y="215.1" class="st2" width="21.6" height="19.3"/>
		<rect x="169.7" y="215.1" class="st2" width="21.6" height="19.3"/>
		<rect x="191.3" y="215.1" class="st2" width="21.6" height="19.3"/>
		<rect x="212.9" y="215.1" class="st2" width="21.6" height="19.3"/>
		<rect x="234.4" y="215.1" class="st2" width="21.6" height="19.3"/>
		<rect x="256" y="215.1" class="st2" width="21.6" height="19.3"/>
		<rect x="277.6" y="215.1" class="st2" width="21.6" height="19.3"/>
		<rect x="299.1" y="215.1" class="st2" width="21.6" height="19.3"/>
		<rect x="320.8" y="215.1" class="st2" width="21.6" height="19.3"/>
	</g>
	<path class="st3" d="M340.3,250l-315.4-1c-10.3,0-18.6-8.3-18.6-18.6V18.2c0-4.8,3.8-8.6,8.6-8.6h333c4.8,0,8.6,3.8,8.6,8.6v215.7
		C356.3,242.7,349.2,249.9,340.3,250z M23.3,31.3v196.5c0,3.1,2.5,5.6,5.6,5.7l302.5,0.9c4.3,0,7.8-3.5,7.8-7.7V31.4
		c0-2.5-2.1-4.7-4.7-4.7H28C25.4,26.6,23.3,28.8,23.3,31.3z"/>
</g>
<path id="mainFrame" class="st4" d="M18.7,232.8V29.3c0-4.2,3.5-7.7,7.7-7.7h309c4.2,0,7.7,3.5,7.7,7.7v205.6c0,2.9-2.4,5.3-5.3,5.3
	l-312.6-1C21.6,239.2,18.7,236.3,18.7,232.8z M357.6,12.4c-0.3-1.9-1.9-3.3-3.7-3.3c-2,0-3.7-1.9-3.7-3.8V4.8c0-2.1-1.7-3.8-3.8-3.8
	H14c-2.1,0-3.8,1.7-3.8,3.8V5c0,2.2-1.8,4-4.1,4.1c-1.8,0.1-3.2,1.5-3.4,3.3l0,0v0.3v316.7v0.5h0.1c0.3,1.9,1.9,3.3,3.7,3.3
	c2,0,3.7,1.9,3.7,3.8v0.4c0,2.1,1.7,3.8,3.8,3.8h332.4c2.1,0,3.8-1.7,3.8-3.8v-0.2c0-2.2,1.8-4,4.1-4.1c1.8-0.1,3.2-1.5,3.4-3.3l0,0
	v-0.3V12.9L357.6,12.4L357.6,12.4z"/>
<path id="shadowFrame" class="st5" d="M357.7,203.2v126.6l0,0c-0.2,1.8-1.6,3.2-3.4,3.3c-2.3,0.2-4.1,1.9-4.1,4.1v0.2
	c0,2.1-1.7,3.8-3.8,3.8H14c-2.1,0-3.8-1.7-3.8-3.8v-0.3c0-2-1.6-3.8-3.7-3.8c-2,0-3.5-1.4-3.7-3.3H2.7V149.5h16.1v83.2
	c0,3.6,2.9,6.5,6.5,6.5l312.7,1c2.9,0,5.3-2.4,5.3-5.3v-86h14.5L357.7,203.2L357.7,203.2z"/>
<g id="trackBottom">
	<g class="st6">
		<path d="M24.4,247.2h315.1c1.5,0,2.8,1.3,2.8,2.8l0,0c0,1.5-1.3,2.8-2.8,2.8H24.4c-1.5,0-2.8-1.3-2.8-2.8l0,0
			C21.6,248.5,22.9,247.2,24.4,247.2z"/>
	</g>
</g>
<g id="trackTop">
	<g>
		<path class="st7" d="M24.4,8h315.1c1.5,0,2.8,1.3,2.8,2.8l0,0c0,1.5-1.3,2.8-2.8,2.8H24.4c-1.5,0-2.8-1.3-2.8-2.8l0,0
			C21.6,9.3,22.9,8,24.4,8z"/>
	</g>
	<g class="st6">
		<path d="M24.4,8h315.1c1.5,0,2.8,1.3,2.8,2.8l0,0c0,1.5-1.3,2.8-2.8,2.8H24.4c-1.5,0-2.8-1.3-2.8-2.8l0,0C21.6,9.3,22.9,8,24.4,8z
			"/>
	</g>
</g>
</svg>
