<?xml version="1.0" encoding="utf-8"?>
<!-- Generator: Adobe Illustrator 26.0.3, SVG Export Plug-In . SVG Version: 6.00 Build 0)  -->
<svg version="1.1" id="Layer_1" xmlns="http://www.w3.org/2000/svg" xmlns:xlink="http://www.w3.org/1999/xlink" x="0px" y="0px"
	 viewBox="0 0 360 170" style="enable-background:new 0 0 360 170;" xml:space="preserve">
<style type="text/css">
	.st0{fill:#142C4D;}
	.st1{opacity:0.8;}
	.st2{fill:#AEDCDD;}
	.st3{opacity:0.6;}
	.st4{opacity:0.4;}
</style>
<g id="triFrame_00000069360486775067907790000014405921538337096594_">
	<g>
		<g>
			<path class="st0" d="M124,74.4c-2.1,0-4.2-0.5-6-1.4l-13.7-6.6c-0.6-0.3-1.1-0.6-1.6-1c-0.6-0.4-1.1-0.8-1.6-1.3
				c-0.8-0.8-1.5-1.7-2-2.7c-0.2-0.3-0.3-0.6-0.5-1l-4.7-10.3c-0.8-1.7-0.6-3.7,0.4-5.3c1-1.6,2.8-2.5,4.6-2.5h25.9l6.6,31.8h-7.5
				C124,74.2,124,74.4,124,74.4z"/>
			<path class="st0" d="M124.1,43.4l6.3,30.1H124c-2,0-3.9-0.4-5.7-1.3L107.5,67l-2.9-1.4c-0.5-0.3-1-0.6-1.5-0.9
				c-0.5-0.4-1-0.8-1.5-1.2c-0.7-0.7-1.4-1.6-1.9-2.5c-0.2-0.3-0.3-0.6-0.5-0.9l-1.1-2.4l-0.6-1.4l-1.1-2.5l-0.3-0.6l-1.6-3.4
				c-1.4-3.1,0.9-6.6,4.3-6.6h25.3 M125.4,41.7h-1.3H98.8c-2.2,0-4.2,1.1-5.4,2.9c-1.2,1.8-1.3,4.1-0.4,6.1l1.6,3.4l0.3,0.6l1.1,2.5
				l0.6,1.4l1.1,2.4c0.2,0.4,0.4,0.7,0.5,1.1c0.6,1,1.3,2,2.2,2.8c0.5,0.5,1.1,1,1.7,1.4c0.5,0.4,1.1,0.7,1.7,1l2.9,1.4l10.7,5.2
				c2,0.9,4.2,1.5,6.4,1.5h6.4h2.1l-0.4-2l-6.3-30.1L125.4,41.7L125.4,41.7z"/>
		</g>
		<g class="st1">
			<path class="st2" d="M115.6,43.4l-14,20.2c-0.7-0.7-1.4-1.6-1.9-2.5L112,43.3L115.6,43.4L115.6,43.4z"/>
		</g>
		<g class="st3">
			<polygon class="st2" points="108.2,43.4 98.1,57.8 97.5,56.5 106.7,43.4 			"/>
		</g>
		<g class="st4">
			<polygon class="st2" points="103.8,43.4 96.4,54 96.1,53.3 103.1,43.4 			"/>
		</g>
		<g>
			<path class="st2" d="M124,43.4l-16.5,23.7l-2.9-1.4c-0.5-0.3,15-22.4,15-22.4L124,43.4L124,43.4z"/>
		</g>
	</g>
	<g id="triFrame">
		<path class="st0" d="M136.3,4.2c1.8,0,3.4,1.3,3.7,3l7.7,37h113.5l28.8,94.3c0.1,0.4,0.2,0.8,0.2,1.2c0,2.1-1.7,4-4,4
			c-1.5,0-3-0.9-3.6-2.3L254,80.1c-1.3-2.6-3.1-3.6-5.2-3.6c-4,0-9,3.9-13.5,8.4c-6.2,6.2-11.3,13.5-11.5,13.9l0,0l-51.6,61.9
			c-0.9,1.1-2.1,1.9-3.4,2.4c-3.6,1.3-7.4,1.8-11.1,1.8c-12.1,0-24.4-5.6-31.4-8.6c-9.7-4.2-55.9-8.4-55.9-12.6
			c0,0-1.4-14.3,14.6-17.3c16-3,53.9-20.8,53.9-20.8l-6.7-32.1L126,43.4l-7.2-34.6c-0.5-2.4,1.3-4.6,3.7-4.6L136.3,4.2 M176.6,113.7
			c2.7,0,5.5-1.3,8.2-4.5l38.7-46.5c0-7.2-11.5-13.1-24.1-13.1h-50.5l8.3,39.8l0,0C159.4,99.9,167.8,113.7,176.6,113.7 M138.2,145.5
			c6.3,0,11.5-3.4,9.6-10.2l-5.9-22.4c-22.4,9.2-54.8,17.7-59.8,19c-5.1,1.3-5.5,8.4,0.8,9.2c0,0,45.9,3.4,53.1,4.2
			C136.7,145.5,137.5,145.5,138.2,145.5 M136.3,2.5h-13.7c-1.7,0-3.2,0.7-4.3,2s-1.5,3-1.1,4.6l7.2,34.6l6.3,30.1l6.4,30.8
			c-6.7,3.1-38.4,17.5-52.4,20.1c-13.8,2.6-16.5,13.5-16,19.1c0.1,3.3,6.4,4.7,30.2,8.6c11.1,1.8,22.6,3.7,26.6,5.5l0.8,0.4
			c7.2,3.2,19.3,8.4,31.3,8.4c4.2,0,8.2-0.7,11.7-1.9c1.6-0.6,3-1.6,4.2-2.9L225,100l0.1-0.1l0.1-0.2c0,0,5.2-7.5,11.3-13.6
			c6.6-6.6,10.3-8,12.3-8c1,0,2.4,0.3,3.6,2.7l28.5,61.3c0.9,2,2.9,3.3,5.1,3.3c3.1,0,5.7-2.5,5.7-5.7c0-0.6-0.1-1.1-0.3-1.7
			l-28.8-94.3l-0.4-1.2h-1.3H149l-7.3-35.7C141.2,4.3,138.9,2.5,136.3,2.5L136.3,2.5z M150.9,51.3h48.4c11.3,0,21.7,5.1,22.4,10.8
			l-38.3,46c-2.2,2.6-4.5,3.9-6.9,3.9c-3.5,0-7.3-2.7-10.8-7.6c-3.3-4.5-5.9-10.1-7-15.4v-0.1L150.9,51.3L150.9,51.3z M83.1,139.5
			c-1.9-0.3-3.1-1.3-3.2-2.8c-0.1-1.2,0.7-2.8,2.6-3.2c0.4-0.1,34.3-8.6,58.4-18.3l5.4,20.5c0.6,2.2,0.4,4-0.6,5.4
			c-1.3,1.8-4.1,2.8-7.4,2.8c-0.6,0-1.3,0-1.9-0.1C129.1,142.9,85.6,139.7,83.1,139.5L83.1,139.5z"/>
	</g>
	<g>
		<circle class="st0" cx="74.9" cy="140.3" r="3"/>
	</g>
	<g>
		<circle class="st0" cx="286.1" cy="139" r="3"/>
	</g>
</g>
</svg>
