<?xml version="1.0" encoding="utf-8"?>
<!-- Generator: Adobe Illustrator 26.0.2, SVG Export Plug-In . SVG Version: 6.00 Build 0)  -->
<svg version="1.1" id="Layer_1" xmlns="http://www.w3.org/2000/svg" xmlns:xlink="http://www.w3.org/1999/xlink" x="0px" y="0px"
	 width="360px" height="200px" viewBox="0 0 360 200" style="enable-background:new 0 0 360 200;" xml:space="preserve">
<style type="text/css">
	.st0{fill:#FAAA4F;}
	.st1{fill:#142C4D;}
</style>
<g id="streetFrame">
	<g>
		<path class="st0" d="M158,169.1c-0.1,0-0.2,0-0.3,0s-0.2,0-0.2,0l-86.8-12.8c-1.6-0.2-3-1.3-3.7-2.8c-0.6-1.5-0.5-3.3,0.5-4.6
			l61.6-86.4l-4.8-20.2c-0.1-0.4-0.1-1,0.4-1.7c1.1-1.3,3.8-2.2,5.8-2.2c2.3,0,2.8,1,3,1.7l4.3,18.2l101.7-11
			c-1.2-3.7-2.3-7.3-3.4-10.7l-0.1-0.2c-0.2-0.6-0.1-1.2,0.4-1.8c1.1-1.5,4.1-2.5,6.1-2.5c1.9,0,2.5,0.9,2.7,1.5
			c0.3,1,31.3,101,47.4,119.2c0.8,1,1.3,2.2,1.2,3.4c-0.1,1.3-0.7,2.4-1.6,3.3c-0.9,0.8-2,1.2-3.1,1.2c-1.4,0-2.7-0.6-3.6-1.6
			c-10.7-12.2-26.4-54.1-37.9-87.7l-86,96.2l-0.1,0.1c-0.1,0.1-0.2,0.2-0.3,0.3s-0.2,0.2-0.4,0.3c-0.1,0.1-0.3,0.2-0.4,0.3
			c-0.1,0-0.2,0.1-0.3,0.1s-0.1,0.1-0.2,0.1c-0.1,0-0.2,0.1-0.3,0.1s-0.2,0.1-0.3,0.1s-0.2,0.1-0.3,0.1c-0.2,0-0.5,0.1-0.8,0.1
			C158.3,169.1,158.2,169.1,158,169.1L158,169.1z M151.8,158.6L132,74.7L79.7,148L151.8,158.6z M160.5,154.4L244,60.9
			c-0.5-1.4-0.9-2.8-1.4-4.1l-0.1-0.4L140,67.5L160.5,154.4z"/>
		<path class="st1" d="M242.5,33c0.9,0,1.5,0.2,1.7,0.8c0.3,1,31.4,101.2,47.6,119.6c1.4,1.6,1.2,3.9-0.3,5.3
			c-0.7,0.6-1.6,0.9-2.5,0.9c-1,0-2.1-0.4-2.8-1.3c-11-12.5-27.5-57.2-38.2-89l-87.2,97.5l0,0c-0.1,0.1-0.1,0.2-0.2,0.2l0,0
			c-0.1,0.1-0.2,0.2-0.3,0.2c-0.1,0.1-0.2,0.1-0.3,0.2c-0.1,0-0.1,0.1-0.2,0.1c0,0-0.1,0-0.1,0.1c-0.1,0-0.2,0.1-0.2,0.1
			c-0.1,0-0.2,0.1-0.2,0.1c-0.1,0-0.2,0-0.2,0.1c-0.2,0-0.4,0.1-0.6,0.1c-0.1,0-0.2,0-0.3,0l0,0c-0.1,0-0.2,0-0.3,0s-0.1,0-0.2,0
			c0,0,0,0-0.1,0l-86.7-12.7c-1.3-0.2-2.4-1-2.9-2.2s-0.4-2.6,0.4-3.6l61.9-86.8l-4.9-20.6c-0.3-1.4,3-2.6,5.3-2.6
			c1,0,1.9,0.3,2,0.9l4.5,19.1L241,48.2c-2.2-6.8-3.6-11.2-3.8-12.1C236.6,34.6,240.2,33,242.5,33 M160,156.5l85.1-95.3
			c-0.7-2-1.3-4-1.9-5.8L138.8,66.7L160,156.5 M153.1,159.8l-20.7-87.5l-54.5,76.4L153.1,159.8 M242.5,31c-2.3,0-5.6,1.2-6.9,2.9
			c-0.6,0.8-0.8,1.8-0.5,2.7l0.1,0.2c0.9,3,1.9,6.2,3,9.6l-99.6,10.8l-4.1-17.3c-0.2-0.7-0.9-2.4-4-2.4c-1.9,0-5.2,0.8-6.6,2.5
			c-0.6,0.8-0.8,1.7-0.6,2.5l4.7,19.7l-61.3,86c-1.2,1.6-1.4,3.8-0.6,5.6s2.5,3.1,4.5,3.4l86.7,12.7c0.1,0,0.1,0,0.2,0
			c0.1,0,0.2,0,0.2,0c0.2,0,0.3,0,0.4,0c0.2,0,0.3,0,0.5,0c0.3,0,0.6-0.1,0.9-0.1c0.1,0,0.3-0.1,0.4-0.1c0.1,0,0.2-0.1,0.4-0.1
			c0.1,0,0.2-0.1,0.3-0.2c0.1,0,0.1-0.1,0.2-0.1c0.1-0.1,0.2-0.1,0.4-0.2c0.1-0.1,0.3-0.2,0.4-0.3c0.2-0.1,0.3-0.2,0.4-0.4l0,0l0,0
			c0.1-0.1,0.2-0.2,0.3-0.3l0,0l0,0l0,0l84.8-94.9c11.4,33.4,26.9,74.3,37.5,86.5c1.1,1.2,2.7,2,4.3,2c1.4,0,2.8-0.5,3.8-1.4
			c1.1-1,1.8-2.4,1.9-3.9c0.1-1.5-0.4-3-1.4-4.2c-6.5-7.4-16.6-30.1-29.4-65.7c-9.9-27.7-17.7-52.9-17.8-53.2
			C245.9,32.6,245.2,31,242.5,31L242.5,31z M141.2,68.4l100.6-10.9c0.3,1,0.7,2.1,1,3.2L161,152.3L141.2,68.4L141.2,68.4z
			 M81.4,147.3l50-70.2l19,80.3L81.4,147.3L81.4,147.3z"/>
	</g>
	<circle cx="72.6" cy="150.4" r="3"/>
	<circle cx="284.6" cy="150.4" r="3"/>
</g>
</svg>
