<?xml version="1.0" encoding="utf-8"?>
<!-- Generator: Adobe Illustrator 26.0.2, SVG Export Plug-In . SVG Version: 6.00 Build 0)  -->
<svg version="1.1" id="Layer_1" xmlns="http://www.w3.org/2000/svg" xmlns:xlink="http://www.w3.org/1999/xlink" x="0px" y="0px"
	 width="360px" height="200px" viewBox="0 0 360 200" style="enable-background:new 0 0 360 200;" xml:space="preserve">
<style type="text/css">
	.st0{fill:#142C4D;}
	.st1{opacity:0.8;}
	.st2{fill:#AEDCDD;}
	.st3{opacity:0.6;}
	.st4{opacity:0.4;}
</style>
<g id="triFrame_00000069360486775067907790000014405921538337096594_">
	<g>
		<g>
			<path class="st0" d="M125.6,90.2c-2.1,0-4.2-0.5-6-1.4l-13.8-6.6c-0.6-0.3-1.1-0.6-1.6-1c-0.6-0.4-1.1-0.8-1.6-1.3
				c-0.8-0.8-1.5-1.7-2-2.7c-0.2-0.3-0.3-0.6-0.5-1l-4.7-10.4c-0.8-1.7-0.6-3.7,0.4-5.3c1-1.6,2.8-2.5,4.6-2.5h26.1l6.6,32h-7.5
				C125.6,90,125.6,90.2,125.6,90.2z"/>
			<path class="st0" d="M125.7,59l6.3,30.3h-6.4c-2,0-3.9-0.4-5.7-1.3L109,82.8l-2.9-1.4c-0.5-0.3-1-0.6-1.5-0.9
				c-0.5-0.4-1-0.8-1.5-1.2c-0.7-0.7-1.4-1.6-1.9-2.5c-0.2-0.3-0.3-0.6-0.5-0.9l-1.1-2.4L99,72.1l-1.1-2.5L97.6,69L96,65.6
				c-1.4-3.1,0.9-6.6,4.3-6.6H125.7 M127,57.3h-1.3h-25.4c-2.2,0-4.2,1.1-5.4,2.9c-1.2,1.8-1.3,4.1-0.4,6.1l1.6,3.4l0.3,0.6l1.1,2.5
				l0.6,1.4l1.1,2.4c0.2,0.4,0.4,0.7,0.5,1.1c0.6,1,1.3,2,2.2,2.8c0.5,0.5,1.1,1,1.7,1.4c0.5,0.4,1.1,0.7,1.7,1l2.9,1.4l10.8,5.2
				c2,0.9,4.2,1.5,6.4,1.5h6.4h2.1l-0.4-2l-6.3-30.3L127,57.3L127,57.3z"/>
		</g>
		<g class="st1">
			<path class="st2" d="M117.2,59l-14.1,20.3c-0.7-0.7-1.4-1.6-1.9-2.5l12.4-17.9L117.2,59L117.2,59z"/>
		</g>
		<g class="st3">
			<polygon class="st2" points="109.7,59 99.6,73.5 99,72.2 108.2,59 			"/>
		</g>
		<g class="st4">
			<polygon class="st2" points="105.3,59 97.9,69.7 97.6,69 104.6,59 			"/>
		</g>
		<g>
			<path class="st2" d="M125.6,59L109,82.8l-2.9-1.4c-0.5-0.3,15.1-22.5,15.1-22.5L125.6,59L125.6,59z"/>
		</g>
	</g>
	<g id="triFrame">
		<path class="st2" d="M157.6,182.1c-11.9,0-23.9-5.2-31.1-8.4l-0.8-0.4c-4.2-1.8-15.8-3.7-27-5.6c-21.1-3.4-29.7-5.1-29.7-7.9
			c0-0.1-1.3-15.1,15.4-18.2c14.7-2.7,48.5-18.2,53.4-20.5l-20.1-96.8c-0.3-1.4,0.1-2.8,0.9-3.9c0.9-1.1,2.2-1.7,3.6-1.7H136
			c2.2,0,4.1,1.6,4.6,3.7l7.6,36.6h114.1l29.1,95.5c0.1,0.5,0.2,0.9,0.2,1.4c0,2.7-2.2,4.8-4.8,4.8c-1.9,0-3.6-1.1-4.4-2.8
			l-28.7-61.7c-1.1-2.1-2.5-3.1-4.4-3.1c-3.1,0-7.6,2.8-13,8.2c-6.2,6.2-11.5,13.8-11.5,13.8l-0.1,0.1l0,0l-51.8,62.3
			c-1,1.2-2.3,2.1-3.8,2.7C165.6,181.5,161.7,182.1,157.6,182.1z M141.1,130.1C117,140,82,148.8,81.7,148.9
			c-2.3,0.6-3.3,2.5-3.2,4.1c0.1,1.9,1.6,3.3,4,3.6c0.4,0,46.3,3.4,53.4,4.2c0.7,0.1,1.4,0.1,2,0.1c3.6,0,6.6-1.2,8.1-3.2
			c1.2-1.6,1.5-3.6,0.8-6.1L141.1,130.1z M157.8,105.3c2.2,9.9,10.3,23.7,18.8,23.7c2.7,0,5.2-1.4,7.5-4.2l38.7-46.5
			c-0.3-6.3-11.3-12.1-23.4-12.1h-49.8L157.8,105.3z"/>
		<path class="st0" d="M136,19.6c1.8,0,3.4,1.3,3.7,3l7.7,37.2h114.2l29,94.9c0.1,0.4,0.2,0.8,0.2,1.2c0,2.1-1.7,4-4,4
			c-1.5,0-3-0.9-3.6-2.3l-28.8-61.7c-1.3-2.6-3.1-3.6-5.2-3.6c-4,0-9.1,3.9-13.6,8.5c-6.2,6.2-11.4,13.6-11.6,14l0,0l-51.9,62.3
			c-0.9,1.1-2.1,1.9-3.4,2.4c-3.6,1.3-7.4,1.8-11.2,1.8c-12.2,0-24.5-5.6-31.6-8.7c-9.8-4.2-56.2-8.5-56.2-12.7
			c0,0-1.4-14.4,14.7-17.4s54.2-20.9,54.2-20.9l-6.7-32.3L125.7,59l-7.2-34.8c-0.5-2.4,1.3-4.6,3.7-4.6H136 M176.5,129.8
			c2.7,0,5.5-1.3,8.2-4.5l38.9-46.8c0-7.2-11.6-13.2-24.2-13.2h-50.8l8.3,40l0,0C159.2,115.9,167.7,129.8,176.5,129.8 M137.9,161.7
			c6.3,0,11.6-3.4,9.7-10.3l-5.9-22.5c-22.5,9.3-55.1,17.8-60.2,19.1s-5.5,8.5,0.8,9.3c0,0,46.2,3.4,53.4,4.2
			C136.4,161.7,137.2,161.7,137.9,161.7 M136,17.9h-13.8c-1.7,0-3.2,0.7-4.3,2c-1.1,1.3-1.5,3-1.1,4.6l7.2,34.8l6.3,30.3l6.4,31
			c-6.6,3.1-38.5,17.6-52.6,20.2C70.2,143.4,67.5,154.4,68,160c0.1,3.3,6.4,4.7,30.4,8.7c11.2,1.8,22.7,3.7,26.8,5.5l0.8,0.4
			c7.2,3.2,19.4,8.4,31.5,8.4c4.2,0,8.2-0.7,11.8-1.9c1.6-0.6,3-1.6,4.2-2.9l51.8-62.3l0.1-0.1l0.1-0.2c0,0,5.2-7.5,11.4-13.7
			c6.6-6.6,10.4-8,12.4-8c1,0,2.4,0.3,3.6,2.7l28.7,61.7c0.9,2,2.9,3.3,5.1,3.3c3.1,0,5.7-2.5,5.7-5.7c0-0.6-0.1-1.1-0.3-1.7
			l-29-94.9l-0.4-1.2h-1.3H148.8l-7.4-35.9C140.9,19.7,138.6,17.9,136,17.9L136,17.9z M150.7,67h48.7c11.4,0,21.8,5.1,22.5,10.9
			l-38.5,46.3c-2.2,2.6-4.5,3.9-6.9,3.9c-3.5,0-7.3-2.7-10.9-7.6c-3.3-4.5-5.9-10.2-7-15.5v-0.1L150.7,67L150.7,67z M82.5,155.7
			c-1.9-0.3-3.1-1.3-3.2-2.8c-0.1-1.2,0.7-2.8,2.6-3.2c0.4-0.1,34.5-8.7,58.7-18.4l5.4,20.6c0.6,2.2,0.4,4-0.6,5.4
			c-1.3,1.8-4.1,2.8-7.4,2.8c-0.6,0-1.3,0-1.9-0.1C128.8,159.1,85,155.9,82.5,155.7L82.5,155.7z"/>
	</g>
	<g>
		<circle class="st0" cx="74.2" cy="156.5" r="3"/>
	</g>
	<g>
		<circle class="st0" cx="286.7" cy="155.2" r="3"/>
	</g>
</g>
</svg>
