<?xml version="1.0" encoding="utf-8"?>
<!-- Generator: Adobe Illustrator 26.0.2, SVG Export Plug-In . SVG Version: 6.00 Build 0)  -->
<svg version="1.1" id="Layer_1" xmlns="http://www.w3.org/2000/svg" xmlns:xlink="http://www.w3.org/1999/xlink" x="0px" y="0px"
	 width="360px" height="200px" viewBox="0 0 360 200" style="enable-background:new 0 0 360 200;" xml:space="preserve">
<style type="text/css">
	.st0{fill:#AEDCDD;}
	.st1{fill:#142C4D;}
	.st2{opacity:0.2;enable-background:new    ;}
	.st3{fill:#FAFA4F;}
	.st4{opacity:0.6;}
	.st5{fill:#FFFFFF;}
	.st6{fill:#FAAA4F;}
</style>
<g id="wagonFrame">
	<g id="wagonLight">
		<g>
			<g>
				<path class="st0" d="M284.8,59.6c-1.7,0-3.1-1.4-3.1-3.1s1.4-3.2,3.1-3.2l7.8-0.1c1.8,0,3.2,1.4,3.2,3.1c0,0.3,0,0.7-0.1,1
					c-0.4,1.3-1.6,2.2-3,2.2L284.8,59.6z"/>
				<path class="st1" d="M292.5,54.1c1.2,0,2.2,1,2.2,2.2c0,0.2,0,0.5-0.1,0.7c-0.3,0.9-1.1,1.6-2.1,1.6l-7.8,0.1l0,0
					c-1.2,0-2.2-1-2.2-2.2s1-2.3,2.2-2.3L292.5,54.1L292.5,54.1 M292.5,52.3L292.5,52.3L292.5,52.3l-7.8,0.1c-2.2,0-4,1.9-4,4.1
					s1.8,4,4,4l7.8-0.1c1.8,0,3.3-1.2,3.8-2.8c0.1-0.4,0.2-0.8,0.2-1.3C296.6,54.1,294.7,52.3,292.5,52.3L292.5,52.3z"/>
			</g>
		</g>
		<path class="st2" d="M294.8,56.4c0,0.2,0,0.5-0.1,0.7c-0.3,0.9-1.1,1.6-2.1,1.6l-7.8,0.1c-1.2,0-2.3-1-2.3-2.2c0-0.1,0-0.3,0-0.4
			h12.2C294.8,56.2,294.8,56.3,294.8,56.4z"/>
		<g>
			<path class="st3" d="M299.2,64.2c-2.5,0-4.6-2.1-4.6-4.6v-6.1c0-2.5,2.1-4.6,4.6-4.6h1.1c2.5,0,4.6,2.1,4.6,4.6v6.1
				c0,2.5-2.1,4.6-4.6,4.6H299.2z"/>
			<path class="st1" d="M300.4,49.8c2,0,3.7,1.7,3.7,3.7v6.1c0,2-1.7,3.7-3.7,3.7h-1.1c-2,0-3.7-1.7-3.7-3.7v-6.1
				c0-2,1.7-3.7,3.7-3.7H300.4 M300.4,48h-1.1c-3,0-5.5,2.5-5.5,5.5v6.1c0,3,2.5,5.5,5.5,5.5h1.1c3,0,5.5-2.5,5.5-5.5v-6.1
				C305.9,50.5,303.4,48,300.4,48L300.4,48z"/>
		</g>
		<path class="st2" d="M304.1,58.5v2.1c0,1.5-1.2,2.7-2.7,2.7h-3.2c-1.5,0-2.7-1.2-2.7-2.7v-8.1c0-0.4,0.1-0.7,0.2-1.1v6
			c0,1.5,1.2,2.7,2.7,2.7h3.2C302.7,60.2,303.7,59.5,304.1,58.5z"/>
		<g>
			<path class="st0" d="M295.8,68.3c-2,0-3.6-1.6-3.6-3.6V48.5c0-2,1.6-3.6,3.6-3.6s3.6,1.6,3.6,3.6v16.2
				C299.4,66.6,297.8,68.3,295.8,68.3z"/>
			<path class="st1" d="M295.8,45.8c1.5,0,2.7,1.2,2.7,2.7v16.2c0,1.5-1.2,2.7-2.7,2.7s-2.7-1.2-2.7-2.7V48.5
				C293.1,47,294.3,45.8,295.8,45.8 M295.8,44c-2.5,0-4.5,2-4.5,4.5v16.2c0,2.5,2,4.5,4.5,4.5s4.5-2,4.5-4.5V48.5
				C300.3,46,298.3,44,295.8,44L295.8,44z"/>
		</g>
		<path class="st2" d="M298.5,55.7v9c0,1.5-1.2,2.7-2.7,2.7s-2.7-1.2-2.7-2.7v-9c0,1.5,1.2,1.8,2.7,1.8
			C297.3,57.5,298.5,57.1,298.5,55.7z"/>
		<g class="st4">
			<path class="st5" d="M293.1,51.2v-2.7c0-1.5,1.2-2.7,2.7-2.7s2.7,1.2,2.7,2.7v2.7c0-1.5-1.2-2.7-2.7-2.7
				C294.3,48.5,293.1,49.7,293.1,51.2z"/>
		</g>
		<circle class="st5" cx="302.1" cy="52.1" r="1.8"/>
	</g>
	<g id="wagonBikeframe">
		<g>
			<path class="st6" d="M61.3,156.8c-1.8,0-3.4-1.1-4-2.8L34.4,89.7c-0.5-1.3-0.3-2.8,0.5-3.9c0.8-1.1,2.1-1.8,3.5-1.8h94.7
				c1.3,0,2.5,0.6,3.4,1.6c6,7.7,23.2,12.8,49.7,14.9c1.5,0.1,3.1,0.2,4.6,0.3l-15-45.8c-0.7-2.2,0.5-4.7,2.7-5.4
				c0.4-0.1,0.9-0.2,1.3-0.2c1.9,0,3.5,1.2,4.1,2.9l16,48.9c3.8,0.1,7.7,0.2,11.6,0.2c7.3,0,12.5-0.2,14-0.3
				c4.1-3.5,8.6-7.3,13.3-11.5c19.4-17.4,36.2-35.1,36.9-35.8c0.2-0.2,0.4-0.3,0.5-0.5l-1.4-3.4c-0.4-1.1-0.4-2.2,0-3.3
				c0.4-1.1,1.3-1.9,2.3-2.3c0.5-0.2,1.1-0.3,1.6-0.3c1.7,0,3.3,1,4,2.7L325.4,151c0.4,1.1,0.4,2.2,0,3.3s-1.3,1.9-2.3,2.3
				c-0.5,0.2-1.1,0.3-1.6,0.3c-1.7,0-3.3-1-4-2.7l-27-65.8l-75.6,67.3c-0.5,0.5-1.2,0.8-1.9,1h-0.1c-0.1,0-0.2,0-0.2,0
				c-0.1,0-0.2,0-0.3,0c0,0-0.1,0-0.2,0L61.3,156.8z M76.5,148.3L60.3,92.5H44.4l19.9,55.8H76.5z M88.7,148.3c0.3-0.5,0.7-1,1.2-1.4
				c4.7-3.6,10.3-7,16.6-10.1L93.6,92.6H69.1l16.2,55.8h3.4L88.7,148.3L88.7,148.3z M153.2,133c-3.5,0-7.5,0.4-11.7,1.1
				c-12.8,2.2-27.2,7.6-38.4,14.2h103l-6.2-19c-5.1,2.5-9.5,3.8-13,3.8h-33.7L153.2,133L153.2,133z M214.1,145.1l73-65l-7.5-18.2
				c-5.2,5.4-19.3,19.7-35.2,34c-14.9,13.4-27,23-36.9,29.1L214.1,145.1z M114.4,133.2c6.9-2.9,14.2-5.1,21.1-6.7l-9.9-34h-23
				L114.4,133.2z M143.9,125.1c3.3-0.4,6.4-0.6,9.3-0.6h33.7c1.7,0,4.9-0.6,10.3-3.4l-3.8-11.5c-2.7-0.1-5.4-0.3-8.1-0.5
				c-23.5-1.8-40.2-6.1-49.9-12.7L143.9,125.1z M204.8,116.6c2.9-1.9,6.1-4.1,9.5-6.7c-1,0-1.9,0-3,0c-2.9,0-5.9,0-8.7-0.1
				L204.8,116.6z"/>
			<path class="st1" d="M278.7,44.9c1.3,0,2.6,0.8,3.1,2.1l42.7,104.3c0.7,1.7-0.1,3.7-1.8,4.4c-0.4,0.2-0.8,0.3-1.3,0.3
				c-1.3,0-2.6-0.8-3.1-2.1L290.9,87l-76.5,68.1c-0.4,0.4-1,0.6-1.5,0.8h-0.1h-0.1c-0.1,0-0.2,0-0.3,0c-0.1,0-0.1,0-0.2,0h-0.1H61.3
				c-1.4,0-2.7-0.9-3.2-2.2L35.2,89.4c-0.4-1-0.2-2.2,0.4-3.1c0.6-0.9,1.7-1.4,2.8-1.4h94.7c1,0,2,0.5,2.6,1.3
				c6.2,7.9,23.6,13.1,50.4,15.2c2,0.2,4,0.3,5.9,0.4l-15.4-47.1c-0.6-1.8,0.4-3.7,2.2-4.3c0.3-0.1,0.7-0.2,1-0.2
				c1.4,0,2.7,0.9,3.2,2.3l16.2,49.5c4.5,0.1,8.6,0.2,12.3,0.2c7.9,0,13.4-0.2,14.3-0.3c4.1-3.4,8.6-7.3,13.6-11.8
				c19.7-17.7,36.8-35.7,36.9-35.9c0.3-0.3,0.6-0.6,1-0.7l-1.7-4.1c-0.7-1.7,0.1-3.7,1.8-4.4C277.8,45,278.2,44.9,278.7,44.9
				 M213.7,146.6l74.4-66.3l0,0l-8.2-20.1c-4.2,4.4-19.2,19.8-36.1,35c-15.1,13.6-27.5,23.3-37.4,29.4L213.7,146.6 M113.8,134.4
				c7.5-3.1,15.3-5.6,22.8-7.2l-10.4-35.6h-24.9L113.8,134.4 M84.7,149.2h4.7c0.2-0.6,0.6-1.1,1.1-1.6c4.9-3.8,10.8-7.3,17.1-10.4
				L94.3,91.6H67.9L84.7,149.2 M63.6,149.2h14L60.9,91.6H43.1L63.6,149.2 M143.3,126.1c3.5-0.5,6.8-0.7,9.9-0.7h33.7
				c2.1,0,5.6-0.8,11.4-3.9l-4.2-12.8c-2.8-0.1-5.7-0.3-8.7-0.5c-25.2-1.9-42.5-6.7-51.6-14.1L143.3,126.1 M204.3,118
				c3.6-2.3,7.8-5.2,12.7-9c-1.7,0-3.6,0-5.7,0c-3,0-6.4,0-10-0.1L204.3,118 M100,149.2h107.4l-6.9-21.2c-5.4,2.8-9.9,4.1-13.5,4.1
				h-33.7c-3.7,0-7.7,0.4-11.8,1.1c0,0,0,0-0.1,0C127.5,135.6,111.8,141.6,100,149.2 M278.7,43.1c-0.7,0-1.3,0.1-2,0.4
				c-1.3,0.5-2.3,1.5-2.8,2.8s-0.5,2.7,0,4l1.2,2.8l-0.1,0.1c-0.2,0.2-17.3,18.2-36.8,35.8c-4.6,4.1-9,7.9-13,11.3
				c-1.8,0.1-6.8,0.3-13.7,0.3c-3.7,0-7.4-0.1-10.9-0.2l-15.8-48.3c-0.7-2.1-2.7-3.6-4.9-3.6c-0.5,0-1.1,0.1-1.6,0.3
				c-1.3,0.4-2.4,1.3-3,2.6c-0.6,1.2-0.7,2.6-0.3,3.9l14.6,44.6c-1.1-0.1-2.2-0.1-3.2-0.2c-25.9-2-43.3-7.1-49.1-14.5
				c-1-1.3-2.5-2-4.1-2H38.5c-1.7,0-3.3,0.8-4.2,2.2c-1,1.4-1.2,3.1-0.6,4.7l22.9,64.3c0.7,2.1,2.7,3.4,4.9,3.4h150.8h0.1
				c0.1,0,0.2,0,0.4,0c0.1,0,0.2,0,0.3,0c0.1,0,0.2,0,0.2,0c0.1,0,0.1,0,0.2,0c0.9-0.2,1.6-0.6,2.3-1.2l74.6-66.5l26.4,64.6
				c0.8,2,2.7,3.2,4.8,3.2c0.7,0,1.3-0.1,2-0.4c1.3-0.5,2.3-1.5,2.8-2.8s0.5-2.7,0-4L283.5,46.3C282.7,44.3,280.8,43.1,278.7,43.1
				L278.7,43.1z M208.6,125.4c9.8-6.2,21.7-15.6,36.4-28.8c15-13.5,28.5-27.1,34.3-33.1l6.7,16.3l-71.5,63.7L208.6,125.4
				L208.6,125.4z M103.7,93.4h21.2l9.4,32.5c-6.4,1.5-13,3.5-19.4,6.1L103.7,93.4L103.7,93.4z M70.3,93.4h22.6l12.5,42.9
				c-6.1,3-11.5,6.4-16.1,9.9c-0.4,0.3-0.8,0.7-1.1,1.2H86L70.3,93.4L70.3,93.4z M45.7,93.4h13.9l15.7,54H64.9L45.7,93.4L45.7,93.4z
				 M144.6,124.1l-7.5-25.8c10,6,26.2,9.8,48.3,11.5c2.4,0.2,4.9,0.3,7.5,0.5l3.3,10.2c-4.9,2.4-7.7,3-9.2,3h-33.7
				C150.5,123.6,147.6,123.7,144.6,124.1L144.6,124.1z M205.3,115.2l-1.5-4.4c2.5,0,5,0.1,7.5,0.1c0.1,0,0.2,0,0.2,0
				C209.4,112.4,207.3,113.9,205.3,115.2L205.3,115.2z M141.6,135L141.6,135c4.2-0.7,8.1-1.1,11.6-1.1h33.7c3.5,0,7.6-1.1,12.5-3.4
				l5.5,16.9h-98.4C117.2,141.6,130.1,137,141.6,135L141.6,135z"/>
		</g>
	</g>
</g>
</svg>
