<?xml version="1.0" encoding="utf-8"?>
<!-- Generator: Adobe Illustrator 26.0.2, SVG Export Plug-In . SVG Version: 6.00 Build 0)  -->
<svg version="1.1" id="Layer_1" xmlns="http://www.w3.org/2000/svg" xmlns:xlink="http://www.w3.org/1999/xlink" x="0px" y="0px"
	 width="360px" height="200px" viewBox="0 0 360 200" style="enable-background:new 0 0 360 200;" xml:space="preserve">
<style type="text/css">
	.st0{fill:#AEDCDD;stroke:#142C4D;stroke-width:1.6961;stroke-linecap:round;stroke-linejoin:round;stroke-miterlimit:10;}
	.st1{fill:#71AFAF;}
	.st2{fill:#EE0000;}
	.st3{fill:#142C4D;}
	.st4{fill:#27579A;}
	.st5{opacity:0.6;}
	.st6{fill:#AEDCDD;}
	.st7{opacity:0.57;}
	.st8{fill:#FFFFFF;}
	.st9{opacity:0.2;}
	.st10{fill:#142C4D;stroke:#142C4D;stroke-width:1.6961;stroke-miterlimit:10;}
	.st11{fill:#08192D;}
</style>
<g id="triHandles_00000052784437709885703770000007912044441334009239_">
	<g>
		<path class="st0" d="M204.8,99.9c-2.2,0-4.5-0.5-6.8-0.9c-5.4-1.1-18.1-1.8-35.9,0c-1.2,0.1-2.2-0.7-2.3-1.9
			c-0.1-1.2,0.7-2.2,1.9-2.3c18.3-1.8,31.5-1.1,37.2,0c6,1.2,9.6,2,14.4-3.9c5.6-6.9,18-17.2,18.5-17.7c0.9-0.7,2.2-0.6,3,0.3
			c0.7,0.9,0.6,2.2-0.3,3c-0.1,0.1-12.6,10.5-17.9,17.1C212.5,98.5,208.6,99.9,204.8,99.9z"/>
	</g>
	<path class="st1" d="M233.9,75.8c-0.1,0.1-12.7,10.6-18.1,17.2c-3.4,4.2-6.8,6-11.1,6c-2.2,0-4.3-0.4-6.6-0.9
		c-3-0.6-8.3-1.1-15.4-1.1c-5.8,0-12.7,0.3-20.8,1.1c-0.7,0.1-1.3-0.4-1.4-1.1c0-0.1,0-0.3,0-0.4c0.3,0.2,0.6,0.3,0.9,0.3
		c8-0.8,15-1.1,20.8-1.1c7.1,0,12.4,0.5,15.4,1.1c2.3,0.5,4.4,0.9,6.6,0.9c4.3,0,7.7-1.9,11.1-6c5.4-6.7,17.9-17.1,18.1-17.2
		c0.2-0.2,0.4-0.4,0.4-0.7c0.1,0.1,0.1,0.1,0.2,0.2C234.5,74.6,234.5,75.4,233.9,75.8z"/>
	<g>
		<g>
			<path class="st2" d="M137.1,102.2c-0.1,0-0.2,0-0.3-0.1c-0.2-0.1-0.4-0.2-0.5-0.5c-0.1-0.2-0.1-0.4,0-0.6
				c1.5-3.6,5.6-5.8,12.1-6.5c1.3-0.1,2.7-0.2,4.2-0.2c2.7,0,4.7,0.2,4.9,0.3c0.5,0.1,0.8,0.5,0.7,0.9c-0.1,0.4-0.4,0.7-0.8,0.7
				h-0.1c-0.2,0-2.1-0.2-4.6-0.2c-4.6,0-12.7,0.7-14.7,5.6C137.7,102,137.4,102.2,137.1,102.2z"/>
			<path class="st3" d="M152.5,94.7c2.8,0,4.8,0.2,4.8,0.3c0.2,0,0.4,0.2,0.4,0.5c0,0.2-0.2,0.4-0.4,0.4c0,0,0,0-0.1,0
				c-0.1,0-2-0.2-4.7-0.2c-5.2,0-13.1,0.9-15.1,5.9c-0.1,0.2-0.2,0.3-0.4,0.3c-0.1,0-0.1,0-0.2,0c-0.2-0.1-0.3-0.3-0.2-0.6
				c1.4-3.4,5.5-5.6,11.7-6.2C149.8,94.8,151.3,94.7,152.5,94.7 M152.5,93.9c-1.5,0-2.9,0.1-4.2,0.2c-6.6,0.7-10.9,3-12.4,6.8
				c-0.1,0.3-0.1,0.7,0,1c0.1,0.3,0.4,0.6,0.7,0.7c0.2,0.1,0.3,0.1,0.5,0.1c0.5,0,1-0.3,1.2-0.8c1.9-4.7,9.8-5.4,14.3-5.4
				c2.6,0,4.5,0.2,4.6,0.2c0,0,0.1,0,0.2,0c0.6,0,1.2-0.5,1.3-1.1c0-0.3-0.1-0.7-0.3-0.9c-0.2-0.3-0.5-0.4-0.8-0.5
				C157.4,94.1,155.3,93.9,152.5,93.9L152.5,93.9z"/>
		</g>
	</g>
	<g>
		<g>
			<path class="st2" d="M140.2,105.1c-0.1,0-0.1,0-0.2,0c-0.2-0.1-0.4-0.2-0.5-0.4c-0.1-0.2-0.2-0.4-0.1-0.6c0.9-3.8,4.7-6.6,11-8.2
				c4.6-1.2,9-1.3,9-1.3l0,0c0.5,0,0.9,0.4,0.9,0.8c0,0.2-0.1,0.4-0.2,0.6c-0.2,0.2-0.4,0.3-0.6,0.3s-16.5,0.6-18.4,8.2
				c-0.1,0.3-0.4,0.6-0.7,0.6L140.2,105.1z"/>
			<path class="st3" d="M159.4,95c0.2,0,0.4,0.2,0.4,0.4c0,0.2-0.2,0.4-0.4,0.4s-16.8,0.5-18.8,8.5c0,0.2-0.2,0.3-0.3,0.3
				c0,0,0,0-0.1,0h-0.1c-0.2-0.1-0.4-0.3-0.3-0.5c0.9-3.6,4.6-6.3,10.7-7.9C155,95.1,159.4,95,159.4,95L159.4,95 M159.4,94.2
				L159.4,94.2L159.4,94.2c-0.2,0-4.6,0.1-9.1,1.3c-6.4,1.6-10.3,4.6-11.3,8.5c-0.1,0.3,0,0.7,0.1,1c0.2,0.3,0.5,0.5,0.8,0.6
				c0.1,0,0.2,0,0.3,0c0.1,0,0.1,0,0.2,0c0.5-0.1,0.9-0.5,1.1-1c1.8-7.3,17.8-7.9,18-7.9c0.3,0,0.6-0.1,0.9-0.4
				c0.2-0.2,0.4-0.6,0.4-0.9C160.7,94.7,160.1,94.2,159.4,94.2L159.4,94.2z"/>
		</g>
	</g>
	<g>
		<path class="st4" d="M154.5,96.8c-0.5-0.3-0.7-0.8-0.7-1.4c0-0.8,0.6-1.5,1.4-1.7l4-0.8l-1.6,5.9L154.5,96.8z"/>
		<path class="st3" d="M158.5,93.5l-1.3,4.7l-2.5-1.7c-0.3-0.2-0.6-0.6-0.6-1.1c0-0.6,0.4-1.1,1-1.3L158.5,93.5 M159.6,92.4
			l-1.3,0.3l-3.3,0.6c-1,0.2-1.7,1.1-1.7,2.1c0,0.7,0.3,1.4,0.9,1.8l2.5,1.7l1,0.7l0.3-1.2l1.3-4.7L159.6,92.4L159.6,92.4z"/>
	</g>
	<g>
		<path class="st4" d="M157.6,102v-1.7c0-5.8,4.7-10.6,10.6-10.6h6.3c2.8,0,5.1,2.3,5.1,5.1v7.2C179.6,102,157.6,102,157.6,102z"/>
		<path class="st3" d="M174.5,90.5c2.4,0,4.3,1.9,4.3,4.3v6.3h-20.3v-0.9c0-5.4,4.3-9.7,9.7-9.7L174.5,90.5 M174.5,88.8h-6.3
			c-6.3,0-11.4,5.1-11.4,11.4v0.9v1.7h1.7h20.4h1.7v-1.7v-6.3C180.5,91.5,177.8,88.8,174.5,88.8L174.5,88.8z"/>
	</g>
	<g class="st5">
		<path class="st6" d="M178.2,91.8c-0.1,0-0.2,0-0.3,0h-11.4c-4.4,0-8,3.2-8,7.1v1.4h-0.1v-2.7c0-3.9,3.2-7.1,7.1-7.1h10.1
			C176.7,90.5,177.6,91,178.2,91.8z"/>
	</g>
	<g>
		<path class="st4" d="M125.5,109.3c0.1-0.3,2.7-7.1,8.8-7.5l16.3-1.3c0.1,0,0.3,0,0.4,0c5.2,0,5.6,8.4,5.6,8.8v0.9l-31.6,0.3
			L125.5,109.3z"/>
		<path class="st3" d="M151,101.3c4.5,0,4.7,7.9,4.7,7.9l-29.5,0.4c0,0,2.4-6.6,8.1-7l16.3-1.3C150.8,101.3,150.9,101.3,151,101.3
			 M151,99.6L151,99.6c-0.2,0-0.3,0-0.5,0l-16.3,1.3c-6.6,0.5-9.4,7.8-9.5,8.1l-0.9,2.3h2.5l29.5-0.3h1.7l-0.1-1.7
			C157.3,105.7,155.8,99.6,151,99.6L151,99.6z"/>
	</g>
	<g class="st7">
		<path class="st3" d="M154.7,104.5c0.4,1,0.6,2,0.8,2.8c0.2,1.1,0.2,1.9,0.2,1.9l-6.2,0.1l-11.9,0.2l-11.2-0.1
			c0.3-0.6,1-2.2,2.3-3.6L154.7,104.5"/>
	</g>
	<g>
		<path class="st4" d="M146.7,110.1v-6.3c0-0.1,0-1.5,1.2-2.8c1.1-1.1,2.8-1.7,5.1-1.7h28.2c1.5,0,2.9,0.6,3.8,1.8
			c1,1.2,1,2.9,0.1,4.1l-1.5,2l-9.3,3.3L146.7,110.1z"/>
		<path class="st3" d="M181.2,100.3c1.2,0,2.4,0.5,3.2,1.5c0.7,0.9,0.8,2.1,0.1,3l-1.4,1.8l-8.9,3l-26.6-0.3v-5.4
			c0,0-0.1-3.6,5.4-3.6H181.2 M181.2,98.6H153c-2.5,0-4.4,0.7-5.7,2c-1.4,1.5-1.5,3.2-1.4,3.4v5.4v1.7h1.7l26.5,0.2h0.3l0.3-0.1
			l8.9-3l0.5-0.2l0.3-0.4l1.4-1.8c1.2-1.6,1.1-3.7-0.1-5.2C184.5,99.3,182.9,98.6,181.2,98.6L181.2,98.6z"/>
	</g>
	<g class="st7">
		<path class="st3" d="M181.1,104.5h-7l-26.6-0.3v5.1l26.6,0.3l8.9-3l1.4-1.8c0.3-0.4,0.5-1,0.5-1.5c0-0.6-0.2-1.1-0.6-1.6
			C184.4,101.8,184.3,104.5,181.1,104.5z"/>
	</g>
	<g>
		<path class="st6" d="M175.2,109.8c-0.2,0-0.3,0-0.5-0.1l-8.3-5.5c-0.3-0.2-0.4-0.6-0.3-1c0.1-0.4,0.4-0.6,0.8-0.6h10.6
			c0.2,0,0.3,0,0.5,0.1l8.3,5.5c0.3,0.2,0.4,0.6,0.3,1c-0.1,0.4-0.4,0.6-0.8,0.6H175.2z"/>
		<g>
			<path class="st3" d="M177.6,103.5l8.3,5.5h-10.7l-8.2-5.5H177.6 M177.6,101.8H167c-0.7,0-1.4,0.5-1.6,1.2
				c-0.2,0.7,0.1,1.5,0.7,1.9l8.3,5.5c0.3,0.2,0.6,0.3,0.9,0.3h10.6c0.7,0,1.4-0.5,1.6-1.2c0.2-0.7-0.1-1.5-0.7-1.9l-8.3-5.5
				C178.2,101.9,177.9,101.8,177.6,101.8L177.6,101.8z"/>
		</g>
	</g>
	<g>
		<g>
			<path class="st2" d="M176.1,116.2c-2.2,0-4-1.8-4-4c0-2.2,1.8-4,4-4h22.3c2.2,0,4,1.8,4,4c0,2.2-1.8,4-4,4H176.1z"/>
			<path class="st3" d="M198.5,109c1.8,0,3.2,1.4,3.2,3.2c0,1.8-1.4,3.2-3.2,3.2h-22.4c-1.8,0-3.2-1.4-3.2-3.2
				c0-1.8,1.4-3.2,3.2-3.2H198.5 M198.5,107.3h-22.4c-2.7,0-4.9,2.2-4.9,4.9c0,2.7,2.2,4.9,4.9,4.9h22.3c2.7,0,4.9-2.2,4.9-4.9
				C203.3,109.5,201.1,107.3,198.5,107.3L198.5,107.3z"/>
		</g>
	</g>
	<g class="st5">
		<path class="st8" d="M194.9,109c-0.3,0.4-0.6,0.8-0.8,1.2h-18.7c-0.6,0-1.3,0-1.8,0.1c0.5-0.8,1.5-1.3,2.5-1.3H194.9z"/>
	</g>
	<g class="st9">
		<path d="M201.6,112.2c0,1.8-1.4,3.2-3.2,3.2h-22.3c-1.5,0-2.8-1.1-3.1-2.5h25c1.5,0,2.8-0.8,3.3-1.9
			C201.5,111.3,201.6,111.7,201.6,112.2z"/>
	</g>
	<g>
		<g>
			<path class="st3" d="M198.6,117.9c-3.2,0-5.7-2.6-5.7-5.7c0-0.8,0.2-1.5,0.5-2.3c0.9-2.1,3-3.5,5.3-3.5h22.4
				c3.2,0,5.7,2.6,5.7,5.7c0,0.1,0,0.2,0,0.3s0,0.2,0,0.3c0,0,0,0.1,0,0.2c0,0.1,0,0.2,0,0.3s0,0.2-0.1,0.3
				c-0.6,2.6-2.9,4.4-5.6,4.4H198.6z"/>
			<path class="st3" d="M221,107.3c2.7,0,4.9,2.2,4.9,4.9c0,0.1,0,0.2,0,0.3s0,0.1,0,0.2s0,0.1,0,0.2c0,0.1,0,0.1,0,0.2
				s0,0.2-0.1,0.3c-0.5,2.1-2.4,3.7-4.7,3.7h-22.5c-2.7,0-4.9-2.2-4.9-4.9c0-0.7,0.1-1.3,0.4-1.9c0.8-1.7,2.5-2.9,4.5-2.9L221,107.3
				 M221,105.6h-22.4c-2.6,0-5,1.6-6,4c-0.4,0.8-0.5,1.7-0.5,2.6c0,3.6,2.9,6.6,6.6,6.6h22.4c3,0,5.7-2.1,6.4-5
				c0-0.2,0.1-0.3,0.1-0.4s0-0.2,0-0.3s0-0.2,0-0.2c0-0.1,0-0.2,0-0.3l0,0l0,0c0-0.1,0-0.2,0-0.4C227.6,108.5,224.6,105.6,221,105.6
				L221,105.6z"/>
		</g>
	</g>
	<g class="st5">
		<path class="st6" d="M225.9,112.2c0,0.1,0,0.2,0,0.3s0,0.1,0,0.2s0,0.1,0,0.2c0,0.1,0,0.1,0,0.2s0,0.2-0.1,0.3
			c-0.5-2.1-2.4-3.7-4.7-3.7h-24.6c-0.9,0-1.7,0.2-2.4,0.6c0.8-1.7,2.5-2.9,4.5-2.9H221C223.7,107.3,225.9,109.5,225.9,112.2z"/>
	</g>
	<g>
		<g>
			<path class="st6" d="M202.6,128.4c-0.5,0-1-0.2-1.3-0.5c-0.5-0.5-0.4-1-0.3-1.2c0.5-1.3,3.5-1.9,10.4-2.8c2.5-0.3,5-0.7,6.9-1.1
				c1.2-0.3,2.3-1,3.1-2l3.1-5.9l-3.8-5.4c-0.7-1-0.4-2.3,0.5-2.9c0.5-0.3,1.1-0.5,1.7-0.5c1,0,1.9,0.5,2.4,1.3l4.3,6.1
				c0.6,0.9,0.6,2.1-0.1,3l-6.4,8.5c-0.4,0.5-0.9,0.9-1.6,1c-3.7,0.7-15.3,2.2-18.9,2.5C202.7,128.3,202.7,128.4,202.6,128.4z"/>
			<path class="st3" d="M223,106.6c0.7,0,1.5,0.4,1.9,1l4.3,6.1c0.5,0.7,0.5,1.6,0,2.2l-6.4,8.5c-0.3,0.4-0.7,0.6-1.2,0.7
				c-3.8,0.7-15.2,2.2-18.9,2.5h-0.1c-0.3,0-0.6-0.1-0.8-0.3c-1.9-2.1,10.6-2.8,16.7-4.1c1.4-0.3,2.6-1.1,3.4-2.2l3.3-6.3l-4-5.7
				c-0.5-0.7-0.3-1.6,0.4-2.1C222,106.7,222.5,106.6,223,106.6 M223,105.3L223,105.3c-0.7,0-1.5,0.2-2.1,0.6c-0.6,0.4-1,1-1.1,1.8
				c-0.1,0.7,0,1.5,0.4,2.1l3.5,5.1l-2.9,5.5c-0.7,0.8-1.6,1.4-2.6,1.7c-1.8,0.4-4.4,0.8-6.8,1.1c-7.6,1.1-10.3,1.6-10.9,3.3
				c-0.2,0.6-0.1,1.3,0.4,1.8c0.4,0.5,1.1,0.7,1.7,0.7c0.1,0,0.1,0,0.2,0c3.8-0.3,15.2-1.8,19-2.5c0.8-0.1,1.5-0.6,2-1.2l6.4-8.5
				c0.8-1.1,0.9-2.6,0.1-3.7L226,107C225.3,105.9,224.1,105.3,223,105.3L223,105.3z"/>
		</g>
	</g>
	<path class="st10" d="M213.7,91.7l3.7,0.7c0.6,0.1,1.2,0,1.6-0.4l12.6-11.5c0.7-0.7,1.1-1.6,1-2.6l0,0c-0.1-1.3-1.3-2.3-2.6-2.2
		l-2,0.2c-1,0.1-2,0.6-2.7,1.3l-12.2,12.9C212.6,90.6,212.9,91.6,213.7,91.7z"/>
	<path class="st11" d="M231.5,80.6L218.9,92c-0.4,0.4-1,0.6-1.6,0.4l-3.7-0.7c-0.8-0.2-1.1-1.1-0.5-1.7l0.1-0.1l2,0.4
		c0.6,0.1,1.2-0.1,1.6-0.4l12.6-11.4c0.7-0.7,1.1-1.6,1-2.6l0,0c1.1,0.1,2,1,2.1,2.1C232.6,78.9,232.2,79.9,231.5,80.6z"/>
	<g>
		<circle class="st2" cx="223.3" cy="108.3" r="1.3"/>
		<path class="st3" d="M223.3,107.5c0.5,0,0.8,0.4,0.8,0.8c0,0.4-0.4,0.8-0.8,0.8c-0.5,0-0.8-0.4-0.8-0.8
			C222.5,107.9,222.9,107.5,223.3,107.5 M223.3,106.6c-0.9,0-1.7,0.8-1.7,1.7s0.8,1.7,1.7,1.7c0.9,0,1.7-0.8,1.7-1.7
			S224.3,106.6,223.3,106.6L223.3,106.6z"/>
	</g>
</g>
</svg>
