<?xml version="1.0" encoding="utf-8"?>
<!-- Generator: Adobe Illustrator 26.0.2, SVG Export Plug-In . SVG Version: 6.00 Build 0)  -->
<svg version="1.1" id="Layer_1" xmlns="http://www.w3.org/2000/svg" xmlns:xlink="http://www.w3.org/1999/xlink" x="0px" y="0px"
	 width="360px" height="200px" viewBox="0 0 360 200" style="enable-background:new 0 0 360 200;" xml:space="preserve">
<style type="text/css">
	.st0{fill:#666666;}
	.st1{fill:#142C4D;}
	.st2{opacity:0.5;}
	.st3{fill:#5656C1;}
	.st4{fill:#FFFFFF;}
</style>
<g id="streetSaddle_00000111887634898553672040000018104788031862160021_">
	<g>
		<g>
			<g>
				<path class="st0" d="M171,109.5c-1.7,0-3.3-0.7-4.5-1.9l-4.4-4.6l2.5-2.4l4.4,4.5c0.5,0.5,1.3,0.8,2,0.8h11c0.5,0,1-0.1,1.4-0.4
					l12.8-7.7l1.8,3l-12.8,7.7c-1,0.6-2.1,0.9-3.3,0.9H171V109.5z"/>
				<path class="st1" d="M196,98.9l1,1.7l-12.1,7.3c-0.9,0.5-1.9,0.8-2.9,0.8h-11c-1.5,0-2.9-0.6-4-1.7l-3.9-4l1.4-1.4l3.9,4
					c0.7,0.7,1.6,1.1,2.5,1.1h11c0.6,0,1.3-0.2,1.8-0.5L196,98.9 M196.5,96.8l-1.3,0.8l-12.1,7.4c-0.3,0.2-0.7,0.3-1.1,0.3h-11
					c-0.5,0-1.1-0.2-1.5-0.6l-3.9-4l-1-1.1l-1.1,1l-1.4,1.4l-1.1,1l1,1.1l3.9,4c1.3,1.4,3.2,2.1,5.1,2.1h11c1.3,0,2.5-0.4,3.6-1
					l12.1-7.3l1.3-0.8l-0.8-1.3l-1-1.7L196.5,96.8L196.5,96.8z"/>
			</g>
			<g class="st2">
				<path d="M171.5,106.8l-3.2,1.3c-0.5-0.3-0.9-0.6-1.3-1l-3.9-4l1.4-1.4l3.9,4c0.7,0.7,1.6,1.1,2.5,1.1H171.5z"/>
			</g>
			<g class="st2">
				<polygon points="197,100.6 190.5,104.5 187,104.3 196,98.9 				"/>
			</g>
		</g>
		<g>
			<path class="st3" d="M166.4,104.7c-3,0-5.5-1.2-7.3-3.6s-3.8-3.5-5.4-4.4c-0.4-0.3-0.9-0.5-1.2-0.7c-0.8-0.5-1.2-1.5-0.9-2.5
				c0.3-1,1.1-1.6,2.1-1.6c0.1,0,0.2,0,0.3,0c5.3,0.6,18.7,2.2,25.1,2.2c0.6,0,1.2,0,1.8,0h4.5c17.7,0,23.4,0.9,23.4,3.7
				c0,1.5-1.4,2.3-14,2.3c-1.7,0-3.2,0-4.6,0c-1,0-2,0-2.7,0c-5.1,0-12,1.9-14.3,2.9C172,103.6,169.3,104.7,166.4,104.7z"/>
			<path class="st1" d="M153.6,92.9L153.6,92.9c5.6,0.6,19,2.2,25.5,2.3c0.6,0,1.2,0,1.9,0c1.3,0,2.9,0,4.5,0
				c9.5,0,22.4,0.2,22.4,2.7c0,1.1-6.9,1.2-13,1.2c-2.9,0-5.6,0-7.3,0c-5.2,0-12.2,2-14.7,3c-1.3,0.6-3.9,1.6-6.5,1.6
				c-2.3,0-4.6-0.7-6.5-3.2c-2.5-3.3-5.2-4.3-6.9-5.4C152,94.4,152.5,92.9,153.6,92.9 M153.6,90.8L153.6,90.8
				c-1.4,0-2.6,0.9-3.1,2.3c-0.4,1.4,0.1,2.9,1.3,3.7c0.4,0.3,0.8,0.5,1.3,0.8c1.6,0.9,3.3,1.9,5.1,4.2c2,2.6,4.8,4,8.1,4
				c3.1,0,6.1-1.2,7.3-1.8c2.4-1,9.2-2.9,13.9-2.9c0.7,0,1.6,0,2.7,0c1.4,0,3,0,4.6,0c3.9,0,6.8-0.1,8.9-0.2
				c2.7-0.2,6.1-0.4,6.1-3.1c0-3.7-5.2-4.7-24.4-4.7h-2.5h-2c-0.7,0-1.3,0-1.8,0c-6.4,0-19.7-1.6-25.1-2.3
				C153.9,90.8,153.7,90.8,153.6,90.8L153.6,90.8z"/>
		</g>
	</g>
	<path class="st4" d="M207.9,97.8L207.9,97.8l-24-0.5c-7,0-11.4,1.5-16.2,1.5c-4.8,0-9.8-0.4-11.3-1.6c-1.3-1-2.5-1.5-3.4-2.1
		c-1-0.7-0.4-2.4,0.7-2.2c5.5,0.6,18.9,2.2,25.4,2.3C187.4,95.2,207.9,94.7,207.9,97.8z"/>
</g>
</svg>
